ISO-10303-21;
HEADER;
FILE_DESCRIPTION(('KiCad electronic assembly'),'2;1');
FILE_NAME('RAIN.step','2025-09-18T12:42:22',('Pcbnew'),('Kicad'),
  'Open CASCADE STEP processor 7.5','KiCad to STEP converter','Unknown'
  );
FILE_SCHEMA(('AUTOMOTIVE_DESIGN { 1 0 10303 214 1 1 1 1 }'));
ENDSEC;
DATA;
#1 = APPLICATION_PROTOCOL_DEFINITION('international standard',
  'automotive_design',2000,#2);
#2 = APPLICATION_CONTEXT(
  'core data for automotive mechanical design processes');
#3 = SHAPE_DEFINITION_REPRESENTATION(#4,#10);
#4 = PRODUCT_DEFINITION_SHAPE('','',#5);
#5 = PRODUCT_DEFINITION('design','',#6,#9);
#6 = PRODUCT_DEFINITION_FORMATION('','',#7);
#7 = PRODUCT('RAIN 1','RAIN 1','',(#8));
#8 = PRODUCT_CONTEXT('',#2,'mechanical');
#9 = PRODUCT_DEFINITION_CONTEXT('part definition',#2,'design');
#10 = SHAPE_REPRESENTATION('',(#11,#15,#19),#23);
#11 = AXIS2_PLACEMENT_3D('',#12,#13,#14);
#12 = CARTESIAN_POINT('',(0.,0.,0.));
#13 = DIRECTION('',(0.,0.,1.));
#14 = DIRECTION('',(1.,0.,-0.));
#15 = AXIS2_PLACEMENT_3D('',#16,#17,#18);
#16 = CARTESIAN_POINT('',(101.6,-55.3,1.595));
#17 = DIRECTION('',(0.,0.,1.));
#18 = DIRECTION('',(1.,0.,0.));
#19 = AXIS2_PLACEMENT_3D('',#20,#21,#22);
#20 = CARTESIAN_POINT('',(0.,0.,0.));
#21 = DIRECTION('',(0.,0.,1.));
#22 = DIRECTION('',(1.,0.,-0.));
#23 = ( GEOMETRIC_REPRESENTATION_CONTEXT(3) 
GLOBAL_UNCERTAINTY_ASSIGNED_CONTEXT((#27)) GLOBAL_UNIT_ASSIGNED_CONTEXT(
(#24,#25,#26)) REPRESENTATION_CONTEXT('Context #1',
  '3D Context with UNIT and UNCERTAINTY') );
#24 = ( LENGTH_UNIT() NAMED_UNIT(*) SI_UNIT(.MILLI.,.METRE.) );
#25 = ( NAMED_UNIT(*) PLANE_ANGLE_UNIT() SI_UNIT($,.RADIAN.) );
#26 = ( NAMED_UNIT(*) SI_UNIT($,.STERADIAN.) SOLID_ANGLE_UNIT() );
#27 = UNCERTAINTY_MEASURE_WITH_UNIT(LENGTH_MEASURE(1.E-07),#24,
  'distance_accuracy_value','confusion accuracy');
#28 = PRODUCT_RELATED_PRODUCT_CATEGORY('part',$,(#7));
#29 = ADVANCED_BREP_SHAPE_REPRESENTATION('',(#11,#30),#1462);
#30 = MANIFOLD_SOLID_BREP('',#31);
#31 = CLOSED_SHELL('',(#32,#72,#103,#134,#299,#464,#481,#498,#515,#532,
    #549,#566,#583,#600,#617,#634,#646,#677,#701,#725,#742,#773,#797,
    #821,#838,#869,#893,#917,#934,#965,#989,#1013,#1030,#1061,#1085,
    #1109,#1126,#1157,#1181,#1205,#1222,#1253,#1277,#1301,#1318,#1349,
    #1373,#1397,#1414,#1426,#1438,#1450));
#32 = ADVANCED_FACE('',(#33),#67,.F.);
#33 = FACE_BOUND('',#34,.F.);
#34 = EDGE_LOOP('',(#35,#45,#53,#61));
#35 = ORIENTED_EDGE('',*,*,#36,.T.);
#36 = EDGE_CURVE('',#37,#39,#41,.T.);
#37 = VERTEX_POINT('',#38);
#38 = CARTESIAN_POINT('',(-0.535,0.5,0.));
#39 = VERTEX_POINT('',#40);
#40 = CARTESIAN_POINT('',(-0.535,0.5,1.));
#41 = LINE('',#42,#43);
#42 = CARTESIAN_POINT('',(-0.535,0.5,0.));
#43 = VECTOR('',#44,1.);
#44 = DIRECTION('',(0.,0.,1.));
#45 = ORIENTED_EDGE('',*,*,#46,.T.);
#46 = EDGE_CURVE('',#39,#47,#49,.T.);
#47 = VERTEX_POINT('',#48);
#48 = CARTESIAN_POINT('',(-0.635,0.4,1.));
#49 = LINE('',#50,#51);
#50 = CARTESIAN_POINT('',(-0.535,0.5,1.));
#51 = VECTOR('',#52,1.);
#52 = DIRECTION('',(-0.707106781187,-0.707106781187,0.));
#53 = ORIENTED_EDGE('',*,*,#54,.F.);
#54 = EDGE_CURVE('',#55,#47,#57,.T.);
#55 = VERTEX_POINT('',#56);
#56 = CARTESIAN_POINT('',(-0.635,0.4,0.));
#57 = LINE('',#58,#59);
#58 = CARTESIAN_POINT('',(-0.635,0.4,0.));
#59 = VECTOR('',#60,1.);
#60 = DIRECTION('',(0.,0.,1.));
#61 = ORIENTED_EDGE('',*,*,#62,.F.);
#62 = EDGE_CURVE('',#37,#55,#63,.T.);
#63 = LINE('',#64,#65);
#64 = CARTESIAN_POINT('',(-0.535,0.5,0.));
#65 = VECTOR('',#66,1.);
#66 = DIRECTION('',(-0.707106781187,-0.707106781187,0.));
#67 = PLANE('',#68);
#68 = AXIS2_PLACEMENT_3D('',#69,#70,#71);
#69 = CARTESIAN_POINT('',(-0.535,0.5,0.));
#70 = DIRECTION('',(0.707106781187,-0.707106781187,0.));
#71 = DIRECTION('',(-0.707106781187,-0.707106781187,0.));
#72 = ADVANCED_FACE('',(#73),#98,.F.);
#73 = FACE_BOUND('',#74,.F.);
#74 = EDGE_LOOP('',(#75,#85,#91,#92));
#75 = ORIENTED_EDGE('',*,*,#76,.T.);
#76 = EDGE_CURVE('',#77,#79,#81,.T.);
#77 = VERTEX_POINT('',#78);
#78 = CARTESIAN_POINT('',(0.535,0.5,0.));
#79 = VERTEX_POINT('',#80);
#80 = CARTESIAN_POINT('',(0.535,0.5,1.));
#81 = LINE('',#82,#83);
#82 = CARTESIAN_POINT('',(0.535,0.5,0.));
#83 = VECTOR('',#84,1.);
#84 = DIRECTION('',(0.,0.,1.));
#85 = ORIENTED_EDGE('',*,*,#86,.T.);
#86 = EDGE_CURVE('',#79,#39,#87,.T.);
#87 = LINE('',#88,#89);
#88 = CARTESIAN_POINT('',(0.535,0.5,1.));
#89 = VECTOR('',#90,1.);
#90 = DIRECTION('',(-1.,-1.037591611799E-16,0.));
#91 = ORIENTED_EDGE('',*,*,#36,.F.);
#92 = ORIENTED_EDGE('',*,*,#93,.F.);
#93 = EDGE_CURVE('',#77,#37,#94,.T.);
#94 = LINE('',#95,#96);
#95 = CARTESIAN_POINT('',(0.535,0.5,0.));
#96 = VECTOR('',#97,1.);
#97 = DIRECTION('',(-1.,-1.037591611799E-16,0.));
#98 = PLANE('',#99);
#99 = AXIS2_PLACEMENT_3D('',#100,#101,#102);
#100 = CARTESIAN_POINT('',(0.535,0.5,0.));
#101 = DIRECTION('',(1.037591611799E-16,-1.,0.));
#102 = DIRECTION('',(-1.,-1.037591611799E-16,0.));
#103 = ADVANCED_FACE('',(#104),#129,.F.);
#104 = FACE_BOUND('',#105,.F.);
#105 = EDGE_LOOP('',(#106,#107,#115,#123));
#106 = ORIENTED_EDGE('',*,*,#54,.T.);
#107 = ORIENTED_EDGE('',*,*,#108,.T.);
#108 = EDGE_CURVE('',#47,#109,#111,.T.);
#109 = VERTEX_POINT('',#110);
#110 = CARTESIAN_POINT('',(-0.635,-0.4,1.));
#111 = LINE('',#112,#113);
#112 = CARTESIAN_POINT('',(-0.635,0.4,1.));
#113 = VECTOR('',#114,1.);
#114 = DIRECTION('',(0.,-1.,0.));
#115 = ORIENTED_EDGE('',*,*,#116,.F.);
#116 = EDGE_CURVE('',#117,#109,#119,.T.);
#117 = VERTEX_POINT('',#118);
#118 = CARTESIAN_POINT('',(-0.635,-0.4,0.));
#119 = LINE('',#120,#121);
#120 = CARTESIAN_POINT('',(-0.635,-0.4,0.));
#121 = VECTOR('',#122,1.);
#122 = DIRECTION('',(0.,0.,1.));
#123 = ORIENTED_EDGE('',*,*,#124,.F.);
#124 = EDGE_CURVE('',#55,#117,#125,.T.);
#125 = LINE('',#126,#127);
#126 = CARTESIAN_POINT('',(-0.635,0.4,0.));
#127 = VECTOR('',#128,1.);
#128 = DIRECTION('',(0.,-1.,0.));
#129 = PLANE('',#130);
#130 = AXIS2_PLACEMENT_3D('',#131,#132,#133);
#131 = CARTESIAN_POINT('',(-0.635,0.4,0.));
#132 = DIRECTION('',(1.,0.,0.));
#133 = DIRECTION('',(0.,-1.,0.));
#134 = ADVANCED_FACE('',(#135,#226,#260),#294,.F.);
#135 = FACE_BOUND('',#136,.F.);
#136 = EDGE_LOOP('',(#137,#138,#139,#147,#155,#163,#171,#179,#187,#195,
    #203,#211,#219,#225));
#137 = ORIENTED_EDGE('',*,*,#62,.T.);
#138 = ORIENTED_EDGE('',*,*,#124,.T.);
#139 = ORIENTED_EDGE('',*,*,#140,.T.);
#140 = EDGE_CURVE('',#117,#141,#143,.T.);
#141 = VERTEX_POINT('',#142);
#142 = CARTESIAN_POINT('',(-0.535,-0.5,0.));
#143 = LINE('',#144,#145);
#144 = CARTESIAN_POINT('',(-0.635,-0.4,0.));
#145 = VECTOR('',#146,1.);
#146 = DIRECTION('',(0.707106781187,-0.707106781187,0.));
#147 = ORIENTED_EDGE('',*,*,#148,.T.);
#148 = EDGE_CURVE('',#141,#149,#151,.T.);
#149 = VERTEX_POINT('',#150);
#150 = CARTESIAN_POINT('',(-0.635,-0.6,0.));
#151 = LINE('',#152,#153);
#152 = CARTESIAN_POINT('',(-0.535,-0.5,0.));
#153 = VECTOR('',#154,1.);
#154 = DIRECTION('',(-0.707106781187,-0.707106781187,0.));
#155 = ORIENTED_EDGE('',*,*,#156,.T.);
#156 = EDGE_CURVE('',#149,#157,#159,.T.);
#157 = VERTEX_POINT('',#158);
#158 = CARTESIAN_POINT('',(-0.635,-1.4,0.));
#159 = LINE('',#160,#161);
#160 = CARTESIAN_POINT('',(-0.635,-0.6,0.));
#161 = VECTOR('',#162,1.);
#162 = DIRECTION('',(0.,-1.,0.));
#163 = ORIENTED_EDGE('',*,*,#164,.T.);
#164 = EDGE_CURVE('',#157,#165,#167,.T.);
#165 = VERTEX_POINT('',#166);
#166 = CARTESIAN_POINT('',(-0.535,-1.5,0.));
#167 = LINE('',#168,#169);
#168 = CARTESIAN_POINT('',(-0.635,-1.4,0.));
#169 = VECTOR('',#170,1.);
#170 = DIRECTION('',(0.707106781187,-0.707106781187,0.));
#171 = ORIENTED_EDGE('',*,*,#172,.T.);
#172 = EDGE_CURVE('',#165,#173,#175,.T.);
#173 = VERTEX_POINT('',#174);
#174 = CARTESIAN_POINT('',(0.535,-1.5,0.));
#175 = LINE('',#176,#177);
#176 = CARTESIAN_POINT('',(-0.535,-1.5,0.));
#177 = VECTOR('',#178,1.);
#178 = DIRECTION('',(1.,0.,0.));
#179 = ORIENTED_EDGE('',*,*,#180,.T.);
#180 = EDGE_CURVE('',#173,#181,#183,.T.);
#181 = VERTEX_POINT('',#182);
#182 = CARTESIAN_POINT('',(0.635,-1.4,0.));
#183 = LINE('',#184,#185);
#184 = CARTESIAN_POINT('',(0.535,-1.5,0.));
#185 = VECTOR('',#186,1.);
#186 = DIRECTION('',(0.707106781187,0.707106781187,0.));
#187 = ORIENTED_EDGE('',*,*,#188,.T.);
#188 = EDGE_CURVE('',#181,#189,#191,.T.);
#189 = VERTEX_POINT('',#190);
#190 = CARTESIAN_POINT('',(0.635,-0.6,0.));
#191 = LINE('',#192,#193);
#192 = CARTESIAN_POINT('',(0.635,-1.4,0.));
#193 = VECTOR('',#194,1.);
#194 = DIRECTION('',(0.,1.,0.));
#195 = ORIENTED_EDGE('',*,*,#196,.T.);
#196 = EDGE_CURVE('',#189,#197,#199,.T.);
#197 = VERTEX_POINT('',#198);
#198 = CARTESIAN_POINT('',(0.535,-0.5,0.));
#199 = LINE('',#200,#201);
#200 = CARTESIAN_POINT('',(0.635,-0.6,0.));
#201 = VECTOR('',#202,1.);
#202 = DIRECTION('',(-0.707106781187,0.707106781187,0.));
#203 = ORIENTED_EDGE('',*,*,#204,.T.);
#204 = EDGE_CURVE('',#197,#205,#207,.T.);
#205 = VERTEX_POINT('',#206);
#206 = CARTESIAN_POINT('',(0.635,-0.4,0.));
#207 = LINE('',#208,#209);
#208 = CARTESIAN_POINT('',(0.535,-0.5,0.));
#209 = VECTOR('',#210,1.);
#210 = DIRECTION('',(0.707106781187,0.707106781187,0.));
#211 = ORIENTED_EDGE('',*,*,#212,.T.);
#212 = EDGE_CURVE('',#205,#213,#215,.T.);
#213 = VERTEX_POINT('',#214);
#214 = CARTESIAN_POINT('',(0.635,0.4,0.));
#215 = LINE('',#216,#217);
#216 = CARTESIAN_POINT('',(0.635,-0.4,0.));
#217 = VECTOR('',#218,1.);
#218 = DIRECTION('',(0.,1.,0.));
#219 = ORIENTED_EDGE('',*,*,#220,.T.);
#220 = EDGE_CURVE('',#213,#77,#221,.T.);
#221 = LINE('',#222,#223);
#222 = CARTESIAN_POINT('',(0.635,0.4,0.));
#223 = VECTOR('',#224,1.);
#224 = DIRECTION('',(-0.707106781187,0.707106781187,0.));
#225 = ORIENTED_EDGE('',*,*,#93,.T.);
#226 = FACE_BOUND('',#227,.F.);
#227 = EDGE_LOOP('',(#228,#238,#246,#254));
#228 = ORIENTED_EDGE('',*,*,#229,.F.);
#229 = EDGE_CURVE('',#230,#232,#234,.T.);
#230 = VERTEX_POINT('',#231);
#231 = CARTESIAN_POINT('',(0.15,-0.15,0.));
#232 = VERTEX_POINT('',#233);
#233 = CARTESIAN_POINT('',(0.15,0.15,0.));
#234 = LINE('',#235,#236);
#235 = CARTESIAN_POINT('',(0.15,-0.325,0.));
#236 = VECTOR('',#237,1.);
#237 = DIRECTION('',(0.,1.,0.));
#238 = ORIENTED_EDGE('',*,*,#239,.T.);
#239 = EDGE_CURVE('',#230,#240,#242,.T.);
#240 = VERTEX_POINT('',#241);
#241 = CARTESIAN_POINT('',(-0.15,-0.15,0.));
#242 = LINE('',#243,#244);
#243 = CARTESIAN_POINT('',(-7.5E-02,-0.15,0.));
#244 = VECTOR('',#245,1.);
#245 = DIRECTION('',(-1.,0.,0.));
#246 = ORIENTED_EDGE('',*,*,#247,.T.);
#247 = EDGE_CURVE('',#240,#248,#250,.T.);
#248 = VERTEX_POINT('',#249);
#249 = CARTESIAN_POINT('',(-0.15,0.15,0.));
#250 = LINE('',#251,#252);
#251 = CARTESIAN_POINT('',(-0.15,-0.325,0.));
#252 = VECTOR('',#253,1.);
#253 = DIRECTION('',(0.,1.,0.));
#254 = ORIENTED_EDGE('',*,*,#255,.F.);
#255 = EDGE_CURVE('',#232,#248,#256,.T.);
#256 = LINE('',#257,#258);
#257 = CARTESIAN_POINT('',(-7.5E-02,0.15,0.));
#258 = VECTOR('',#259,1.);
#259 = DIRECTION('',(-1.,0.,0.));
#260 = FACE_BOUND('',#261,.F.);
#261 = EDGE_LOOP('',(#262,#272,#280,#288));
#262 = ORIENTED_EDGE('',*,*,#263,.T.);
#263 = EDGE_CURVE('',#264,#266,#268,.T.);
#264 = VERTEX_POINT('',#265);
#265 = CARTESIAN_POINT('',(0.15,-1.15,0.));
#266 = VERTEX_POINT('',#267);
#267 = CARTESIAN_POINT('',(-0.15,-1.15,0.));
#268 = LINE('',#269,#270);
#269 = CARTESIAN_POINT('',(-7.5E-02,-1.15,0.));
#270 = VECTOR('',#271,1.);
#271 = DIRECTION('',(-1.,0.,0.));
#272 = ORIENTED_EDGE('',*,*,#273,.T.);
#273 = EDGE_CURVE('',#266,#274,#276,.T.);
#274 = VERTEX_POINT('',#275);
#275 = CARTESIAN_POINT('',(-0.15,-0.85,0.));
#276 = LINE('',#277,#278);
#277 = CARTESIAN_POINT('',(-0.15,-0.825,0.));
#278 = VECTOR('',#279,1.);
#279 = DIRECTION('',(0.,1.,0.));
#280 = ORIENTED_EDGE('',*,*,#281,.F.);
#281 = EDGE_CURVE('',#282,#274,#284,.T.);
#282 = VERTEX_POINT('',#283);
#283 = CARTESIAN_POINT('',(0.15,-0.85,0.));
#284 = LINE('',#285,#286);
#285 = CARTESIAN_POINT('',(-7.5E-02,-0.85,0.));
#286 = VECTOR('',#287,1.);
#287 = DIRECTION('',(-1.,0.,0.));
#288 = ORIENTED_EDGE('',*,*,#289,.F.);
#289 = EDGE_CURVE('',#264,#282,#290,.T.);
#290 = LINE('',#291,#292);
#291 = CARTESIAN_POINT('',(0.15,-0.825,0.));
#292 = VECTOR('',#293,1.);
#293 = DIRECTION('',(0.,1.,0.));
#294 = PLANE('',#295);
#295 = AXIS2_PLACEMENT_3D('',#296,#297,#298);
#296 = CARTESIAN_POINT('',(-8.577958599317E-18,-0.5,0.));
#297 = DIRECTION('',(0.,0.,1.));
#298 = DIRECTION('',(1.,0.,-0.));
#299 = ADVANCED_FACE('',(#300,#391,#425),#459,.T.);
#300 = FACE_BOUND('',#301,.T.);
#301 = EDGE_LOOP('',(#302,#303,#304,#312,#320,#328,#336,#344,#352,#360,
    #368,#376,#384,#390));
#302 = ORIENTED_EDGE('',*,*,#46,.T.);
#303 = ORIENTED_EDGE('',*,*,#108,.T.);
#304 = ORIENTED_EDGE('',*,*,#305,.T.);
#305 = EDGE_CURVE('',#109,#306,#308,.T.);
#306 = VERTEX_POINT('',#307);
#307 = CARTESIAN_POINT('',(-0.535,-0.5,1.));
#308 = LINE('',#309,#310);
#309 = CARTESIAN_POINT('',(-0.635,-0.4,1.));
#310 = VECTOR('',#311,1.);
#311 = DIRECTION('',(0.707106781187,-0.707106781187,0.));
#312 = ORIENTED_EDGE('',*,*,#313,.T.);
#313 = EDGE_CURVE('',#306,#314,#316,.T.);
#314 = VERTEX_POINT('',#315);
#315 = CARTESIAN_POINT('',(-0.635,-0.6,1.));
#316 = LINE('',#317,#318);
#317 = CARTESIAN_POINT('',(-0.535,-0.5,1.));
#318 = VECTOR('',#319,1.);
#319 = DIRECTION('',(-0.707106781187,-0.707106781187,0.));
#320 = ORIENTED_EDGE('',*,*,#321,.T.);
#321 = EDGE_CURVE('',#314,#322,#324,.T.);
#322 = VERTEX_POINT('',#323);
#323 = CARTESIAN_POINT('',(-0.635,-1.4,1.));
#324 = LINE('',#325,#326);
#325 = CARTESIAN_POINT('',(-0.635,-0.6,1.));
#326 = VECTOR('',#327,1.);
#327 = DIRECTION('',(0.,-1.,0.));
#328 = ORIENTED_EDGE('',*,*,#329,.T.);
#329 = EDGE_CURVE('',#322,#330,#332,.T.);
#330 = VERTEX_POINT('',#331);
#331 = CARTESIAN_POINT('',(-0.535,-1.5,1.));
#332 = LINE('',#333,#334);
#333 = CARTESIAN_POINT('',(-0.635,-1.4,1.));
#334 = VECTOR('',#335,1.);
#335 = DIRECTION('',(0.707106781187,-0.707106781187,0.));
#336 = ORIENTED_EDGE('',*,*,#337,.T.);
#337 = EDGE_CURVE('',#330,#338,#340,.T.);
#338 = VERTEX_POINT('',#339);
#339 = CARTESIAN_POINT('',(0.535,-1.5,1.));
#340 = LINE('',#341,#342);
#341 = CARTESIAN_POINT('',(-0.535,-1.5,1.));
#342 = VECTOR('',#343,1.);
#343 = DIRECTION('',(1.,0.,0.));
#344 = ORIENTED_EDGE('',*,*,#345,.T.);
#345 = EDGE_CURVE('',#338,#346,#348,.T.);
#346 = VERTEX_POINT('',#347);
#347 = CARTESIAN_POINT('',(0.635,-1.4,1.));
#348 = LINE('',#349,#350);
#349 = CARTESIAN_POINT('',(0.535,-1.5,1.));
#350 = VECTOR('',#351,1.);
#351 = DIRECTION('',(0.707106781187,0.707106781187,0.));
#352 = ORIENTED_EDGE('',*,*,#353,.T.);
#353 = EDGE_CURVE('',#346,#354,#356,.T.);
#354 = VERTEX_POINT('',#355);
#355 = CARTESIAN_POINT('',(0.635,-0.6,1.));
#356 = LINE('',#357,#358);
#357 = CARTESIAN_POINT('',(0.635,-1.4,1.));
#358 = VECTOR('',#359,1.);
#359 = DIRECTION('',(0.,1.,0.));
#360 = ORIENTED_EDGE('',*,*,#361,.T.);
#361 = EDGE_CURVE('',#354,#362,#364,.T.);
#362 = VERTEX_POINT('',#363);
#363 = CARTESIAN_POINT('',(0.535,-0.5,1.));
#364 = LINE('',#365,#366);
#365 = CARTESIAN_POINT('',(0.635,-0.6,1.));
#366 = VECTOR('',#367,1.);
#367 = DIRECTION('',(-0.707106781187,0.707106781187,0.));
#368 = ORIENTED_EDGE('',*,*,#369,.T.);
#369 = EDGE_CURVE('',#362,#370,#372,.T.);
#370 = VERTEX_POINT('',#371);
#371 = CARTESIAN_POINT('',(0.635,-0.4,1.));
#372 = LINE('',#373,#374);
#373 = CARTESIAN_POINT('',(0.535,-0.5,1.));
#374 = VECTOR('',#375,1.);
#375 = DIRECTION('',(0.707106781187,0.707106781187,0.));
#376 = ORIENTED_EDGE('',*,*,#377,.T.);
#377 = EDGE_CURVE('',#370,#378,#380,.T.);
#378 = VERTEX_POINT('',#379);
#379 = CARTESIAN_POINT('',(0.635,0.4,1.));
#380 = LINE('',#381,#382);
#381 = CARTESIAN_POINT('',(0.635,-0.4,1.));
#382 = VECTOR('',#383,1.);
#383 = DIRECTION('',(0.,1.,0.));
#384 = ORIENTED_EDGE('',*,*,#385,.T.);
#385 = EDGE_CURVE('',#378,#79,#386,.T.);
#386 = LINE('',#387,#388);
#387 = CARTESIAN_POINT('',(0.635,0.4,1.));
#388 = VECTOR('',#389,1.);
#389 = DIRECTION('',(-0.707106781187,0.707106781187,0.));
#390 = ORIENTED_EDGE('',*,*,#86,.T.);
#391 = FACE_BOUND('',#392,.T.);
#392 = EDGE_LOOP('',(#393,#403,#411,#419));
#393 = ORIENTED_EDGE('',*,*,#394,.F.);
#394 = EDGE_CURVE('',#395,#397,#399,.T.);
#395 = VERTEX_POINT('',#396);
#396 = CARTESIAN_POINT('',(0.15,-0.15,1.));
#397 = VERTEX_POINT('',#398);
#398 = CARTESIAN_POINT('',(0.15,0.15,1.));
#399 = LINE('',#400,#401);
#400 = CARTESIAN_POINT('',(0.15,-0.325,1.));
#401 = VECTOR('',#402,1.);
#402 = DIRECTION('',(0.,1.,0.));
#403 = ORIENTED_EDGE('',*,*,#404,.T.);
#404 = EDGE_CURVE('',#395,#405,#407,.T.);
#405 = VERTEX_POINT('',#406);
#406 = CARTESIAN_POINT('',(-0.15,-0.15,1.));
#407 = LINE('',#408,#409);
#408 = CARTESIAN_POINT('',(-7.5E-02,-0.15,1.));
#409 = VECTOR('',#410,1.);
#410 = DIRECTION('',(-1.,0.,0.));
#411 = ORIENTED_EDGE('',*,*,#412,.T.);
#412 = EDGE_CURVE('',#405,#413,#415,.T.);
#413 = VERTEX_POINT('',#414);
#414 = CARTESIAN_POINT('',(-0.15,0.15,1.));
#415 = LINE('',#416,#417);
#416 = CARTESIAN_POINT('',(-0.15,-0.325,1.));
#417 = VECTOR('',#418,1.);
#418 = DIRECTION('',(0.,1.,0.));
#419 = ORIENTED_EDGE('',*,*,#420,.F.);
#420 = EDGE_CURVE('',#397,#413,#421,.T.);
#421 = LINE('',#422,#423);
#422 = CARTESIAN_POINT('',(-7.5E-02,0.15,1.));
#423 = VECTOR('',#424,1.);
#424 = DIRECTION('',(-1.,0.,0.));
#425 = FACE_BOUND('',#426,.T.);
#426 = EDGE_LOOP('',(#427,#437,#445,#453));
#427 = ORIENTED_EDGE('',*,*,#428,.T.);
#428 = EDGE_CURVE('',#429,#431,#433,.T.);
#429 = VERTEX_POINT('',#430);
#430 = CARTESIAN_POINT('',(0.15,-1.15,1.));
#431 = VERTEX_POINT('',#432);
#432 = CARTESIAN_POINT('',(-0.15,-1.15,1.));
#433 = LINE('',#434,#435);
#434 = CARTESIAN_POINT('',(-7.5E-02,-1.15,1.));
#435 = VECTOR('',#436,1.);
#436 = DIRECTION('',(-1.,0.,0.));
#437 = ORIENTED_EDGE('',*,*,#438,.T.);
#438 = EDGE_CURVE('',#431,#439,#441,.T.);
#439 = VERTEX_POINT('',#440);
#440 = CARTESIAN_POINT('',(-0.15,-0.85,1.));
#441 = LINE('',#442,#443);
#442 = CARTESIAN_POINT('',(-0.15,-0.825,1.));
#443 = VECTOR('',#444,1.);
#444 = DIRECTION('',(0.,1.,0.));
#445 = ORIENTED_EDGE('',*,*,#446,.F.);
#446 = EDGE_CURVE('',#447,#439,#449,.T.);
#447 = VERTEX_POINT('',#448);
#448 = CARTESIAN_POINT('',(0.15,-0.85,1.));
#449 = LINE('',#450,#451);
#450 = CARTESIAN_POINT('',(-7.5E-02,-0.85,1.));
#451 = VECTOR('',#452,1.);
#452 = DIRECTION('',(-1.,0.,0.));
#453 = ORIENTED_EDGE('',*,*,#454,.F.);
#454 = EDGE_CURVE('',#429,#447,#455,.T.);
#455 = LINE('',#456,#457);
#456 = CARTESIAN_POINT('',(0.15,-0.825,1.));
#457 = VECTOR('',#458,1.);
#458 = DIRECTION('',(0.,1.,0.));
#459 = PLANE('',#460);
#460 = AXIS2_PLACEMENT_3D('',#461,#462,#463);
#461 = CARTESIAN_POINT('',(-8.577958599317E-18,-0.5,1.));
#462 = DIRECTION('',(0.,0.,1.));
#463 = DIRECTION('',(1.,0.,-0.));
#464 = ADVANCED_FACE('',(#465),#476,.F.);
#465 = FACE_BOUND('',#466,.F.);
#466 = EDGE_LOOP('',(#467,#473,#474,#475));
#467 = ORIENTED_EDGE('',*,*,#468,.T.);
#468 = EDGE_CURVE('',#213,#378,#469,.T.);
#469 = LINE('',#470,#471);
#470 = CARTESIAN_POINT('',(0.635,0.4,0.));
#471 = VECTOR('',#472,1.);
#472 = DIRECTION('',(0.,0.,1.));
#473 = ORIENTED_EDGE('',*,*,#385,.T.);
#474 = ORIENTED_EDGE('',*,*,#76,.F.);
#475 = ORIENTED_EDGE('',*,*,#220,.F.);
#476 = PLANE('',#477);
#477 = AXIS2_PLACEMENT_3D('',#478,#479,#480);
#478 = CARTESIAN_POINT('',(0.635,0.4,0.));
#479 = DIRECTION('',(-0.707106781187,-0.707106781187,0.));
#480 = DIRECTION('',(-0.707106781187,0.707106781187,0.));
#481 = ADVANCED_FACE('',(#482),#493,.F.);
#482 = FACE_BOUND('',#483,.F.);
#483 = EDGE_LOOP('',(#484,#485,#486,#492));
#484 = ORIENTED_EDGE('',*,*,#116,.T.);
#485 = ORIENTED_EDGE('',*,*,#305,.T.);
#486 = ORIENTED_EDGE('',*,*,#487,.F.);
#487 = EDGE_CURVE('',#141,#306,#488,.T.);
#488 = LINE('',#489,#490);
#489 = CARTESIAN_POINT('',(-0.535,-0.5,0.));
#490 = VECTOR('',#491,1.);
#491 = DIRECTION('',(0.,0.,1.));
#492 = ORIENTED_EDGE('',*,*,#140,.F.);
#493 = PLANE('',#494);
#494 = AXIS2_PLACEMENT_3D('',#495,#496,#497);
#495 = CARTESIAN_POINT('',(-0.635,-0.4,0.));
#496 = DIRECTION('',(0.707106781187,0.707106781187,0.));
#497 = DIRECTION('',(0.707106781187,-0.707106781187,0.));
#498 = ADVANCED_FACE('',(#499),#510,.F.);
#499 = FACE_BOUND('',#500,.F.);
#500 = EDGE_LOOP('',(#501,#507,#508,#509));
#501 = ORIENTED_EDGE('',*,*,#502,.T.);
#502 = EDGE_CURVE('',#205,#370,#503,.T.);
#503 = LINE('',#504,#505);
#504 = CARTESIAN_POINT('',(0.635,-0.4,0.));
#505 = VECTOR('',#506,1.);
#506 = DIRECTION('',(0.,0.,1.));
#507 = ORIENTED_EDGE('',*,*,#377,.T.);
#508 = ORIENTED_EDGE('',*,*,#468,.F.);
#509 = ORIENTED_EDGE('',*,*,#212,.F.);
#510 = PLANE('',#511);
#511 = AXIS2_PLACEMENT_3D('',#512,#513,#514);
#512 = CARTESIAN_POINT('',(0.635,-0.4,0.));
#513 = DIRECTION('',(-1.,0.,0.));
#514 = DIRECTION('',(0.,1.,0.));
#515 = ADVANCED_FACE('',(#516),#527,.F.);
#516 = FACE_BOUND('',#517,.F.);
#517 = EDGE_LOOP('',(#518,#519,#520,#526));
#518 = ORIENTED_EDGE('',*,*,#487,.T.);
#519 = ORIENTED_EDGE('',*,*,#313,.T.);
#520 = ORIENTED_EDGE('',*,*,#521,.F.);
#521 = EDGE_CURVE('',#149,#314,#522,.T.);
#522 = LINE('',#523,#524);
#523 = CARTESIAN_POINT('',(-0.635,-0.6,0.));
#524 = VECTOR('',#525,1.);
#525 = DIRECTION('',(0.,0.,1.));
#526 = ORIENTED_EDGE('',*,*,#148,.F.);
#527 = PLANE('',#528);
#528 = AXIS2_PLACEMENT_3D('',#529,#530,#531);
#529 = CARTESIAN_POINT('',(-0.535,-0.5,0.));
#530 = DIRECTION('',(0.707106781187,-0.707106781187,0.));
#531 = DIRECTION('',(-0.707106781187,-0.707106781187,0.));
#532 = ADVANCED_FACE('',(#533),#544,.F.);
#533 = FACE_BOUND('',#534,.F.);
#534 = EDGE_LOOP('',(#535,#541,#542,#543));
#535 = ORIENTED_EDGE('',*,*,#536,.T.);
#536 = EDGE_CURVE('',#197,#362,#537,.T.);
#537 = LINE('',#538,#539);
#538 = CARTESIAN_POINT('',(0.535,-0.5,0.));
#539 = VECTOR('',#540,1.);
#540 = DIRECTION('',(0.,0.,1.));
#541 = ORIENTED_EDGE('',*,*,#369,.T.);
#542 = ORIENTED_EDGE('',*,*,#502,.F.);
#543 = ORIENTED_EDGE('',*,*,#204,.F.);
#544 = PLANE('',#545);
#545 = AXIS2_PLACEMENT_3D('',#546,#547,#548);
#546 = CARTESIAN_POINT('',(0.535,-0.5,0.));
#547 = DIRECTION('',(-0.707106781187,0.707106781187,0.));
#548 = DIRECTION('',(0.707106781187,0.707106781187,0.));
#549 = ADVANCED_FACE('',(#550),#561,.F.);
#550 = FACE_BOUND('',#551,.F.);
#551 = EDGE_LOOP('',(#552,#553,#554,#560));
#552 = ORIENTED_EDGE('',*,*,#521,.T.);
#553 = ORIENTED_EDGE('',*,*,#321,.T.);
#554 = ORIENTED_EDGE('',*,*,#555,.F.);
#555 = EDGE_CURVE('',#157,#322,#556,.T.);
#556 = LINE('',#557,#558);
#557 = CARTESIAN_POINT('',(-0.635,-1.4,0.));
#558 = VECTOR('',#559,1.);
#559 = DIRECTION('',(0.,0.,1.));
#560 = ORIENTED_EDGE('',*,*,#156,.F.);
#561 = PLANE('',#562);
#562 = AXIS2_PLACEMENT_3D('',#563,#564,#565);
#563 = CARTESIAN_POINT('',(-0.635,-0.6,0.));
#564 = DIRECTION('',(1.,0.,0.));
#565 = DIRECTION('',(0.,-1.,0.));
#566 = ADVANCED_FACE('',(#567),#578,.F.);
#567 = FACE_BOUND('',#568,.F.);
#568 = EDGE_LOOP('',(#569,#575,#576,#577));
#569 = ORIENTED_EDGE('',*,*,#570,.T.);
#570 = EDGE_CURVE('',#189,#354,#571,.T.);
#571 = LINE('',#572,#573);
#572 = CARTESIAN_POINT('',(0.635,-0.6,0.));
#573 = VECTOR('',#574,1.);
#574 = DIRECTION('',(0.,0.,1.));
#575 = ORIENTED_EDGE('',*,*,#361,.T.);
#576 = ORIENTED_EDGE('',*,*,#536,.F.);
#577 = ORIENTED_EDGE('',*,*,#196,.F.);
#578 = PLANE('',#579);
#579 = AXIS2_PLACEMENT_3D('',#580,#581,#582);
#580 = CARTESIAN_POINT('',(0.635,-0.6,0.));
#581 = DIRECTION('',(-0.707106781187,-0.707106781187,0.));
#582 = DIRECTION('',(-0.707106781187,0.707106781187,0.));
#583 = ADVANCED_FACE('',(#584),#595,.F.);
#584 = FACE_BOUND('',#585,.F.);
#585 = EDGE_LOOP('',(#586,#587,#588,#594));
#586 = ORIENTED_EDGE('',*,*,#555,.T.);
#587 = ORIENTED_EDGE('',*,*,#329,.T.);
#588 = ORIENTED_EDGE('',*,*,#589,.F.);
#589 = EDGE_CURVE('',#165,#330,#590,.T.);
#590 = LINE('',#591,#592);
#591 = CARTESIAN_POINT('',(-0.535,-1.5,0.));
#592 = VECTOR('',#593,1.);
#593 = DIRECTION('',(0.,0.,1.));
#594 = ORIENTED_EDGE('',*,*,#164,.F.);
#595 = PLANE('',#596);
#596 = AXIS2_PLACEMENT_3D('',#597,#598,#599);
#597 = CARTESIAN_POINT('',(-0.635,-1.4,0.));
#598 = DIRECTION('',(0.707106781187,0.707106781187,0.));
#599 = DIRECTION('',(0.707106781187,-0.707106781187,0.));
#600 = ADVANCED_FACE('',(#601),#612,.F.);
#601 = FACE_BOUND('',#602,.F.);
#602 = EDGE_LOOP('',(#603,#609,#610,#611));
#603 = ORIENTED_EDGE('',*,*,#604,.T.);
#604 = EDGE_CURVE('',#181,#346,#605,.T.);
#605 = LINE('',#606,#607);
#606 = CARTESIAN_POINT('',(0.635,-1.4,0.));
#607 = VECTOR('',#608,1.);
#608 = DIRECTION('',(0.,0.,1.));
#609 = ORIENTED_EDGE('',*,*,#353,.T.);
#610 = ORIENTED_EDGE('',*,*,#570,.F.);
#611 = ORIENTED_EDGE('',*,*,#188,.F.);
#612 = PLANE('',#613);
#613 = AXIS2_PLACEMENT_3D('',#614,#615,#616);
#614 = CARTESIAN_POINT('',(0.635,-1.4,0.));
#615 = DIRECTION('',(-1.,0.,0.));
#616 = DIRECTION('',(0.,1.,0.));
#617 = ADVANCED_FACE('',(#618),#629,.F.);
#618 = FACE_BOUND('',#619,.F.);
#619 = EDGE_LOOP('',(#620,#621,#622,#628));
#620 = ORIENTED_EDGE('',*,*,#589,.T.);
#621 = ORIENTED_EDGE('',*,*,#337,.T.);
#622 = ORIENTED_EDGE('',*,*,#623,.F.);
#623 = EDGE_CURVE('',#173,#338,#624,.T.);
#624 = LINE('',#625,#626);
#625 = CARTESIAN_POINT('',(0.535,-1.5,0.));
#626 = VECTOR('',#627,1.);
#627 = DIRECTION('',(0.,0.,1.));
#628 = ORIENTED_EDGE('',*,*,#172,.F.);
#629 = PLANE('',#630);
#630 = AXIS2_PLACEMENT_3D('',#631,#632,#633);
#631 = CARTESIAN_POINT('',(-0.535,-1.5,0.));
#632 = DIRECTION('',(0.,1.,0.));
#633 = DIRECTION('',(1.,0.,0.));
#634 = ADVANCED_FACE('',(#635),#641,.F.);
#635 = FACE_BOUND('',#636,.F.);
#636 = EDGE_LOOP('',(#637,#638,#639,#640));
#637 = ORIENTED_EDGE('',*,*,#623,.T.);
#638 = ORIENTED_EDGE('',*,*,#345,.T.);
#639 = ORIENTED_EDGE('',*,*,#604,.F.);
#640 = ORIENTED_EDGE('',*,*,#180,.F.);
#641 = PLANE('',#642);
#642 = AXIS2_PLACEMENT_3D('',#643,#644,#645);
#643 = CARTESIAN_POINT('',(0.535,-1.5,0.));
#644 = DIRECTION('',(-0.707106781187,0.707106781187,0.));
#645 = DIRECTION('',(0.707106781187,0.707106781187,0.));
#646 = ADVANCED_FACE('',(#647),#672,.T.);
#647 = FACE_BOUND('',#648,.T.);
#648 = EDGE_LOOP('',(#649,#657,#665,#671));
#649 = ORIENTED_EDGE('',*,*,#650,.F.);
#650 = EDGE_CURVE('',#651,#230,#653,.T.);
#651 = VERTEX_POINT('',#652);
#652 = CARTESIAN_POINT('',(0.15,-0.15,-2.925));
#653 = LINE('',#654,#655);
#654 = CARTESIAN_POINT('',(0.15,-0.15,-3.));
#655 = VECTOR('',#656,1.);
#656 = DIRECTION('',(0.,0.,1.));
#657 = ORIENTED_EDGE('',*,*,#658,.T.);
#658 = EDGE_CURVE('',#651,#659,#661,.T.);
#659 = VERTEX_POINT('',#660);
#660 = CARTESIAN_POINT('',(0.15,0.15,-2.925));
#661 = LINE('',#662,#663);
#662 = CARTESIAN_POINT('',(0.15,-0.15,-2.925));
#663 = VECTOR('',#664,1.);
#664 = DIRECTION('',(0.,1.,0.));
#665 = ORIENTED_EDGE('',*,*,#666,.T.);
#666 = EDGE_CURVE('',#659,#232,#667,.T.);
#667 = LINE('',#668,#669);
#668 = CARTESIAN_POINT('',(0.15,0.15,-3.));
#669 = VECTOR('',#670,1.);
#670 = DIRECTION('',(0.,0.,1.));
#671 = ORIENTED_EDGE('',*,*,#229,.F.);
#672 = PLANE('',#673);
#673 = AXIS2_PLACEMENT_3D('',#674,#675,#676);
#674 = CARTESIAN_POINT('',(0.15,-0.15,-3.));
#675 = DIRECTION('',(1.,0.,0.));
#676 = DIRECTION('',(0.,0.,1.));
#677 = ADVANCED_FACE('',(#678),#696,.T.);
#678 = FACE_BOUND('',#679,.T.);
#679 = EDGE_LOOP('',(#680,#681,#689,#695));
#680 = ORIENTED_EDGE('',*,*,#666,.F.);
#681 = ORIENTED_EDGE('',*,*,#682,.F.);
#682 = EDGE_CURVE('',#683,#659,#685,.T.);
#683 = VERTEX_POINT('',#684);
#684 = CARTESIAN_POINT('',(-0.15,0.15,-2.925));
#685 = LINE('',#686,#687);
#686 = CARTESIAN_POINT('',(-0.15,0.15,-2.925));
#687 = VECTOR('',#688,1.);
#688 = DIRECTION('',(1.,0.,0.));
#689 = ORIENTED_EDGE('',*,*,#690,.T.);
#690 = EDGE_CURVE('',#683,#248,#691,.T.);
#691 = LINE('',#692,#693);
#692 = CARTESIAN_POINT('',(-0.15,0.15,-3.));
#693 = VECTOR('',#694,1.);
#694 = DIRECTION('',(0.,0.,1.));
#695 = ORIENTED_EDGE('',*,*,#255,.F.);
#696 = PLANE('',#697);
#697 = AXIS2_PLACEMENT_3D('',#698,#699,#700);
#698 = CARTESIAN_POINT('',(-0.15,0.15,-3.));
#699 = DIRECTION('',(0.,1.,0.));
#700 = DIRECTION('',(0.,-0.,1.));
#701 = ADVANCED_FACE('',(#702),#720,.F.);
#702 = FACE_BOUND('',#703,.F.);
#703 = EDGE_LOOP('',(#704,#712,#718,#719));
#704 = ORIENTED_EDGE('',*,*,#705,.F.);
#705 = EDGE_CURVE('',#706,#240,#708,.T.);
#706 = VERTEX_POINT('',#707);
#707 = CARTESIAN_POINT('',(-0.15,-0.15,-2.925));
#708 = LINE('',#709,#710);
#709 = CARTESIAN_POINT('',(-0.15,-0.15,-3.));
#710 = VECTOR('',#711,1.);
#711 = DIRECTION('',(0.,0.,1.));
#712 = ORIENTED_EDGE('',*,*,#713,.T.);
#713 = EDGE_CURVE('',#706,#683,#714,.T.);
#714 = LINE('',#715,#716);
#715 = CARTESIAN_POINT('',(-0.15,-0.15,-2.925));
#716 = VECTOR('',#717,1.);
#717 = DIRECTION('',(0.,1.,0.));
#718 = ORIENTED_EDGE('',*,*,#690,.T.);
#719 = ORIENTED_EDGE('',*,*,#247,.F.);
#720 = PLANE('',#721);
#721 = AXIS2_PLACEMENT_3D('',#722,#723,#724);
#722 = CARTESIAN_POINT('',(-0.15,-0.15,-3.));
#723 = DIRECTION('',(1.,0.,0.));
#724 = DIRECTION('',(0.,0.,1.));
#725 = ADVANCED_FACE('',(#726),#737,.F.);
#726 = FACE_BOUND('',#727,.F.);
#727 = EDGE_LOOP('',(#728,#729,#735,#736));
#728 = ORIENTED_EDGE('',*,*,#650,.F.);
#729 = ORIENTED_EDGE('',*,*,#730,.F.);
#730 = EDGE_CURVE('',#706,#651,#731,.T.);
#731 = LINE('',#732,#733);
#732 = CARTESIAN_POINT('',(-0.15,-0.15,-2.925));
#733 = VECTOR('',#734,1.);
#734 = DIRECTION('',(1.,0.,0.));
#735 = ORIENTED_EDGE('',*,*,#705,.T.);
#736 = ORIENTED_EDGE('',*,*,#239,.F.);
#737 = PLANE('',#738);
#738 = AXIS2_PLACEMENT_3D('',#739,#740,#741);
#739 = CARTESIAN_POINT('',(-0.15,-0.15,-3.));
#740 = DIRECTION('',(0.,1.,0.));
#741 = DIRECTION('',(0.,-0.,1.));
#742 = ADVANCED_FACE('',(#743),#768,.F.);
#743 = FACE_BOUND('',#744,.F.);
#744 = EDGE_LOOP('',(#745,#753,#761,#767));
#745 = ORIENTED_EDGE('',*,*,#746,.F.);
#746 = EDGE_CURVE('',#747,#264,#749,.T.);
#747 = VERTEX_POINT('',#748);
#748 = CARTESIAN_POINT('',(0.15,-1.15,-2.925));
#749 = LINE('',#750,#751);
#750 = CARTESIAN_POINT('',(0.15,-1.15,-3.));
#751 = VECTOR('',#752,1.);
#752 = DIRECTION('',(0.,0.,1.));
#753 = ORIENTED_EDGE('',*,*,#754,.F.);
#754 = EDGE_CURVE('',#755,#747,#757,.T.);
#755 = VERTEX_POINT('',#756);
#756 = CARTESIAN_POINT('',(-0.15,-1.15,-2.925));
#757 = LINE('',#758,#759);
#758 = CARTESIAN_POINT('',(-0.15,-1.15,-2.925));
#759 = VECTOR('',#760,1.);
#760 = DIRECTION('',(1.,0.,0.));
#761 = ORIENTED_EDGE('',*,*,#762,.T.);
#762 = EDGE_CURVE('',#755,#266,#763,.T.);
#763 = LINE('',#764,#765);
#764 = CARTESIAN_POINT('',(-0.15,-1.15,-3.));
#765 = VECTOR('',#766,1.);
#766 = DIRECTION('',(0.,0.,1.));
#767 = ORIENTED_EDGE('',*,*,#263,.F.);
#768 = PLANE('',#769);
#769 = AXIS2_PLACEMENT_3D('',#770,#771,#772);
#770 = CARTESIAN_POINT('',(-0.15,-1.15,-3.));
#771 = DIRECTION('',(0.,1.,0.));
#772 = DIRECTION('',(0.,-0.,1.));
#773 = ADVANCED_FACE('',(#774),#792,.T.);
#774 = FACE_BOUND('',#775,.T.);
#775 = EDGE_LOOP('',(#776,#777,#785,#791));
#776 = ORIENTED_EDGE('',*,*,#746,.F.);
#777 = ORIENTED_EDGE('',*,*,#778,.T.);
#778 = EDGE_CURVE('',#747,#779,#781,.T.);
#779 = VERTEX_POINT('',#780);
#780 = CARTESIAN_POINT('',(0.15,-0.85,-2.925));
#781 = LINE('',#782,#783);
#782 = CARTESIAN_POINT('',(0.15,-1.15,-2.925));
#783 = VECTOR('',#784,1.);
#784 = DIRECTION('',(0.,1.,0.));
#785 = ORIENTED_EDGE('',*,*,#786,.T.);
#786 = EDGE_CURVE('',#779,#282,#787,.T.);
#787 = LINE('',#788,#789);
#788 = CARTESIAN_POINT('',(0.15,-0.85,-3.));
#789 = VECTOR('',#790,1.);
#790 = DIRECTION('',(0.,0.,1.));
#791 = ORIENTED_EDGE('',*,*,#289,.F.);
#792 = PLANE('',#793);
#793 = AXIS2_PLACEMENT_3D('',#794,#795,#796);
#794 = CARTESIAN_POINT('',(0.15,-1.15,-3.));
#795 = DIRECTION('',(1.,0.,0.));
#796 = DIRECTION('',(0.,0.,1.));
#797 = ADVANCED_FACE('',(#798),#816,.T.);
#798 = FACE_BOUND('',#799,.T.);
#799 = EDGE_LOOP('',(#800,#801,#809,#815));
#800 = ORIENTED_EDGE('',*,*,#786,.F.);
#801 = ORIENTED_EDGE('',*,*,#802,.F.);
#802 = EDGE_CURVE('',#803,#779,#805,.T.);
#803 = VERTEX_POINT('',#804);
#804 = CARTESIAN_POINT('',(-0.15,-0.85,-2.925));
#805 = LINE('',#806,#807);
#806 = CARTESIAN_POINT('',(-0.15,-0.85,-2.925));
#807 = VECTOR('',#808,1.);
#808 = DIRECTION('',(1.,0.,0.));
#809 = ORIENTED_EDGE('',*,*,#810,.T.);
#810 = EDGE_CURVE('',#803,#274,#811,.T.);
#811 = LINE('',#812,#813);
#812 = CARTESIAN_POINT('',(-0.15,-0.85,-3.));
#813 = VECTOR('',#814,1.);
#814 = DIRECTION('',(0.,0.,1.));
#815 = ORIENTED_EDGE('',*,*,#281,.F.);
#816 = PLANE('',#817);
#817 = AXIS2_PLACEMENT_3D('',#818,#819,#820);
#818 = CARTESIAN_POINT('',(-0.15,-0.85,-3.));
#819 = DIRECTION('',(0.,1.,0.));
#820 = DIRECTION('',(0.,-0.,1.));
#821 = ADVANCED_FACE('',(#822),#833,.F.);
#822 = FACE_BOUND('',#823,.F.);
#823 = EDGE_LOOP('',(#824,#825,#831,#832));
#824 = ORIENTED_EDGE('',*,*,#762,.F.);
#825 = ORIENTED_EDGE('',*,*,#826,.T.);
#826 = EDGE_CURVE('',#755,#803,#827,.T.);
#827 = LINE('',#828,#829);
#828 = CARTESIAN_POINT('',(-0.15,-1.15,-2.925));
#829 = VECTOR('',#830,1.);
#830 = DIRECTION('',(0.,1.,0.));
#831 = ORIENTED_EDGE('',*,*,#810,.T.);
#832 = ORIENTED_EDGE('',*,*,#273,.F.);
#833 = PLANE('',#834);
#834 = AXIS2_PLACEMENT_3D('',#835,#836,#837);
#835 = CARTESIAN_POINT('',(-0.15,-1.15,-3.));
#836 = DIRECTION('',(1.,0.,0.));
#837 = DIRECTION('',(0.,0.,1.));
#838 = ADVANCED_FACE('',(#839),#864,.T.);
#839 = FACE_BOUND('',#840,.T.);
#840 = EDGE_LOOP('',(#841,#849,#850,#858));
#841 = ORIENTED_EDGE('',*,*,#842,.F.);
#842 = EDGE_CURVE('',#395,#843,#845,.T.);
#843 = VERTEX_POINT('',#844);
#844 = CARTESIAN_POINT('',(0.15,-0.15,4.725));
#845 = LINE('',#846,#847);
#846 = CARTESIAN_POINT('',(0.15,-0.15,-3.));
#847 = VECTOR('',#848,1.);
#848 = DIRECTION('',(0.,0.,1.));
#849 = ORIENTED_EDGE('',*,*,#394,.T.);
#850 = ORIENTED_EDGE('',*,*,#851,.T.);
#851 = EDGE_CURVE('',#397,#852,#854,.T.);
#852 = VERTEX_POINT('',#853);
#853 = CARTESIAN_POINT('',(0.15,0.15,4.725));
#854 = LINE('',#855,#856);
#855 = CARTESIAN_POINT('',(0.15,0.15,-3.));
#856 = VECTOR('',#857,1.);
#857 = DIRECTION('',(0.,0.,1.));
#858 = ORIENTED_EDGE('',*,*,#859,.F.);
#859 = EDGE_CURVE('',#843,#852,#860,.T.);
#860 = LINE('',#861,#862);
#861 = CARTESIAN_POINT('',(0.15,-0.15,4.725));
#862 = VECTOR('',#863,1.);
#863 = DIRECTION('',(0.,1.,0.));
#864 = PLANE('',#865);
#865 = AXIS2_PLACEMENT_3D('',#866,#867,#868);
#866 = CARTESIAN_POINT('',(0.15,-0.15,-3.));
#867 = DIRECTION('',(1.,0.,0.));
#868 = DIRECTION('',(0.,0.,1.));
#869 = ADVANCED_FACE('',(#870),#888,.T.);
#870 = FACE_BOUND('',#871,.T.);
#871 = EDGE_LOOP('',(#872,#873,#874,#882));
#872 = ORIENTED_EDGE('',*,*,#851,.F.);
#873 = ORIENTED_EDGE('',*,*,#420,.T.);
#874 = ORIENTED_EDGE('',*,*,#875,.T.);
#875 = EDGE_CURVE('',#413,#876,#878,.T.);
#876 = VERTEX_POINT('',#877);
#877 = CARTESIAN_POINT('',(-0.15,0.15,4.725));
#878 = LINE('',#879,#880);
#879 = CARTESIAN_POINT('',(-0.15,0.15,-3.));
#880 = VECTOR('',#881,1.);
#881 = DIRECTION('',(0.,0.,1.));
#882 = ORIENTED_EDGE('',*,*,#883,.T.);
#883 = EDGE_CURVE('',#876,#852,#884,.T.);
#884 = LINE('',#885,#886);
#885 = CARTESIAN_POINT('',(-0.15,0.15,4.725));
#886 = VECTOR('',#887,1.);
#887 = DIRECTION('',(1.,0.,0.));
#888 = PLANE('',#889);
#889 = AXIS2_PLACEMENT_3D('',#890,#891,#892);
#890 = CARTESIAN_POINT('',(-0.15,0.15,-3.));
#891 = DIRECTION('',(0.,1.,0.));
#892 = DIRECTION('',(0.,-0.,1.));
#893 = ADVANCED_FACE('',(#894),#912,.F.);
#894 = FACE_BOUND('',#895,.F.);
#895 = EDGE_LOOP('',(#896,#904,#905,#906));
#896 = ORIENTED_EDGE('',*,*,#897,.F.);
#897 = EDGE_CURVE('',#405,#898,#900,.T.);
#898 = VERTEX_POINT('',#899);
#899 = CARTESIAN_POINT('',(-0.15,-0.15,4.725));
#900 = LINE('',#901,#902);
#901 = CARTESIAN_POINT('',(-0.15,-0.15,-3.));
#902 = VECTOR('',#903,1.);
#903 = DIRECTION('',(0.,0.,1.));
#904 = ORIENTED_EDGE('',*,*,#412,.T.);
#905 = ORIENTED_EDGE('',*,*,#875,.T.);
#906 = ORIENTED_EDGE('',*,*,#907,.F.);
#907 = EDGE_CURVE('',#898,#876,#908,.T.);
#908 = LINE('',#909,#910);
#909 = CARTESIAN_POINT('',(-0.15,-0.15,4.725));
#910 = VECTOR('',#911,1.);
#911 = DIRECTION('',(0.,1.,0.));
#912 = PLANE('',#913);
#913 = AXIS2_PLACEMENT_3D('',#914,#915,#916);
#914 = CARTESIAN_POINT('',(-0.15,-0.15,-3.));
#915 = DIRECTION('',(1.,0.,0.));
#916 = DIRECTION('',(0.,0.,1.));
#917 = ADVANCED_FACE('',(#918),#929,.F.);
#918 = FACE_BOUND('',#919,.F.);
#919 = EDGE_LOOP('',(#920,#921,#922,#923));
#920 = ORIENTED_EDGE('',*,*,#842,.F.);
#921 = ORIENTED_EDGE('',*,*,#404,.T.);
#922 = ORIENTED_EDGE('',*,*,#897,.T.);
#923 = ORIENTED_EDGE('',*,*,#924,.T.);
#924 = EDGE_CURVE('',#898,#843,#925,.T.);
#925 = LINE('',#926,#927);
#926 = CARTESIAN_POINT('',(-0.15,-0.15,4.725));
#927 = VECTOR('',#928,1.);
#928 = DIRECTION('',(1.,0.,0.));
#929 = PLANE('',#930);
#930 = AXIS2_PLACEMENT_3D('',#931,#932,#933);
#931 = CARTESIAN_POINT('',(-0.15,-0.15,-3.));
#932 = DIRECTION('',(0.,1.,0.));
#933 = DIRECTION('',(0.,-0.,1.));
#934 = ADVANCED_FACE('',(#935),#960,.F.);
#935 = FACE_BOUND('',#936,.F.);
#936 = EDGE_LOOP('',(#937,#945,#946,#954));
#937 = ORIENTED_EDGE('',*,*,#938,.F.);
#938 = EDGE_CURVE('',#429,#939,#941,.T.);
#939 = VERTEX_POINT('',#940);
#940 = CARTESIAN_POINT('',(0.15,-1.15,4.725));
#941 = LINE('',#942,#943);
#942 = CARTESIAN_POINT('',(0.15,-1.15,-3.));
#943 = VECTOR('',#944,1.);
#944 = DIRECTION('',(0.,0.,1.));
#945 = ORIENTED_EDGE('',*,*,#428,.T.);
#946 = ORIENTED_EDGE('',*,*,#947,.T.);
#947 = EDGE_CURVE('',#431,#948,#950,.T.);
#948 = VERTEX_POINT('',#949);
#949 = CARTESIAN_POINT('',(-0.15,-1.15,4.725));
#950 = LINE('',#951,#952);
#951 = CARTESIAN_POINT('',(-0.15,-1.15,-3.));
#952 = VECTOR('',#953,1.);
#953 = DIRECTION('',(0.,0.,1.));
#954 = ORIENTED_EDGE('',*,*,#955,.T.);
#955 = EDGE_CURVE('',#948,#939,#956,.T.);
#956 = LINE('',#957,#958);
#957 = CARTESIAN_POINT('',(-0.15,-1.15,4.725));
#958 = VECTOR('',#959,1.);
#959 = DIRECTION('',(1.,0.,0.));
#960 = PLANE('',#961);
#961 = AXIS2_PLACEMENT_3D('',#962,#963,#964);
#962 = CARTESIAN_POINT('',(-0.15,-1.15,-3.));
#963 = DIRECTION('',(0.,1.,0.));
#964 = DIRECTION('',(0.,-0.,1.));
#965 = ADVANCED_FACE('',(#966),#984,.T.);
#966 = FACE_BOUND('',#967,.T.);
#967 = EDGE_LOOP('',(#968,#969,#970,#978));
#968 = ORIENTED_EDGE('',*,*,#938,.F.);
#969 = ORIENTED_EDGE('',*,*,#454,.T.);
#970 = ORIENTED_EDGE('',*,*,#971,.T.);
#971 = EDGE_CURVE('',#447,#972,#974,.T.);
#972 = VERTEX_POINT('',#973);
#973 = CARTESIAN_POINT('',(0.15,-0.85,4.725));
#974 = LINE('',#975,#976);
#975 = CARTESIAN_POINT('',(0.15,-0.85,-3.));
#976 = VECTOR('',#977,1.);
#977 = DIRECTION('',(0.,0.,1.));
#978 = ORIENTED_EDGE('',*,*,#979,.F.);
#979 = EDGE_CURVE('',#939,#972,#980,.T.);
#980 = LINE('',#981,#982);
#981 = CARTESIAN_POINT('',(0.15,-1.15,4.725));
#982 = VECTOR('',#983,1.);
#983 = DIRECTION('',(0.,1.,0.));
#984 = PLANE('',#985);
#985 = AXIS2_PLACEMENT_3D('',#986,#987,#988);
#986 = CARTESIAN_POINT('',(0.15,-1.15,-3.));
#987 = DIRECTION('',(1.,0.,0.));
#988 = DIRECTION('',(0.,0.,1.));
#989 = ADVANCED_FACE('',(#990),#1008,.T.);
#990 = FACE_BOUND('',#991,.T.);
#991 = EDGE_LOOP('',(#992,#993,#994,#1002));
#992 = ORIENTED_EDGE('',*,*,#971,.F.);
#993 = ORIENTED_EDGE('',*,*,#446,.T.);
#994 = ORIENTED_EDGE('',*,*,#995,.T.);
#995 = EDGE_CURVE('',#439,#996,#998,.T.);
#996 = VERTEX_POINT('',#997);
#997 = CARTESIAN_POINT('',(-0.15,-0.85,4.725));
#998 = LINE('',#999,#1000);
#999 = CARTESIAN_POINT('',(-0.15,-0.85,-3.));
#1000 = VECTOR('',#1001,1.);
#1001 = DIRECTION('',(0.,0.,1.));
#1002 = ORIENTED_EDGE('',*,*,#1003,.T.);
#1003 = EDGE_CURVE('',#996,#972,#1004,.T.);
#1004 = LINE('',#1005,#1006);
#1005 = CARTESIAN_POINT('',(-0.15,-0.85,4.725));
#1006 = VECTOR('',#1007,1.);
#1007 = DIRECTION('',(1.,0.,0.));
#1008 = PLANE('',#1009);
#1009 = AXIS2_PLACEMENT_3D('',#1010,#1011,#1012);
#1010 = CARTESIAN_POINT('',(-0.15,-0.85,-3.));
#1011 = DIRECTION('',(0.,1.,0.));
#1012 = DIRECTION('',(0.,-0.,1.));
#1013 = ADVANCED_FACE('',(#1014),#1025,.F.);
#1014 = FACE_BOUND('',#1015,.F.);
#1015 = EDGE_LOOP('',(#1016,#1017,#1018,#1019));
#1016 = ORIENTED_EDGE('',*,*,#947,.F.);
#1017 = ORIENTED_EDGE('',*,*,#438,.T.);
#1018 = ORIENTED_EDGE('',*,*,#995,.T.);
#1019 = ORIENTED_EDGE('',*,*,#1020,.F.);
#1020 = EDGE_CURVE('',#948,#996,#1021,.T.);
#1021 = LINE('',#1022,#1023);
#1022 = CARTESIAN_POINT('',(-0.15,-1.15,4.725));
#1023 = VECTOR('',#1024,1.);
#1024 = DIRECTION('',(0.,1.,0.));
#1025 = PLANE('',#1026);
#1026 = AXIS2_PLACEMENT_3D('',#1027,#1028,#1029);
#1027 = CARTESIAN_POINT('',(-0.15,-1.15,-3.));
#1028 = DIRECTION('',(1.,0.,0.));
#1029 = DIRECTION('',(0.,0.,1.));
#1030 = ADVANCED_FACE('',(#1031),#1056,.F.);
#1031 = FACE_BOUND('',#1032,.F.);
#1032 = EDGE_LOOP('',(#1033,#1041,#1042,#1050));
#1033 = ORIENTED_EDGE('',*,*,#1034,.F.);
#1034 = EDGE_CURVE('',#651,#1035,#1037,.T.);
#1035 = VERTEX_POINT('',#1036);
#1036 = CARTESIAN_POINT('',(7.5E-02,-7.5E-02,-3.));
#1037 = LINE('',#1038,#1039);
#1038 = CARTESIAN_POINT('',(7.5E-02,-7.5E-02,-3.));
#1039 = VECTOR('',#1040,1.);
#1040 = DIRECTION('',(-0.57735026919,0.57735026919,-0.57735026919));
#1041 = ORIENTED_EDGE('',*,*,#658,.T.);
#1042 = ORIENTED_EDGE('',*,*,#1043,.T.);
#1043 = EDGE_CURVE('',#659,#1044,#1046,.T.);
#1044 = VERTEX_POINT('',#1045);
#1045 = CARTESIAN_POINT('',(7.5E-02,7.5E-02,-3.));
#1046 = LINE('',#1047,#1048);
#1047 = CARTESIAN_POINT('',(2.5E-02,2.5E-02,-3.05));
#1048 = VECTOR('',#1049,1.);
#1049 = DIRECTION('',(-0.57735026919,-0.57735026919,-0.57735026919));
#1050 = ORIENTED_EDGE('',*,*,#1051,.F.);
#1051 = EDGE_CURVE('',#1035,#1044,#1052,.T.);
#1052 = LINE('',#1053,#1054);
#1053 = CARTESIAN_POINT('',(7.5E-02,-0.15,-3.));
#1054 = VECTOR('',#1055,1.);
#1055 = DIRECTION('',(0.,1.,0.));
#1056 = PLANE('',#1057);
#1057 = AXIS2_PLACEMENT_3D('',#1058,#1059,#1060);
#1058 = CARTESIAN_POINT('',(0.1125,-0.15,-2.9625));
#1059 = DIRECTION('',(-0.707106781187,0.,0.707106781187));
#1060 = DIRECTION('',(0.,1.,0.));
#1061 = ADVANCED_FACE('',(#1062),#1080,.F.);
#1062 = FACE_BOUND('',#1063,.T.);
#1063 = EDGE_LOOP('',(#1064,#1072,#1073,#1074));
#1064 = ORIENTED_EDGE('',*,*,#1065,.F.);
#1065 = EDGE_CURVE('',#683,#1066,#1068,.T.);
#1066 = VERTEX_POINT('',#1067);
#1067 = CARTESIAN_POINT('',(-7.5E-02,7.5E-02,-3.));
#1068 = LINE('',#1069,#1070);
#1069 = CARTESIAN_POINT('',(-7.5E-02,7.5E-02,-3.));
#1070 = VECTOR('',#1071,1.);
#1071 = DIRECTION('',(0.57735026919,-0.57735026919,-0.57735026919));
#1072 = ORIENTED_EDGE('',*,*,#682,.T.);
#1073 = ORIENTED_EDGE('',*,*,#1043,.T.);
#1074 = ORIENTED_EDGE('',*,*,#1075,.F.);
#1075 = EDGE_CURVE('',#1066,#1044,#1076,.T.);
#1076 = LINE('',#1077,#1078);
#1077 = CARTESIAN_POINT('',(-0.15,7.5E-02,-3.));
#1078 = VECTOR('',#1079,1.);
#1079 = DIRECTION('',(1.,0.,0.));
#1080 = PLANE('',#1081);
#1081 = AXIS2_PLACEMENT_3D('',#1082,#1083,#1084);
#1082 = CARTESIAN_POINT('',(-0.15,0.1125,-2.9625));
#1083 = DIRECTION('',(0.,-0.707106781187,0.707106781187));
#1084 = DIRECTION('',(-1.,0.,0.));
#1085 = ADVANCED_FACE('',(#1086),#1104,.T.);
#1086 = FACE_BOUND('',#1087,.T.);
#1087 = EDGE_LOOP('',(#1088,#1096,#1097,#1098));
#1088 = ORIENTED_EDGE('',*,*,#1089,.F.);
#1089 = EDGE_CURVE('',#706,#1090,#1092,.T.);
#1090 = VERTEX_POINT('',#1091);
#1091 = CARTESIAN_POINT('',(-7.5E-02,-7.5E-02,-3.));
#1092 = LINE('',#1093,#1094);
#1093 = CARTESIAN_POINT('',(-0.125,-0.125,-2.95));
#1094 = VECTOR('',#1095,1.);
#1095 = DIRECTION('',(0.57735026919,0.57735026919,-0.57735026919));
#1096 = ORIENTED_EDGE('',*,*,#713,.T.);
#1097 = ORIENTED_EDGE('',*,*,#1065,.T.);
#1098 = ORIENTED_EDGE('',*,*,#1099,.F.);
#1099 = EDGE_CURVE('',#1090,#1066,#1100,.T.);
#1100 = LINE('',#1101,#1102);
#1101 = CARTESIAN_POINT('',(-7.5E-02,-0.15,-3.));
#1102 = VECTOR('',#1103,1.);
#1103 = DIRECTION('',(0.,1.,0.));
#1104 = PLANE('',#1105);
#1105 = AXIS2_PLACEMENT_3D('',#1106,#1107,#1108);
#1106 = CARTESIAN_POINT('',(-0.1125,-0.15,-2.9625));
#1107 = DIRECTION('',(-0.707106781187,0.,-0.707106781187));
#1108 = DIRECTION('',(0.,1.,0.));
#1109 = ADVANCED_FACE('',(#1110),#1121,.T.);
#1110 = FACE_BOUND('',#1111,.F.);
#1111 = EDGE_LOOP('',(#1112,#1113,#1114,#1115));
#1112 = ORIENTED_EDGE('',*,*,#1089,.F.);
#1113 = ORIENTED_EDGE('',*,*,#730,.T.);
#1114 = ORIENTED_EDGE('',*,*,#1034,.T.);
#1115 = ORIENTED_EDGE('',*,*,#1116,.F.);
#1116 = EDGE_CURVE('',#1090,#1035,#1117,.T.);
#1117 = LINE('',#1118,#1119);
#1118 = CARTESIAN_POINT('',(-0.15,-7.5E-02,-3.));
#1119 = VECTOR('',#1120,1.);
#1120 = DIRECTION('',(1.,0.,0.));
#1121 = PLANE('',#1122);
#1122 = AXIS2_PLACEMENT_3D('',#1123,#1124,#1125);
#1123 = CARTESIAN_POINT('',(-0.15,-0.1125,-2.9625));
#1124 = DIRECTION('',(0.,-0.707106781187,-0.707106781187));
#1125 = DIRECTION('',(-1.,-0.,0.));
#1126 = ADVANCED_FACE('',(#1127),#1152,.T.);
#1127 = FACE_BOUND('',#1128,.F.);
#1128 = EDGE_LOOP('',(#1129,#1137,#1138,#1146));
#1129 = ORIENTED_EDGE('',*,*,#1130,.F.);
#1130 = EDGE_CURVE('',#755,#1131,#1133,.T.);
#1131 = VERTEX_POINT('',#1132);
#1132 = CARTESIAN_POINT('',(-7.5E-02,-1.075,-3.));
#1133 = LINE('',#1134,#1135);
#1134 = CARTESIAN_POINT('',(-0.125,-1.125,-2.95));
#1135 = VECTOR('',#1136,1.);
#1136 = DIRECTION('',(0.57735026919,0.57735026919,-0.57735026919));
#1137 = ORIENTED_EDGE('',*,*,#754,.T.);
#1138 = ORIENTED_EDGE('',*,*,#1139,.T.);
#1139 = EDGE_CURVE('',#747,#1140,#1142,.T.);
#1140 = VERTEX_POINT('',#1141);
#1141 = CARTESIAN_POINT('',(7.5E-02,-1.075,-3.));
#1142 = LINE('',#1143,#1144);
#1143 = CARTESIAN_POINT('',(7.5E-02,-1.075,-3.));
#1144 = VECTOR('',#1145,1.);
#1145 = DIRECTION('',(-0.57735026919,0.57735026919,-0.57735026919));
#1146 = ORIENTED_EDGE('',*,*,#1147,.F.);
#1147 = EDGE_CURVE('',#1131,#1140,#1148,.T.);
#1148 = LINE('',#1149,#1150);
#1149 = CARTESIAN_POINT('',(-0.15,-1.075,-3.));
#1150 = VECTOR('',#1151,1.);
#1151 = DIRECTION('',(1.,0.,0.));
#1152 = PLANE('',#1153);
#1153 = AXIS2_PLACEMENT_3D('',#1154,#1155,#1156);
#1154 = CARTESIAN_POINT('',(-0.15,-1.1125,-2.9625));
#1155 = DIRECTION('',(0.,-0.707106781187,-0.707106781187));
#1156 = DIRECTION('',(-1.,-0.,0.));
#1157 = ADVANCED_FACE('',(#1158),#1176,.F.);
#1158 = FACE_BOUND('',#1159,.F.);
#1159 = EDGE_LOOP('',(#1160,#1161,#1162,#1170));
#1160 = ORIENTED_EDGE('',*,*,#1139,.F.);
#1161 = ORIENTED_EDGE('',*,*,#778,.T.);
#1162 = ORIENTED_EDGE('',*,*,#1163,.T.);
#1163 = EDGE_CURVE('',#779,#1164,#1166,.T.);
#1164 = VERTEX_POINT('',#1165);
#1165 = CARTESIAN_POINT('',(7.5E-02,-0.925,-3.));
#1166 = LINE('',#1167,#1168);
#1167 = CARTESIAN_POINT('',(2.5E-02,-0.975,-3.05));
#1168 = VECTOR('',#1169,1.);
#1169 = DIRECTION('',(-0.57735026919,-0.57735026919,-0.57735026919));
#1170 = ORIENTED_EDGE('',*,*,#1171,.F.);
#1171 = EDGE_CURVE('',#1140,#1164,#1172,.T.);
#1172 = LINE('',#1173,#1174);
#1173 = CARTESIAN_POINT('',(7.5E-02,-1.15,-3.));
#1174 = VECTOR('',#1175,1.);
#1175 = DIRECTION('',(0.,1.,0.));
#1176 = PLANE('',#1177);
#1177 = AXIS2_PLACEMENT_3D('',#1178,#1179,#1180);
#1178 = CARTESIAN_POINT('',(0.1125,-1.15,-2.9625));
#1179 = DIRECTION('',(-0.707106781187,0.,0.707106781187));
#1180 = DIRECTION('',(0.,1.,0.));
#1181 = ADVANCED_FACE('',(#1182),#1200,.F.);
#1182 = FACE_BOUND('',#1183,.T.);
#1183 = EDGE_LOOP('',(#1184,#1192,#1193,#1194));
#1184 = ORIENTED_EDGE('',*,*,#1185,.F.);
#1185 = EDGE_CURVE('',#803,#1186,#1188,.T.);
#1186 = VERTEX_POINT('',#1187);
#1187 = CARTESIAN_POINT('',(-7.5E-02,-0.925,-3.));
#1188 = LINE('',#1189,#1190);
#1189 = CARTESIAN_POINT('',(-7.5E-02,-0.925,-3.));
#1190 = VECTOR('',#1191,1.);
#1191 = DIRECTION('',(0.57735026919,-0.57735026919,-0.57735026919));
#1192 = ORIENTED_EDGE('',*,*,#802,.T.);
#1193 = ORIENTED_EDGE('',*,*,#1163,.T.);
#1194 = ORIENTED_EDGE('',*,*,#1195,.F.);
#1195 = EDGE_CURVE('',#1186,#1164,#1196,.T.);
#1196 = LINE('',#1197,#1198);
#1197 = CARTESIAN_POINT('',(-0.15,-0.925,-3.));
#1198 = VECTOR('',#1199,1.);
#1199 = DIRECTION('',(1.,0.,0.));
#1200 = PLANE('',#1201);
#1201 = AXIS2_PLACEMENT_3D('',#1202,#1203,#1204);
#1202 = CARTESIAN_POINT('',(-0.15,-0.8875,-2.9625));
#1203 = DIRECTION('',(0.,-0.707106781187,0.707106781187));
#1204 = DIRECTION('',(-1.,0.,0.));
#1205 = ADVANCED_FACE('',(#1206),#1217,.T.);
#1206 = FACE_BOUND('',#1207,.T.);
#1207 = EDGE_LOOP('',(#1208,#1209,#1210,#1211));
#1208 = ORIENTED_EDGE('',*,*,#1130,.F.);
#1209 = ORIENTED_EDGE('',*,*,#826,.T.);
#1210 = ORIENTED_EDGE('',*,*,#1185,.T.);
#1211 = ORIENTED_EDGE('',*,*,#1212,.F.);
#1212 = EDGE_CURVE('',#1131,#1186,#1213,.T.);
#1213 = LINE('',#1214,#1215);
#1214 = CARTESIAN_POINT('',(-7.5E-02,-1.15,-3.));
#1215 = VECTOR('',#1216,1.);
#1216 = DIRECTION('',(0.,1.,0.));
#1217 = PLANE('',#1218);
#1218 = AXIS2_PLACEMENT_3D('',#1219,#1220,#1221);
#1219 = CARTESIAN_POINT('',(-0.1125,-1.15,-2.9625));
#1220 = DIRECTION('',(-0.707106781187,0.,-0.707106781187));
#1221 = DIRECTION('',(0.,1.,0.));
#1222 = ADVANCED_FACE('',(#1223),#1248,.T.);
#1223 = FACE_BOUND('',#1224,.T.);
#1224 = EDGE_LOOP('',(#1225,#1233,#1234,#1242));
#1225 = ORIENTED_EDGE('',*,*,#1226,.F.);
#1226 = EDGE_CURVE('',#843,#1227,#1229,.T.);
#1227 = VERTEX_POINT('',#1228);
#1228 = CARTESIAN_POINT('',(7.5E-02,-7.5E-02,4.8));
#1229 = LINE('',#1230,#1231);
#1230 = CARTESIAN_POINT('',(7.5E-02,-7.5E-02,4.8));
#1231 = VECTOR('',#1232,1.);
#1232 = DIRECTION('',(-0.57735026919,0.57735026919,0.57735026919));
#1233 = ORIENTED_EDGE('',*,*,#859,.T.);
#1234 = ORIENTED_EDGE('',*,*,#1235,.T.);
#1235 = EDGE_CURVE('',#852,#1236,#1238,.T.);
#1236 = VERTEX_POINT('',#1237);
#1237 = CARTESIAN_POINT('',(7.5E-02,7.5E-02,4.8));
#1238 = LINE('',#1239,#1240);
#1239 = CARTESIAN_POINT('',(2.5E-02,2.5E-02,4.85));
#1240 = VECTOR('',#1241,1.);
#1241 = DIRECTION('',(-0.57735026919,-0.57735026919,0.57735026919));
#1242 = ORIENTED_EDGE('',*,*,#1243,.F.);
#1243 = EDGE_CURVE('',#1227,#1236,#1244,.T.);
#1244 = LINE('',#1245,#1246);
#1245 = CARTESIAN_POINT('',(7.5E-02,-0.15,4.8));
#1246 = VECTOR('',#1247,1.);
#1247 = DIRECTION('',(0.,1.,0.));
#1248 = PLANE('',#1249);
#1249 = AXIS2_PLACEMENT_3D('',#1250,#1251,#1252);
#1250 = CARTESIAN_POINT('',(0.1125,-0.15,4.7625));
#1251 = DIRECTION('',(0.707106781187,0.,0.707106781187));
#1252 = DIRECTION('',(-0.,1.,0.));
#1253 = ADVANCED_FACE('',(#1254),#1272,.T.);
#1254 = FACE_BOUND('',#1255,.F.);
#1255 = EDGE_LOOP('',(#1256,#1264,#1265,#1266));
#1256 = ORIENTED_EDGE('',*,*,#1257,.F.);
#1257 = EDGE_CURVE('',#876,#1258,#1260,.T.);
#1258 = VERTEX_POINT('',#1259);
#1259 = CARTESIAN_POINT('',(-7.5E-02,7.5E-02,4.8));
#1260 = LINE('',#1261,#1262);
#1261 = CARTESIAN_POINT('',(-7.5E-02,7.5E-02,4.8));
#1262 = VECTOR('',#1263,1.);
#1263 = DIRECTION('',(0.57735026919,-0.57735026919,0.57735026919));
#1264 = ORIENTED_EDGE('',*,*,#883,.T.);
#1265 = ORIENTED_EDGE('',*,*,#1235,.T.);
#1266 = ORIENTED_EDGE('',*,*,#1267,.F.);
#1267 = EDGE_CURVE('',#1258,#1236,#1268,.T.);
#1268 = LINE('',#1269,#1270);
#1269 = CARTESIAN_POINT('',(-0.15,7.5E-02,4.8));
#1270 = VECTOR('',#1271,1.);
#1271 = DIRECTION('',(1.,0.,0.));
#1272 = PLANE('',#1273);
#1273 = AXIS2_PLACEMENT_3D('',#1274,#1275,#1276);
#1274 = CARTESIAN_POINT('',(-0.15,0.1125,4.7625));
#1275 = DIRECTION('',(0.,0.707106781187,0.707106781187));
#1276 = DIRECTION('',(-1.,0.,0.));
#1277 = ADVANCED_FACE('',(#1278),#1296,.F.);
#1278 = FACE_BOUND('',#1279,.F.);
#1279 = EDGE_LOOP('',(#1280,#1288,#1289,#1290));
#1280 = ORIENTED_EDGE('',*,*,#1281,.F.);
#1281 = EDGE_CURVE('',#898,#1282,#1284,.T.);
#1282 = VERTEX_POINT('',#1283);
#1283 = CARTESIAN_POINT('',(-7.5E-02,-7.5E-02,4.8));
#1284 = LINE('',#1285,#1286);
#1285 = CARTESIAN_POINT('',(-0.125,-0.125,4.75));
#1286 = VECTOR('',#1287,1.);
#1287 = DIRECTION('',(0.57735026919,0.57735026919,0.57735026919));
#1288 = ORIENTED_EDGE('',*,*,#907,.T.);
#1289 = ORIENTED_EDGE('',*,*,#1257,.T.);
#1290 = ORIENTED_EDGE('',*,*,#1291,.F.);
#1291 = EDGE_CURVE('',#1282,#1258,#1292,.T.);
#1292 = LINE('',#1293,#1294);
#1293 = CARTESIAN_POINT('',(-7.5E-02,-0.15,4.8));
#1294 = VECTOR('',#1295,1.);
#1295 = DIRECTION('',(0.,1.,0.));
#1296 = PLANE('',#1297);
#1297 = AXIS2_PLACEMENT_3D('',#1298,#1299,#1300);
#1298 = CARTESIAN_POINT('',(-0.1125,-0.15,4.7625));
#1299 = DIRECTION('',(0.707106781187,0.,-0.707106781187));
#1300 = DIRECTION('',(0.,1.,0.));
#1301 = ADVANCED_FACE('',(#1302),#1313,.F.);
#1302 = FACE_BOUND('',#1303,.T.);
#1303 = EDGE_LOOP('',(#1304,#1305,#1306,#1307));
#1304 = ORIENTED_EDGE('',*,*,#1281,.F.);
#1305 = ORIENTED_EDGE('',*,*,#924,.T.);
#1306 = ORIENTED_EDGE('',*,*,#1226,.T.);
#1307 = ORIENTED_EDGE('',*,*,#1308,.F.);
#1308 = EDGE_CURVE('',#1282,#1227,#1309,.T.);
#1309 = LINE('',#1310,#1311);
#1310 = CARTESIAN_POINT('',(-0.15,-7.5E-02,4.8));
#1311 = VECTOR('',#1312,1.);
#1312 = DIRECTION('',(1.,0.,0.));
#1313 = PLANE('',#1314);
#1314 = AXIS2_PLACEMENT_3D('',#1315,#1316,#1317);
#1315 = CARTESIAN_POINT('',(-0.15,-0.1125,4.7625));
#1316 = DIRECTION('',(0.,0.707106781187,-0.707106781187));
#1317 = DIRECTION('',(-1.,0.,-0.));
#1318 = ADVANCED_FACE('',(#1319),#1344,.F.);
#1319 = FACE_BOUND('',#1320,.T.);
#1320 = EDGE_LOOP('',(#1321,#1329,#1330,#1338));
#1321 = ORIENTED_EDGE('',*,*,#1322,.F.);
#1322 = EDGE_CURVE('',#948,#1323,#1325,.T.);
#1323 = VERTEX_POINT('',#1324);
#1324 = CARTESIAN_POINT('',(-7.5E-02,-1.075,4.8));
#1325 = LINE('',#1326,#1327);
#1326 = CARTESIAN_POINT('',(-0.125,-1.125,4.75));
#1327 = VECTOR('',#1328,1.);
#1328 = DIRECTION('',(0.57735026919,0.57735026919,0.57735026919));
#1329 = ORIENTED_EDGE('',*,*,#955,.T.);
#1330 = ORIENTED_EDGE('',*,*,#1331,.T.);
#1331 = EDGE_CURVE('',#939,#1332,#1334,.T.);
#1332 = VERTEX_POINT('',#1333);
#1333 = CARTESIAN_POINT('',(7.5E-02,-1.075,4.8));
#1334 = LINE('',#1335,#1336);
#1335 = CARTESIAN_POINT('',(7.5E-02,-1.075,4.8));
#1336 = VECTOR('',#1337,1.);
#1337 = DIRECTION('',(-0.57735026919,0.57735026919,0.57735026919));
#1338 = ORIENTED_EDGE('',*,*,#1339,.F.);
#1339 = EDGE_CURVE('',#1323,#1332,#1340,.T.);
#1340 = LINE('',#1341,#1342);
#1341 = CARTESIAN_POINT('',(-0.15,-1.075,4.8));
#1342 = VECTOR('',#1343,1.);
#1343 = DIRECTION('',(1.,0.,0.));
#1344 = PLANE('',#1345);
#1345 = AXIS2_PLACEMENT_3D('',#1346,#1347,#1348);
#1346 = CARTESIAN_POINT('',(-0.15,-1.1125,4.7625));
#1347 = DIRECTION('',(0.,0.707106781187,-0.707106781187));
#1348 = DIRECTION('',(-1.,0.,-0.));
#1349 = ADVANCED_FACE('',(#1350),#1368,.T.);
#1350 = FACE_BOUND('',#1351,.T.);
#1351 = EDGE_LOOP('',(#1352,#1353,#1354,#1362));
#1352 = ORIENTED_EDGE('',*,*,#1331,.F.);
#1353 = ORIENTED_EDGE('',*,*,#979,.T.);
#1354 = ORIENTED_EDGE('',*,*,#1355,.T.);
#1355 = EDGE_CURVE('',#972,#1356,#1358,.T.);
#1356 = VERTEX_POINT('',#1357);
#1357 = CARTESIAN_POINT('',(7.5E-02,-0.925,4.8));
#1358 = LINE('',#1359,#1360);
#1359 = CARTESIAN_POINT('',(2.5E-02,-0.975,4.85));
#1360 = VECTOR('',#1361,1.);
#1361 = DIRECTION('',(-0.57735026919,-0.57735026919,0.57735026919));
#1362 = ORIENTED_EDGE('',*,*,#1363,.F.);
#1363 = EDGE_CURVE('',#1332,#1356,#1364,.T.);
#1364 = LINE('',#1365,#1366);
#1365 = CARTESIAN_POINT('',(7.5E-02,-1.15,4.8));
#1366 = VECTOR('',#1367,1.);
#1367 = DIRECTION('',(0.,1.,0.));
#1368 = PLANE('',#1369);
#1369 = AXIS2_PLACEMENT_3D('',#1370,#1371,#1372);
#1370 = CARTESIAN_POINT('',(0.1125,-1.15,4.7625));
#1371 = DIRECTION('',(0.707106781187,0.,0.707106781187));
#1372 = DIRECTION('',(-0.,1.,0.));
#1373 = ADVANCED_FACE('',(#1374),#1392,.T.);
#1374 = FACE_BOUND('',#1375,.F.);
#1375 = EDGE_LOOP('',(#1376,#1384,#1385,#1386));
#1376 = ORIENTED_EDGE('',*,*,#1377,.F.);
#1377 = EDGE_CURVE('',#996,#1378,#1380,.T.);
#1378 = VERTEX_POINT('',#1379);
#1379 = CARTESIAN_POINT('',(-7.5E-02,-0.925,4.8));
#1380 = LINE('',#1381,#1382);
#1381 = CARTESIAN_POINT('',(-7.5E-02,-0.925,4.8));
#1382 = VECTOR('',#1383,1.);
#1383 = DIRECTION('',(0.57735026919,-0.57735026919,0.57735026919));
#1384 = ORIENTED_EDGE('',*,*,#1003,.T.);
#1385 = ORIENTED_EDGE('',*,*,#1355,.T.);
#1386 = ORIENTED_EDGE('',*,*,#1387,.F.);
#1387 = EDGE_CURVE('',#1378,#1356,#1388,.T.);
#1388 = LINE('',#1389,#1390);
#1389 = CARTESIAN_POINT('',(-0.15,-0.925,4.8));
#1390 = VECTOR('',#1391,1.);
#1391 = DIRECTION('',(1.,0.,0.));
#1392 = PLANE('',#1393);
#1393 = AXIS2_PLACEMENT_3D('',#1394,#1395,#1396);
#1394 = CARTESIAN_POINT('',(-0.15,-0.8875,4.7625));
#1395 = DIRECTION('',(0.,0.707106781187,0.707106781187));
#1396 = DIRECTION('',(-1.,0.,0.));
#1397 = ADVANCED_FACE('',(#1398),#1409,.F.);
#1398 = FACE_BOUND('',#1399,.F.);
#1399 = EDGE_LOOP('',(#1400,#1401,#1402,#1403));
#1400 = ORIENTED_EDGE('',*,*,#1322,.F.);
#1401 = ORIENTED_EDGE('',*,*,#1020,.T.);
#1402 = ORIENTED_EDGE('',*,*,#1377,.T.);
#1403 = ORIENTED_EDGE('',*,*,#1404,.F.);
#1404 = EDGE_CURVE('',#1323,#1378,#1405,.T.);
#1405 = LINE('',#1406,#1407);
#1406 = CARTESIAN_POINT('',(-7.5E-02,-1.15,4.8));
#1407 = VECTOR('',#1408,1.);
#1408 = DIRECTION('',(0.,1.,0.));
#1409 = PLANE('',#1410);
#1410 = AXIS2_PLACEMENT_3D('',#1411,#1412,#1413);
#1411 = CARTESIAN_POINT('',(-0.1125,-1.15,4.7625));
#1412 = DIRECTION('',(0.707106781187,0.,-0.707106781187));
#1413 = DIRECTION('',(0.,1.,0.));
#1414 = ADVANCED_FACE('',(#1415),#1421,.F.);
#1415 = FACE_BOUND('',#1416,.F.);
#1416 = EDGE_LOOP('',(#1417,#1418,#1419,#1420));
#1417 = ORIENTED_EDGE('',*,*,#1051,.T.);
#1418 = ORIENTED_EDGE('',*,*,#1075,.F.);
#1419 = ORIENTED_EDGE('',*,*,#1099,.F.);
#1420 = ORIENTED_EDGE('',*,*,#1116,.T.);
#1421 = PLANE('',#1422);
#1422 = AXIS2_PLACEMENT_3D('',#1423,#1424,#1425);
#1423 = CARTESIAN_POINT('',(-0.15,-0.15,-3.));
#1424 = DIRECTION('',(0.,0.,1.));
#1425 = DIRECTION('',(1.,0.,-0.));
#1426 = ADVANCED_FACE('',(#1427),#1433,.F.);
#1427 = FACE_BOUND('',#1428,.F.);
#1428 = EDGE_LOOP('',(#1429,#1430,#1431,#1432));
#1429 = ORIENTED_EDGE('',*,*,#1171,.T.);
#1430 = ORIENTED_EDGE('',*,*,#1195,.F.);
#1431 = ORIENTED_EDGE('',*,*,#1212,.F.);
#1432 = ORIENTED_EDGE('',*,*,#1147,.T.);
#1433 = PLANE('',#1434);
#1434 = AXIS2_PLACEMENT_3D('',#1435,#1436,#1437);
#1435 = CARTESIAN_POINT('',(-0.15,-1.15,-3.));
#1436 = DIRECTION('',(0.,0.,1.));
#1437 = DIRECTION('',(1.,0.,-0.));
#1438 = ADVANCED_FACE('',(#1439),#1445,.T.);
#1439 = FACE_BOUND('',#1440,.T.);
#1440 = EDGE_LOOP('',(#1441,#1442,#1443,#1444));
#1441 = ORIENTED_EDGE('',*,*,#1291,.F.);
#1442 = ORIENTED_EDGE('',*,*,#1308,.T.);
#1443 = ORIENTED_EDGE('',*,*,#1243,.T.);
#1444 = ORIENTED_EDGE('',*,*,#1267,.F.);
#1445 = PLANE('',#1446);
#1446 = AXIS2_PLACEMENT_3D('',#1447,#1448,#1449);
#1447 = CARTESIAN_POINT('',(-0.15,-0.15,4.8));
#1448 = DIRECTION('',(0.,0.,1.));
#1449 = DIRECTION('',(1.,0.,-0.));
#1450 = ADVANCED_FACE('',(#1451),#1457,.T.);
#1451 = FACE_BOUND('',#1452,.T.);
#1452 = EDGE_LOOP('',(#1453,#1454,#1455,#1456));
#1453 = ORIENTED_EDGE('',*,*,#1404,.F.);
#1454 = ORIENTED_EDGE('',*,*,#1339,.T.);
#1455 = ORIENTED_EDGE('',*,*,#1363,.T.);
#1456 = ORIENTED_EDGE('',*,*,#1387,.F.);
#1457 = PLANE('',#1458);
#1458 = AXIS2_PLACEMENT_3D('',#1459,#1460,#1461);
#1459 = CARTESIAN_POINT('',(-0.15,-1.15,4.8));
#1460 = DIRECTION('',(0.,0.,1.));
#1461 = DIRECTION('',(1.,0.,-0.));
#1462 = ( GEOMETRIC_REPRESENTATION_CONTEXT(3) 
GLOBAL_UNCERTAINTY_ASSIGNED_CONTEXT((#1466)) 
GLOBAL_UNIT_ASSIGNED_CONTEXT((#1463,#1464,#1465)) REPRESENTATION_CONTEXT
('Context #1','3D Context with UNIT and UNCERTAINTY') );
#1463 = ( LENGTH_UNIT() NAMED_UNIT(*) SI_UNIT(.MILLI.,.METRE.) );
#1464 = ( NAMED_UNIT(*) PLANE_ANGLE_UNIT() SI_UNIT($,.RADIAN.) );
#1465 = ( NAMED_UNIT(*) SI_UNIT($,.STERADIAN.) SOLID_ANGLE_UNIT() );
#1466 = UNCERTAINTY_MEASURE_WITH_UNIT(LENGTH_MEASURE(1.E-07),#1463,
  'distance_accuracy_value','confusion accuracy');
#1467 = SHAPE_DEFINITION_REPRESENTATION(#1468,#29);
#1468 = PRODUCT_DEFINITION_SHAPE('','',#1469);
#1469 = PRODUCT_DEFINITION('design','',#1470,#1473);
#1470 = PRODUCT_DEFINITION_FORMATION('','',#1471);
#1471 = PRODUCT('PinHeader_1x02_P1.00mm_Vertical',
  'PinHeader_1x02_P1.00mm_Vertical','',(#1472));
#1472 = PRODUCT_CONTEXT('',#2,'mechanical');
#1473 = PRODUCT_DEFINITION_CONTEXT('part definition',#2,'design');
#1474 = CONTEXT_DEPENDENT_SHAPE_REPRESENTATION(#1475,#1477);
#1475 = ( REPRESENTATION_RELATIONSHIP('','',#29,#10) 
REPRESENTATION_RELATIONSHIP_WITH_TRANSFORMATION(#1476) 
SHAPE_REPRESENTATION_RELATIONSHIP() );
#1476 = ITEM_DEFINED_TRANSFORMATION('','',#11,#15);
#1477 = PRODUCT_DEFINITION_SHAPE('Placement','Placement of an item',
  #1478);
#1478 = NEXT_ASSEMBLY_USAGE_OCCURRENCE('1','','',#5,#1469,$);
#1479 = PRODUCT_RELATED_PRODUCT_CATEGORY('part',$,(#1471));
#1480 = ADVANCED_BREP_SHAPE_REPRESENTATION('',(#11,#1481),#1709);
#1481 = MANIFOLD_SOLID_BREP('',#1482);
#1482 = CLOSED_SHELL('',(#1483,#1523,#1554,#1585,#1624,#1663,#1675,#1692
    ));
#1483 = ADVANCED_FACE('',(#1484),#1518,.T.);
#1484 = FACE_BOUND('',#1485,.T.);
#1485 = EDGE_LOOP('',(#1486,#1496,#1504,#1512));
#1486 = ORIENTED_EDGE('',*,*,#1487,.T.);
#1487 = EDGE_CURVE('',#1488,#1490,#1492,.T.);
#1488 = VERTEX_POINT('',#1489);
#1489 = CARTESIAN_POINT('',(134.2,-69.8,0.));
#1490 = VERTEX_POINT('',#1491);
#1491 = CARTESIAN_POINT('',(134.2,-69.8,1.51));
#1492 = LINE('',#1493,#1494);
#1493 = CARTESIAN_POINT('',(134.2,-69.8,0.));
#1494 = VECTOR('',#1495,1.);
#1495 = DIRECTION('',(0.,0.,1.));
#1496 = ORIENTED_EDGE('',*,*,#1497,.T.);
#1497 = EDGE_CURVE('',#1490,#1498,#1500,.T.);
#1498 = VERTEX_POINT('',#1499);
#1499 = CARTESIAN_POINT('',(97.6,-69.8,1.51));
#1500 = LINE('',#1501,#1502);
#1501 = CARTESIAN_POINT('',(134.2,-69.8,1.51));
#1502 = VECTOR('',#1503,1.);
#1503 = DIRECTION('',(-1.,0.,0.));
#1504 = ORIENTED_EDGE('',*,*,#1505,.F.);
#1505 = EDGE_CURVE('',#1506,#1498,#1508,.T.);
#1506 = VERTEX_POINT('',#1507);
#1507 = CARTESIAN_POINT('',(97.6,-69.8,0.));
#1508 = LINE('',#1509,#1510);
#1509 = CARTESIAN_POINT('',(97.6,-69.8,0.));
#1510 = VECTOR('',#1511,1.);
#1511 = DIRECTION('',(0.,0.,1.));
#1512 = ORIENTED_EDGE('',*,*,#1513,.F.);
#1513 = EDGE_CURVE('',#1488,#1506,#1514,.T.);
#1514 = LINE('',#1515,#1516);
#1515 = CARTESIAN_POINT('',(134.2,-69.8,0.));
#1516 = VECTOR('',#1517,1.);
#1517 = DIRECTION('',(-1.,0.,0.));
#1518 = PLANE('',#1519);
#1519 = AXIS2_PLACEMENT_3D('',#1520,#1521,#1522);
#1520 = CARTESIAN_POINT('',(134.2,-69.8,0.));
#1521 = DIRECTION('',(0.,-1.,0.));
#1522 = DIRECTION('',(-1.,0.,0.));
#1523 = ADVANCED_FACE('',(#1524),#1549,.T.);
#1524 = FACE_BOUND('',#1525,.T.);
#1525 = EDGE_LOOP('',(#1526,#1536,#1542,#1543));
#1526 = ORIENTED_EDGE('',*,*,#1527,.T.);
#1527 = EDGE_CURVE('',#1528,#1530,#1532,.T.);
#1528 = VERTEX_POINT('',#1529);
#1529 = CARTESIAN_POINT('',(134.2,-42.6,0.));
#1530 = VERTEX_POINT('',#1531);
#1531 = CARTESIAN_POINT('',(134.2,-42.6,1.51));
#1532 = LINE('',#1533,#1534);
#1533 = CARTESIAN_POINT('',(134.2,-42.6,0.));
#1534 = VECTOR('',#1535,1.);
#1535 = DIRECTION('',(0.,0.,1.));
#1536 = ORIENTED_EDGE('',*,*,#1537,.T.);
#1537 = EDGE_CURVE('',#1530,#1490,#1538,.T.);
#1538 = LINE('',#1539,#1540);
#1539 = CARTESIAN_POINT('',(134.2,-42.6,1.51));
#1540 = VECTOR('',#1541,1.);
#1541 = DIRECTION('',(0.,-1.,0.));
#1542 = ORIENTED_EDGE('',*,*,#1487,.F.);
#1543 = ORIENTED_EDGE('',*,*,#1544,.F.);
#1544 = EDGE_CURVE('',#1528,#1488,#1545,.T.);
#1545 = LINE('',#1546,#1547);
#1546 = CARTESIAN_POINT('',(134.2,-42.6,0.));
#1547 = VECTOR('',#1548,1.);
#1548 = DIRECTION('',(0.,-1.,0.));
#1549 = PLANE('',#1550);
#1550 = AXIS2_PLACEMENT_3D('',#1551,#1552,#1553);
#1551 = CARTESIAN_POINT('',(134.2,-42.6,0.));
#1552 = DIRECTION('',(1.,0.,-0.));
#1553 = DIRECTION('',(0.,-1.,0.));
#1554 = ADVANCED_FACE('',(#1555),#1580,.T.);
#1555 = FACE_BOUND('',#1556,.T.);
#1556 = EDGE_LOOP('',(#1557,#1558,#1566,#1574));
#1557 = ORIENTED_EDGE('',*,*,#1505,.T.);
#1558 = ORIENTED_EDGE('',*,*,#1559,.T.);
#1559 = EDGE_CURVE('',#1498,#1560,#1562,.T.);
#1560 = VERTEX_POINT('',#1561);
#1561 = CARTESIAN_POINT('',(97.6,-42.6,1.51));
#1562 = LINE('',#1563,#1564);
#1563 = CARTESIAN_POINT('',(97.6,-69.8,1.51));
#1564 = VECTOR('',#1565,1.);
#1565 = DIRECTION('',(0.,1.,0.));
#1566 = ORIENTED_EDGE('',*,*,#1567,.F.);
#1567 = EDGE_CURVE('',#1568,#1560,#1570,.T.);
#1568 = VERTEX_POINT('',#1569);
#1569 = CARTESIAN_POINT('',(97.6,-42.6,0.));
#1570 = LINE('',#1571,#1572);
#1571 = CARTESIAN_POINT('',(97.6,-42.6,0.));
#1572 = VECTOR('',#1573,1.);
#1573 = DIRECTION('',(0.,0.,1.));
#1574 = ORIENTED_EDGE('',*,*,#1575,.F.);
#1575 = EDGE_CURVE('',#1506,#1568,#1576,.T.);
#1576 = LINE('',#1577,#1578);
#1577 = CARTESIAN_POINT('',(97.6,-69.8,0.));
#1578 = VECTOR('',#1579,1.);
#1579 = DIRECTION('',(0.,1.,0.));
#1580 = PLANE('',#1581);
#1581 = AXIS2_PLACEMENT_3D('',#1582,#1583,#1584);
#1582 = CARTESIAN_POINT('',(97.6,-69.8,0.));
#1583 = DIRECTION('',(-1.,0.,0.));
#1584 = DIRECTION('',(0.,1.,0.));
#1585 = ADVANCED_FACE('',(#1586,#1597,#1608),#1619,.F.);
#1586 = FACE_BOUND('',#1587,.F.);
#1587 = EDGE_LOOP('',(#1588,#1589,#1590,#1596));
#1588 = ORIENTED_EDGE('',*,*,#1513,.F.);
#1589 = ORIENTED_EDGE('',*,*,#1544,.F.);
#1590 = ORIENTED_EDGE('',*,*,#1591,.F.);
#1591 = EDGE_CURVE('',#1568,#1528,#1592,.T.);
#1592 = LINE('',#1593,#1594);
#1593 = CARTESIAN_POINT('',(97.6,-42.6,0.));
#1594 = VECTOR('',#1595,1.);
#1595 = DIRECTION('',(1.,0.,0.));
#1596 = ORIENTED_EDGE('',*,*,#1575,.F.);
#1597 = FACE_BOUND('',#1598,.F.);
#1598 = EDGE_LOOP('',(#1599));
#1599 = ORIENTED_EDGE('',*,*,#1600,.T.);
#1600 = EDGE_CURVE('',#1601,#1601,#1603,.T.);
#1601 = VERTEX_POINT('',#1602);
#1602 = CARTESIAN_POINT('',(101.6,-56.55,0.));
#1603 = CIRCLE('',#1604,0.25);
#1604 = AXIS2_PLACEMENT_3D('',#1605,#1606,#1607);
#1605 = CARTESIAN_POINT('',(101.6,-56.3,0.));
#1606 = DIRECTION('',(-0.,0.,-1.));
#1607 = DIRECTION('',(-0.,-1.,0.));
#1608 = FACE_BOUND('',#1609,.F.);
#1609 = EDGE_LOOP('',(#1610));
#1610 = ORIENTED_EDGE('',*,*,#1611,.T.);
#1611 = EDGE_CURVE('',#1612,#1612,#1614,.T.);
#1612 = VERTEX_POINT('',#1613);
#1613 = CARTESIAN_POINT('',(101.6,-55.55,0.));
#1614 = CIRCLE('',#1615,0.25);
#1615 = AXIS2_PLACEMENT_3D('',#1616,#1617,#1618);
#1616 = CARTESIAN_POINT('',(101.6,-55.3,0.));
#1617 = DIRECTION('',(-0.,0.,-1.));
#1618 = DIRECTION('',(-0.,-1.,0.));
#1619 = PLANE('',#1620);
#1620 = AXIS2_PLACEMENT_3D('',#1621,#1622,#1623);
#1621 = CARTESIAN_POINT('',(0.,0.,0.));
#1622 = DIRECTION('',(0.,0.,1.));
#1623 = DIRECTION('',(1.,0.,-0.));
#1624 = ADVANCED_FACE('',(#1625,#1636,#1647),#1658,.T.);
#1625 = FACE_BOUND('',#1626,.T.);
#1626 = EDGE_LOOP('',(#1627,#1628,#1629,#1635));
#1627 = ORIENTED_EDGE('',*,*,#1497,.F.);
#1628 = ORIENTED_EDGE('',*,*,#1537,.F.);
#1629 = ORIENTED_EDGE('',*,*,#1630,.F.);
#1630 = EDGE_CURVE('',#1560,#1530,#1631,.T.);
#1631 = LINE('',#1632,#1633);
#1632 = CARTESIAN_POINT('',(97.6,-42.6,1.51));
#1633 = VECTOR('',#1634,1.);
#1634 = DIRECTION('',(1.,0.,0.));
#1635 = ORIENTED_EDGE('',*,*,#1559,.F.);
#1636 = FACE_BOUND('',#1637,.T.);
#1637 = EDGE_LOOP('',(#1638));
#1638 = ORIENTED_EDGE('',*,*,#1639,.T.);
#1639 = EDGE_CURVE('',#1640,#1640,#1642,.T.);
#1640 = VERTEX_POINT('',#1641);
#1641 = CARTESIAN_POINT('',(101.6,-56.55,1.51));
#1642 = CIRCLE('',#1643,0.25);
#1643 = AXIS2_PLACEMENT_3D('',#1644,#1645,#1646);
#1644 = CARTESIAN_POINT('',(101.6,-56.3,1.51));
#1645 = DIRECTION('',(-0.,0.,-1.));
#1646 = DIRECTION('',(-0.,-1.,0.));
#1647 = FACE_BOUND('',#1648,.T.);
#1648 = EDGE_LOOP('',(#1649));
#1649 = ORIENTED_EDGE('',*,*,#1650,.T.);
#1650 = EDGE_CURVE('',#1651,#1651,#1653,.T.);
#1651 = VERTEX_POINT('',#1652);
#1652 = CARTESIAN_POINT('',(101.6,-55.55,1.51));
#1653 = CIRCLE('',#1654,0.25);
#1654 = AXIS2_PLACEMENT_3D('',#1655,#1656,#1657);
#1655 = CARTESIAN_POINT('',(101.6,-55.3,1.51));
#1656 = DIRECTION('',(-0.,0.,-1.));
#1657 = DIRECTION('',(-0.,-1.,0.));
#1658 = PLANE('',#1659);
#1659 = AXIS2_PLACEMENT_3D('',#1660,#1661,#1662);
#1660 = CARTESIAN_POINT('',(0.,0.,1.51));
#1661 = DIRECTION('',(0.,0.,1.));
#1662 = DIRECTION('',(1.,0.,-0.));
#1663 = ADVANCED_FACE('',(#1664),#1670,.T.);
#1664 = FACE_BOUND('',#1665,.T.);
#1665 = EDGE_LOOP('',(#1666,#1667,#1668,#1669));
#1666 = ORIENTED_EDGE('',*,*,#1567,.T.);
#1667 = ORIENTED_EDGE('',*,*,#1630,.T.);
#1668 = ORIENTED_EDGE('',*,*,#1527,.F.);
#1669 = ORIENTED_EDGE('',*,*,#1591,.F.);
#1670 = PLANE('',#1671);
#1671 = AXIS2_PLACEMENT_3D('',#1672,#1673,#1674);
#1672 = CARTESIAN_POINT('',(97.6,-42.6,0.));
#1673 = DIRECTION('',(0.,1.,0.));
#1674 = DIRECTION('',(1.,0.,0.));
#1675 = ADVANCED_FACE('',(#1676),#1687,.F.);
#1676 = FACE_BOUND('',#1677,.T.);
#1677 = EDGE_LOOP('',(#1678,#1679,#1685,#1686));
#1678 = ORIENTED_EDGE('',*,*,#1600,.T.);
#1679 = ORIENTED_EDGE('',*,*,#1680,.T.);
#1680 = EDGE_CURVE('',#1601,#1640,#1681,.T.);
#1681 = LINE('',#1682,#1683);
#1682 = CARTESIAN_POINT('',(101.6,-56.55,-4.6E-02));
#1683 = VECTOR('',#1684,1.);
#1684 = DIRECTION('',(0.,0.,1.));
#1685 = ORIENTED_EDGE('',*,*,#1639,.F.);
#1686 = ORIENTED_EDGE('',*,*,#1680,.F.);
#1687 = CYLINDRICAL_SURFACE('',#1688,0.25);
#1688 = AXIS2_PLACEMENT_3D('',#1689,#1690,#1691);
#1689 = CARTESIAN_POINT('',(101.6,-56.3,-4.6E-02));
#1690 = DIRECTION('',(-0.,-0.,-1.));
#1691 = DIRECTION('',(-0.,-1.,0.));
#1692 = ADVANCED_FACE('',(#1693),#1704,.F.);
#1693 = FACE_BOUND('',#1694,.T.);
#1694 = EDGE_LOOP('',(#1695,#1696,#1702,#1703));
#1695 = ORIENTED_EDGE('',*,*,#1611,.T.);
#1696 = ORIENTED_EDGE('',*,*,#1697,.T.);
#1697 = EDGE_CURVE('',#1612,#1651,#1698,.T.);
#1698 = LINE('',#1699,#1700);
#1699 = CARTESIAN_POINT('',(101.6,-55.55,-4.6E-02));
#1700 = VECTOR('',#1701,1.);
#1701 = DIRECTION('',(0.,0.,1.));
#1702 = ORIENTED_EDGE('',*,*,#1650,.F.);
#1703 = ORIENTED_EDGE('',*,*,#1697,.F.);
#1704 = CYLINDRICAL_SURFACE('',#1705,0.25);
#1705 = AXIS2_PLACEMENT_3D('',#1706,#1707,#1708);
#1706 = CARTESIAN_POINT('',(101.6,-55.3,-4.6E-02));
#1707 = DIRECTION('',(-0.,-0.,-1.));
#1708 = DIRECTION('',(-0.,-1.,0.));
#1709 = ( GEOMETRIC_REPRESENTATION_CONTEXT(3) 
GLOBAL_UNCERTAINTY_ASSIGNED_CONTEXT((#1713)) 
GLOBAL_UNIT_ASSIGNED_CONTEXT((#1710,#1711,#1712)) REPRESENTATION_CONTEXT
('Context #1','3D Context with UNIT and UNCERTAINTY') );
#1710 = ( LENGTH_UNIT() NAMED_UNIT(*) SI_UNIT(.MILLI.,.METRE.) );
#1711 = ( NAMED_UNIT(*) PLANE_ANGLE_UNIT() SI_UNIT($,.RADIAN.) );
#1712 = ( NAMED_UNIT(*) SI_UNIT($,.STERADIAN.) SOLID_ANGLE_UNIT() );
#1713 = UNCERTAINTY_MEASURE_WITH_UNIT(LENGTH_MEASURE(1.E-07),#1710,
  'distance_accuracy_value','confusion accuracy');
#1714 = SHAPE_DEFINITION_REPRESENTATION(#1715,#1480);
#1715 = PRODUCT_DEFINITION_SHAPE('','',#1716);
#1716 = PRODUCT_DEFINITION('design','',#1717,#1720);
#1717 = PRODUCT_DEFINITION_FORMATION('','',#1718);
#1718 = PRODUCT('RAIN_PCB','RAIN_PCB','',(#1719));
#1719 = PRODUCT_CONTEXT('',#2,'mechanical');
#1720 = PRODUCT_DEFINITION_CONTEXT('part definition',#2,'design');
#1721 = CONTEXT_DEPENDENT_SHAPE_REPRESENTATION(#1722,#1724);
#1722 = ( REPRESENTATION_RELATIONSHIP('','',#1480,#10) 
REPRESENTATION_RELATIONSHIP_WITH_TRANSFORMATION(#1723) 
SHAPE_REPRESENTATION_RELATIONSHIP() );
#1723 = ITEM_DEFINED_TRANSFORMATION('','',#11,#19);
#1724 = PRODUCT_DEFINITION_SHAPE('Placement','Placement of an item',
  #1725);
#1725 = NEXT_ASSEMBLY_USAGE_OCCURRENCE('2','','',#5,#1716,$);
#1726 = PRODUCT_RELATED_PRODUCT_CATEGORY('part',$,(#1718));
ENDSEC;
END-ISO-10303-21;
