999
FreeCAD v1.0 39285 (Git)
  0
SECTION
  2
HEADER
  9
$ACADVER
  1
AC1014
  9
$ACADMAINTVER
 70
     9
  9
$DWGCODEPAGE
  3
ANSI_1252
  9
$TEXTSTYLE
  7
STANDARD
  9
$DIMSTYLE
  2
STANDARD
  9
$DIMTXSTY
  7
STANDARD
  9
$CMLSTYLE
  2
STANDARD
  9
$LUNITS
 70
2
  9
$INSUNITS
 70
4
  9
$PEXTMAX
 10
50
 20
50
 30
50
  9
$PEXTMIN
 10
0
 20
0
 30
0
  9
$HANDSEED
  5
FFFF
  0
ENDSEC
  0
SECTION
  2
CLASSES
  0
CLASS
  1
ACDBDICTIONARYWDFLT
  2
AcDbDictionaryWithDefault
  3
ObjectDBX Classes
 90
        0
280
     0
281
     0
  0
CLASS
  1
XRECORD
  2
AcDbXrecord
  3
ObjectDBX Classes
 90
        0
280
     0
281
     0
  0
CLASS
  1
LWPOLYLINE
  2
AcDbPolyline
  3
ObjectDBX Classes
 90
        0
280
     0
281
     1
  0
ENDSEC
  0
SECTION
  2
TABLES
  0
TABLE
  2
VPORT
  5
20
330
0
100
AcDbSymbolTable
 70
     1
  0
VPORT
  5
21
330
20
100
AcDbSymbolTableRecord
100
AcDbViewportTableRecord
  2
*ACTIVE
 70
     0
  0
ENDTAB
  0
TABLE
  2
LTYPE
  5
22
330
0
100
AcDbSymbolTable
 70
     1
  0
LTYPE
  5
23
330
21
100
AcDbSymbolTableRecord
100
AcDbLinetypeTableRecord
  2
BYBLOCK
 70
     0
  3

 72
    65
 73
     0
 40
0.0
  0
LTYPE
  5
24
330
21
100
AcDbSymbolTableRecord
100
AcDbLinetypeTableRecord
  2
BYLAYER
 70
     0
  3

 72
    65
 73
     0
 40
0.0
  0
LTYPE
  5
25
330
21
100
AcDbSymbolTableRecord
100
AcDbLinetypeTableRecord
  2
CONTINUOUS
 70
     0
  3
Solid line
 72
    65
 73
     0
 40
0.0
  0
ENDTAB
  0
TABLE
  2
LAYER
  5
B0C
330
0
100
AcDbSymbolTable
 70
13
  0
LAYER
  5
B0D
330
B0C
100
AcDbSymbolTableRecord
100
AcDbLayerTableRecord
  2
0
 70
   0
 62
   7
  6
CONTINUOUS
  0
LAYER
  5
B0E
330
B0C
100
AcDbSymbolTableRecord
100
AcDbLayerTableRecord
  2
View
 70
    0
 62
    7
  6
CONTINUOUS
  0
LAYER
  5
B0F
330
B0C
100
AcDbSymbolTableRecord
100
AcDbLayerTableRecord
  2
ProjItem
 70
    0
 62
    7
  6
CONTINUOUS
  0
LAYER
  5
B10
330
B0C
100
AcDbSymbolTableRecord
100
AcDbLayerTableRecord
  2
ProjItem001
 70
    0
 62
    7
  6
CONTINUOUS
  0
LAYER
  5
B11
330
B0C
100
AcDbSymbolTableRecord
100
AcDbLayerTableRecord
  2
ProjItem002
 70
    0
 62
    7
  6
CONTINUOUS
  0
LAYER
  5
B12
330
B0C
100
AcDbSymbolTableRecord
100
AcDbLayerTableRecord
  2
ProjItem003
 70
    0
 62
    7
  6
CONTINUOUS
  0
LAYER
  5
B13
330
B0C
100
AcDbSymbolTableRecord
100
AcDbLayerTableRecord
  2
Dimension
 70
    0
 62
    7
  6
CONTINUOUS
  0
LAYER
  5
B14
330
B0C
100
AcDbSymbolTableRecord
100
AcDbLayerTableRecord
  2
Dimension001
 70
    0
 62
    7
  6
CONTINUOUS
  0
LAYER
  5
B15
330
B0C
100
AcDbSymbolTableRecord
100
AcDbLayerTableRecord
  2
Dimension002
 70
    0
 62
    7
  6
CONTINUOUS
  0
LAYER
  5
B16
330
B0C
100
AcDbSymbolTableRecord
100
AcDbLayerTableRecord
  2
Dimension003
 70
    0
 62
    7
  6
CONTINUOUS
  0
LAYER
  5
B17
330
B0C
100
AcDbSymbolTableRecord
100
AcDbLayerTableRecord
  2
Dimension004
 70
    0
 62
    7
  6
CONTINUOUS
  0
LAYER
  5
B18
330
B0C
100
AcDbSymbolTableRecord
100
AcDbLayerTableRecord
  2
Dimension005
 70
    0
 62
    7
  6
CONTINUOUS
  0
LAYER
  5
B19
330
B0C
100
AcDbSymbolTableRecord
100
AcDbLayerTableRecord
  2
Dimension006
 70
    0
 62
    7
  6
CONTINUOUS
  0
ENDTAB
  0
TABLE
  2
STYLE
  5
70
330
0
100
AcDbSymbolTable
 70
     2
  0
STYLE
  5
71
330
70
100
AcDbSymbolTableRecord
100
AcDbTextStyleTableRecord
  2
STANDARD
 70
     0
 40
0.0
 41
1.0
 50
0.0
 71
     0
 42
2.5
  3
arial.ttf
  4

  0
STYLE
  5
72
330
70
100
AcDbSymbolTableRecord
100
AcDbTextStyleTableRecord
  2
ANNOTATIVE
 70
     0
 40
0.0
 41
1.0
 50
0.0
 71
     0
 42
2.5
  3
arial.ttf
  4

  0
ENDTAB
  0
TABLE
  2
VIEW
  5
73
330
0
100
AcDbSymbolTable
 70
     0
  0
ENDTAB
  0
TABLE
  2
UCS
  5
74
330
0
100
AcDbSymbolTable
 70
     0
  0
ENDTAB
  0
TABLE
  2
APPID
  5
75
330
0
100
AcDbSymbolTable
 70
     2
  0
APPID
  5
76
330
75
100
AcDbSymbolTableRecord
100
AcDbRegAppTableRecord
  2
ACAD
 70
     0
  0
APPID
  5
77
330
75
100
AcDbSymbolTableRecord
100
AcDbRegAppTableRecord
  2
ACADANNOTATIVE
 70
     0
  0
ENDTAB
  0
TABLE
  2
DIMSTYLE
  5
78
330
0
100
AcDbSymbolTable
 70
     2
  0
DIMSTYLE
105
79
330
78
100
AcDbSymbolTableRecord
100
AcDbDimStyleTableRecord
  2
STANDARD
 70
     0
  3

  4

  5

  6

  7

 40
0.0
 41
2.5
 42
0.625
 43
3.75
 44
1.25
 45
0.0
 46
0.0
 47
0.0
 48
0.0
140
2.5
141
2.5
142
0.0
143
0.03937007874016
144
1.0
145
0.0
146
1.0
147
0.625
 71
     0
 72
     0
 73
     0
 74
     0
 75
     0
 76
     0
 77
     1
 78
     8
170
     0
171
     3
172
     1
173
     0
174
     0
175
     0
176
     0
177
     0
178
     0
270
     2
271
     2
272
     2
273
     2
274
     3
340
71
275
     0
280
     0
281
     0
282
     0
283
     0
284
     8
285
     0
286
     0
287
     3
288
     0
  0
ENDTAB
  0
TABLE
  2
BLOCK_RECORD
  5
A01
330
0
100
AcDbSymbolTable
  70
5
  0
BLOCK_RECORD
  5
A02
330
A01
100
AcDbSymbolTableRecord
100
AcDbBlockTableRecord
  2
*MODEL_SPACE
  0
BLOCK_RECORD
  5
A03
330
A01
100
AcDbSymbolTableRecord
100
AcDbBlockTableRecord
  2
*PAPER_SPACE
  0
BLOCK_RECORD
  5
AD0
330
A01
100
AcDbSymbolTableRecord
100
AcDbBlockTableRecord
  2
*Dimension
  0
BLOCK_RECORD
  5
AD8
330
A01
100
AcDbSymbolTableRecord
100
AcDbBlockTableRecord
  2
*Dimension001
  0
BLOCK_RECORD
  5
AE0
330
A01
100
AcDbSymbolTableRecord
100
AcDbBlockTableRecord
  2
*Dimension002
  0
BLOCK_RECORD
  5
AEA
330
A01
100
AcDbSymbolTableRecord
100
AcDbBlockTableRecord
  2
*Dimension003
  0
BLOCK_RECORD
  5
AF4
330
A01
100
AcDbSymbolTableRecord
100
AcDbBlockTableRecord
  2
*Dimension004
  0
BLOCK_RECORD
  5
AFB
330
A01
100
AcDbSymbolTableRecord
100
AcDbBlockTableRecord
  2
*Dimension005
  0
BLOCK_RECORD
  5
B03
330
A01
100
AcDbSymbolTableRecord
100
AcDbBlockTableRecord
  2
*Dimension006
  0
ENDTAB
  0
ENDSEC
  0
SECTION
  2
BLOCKS
  0
BLOCK
  5
A04
330
A02
100
AcDbEntity
  8
0
100
AcDbBlockBegin
  2
*MODEL_SPACE
 70
   0
 10
0
 20
0
 30
0
  3
*MODEL_SPACE
  1
 
  0
ENDBLK
  5
A05
330
A02
100
AcDbEntity
  8
0
100
AcDbBlockEnd
  0
BLOCK
  5
A06
330
A03
100
AcDbEntity
 67
1
  8
0
100
AcDbBlockBegin
  2
*PAPER_SPACE
 70
   0
 10
0
 20
0
 30
0
  3
*PAPER_SPACE
  1
 
  0
ENDBLK
  5
A07
330
A03
100
AcDbEntity
 67
    1
  8
0
100
AcDbBlockEnd
  0
BLOCK
  5
AD1
330
AD0
100
AcDbEntity
  8
Dimension
100
AcDbBlockBegin
  2
*Dimension
 70
   1
 10
0
 20
0
 30
0
  3
*Dimension
  1
 
  0
LINE
  5
AD2
330
AD0
100
AcDbEntity
  8
Dimension
100
AcDbLine
 10
214.528
 20
183.245
 30
0
 11
217.272
 21
186.155
 31
0
  0
TEXT
  5
AD3
330
AD0
100
AcDbEntity
  8
Dimension
100
AcDbText
 10
195.417
 20
176.563
 30
0
 40
3.5
  1
⌀4
  7
STANDARD
 72
1
 11
195.417
 21
176.563
 31
0
100
AcDbText
  0
SOLID
  5
AD4
330
AD0
100
AcDbEntity
  8
0
 62
     0
100
AcDbTrace
 10
217.655
 20
187.168
 30
0
 11
218.262
 21
186.596
 31
0
 12
214.528
 22
183.245
 32
0
 13
214.528
 23
183.245
 33
0
  0
SOLID
  5
AD5
330
AD0
100
AcDbEntity
  8
0
 62
     0
100
AcDbTrace
 10
213.538
 20
182.804
 30
0
 11
214.145
 21
182.232
 31
0
 12
217.272
 22
186.155
 32
0
 13
217.272
 23
186.155
 33
0
  0
ENDBLK
  5
AD6
330
AD0
100
AcDbEntity
  8
Dimension
100
AcDbBlockEnd
  0
BLOCK
  5
AD9
330
AD8
100
AcDbEntity
  8
Dimension001
100
AcDbBlockBegin
  2
*Dimension001
 70
   1
 10
0
 20
0
 30
0
  3
*Dimension001
  1
 
  0
LINE
  5
ADA
330
AD8
100
AcDbEntity
  8
Dimension001
100
AcDbLine
 10
230.668
 20
182.07
 30
0
 11
201.132
 21
187.33
 31
0
  0
TEXT
  5
ADB
330
AD8
100
AcDbEntity
  8
Dimension001
100
AcDbText
 10
251.46
 20
187.567
 30
0
 40
3.5
  1
⌀30
  7
STANDARD
 72
1
 11
251.46
 21
187.567
 31
0
100
AcDbText
  0
SOLID
  5
ADC
330
AD8
100
AcDbEntity
  8
0
 62
     0
100
AcDbTrace
 10
225.672
 20
182.537
 30
0
 11
225.818
 21
183.357
 31
0
 12
230.668
 22
182.07
 32
0
 13
230.668
 23
182.07
 33
0
  0
SOLID
  5
ADD
330
AD8
100
AcDbEntity
  8
0
 62
     0
100
AcDbTrace
 10
205.982
 20
186.043
 30
0
 11
206.128
 21
186.863
 31
0
 12
201.132
 22
187.33
 32
0
 13
201.132
 23
187.33
 33
0
  0
ENDBLK
  5
ADE
330
AD8
100
AcDbEntity
  8
Dimension001
100
AcDbBlockEnd
  0
BLOCK
  5
AE1
330
AE0
100
AcDbEntity
  8
Dimension002
100
AcDbBlockBegin
  2
*Dimension002
 70
   1
 10
0
 20
0
 30
0
  3
*Dimension002
  1
 
  0
LINE
  5
AE2
330
AE0
100
AcDbEntity
  8
Dimension002
100
AcDbLine
 10
138.862
 20
154.7
 30
0
 11
92.6388
 21
154.7
 31
0
  0
LINE
  5
AE3
330
AE0
100
AcDbEntity
  8
Dimension002
100
AcDbLine
 10
138.862
 20
124.7
 30
0
 11
92.6388
 21
124.7
 31
0
  0
LINE
  5
AE4
330
AE0
100
AcDbEntity
  8
Dimension002
100
AcDbLine
 10
92.6388
 20
124.7
 30
0
 11
92.6388
 21
154.7
 31
0
  0
TEXT
  5
AE5
330
AE0
100
AcDbEntity
  8
Dimension002
100
AcDbText
 10
97.6388
 20
139.7
 30
0
 40
3.5
  1
30
  7
STANDARD
 72
1
 11
92.6388
 21
139.7
 31
0
100
AcDbText
  0
SOLID
  5
AE6
330
AE0
100
AcDbEntity
  8
0
 62
     0
100
AcDbTrace
 10
92.2221
 20
119.7
 30
0
 11
93.0555
 21
119.7
 31
0
 12
92.6388
 22
124.7
 32
0
 13
92.6388
 23
124.7
 33
0
  0
SOLID
  5
AE7
330
AE0
100
AcDbEntity
  8
0
 62
     0
100
AcDbTrace
 10
92.2221
 20
159.7
 30
0
 11
93.0555
 21
159.7
 31
0
 12
92.6388
 22
154.7
 32
0
 13
92.6388
 23
154.7
 33
0
  0
ENDBLK
  5
AE8
330
AE0
100
AcDbEntity
  8
Dimension002
100
AcDbBlockEnd
  0
BLOCK
  5
AEB
330
AEA
100
AcDbEntity
  8
Dimension003
100
AcDbBlockBegin
  2
*Dimension003
 70
   1
 10
0
 20
0
 30
0
  3
*Dimension003
  1
 
  0
LINE
  5
AEC
330
AEA
100
AcDbEntity
  8
Dimension003
100
AcDbLine
 10
146.362
 20
127.2
 30
0
 11
115.036
 21
141.002
 31
0
  0
LINE
  5
AED
330
AEA
100
AcDbEntity
  8
Dimension003
100
AcDbLine
 10
146.362
 20
124.7
 30
0
 11
115.036
 21
138.502
 31
0
  0
LINE
  5
AEE
330
AEA
100
AcDbEntity
  8
Dimension003
100
AcDbLine
 10
115.036
 20
138.502
 30
0
 11
115.036
 21
141.002
 31
0
  0
TEXT
  5
AEF
330
AEA
100
AcDbEntity
  8
Dimension003
100
AcDbText
 10
120.036
 20
141.002
 30
0
 40
3.5
  1
2,5
  7
STANDARD
 72
1
 11
115.036
 21
141.002
 31
0
100
AcDbText
  0
SOLID
  5
AF0
330
AEA
100
AcDbEntity
  8
0
 62
     0
100
AcDbTrace
 10
115.417
 20
143.334
 30
0
 11
114.654
 21
143.67
 31
0
 12
115.036
 22
138.502
 32
0
 13
115.036
 23
138.502
 33
0
  0
SOLID
  5
AF1
330
AEA
100
AcDbEntity
  8
0
 62
     0
100
AcDbTrace
 10
115.417
 20
135.834
 30
0
 11
114.654
 21
136.17
 31
0
 12
115.036
 22
141.002
 32
0
 13
115.036
 23
141.002
 33
0
  0
ENDBLK
  5
AF2
330
AEA
100
AcDbEntity
  8
Dimension003
100
AcDbBlockEnd
  0
BLOCK
  5
AF5
330
AF4
100
AcDbEntity
  8
Dimension004
100
AcDbBlockBegin
  2
*Dimension004
 70
   1
 10
0
 20
0
 30
0
  3
*Dimension004
  1
 
  0
LINE
  5
AF6
330
AF4
100
AcDbEntity
  8
Dimension004
100
AcDbLine
 10
215.9
 20
146.7
 30
0
 11
218.126
 21
145.561
 31
0
  0
TEXT
  5
AF7
330
AF4
100
AcDbEntity
  8
Dimension004
100
AcDbText
 10
245.568
 20
143.23
 30
0
 40
3.5
  1
R2,5
  7
STANDARD
 72
1
 11
245.568
 21
143.23
 31
0
100
AcDbText
  0
SOLID
  5
AF8
330
AF4
100
AcDbEntity
  8
0
 62
     0
100
AcDbTrace
 10
213.864
 20
148.21
 30
0
 11
213.485
 21
147.468
 31
0
 12
218.126
 22
145.561
 32
0
 13
218.126
 23
145.561
 33
0
  0
ENDBLK
  5
AF9
330
AF4
100
AcDbEntity
  8
Dimension004
100
AcDbBlockEnd
  0
BLOCK
  5
AFC
330
AFB
100
AcDbEntity
  8
Dimension005
100
AcDbBlockBegin
  2
*Dimension005
 70
   1
 10
0
 20
0
 30
0
  3
*Dimension005
  1
 
  0
LINE
  5
AFD
330
AFB
100
AcDbEntity
  8
Dimension005
100
AcDbLine
 10
217.211
 20
127.971
 30
0
 11
214.589
 21
129.429
 31
0
  0
TEXT
  5
AFE
330
AFB
100
AcDbEntity
  8
Dimension005
100
AcDbText
 10
239.922
 20
126.181
 30
0
 40
3.5
  1
⌀3
  7
STANDARD
 72
1
 11
239.922
 21
126.181
 31
0
100
AcDbText
  0
SOLID
  5
AFF
330
AFB
100
AcDbEntity
  8
0
 62
     0
100
AcDbTrace
 10
212.639
 20
130.038
 30
0
 11
213.044
 21
130.766
 31
0
 12
217.211
 22
127.971
 32
0
 13
217.211
 23
127.971
 33
0
  0
SOLID
  5
B00
330
AFB
100
AcDbEntity
  8
0
 62
     0
100
AcDbTrace
 10
218.756
 20
126.634
 30
0
 11
219.161
 21
127.362
 31
0
 12
214.589
 22
129.429
 32
0
 13
214.589
 23
129.429
 33
0
  0
ENDBLK
  5
B01
330
AFB
100
AcDbEntity
  8
Dimension005
100
AcDbBlockEnd
  0
BLOCK
  5
B04
330
B03
100
AcDbEntity
  8
Dimension006
100
AcDbBlockBegin
  2
*Dimension006
 70
   1
 10
0
 20
0
 30
0
  3
*Dimension006
  1
 
  0
LINE
  5
B05
330
B03
100
AcDbEntity
  8
Dimension006
100
AcDbLine
 10
215.9
 20
154.7
 30
0
 11
180.624
 21
152.513
 31
0
  0
LINE
  5
B06
330
B03
100
AcDbEntity
  8
Dimension006
100
AcDbLine
 10
215.9
 20
149.2
 30
0
 11
180.624
 21
147.013
 31
0
  0
LINE
  5
B07
330
B03
100
AcDbEntity
  8
Dimension006
100
AcDbLine
 10
180.624
 20
147.013
 30
0
 11
180.624
 21
152.513
 31
0
  0
TEXT
  5
B08
330
B03
100
AcDbEntity
  8
Dimension006
100
AcDbText
 10
185.624
 20
147.013
 30
0
 40
3.5
  1
5,5
  7
STANDARD
 72
1
 11
180.624
 21
147.013
 31
0
100
AcDbText
  0
SOLID
  5
B09
330
B03
100
AcDbEntity
  8
0
 62
     0
100
AcDbTrace
 10
181.04
 20
152.039
 30
0
 11
180.208
 21
151.987
 31
0
 12
180.624
 22
147.013
 32
0
 13
180.624
 23
147.013
 33
0
  0
SOLID
  5
B0A
330
B03
100
AcDbEntity
  8
0
 62
     0
100
AcDbTrace
 10
181.04
 20
147.539
 30
0
 11
180.208
 21
147.487
 31
0
 12
180.624
 22
152.513
 32
0
 13
180.624
 23
152.513
 33
0
  0
ENDBLK
  5
B0B
330
B03
100
AcDbEntity
  8
Dimension006
100
AcDbBlockEnd
  0
ENDSEC
  0
SECTION
  2
ENTITIES
  0
SPLINE
  5
A08
330
A02
100
AcDbEntity
  8
View
100
AcDbSpline
210
0
220
0
230
1
 70
8
 71
1
 72
17
 73
15
 74
0
 40
3.141592654
 40
3.141592654
 40
3.365992129
 40
3.590391604
 40
3.814791079
 40
4.039190555
 40
4.263590030
 40
4.487989505
 40
4.712388980
 40
4.936788456
 40
5.161187931
 40
5.385587406
 40
5.609986881
 40
5.834386357
 40
6.058785832
 40
6.283185307
 40
6.283185307
 10
200.900000000
 20
124.700000000
 30
0.000000000
 10
201.276081317
 20
124.700000000
 30
0.000000000
 10
202.385466981
 20
124.700000000
 30
0.000000000
 10
204.172527763
 20
124.700000000
 30
0.000000000
 10
206.547652972
 20
124.700000000
 30
0.000000000
 10
209.391743913
 20
124.700000000
 30
0.000000000
 10
212.562185991
 20
124.700000000
 30
0.000000000
 10
215.900000000
 20
124.700000000
 30
0.000000000
 10
219.237814009
 20
124.700000000
 30
0.000000000
 10
222.408256087
 20
124.700000000
 30
0.000000000
 10
225.252347028
 20
124.700000000
 30
0.000000000
 10
227.627472237
 20
124.700000000
 30
0.000000000
 10
229.414533019
 20
124.700000000
 30
0.000000000
 10
230.523918683
 20
124.700000000
 30
0.000000000
 10
230.900000000
 20
124.700000000
 30
0.000000000
  0
LINE
  5
A09
330
A02
100
AcDbEntity
  8
View
100
AcDbLine
 10
230.900000000
 20
124.700000000
 30
0.000000000
 11
230.900000000
 21
154.700000000
 31
0.000000000
  0
SPLINE
  5
A0A
330
A02
100
AcDbEntity
  8
View
100
AcDbSpline
210
0
220
0
230
1
 70
8
 71
1
 72
17
 73
15
 74
0
 40
3.141592654
 40
3.141592654
 40
3.365992129
 40
3.590391604
 40
3.814791079
 40
4.039190555
 40
4.263590030
 40
4.487989505
 40
4.712388980
 40
4.936788456
 40
5.161187931
 40
5.385587406
 40
5.609986881
 40
5.834386357
 40
6.058785832
 40
6.283185307
 40
6.283185307
 10
200.900000000
 20
154.700000000
 30
0.000000000
 10
201.276081317
 20
154.700000000
 30
0.000000000
 10
202.385466981
 20
154.700000000
 30
0.000000000
 10
204.172527763
 20
154.700000000
 30
0.000000000
 10
206.547652972
 20
154.700000000
 30
0.000000000
 10
209.391743913
 20
154.700000000
 30
0.000000000
 10
212.562185991
 20
154.700000000
 30
0.000000000
 10
215.900000000
 20
154.700000000
 30
0.000000000
 10
219.237814009
 20
154.700000000
 30
0.000000000
 10
222.408256087
 20
154.700000000
 30
0.000000000
 10
225.252347028
 20
154.700000000
 30
0.000000000
 10
227.627472237
 20
154.700000000
 30
0.000000000
 10
229.414533019
 20
154.700000000
 30
0.000000000
 10
230.523918683
 20
154.700000000
 30
0.000000000
 10
230.900000000
 20
154.700000000
 30
0.000000000
  0
SPLINE
  5
A0B
330
A02
100
AcDbEntity
  8
View
100
AcDbSpline
210
0
220
0
230
1
 70
8
 71
3
 72
11
 73
7
 74
0
 40
0.151817980
 40
0.151817980
 40
0.151817980
 40
0.151817980
 40
0.155168598
 40
0.155168598
 40
0.155168598
 40
0.253029966
 40
0.253029966
 40
0.253029966
 40
0.253029966
 10
217.533626842
 20
148.592422614
 30
0.000000000
 10
217.520271220
 20
148.603709445
 30
0.000000000
 10
217.506915597
 20
148.614996276
 30
0.000000000
 10
217.493559974
 20
148.626283107
 30
0.000000000
 10
217.101755979
 20
148.958328969
 30
0.000000000
 10
216.510180536
 20
149.205432021
 30
0.000000000
 10
215.900000000
 20
149.200000017
 30
0.000000000
  0
SPLINE
  5
A0C
330
A02
100
AcDbEntity
  8
View
100
AcDbSpline
210
0
220
0
230
1
 70
8
 71
3
 72
23
 73
19
 74
0
 40
0.253029966
 40
0.253029966
 40
0.253029966
 40
0.253029966
 40
0.286778101
 40
0.286778101
 40
0.286778101
 40
0.354840610
 40
0.354840610
 40
0.354840610
 40
0.422903120
 40
0.422903120
 40
0.422903120
 40
0.579542014
 40
0.579542014
 40
0.579542014
 40
0.707278656
 40
0.707278656
 40
0.707278656
 40
0.749575789
 40
0.749575789
 40
0.749575789
 40
0.749575789
 10
215.900000000
 20
149.200000017
 30
0.000000000
 10
215.688823014
 20
149.199801591
 30
0.000000000
 10
215.481581442
 20
149.173620886
 30
0.000000000
 10
215.278275282
 20
149.121457903
 30
0.000000000
 10
214.870993508
 20
149.016600554
 30
0.000000000
 10
214.526577538
 20
148.820213227
 30
0.000000000
 10
214.253364262
 20
148.581114221
 30
0.000000000
 10
213.979649162
 20
148.341410428
 30
0.000000000
 10
213.776257204
 20
148.058468080
 30
0.000000000
 10
213.637932369
 20
147.764448229
 30
0.000000000
 10
213.320486025
 20
147.086798047
 30
0.000000000
 10
213.320486025
 20
146.313201953
 30
0.000000000
 10
213.637932369
 20
145.635551771
 30
0.000000000
 10
213.895668520
 20
145.087123270
 30
0.000000000
 10
214.388828815
 20
144.565745123
 30
0.000000000
 10
215.127457514
 20
144.322358709
 30
0.000000000
 10
215.371018486
 20
144.242940134
 30
0.000000000
 10
215.635447383
 20
144.199737704
 30
0.000000000
 10
215.900000000
 20
144.200000002
 30
0.000000000
  0
SPLINE
  5
A0D
330
A02
100
AcDbEntity
  8
View
100
AcDbSpline
210
0
220
0
230
1
 70
8
 71
3
 72
14
 73
10
 74
0
 40
0.749575767
 40
0.749575767
 40
0.749575767
 40
0.749575767
 40
0.827872571
 40
0.827872571
 40
0.827872571
 40
0.913936286
 40
0.913936286
 40
0.913936286
 40
1.000000000
 40
1.000000000
 40
1.000000000
 40
1.000000000
 10
215.899999608
 20
144.200000002
 30
0.000000000
 10
216.390576970
 20
144.197008077
 30
0.000000000
 10
216.876239220
 20
144.354834234
 30
0.000000000
 10
217.239566987
 20
144.589180186
 30
0.000000000
 10
217.640566130
 20
144.844334435
 30
0.000000000
 10
217.930902241
 20
145.185470132
 30
0.000000000
 10
218.120201808
 20
145.550781172
 30
0.000000000
 10
218.309494762
 20
145.917318177
 30
0.000000000
 10
218.399731861
 20
146.309657807
 30
0.000000000
 10
218.400000000
 20
146.700000000
 30
0.000000000
  0
SPLINE
  5
A0E
330
A02
100
AcDbEntity
  8
View
100
AcDbSpline
210
0
220
0
230
1
 70
8
 71
3
 72
23
 73
19
 74
0
 40
0.253029940
 40
0.253029940
 40
0.253029940
 40
0.253029940
 40
0.286778098
 40
0.286778098
 40
0.286778098
 40
0.354840608
 40
0.354840608
 40
0.354840608
 40
0.422903117
 40
0.422903117
 40
0.422903117
 40
0.579542013
 40
0.579542013
 40
0.579542013
 40
0.707278655
 40
0.707278655
 40
0.707278655
 40
0.749575767
 40
0.749575767
 40
0.749575767
 40
0.749575767
 10
215.900000433
 20
149.200000017
 30
0.000000000
 10
215.688823300
 20
149.199801627
 30
0.000000000
 10
215.481581584
 20
149.173620923
 30
0.000000000
 10
215.278275282
 20
149.121457903
 30
0.000000000
 10
214.870993508
 20
149.016600554
 30
0.000000000
 10
214.526577538
 20
148.820213227
 30
0.000000000
 10
214.253364262
 20
148.581114221
 30
0.000000000
 10
213.979649162
 20
148.341410428
 30
0.000000000
 10
213.776257204
 20
148.058468080
 30
0.000000000
 10
213.637932369
 20
147.764448229
 30
0.000000000
 10
213.320486025
 20
147.086798047
 30
0.000000000
 10
213.320486025
 20
146.313201953
 30
0.000000000
 10
213.637932369
 20
145.635551771
 30
0.000000000
 10
213.895668520
 20
145.087123270
 30
0.000000000
 10
214.388828815
 20
144.565745123
 30
0.000000000
 10
215.127457514
 20
144.322358709
 30
0.000000000
 10
215.371018366
 20
144.242940174
 30
0.000000000
 10
215.635447122
 20
144.199737746
 30
0.000000000
 10
215.899999608
 20
144.200000002
 30
0.000000000
  0
SPLINE
  5
A0F
330
A02
100
AcDbEntity
  8
View
100
AcDbSpline
210
0
220
0
230
1
 70
8
 71
3
 72
11
 73
7
 74
0
 40
0.000000000
 40
0.000000000
 40
0.000000000
 40
0.000000000
 40
0.155168595
 40
0.155168595
 40
0.155168595
 40
0.253029940
 40
0.253029940
 40
0.253029940
 40
0.253029940
 10
218.400000000
 20
146.700000000
 30
0.000000000
 10
218.397901908
 20
147.391378307
 30
0.000000000
 10
218.118401984
 20
148.102305643
 30
0.000000000
 10
217.493559974
 20
148.626283107
 30
0.000000000
 10
217.101756071
 20
148.958328886
 30
0.000000000
 10
216.510180820
 20
149.205431911
 30
0.000000000
 10
215.900000433
 20
149.200000017
 30
0.000000000
  0
SPLINE
  5
A10
330
A02
100
AcDbEntity
  8
View
100
AcDbSpline
210
0
220
0
230
1
 70
8
 71
1
 72
4
 73
2
 74
0
 40
0.233082036
 40
0.233082036
 40
0.233145344
 40
0.233145344
 10
216.098079483
 20
130.186863980
 30
0.000000000
 10
216.097399462
 20
130.186954414
 30
0.000000000
  0
SPLINE
  5
A11
330
A02
100
AcDbEntity
  8
View
100
AcDbSpline
210
0
220
0
230
1
 70
8
 71
1
 72
4
 73
2
 74
0
 40
0.643086976
 40
0.643086976
 40
0.643669070
 40
0.643669070
 10
214.899999998
 20
127.581966009
 30
0.000000000
 10
214.904155759
 20
127.578262839
 30
0.000000000
  0
SPLINE
  5
A12
330
A02
100
AcDbEntity
  8
View
100
AcDbSpline
210
0
220
0
230
1
 70
8
 71
1
 72
4
 73
2
 74
0
 40
0.643674933
 40
0.643674933
 40
0.651585915
 40
0.651585915
 10
214.904197708
 20
127.578225600
 30
0.000000000
 10
214.962406008
 20
127.529138125
 30
0.000000000
  0
SPLINE
  5
A13
330
A02
100
AcDbEntity
  8
View
100
AcDbSpline
210
0
220
0
230
1
 70
8
 71
1
 72
4
 73
2
 74
0
 40
0.651593676
 40
0.651593676
 40
0.651595935
 40
0.651595935
 10
214.962464690
 20
127.529091137
 30
0.000000000
 10
214.962481763
 20
127.529077467
 30
0.000000000
  0
SPLINE
  5
A14
330
A02
100
AcDbEntity
  8
View
100
AcDbSpline
210
0
220
0
230
1
 70
8
 71
1
 72
4
 73
2
 74
0
 40
0.674443912
 40
0.674443912
 40
0.684571001
 40
0.684571001
 10
215.148317293
 20
127.401934869
 30
0.000000000
 10
215.238818155
 20
127.353583070
 30
0.000000000
  0
SPLINE
  5
A15
330
A02
100
AcDbEntity
  8
View
100
AcDbSpline
210
0
220
0
230
1
 70
8
 71
1
 72
4
 73
2
 74
0
 40
0.684587052
 40
0.684587052
 40
0.684908445
 40
0.684908445
 10
215.238965414
 20
127.353510767
 30
0.000000000
 10
215.241916671
 20
127.352065909
 30
0.000000000
  0
SPLINE
  5
A16
330
A02
100
AcDbEntity
  8
View
100
AcDbSpline
210
0
220
0
230
1
 70
8
 71
1
 72
4
 73
2
 74
0
 40
0.684922804
 40
0.684922804
 40
0.684925114
 40
0.684925114
 10
215.242048637
 20
127.352001489
 30
0.000000000
 10
215.242069865
 20
127.351991128
 30
0.000000000
  0
SPLINE
  5
A17
330
A02
100
AcDbEntity
  8
View
100
AcDbSpline
210
0
220
0
230
1
 70
8
 71
3
 72
11
 73
7
 74
0
 40
0.000000000
 40
0.000000000
 40
0.000000000
 40
0.000000000
 40
0.152022964
 40
0.152022964
 40
0.152022964
 40
0.251351126
 40
0.251351126
 40
0.251351126
 40
0.251351126
 10
202.224734045
 20
128.700000000
 30
0.000000000
 10
202.225675891
 20
129.117146442
 30
0.000000000
 10
202.293722311
 20
129.545783012
 30
0.000000000
 10
202.457968378
 20
129.855769864
 30
0.000000000
 10
202.564770093
 20
130.059215689
 30
0.000000000
 10
202.728182495
 20
130.202853137
 30
0.000000000
 10
202.909618940
 20
130.200000007
 30
0.000000000
  0
SPLINE
  5
A18
330
A02
100
AcDbEntity
  8
View
100
AcDbSpline
210
0
220
0
230
1
 70
8
 71
3
 72
20
 73
16
 74
0
 40
0.251351126
 40
0.251351126
 40
0.251351126
 40
0.251351126
 40
0.285982565
 40
0.285982565
 40
0.285982565
 40
0.422480302
 40
0.422480302
 40
0.422480302
 40
0.587693165
 40
0.587693165
 40
0.587693165
 40
0.713901165
 40
0.713901165
 40
0.713901165
 40
0.748607861
 40
0.748607861
 40
0.748607861
 40
0.748607861
 10
202.909618940
 20
130.200000007
 30
0.000000000
 10
202.973014438
 20
130.199877740
 30
0.000000000
 10
203.036526138
 20
130.184169318
 30
0.000000000
 10
203.100154038
 20
130.152874742
 30
0.000000000
 10
203.350766041
 20
130.028802921
 30
0.000000000
 10
203.545678520
 20
129.695644649
 30
0.000000000
 10
203.641525426
 20
129.338668937
 30
0.000000000
 10
203.760118577
 20
128.905438628
 30
0.000000000
 10
203.751787761
 20
128.402123041
 30
0.000000000
 10
203.616822515
 20
127.977369489
 30
0.000000000
 10
203.515664279
 20
127.654562488
 30
0.000000000
 10
203.330537786
 20
127.360793104
 30
0.000000000
 10
203.100154038
 20
127.247125258
 30
0.000000000
 10
203.036651956
 20
127.215862563
 30
0.000000000
 10
202.973140257
 20
127.200154150
 30
0.000000000
 10
202.909618942
 20
127.200000020
 30
0.000000000
  0
SPLINE
  5
A19
330
A02
100
AcDbEntity
  8
View
100
AcDbSpline
210
0
220
0
230
1
 70
8
 71
3
 72
11
 73
7
 74
0
 40
0.748607861
 40
0.748607861
 40
0.748607861
 40
0.748607861
 40
0.838379681
 40
0.838379681
 40
0.838379681
 40
1.000000000
 40
1.000000000
 40
1.000000000
 40
1.000000000
 10
202.909618942
 20
127.200000020
 30
0.000000000
 10
202.745938701
 20
127.197904913
 30
0.000000000
 10
202.595824154
 20
127.314005444
 30
0.000000000
 10
202.491239751
 20
127.486474508
 30
0.000000000
 10
202.302574094
 20
127.797224775
 30
0.000000000
 10
202.225870927
 20
128.256606915
 30
0.000000000
 10
202.224734045
 20
128.700000000
 30
0.000000000
  0
SPLINE
  5
A1A
330
A02
100
AcDbEntity
  8
View
100
AcDbSpline
210
0
220
0
230
1
 70
8
 71
3
 72
11
 73
7
 74
0
 40
0.000000000
 40
0.000000000
 40
0.000000000
 40
0.000000000
 40
0.152022964
 40
0.152022964
 40
0.152022964
 40
0.251351126
 40
0.251351126
 40
0.251351126
 40
0.251351126
 10
228.075265955
 20
128.700000000
 30
0.000000000
 10
228.074962529
 20
129.117146442
 30
0.000000000
 10
228.179168702
 20
129.545783012
 30
0.000000000
 10
228.385895637
 20
129.855769864
 30
0.000000000
 10
228.519983715
 20
130.059215689
 30
0.000000000
 10
228.709662657
 20
130.202853137
 30
0.000000000
 10
228.890381102
 20
130.200000007
 30
0.000000000
  0
SPLINE
  5
A1B
330
A02
100
AcDbEntity
  8
View
100
AcDbSpline
210
0
220
0
230
1
 70
8
 71
3
 72
20
 73
16
 74
0
 40
0.251351126
 40
0.251351126
 40
0.251351126
 40
0.251351126
 40
0.285982565
 40
0.285982565
 40
0.285982565
 40
0.422480302
 40
0.422480302
 40
0.422480302
 40
0.587693165
 40
0.587693165
 40
0.587693165
 40
0.713901165
 40
0.713901165
 40
0.713901165
 40
0.748607861
 40
0.748607861
 40
0.748607861
 40
0.748607861
 10
228.890381102
 20
130.200000007
 30
0.000000000
 10
228.953722294
 20
130.199877740
 30
0.000000000
 10
229.014555524
 20
130.184169318
 30
0.000000000
 10
229.072880792
 20
130.152874742
 30
0.000000000
 10
229.302171670
 20
130.028802921
 30
0.000000000
 10
229.445354120
 20
129.695644649
 30
0.000000000
 10
229.515715153
 20
129.338668937
 30
0.000000000
 10
229.600517374
 20
128.905438628
 30
0.000000000
 10
229.595357104
 20
128.402123041
 30
0.000000000
 10
229.497637505
 20
127.977369489
 30
0.000000000
 10
229.422867069
 20
127.654562488
 30
0.000000000
 10
229.283858399
 20
127.360793104
 30
0.000000000
 10
229.072880792
 20
127.247125258
 30
0.000000000
 10
229.014675917
 20
127.215862563
 30
0.000000000
 10
228.953842683
 20
127.200154150
 30
0.000000000
 10
228.890381090
 20
127.200000020
 30
0.000000000
  0
SPLINE
  5
A1C
330
A02
100
AcDbEntity
  8
View
100
AcDbSpline
210
0
220
0
230
1
 70
8
 71
3
 72
11
 73
7
 74
0
 40
0.748607861
 40
0.748607861
 40
0.748607861
 40
0.748607861
 40
0.838379681
 40
0.838379681
 40
0.838379681
 40
1.000000000
 40
1.000000000
 40
1.000000000
 40
1.000000000
 10
228.890381090
 20
127.200000020
 30
0.000000000
 10
228.727245053
 20
127.197904913
 30
0.000000000
 10
228.555970716
 20
127.314005444
 30
0.000000000
 10
228.427082370
 20
127.486474508
 30
0.000000000
 10
228.193478086
 20
127.797224775
 30
0.000000000
 10
228.074752903
 20
128.256606915
 30
0.000000000
 10
228.075265955
 20
128.700000000
 30
0.000000000
  0
LINE
  5
A1D
330
A02
100
AcDbEntity
  8
View
100
AcDbLine
 10
200.900000000
 20
154.700000000
 30
0.000000000
 11
200.900000000
 21
124.700000000
 31
0.000000000
  0
SPLINE
  5
A1E
330
A02
100
AcDbEntity
  8
ProjItem
100
AcDbSpline
210
0
220
0
230
1
 70
8
 71
1
 72
17
 73
15
 74
0
 40
0.000000000
 40
0.000000000
 40
0.112199738
 40
0.224399475
 40
0.336599213
 40
0.448798951
 40
0.560998688
 40
0.673198426
 40
0.785398163
 40
0.897597901
 40
1.009797639
 40
1.121997376
 40
1.234197114
 40
1.346396852
 40
1.458596589
 40
1.570796327
 40
1.570796327
 10
153.861750230
 20
124.700000000
 30
0.000000000
 10
155.541217372
 20
124.700000000
 30
0.000000000
 10
157.199564239
 20
124.700000000
 30
0.000000000
 10
158.815936159
 20
124.700000000
 30
0.000000000
 10
160.370006317
 20
124.700000000
 30
0.000000000
 10
161.842231378
 20
124.700000000
 30
0.000000000
 10
163.214097258
 20
124.700000000
 30
0.000000000
 10
164.468351948
 20
124.700000000
 30
0.000000000
 10
165.589222467
 20
124.700000000
 30
0.000000000
 10
166.562613219
 20
124.700000000
 30
0.000000000
 10
167.376283249
 20
124.700000000
 30
0.000000000
 10
168.020000185
 20
124.700000000
 30
0.000000000
 10
168.485668913
 20
124.700000000
 30
0.000000000
 10
168.767433378
 20
124.700000000
 30
0.000000000
 10
168.861750230
 20
124.700000000
 30
0.000000000
  0
SPLINE
  5
A1F
330
A02
100
AcDbEntity
  8
ProjItem
100
AcDbSpline
210
0
220
0
230
1
 70
8
 71
1
 72
17
 73
15
 74
0
 40
4.712388980
 40
4.712388980
 40
4.824588718
 40
4.936788456
 40
5.048988193
 40
5.161187931
 40
5.273387669
 40
5.385587406
 40
5.497787144
 40
5.609986881
 40
5.722186619
 40
5.834386357
 40
5.946586094
 40
6.058785832
 40
6.170985570
 40
6.283185307
 40
6.283185307
 10
138.861750230
 20
124.700000000
 30
0.000000000
 10
138.956067082
 20
124.700000000
 30
0.000000000
 10
139.237831547
 20
124.700000000
 30
0.000000000
 10
139.703500275
 20
124.700000000
 30
0.000000000
 10
140.347217212
 20
124.700000000
 30
0.000000000
 10
141.160887242
 20
124.700000000
 30
0.000000000
 10
142.134277993
 20
124.700000000
 30
0.000000000
 10
143.255148512
 20
124.700000000
 30
0.000000000
 10
144.509403202
 20
124.700000000
 30
0.000000000
 10
145.881269082
 20
124.700000000
 30
0.000000000
 10
147.353494143
 20
124.700000000
 30
0.000000000
 10
148.907564301
 20
124.700000000
 30
0.000000000
 10
150.523936221
 20
124.700000000
 30
0.000000000
 10
152.182283089
 20
124.700000000
 30
0.000000000
 10
153.861750230
 20
124.700000000
 30
0.000000000
  0
SPLINE
  5
A20
330
A02
100
AcDbEntity
  8
ProjItem
100
AcDbSpline
210
0
220
0
230
1
 70
8
 71
1
 72
17
 73
15
 74
0
 40
0.000000000
 40
0.000000000
 40
0.112199738
 40
0.224399475
 40
0.336599213
 40
0.448798951
 40
0.560998688
 40
0.673198426
 40
0.785398163
 40
0.897597901
 40
1.009797639
 40
1.121997376
 40
1.234197114
 40
1.346396852
 40
1.458596589
 40
1.570796327
 40
1.570796327
 10
153.861750230
 20
154.700000000
 30
0.000000000
 10
155.541217372
 20
154.700000000
 30
0.000000000
 10
157.199564239
 20
154.700000000
 30
0.000000000
 10
158.815936159
 20
154.700000000
 30
0.000000000
 10
160.370006317
 20
154.700000000
 30
0.000000000
 10
161.842231378
 20
154.700000000
 30
0.000000000
 10
163.214097258
 20
154.700000000
 30
0.000000000
 10
164.468351948
 20
154.700000000
 30
0.000000000
 10
165.589222467
 20
154.700000000
 30
0.000000000
 10
166.562613219
 20
154.700000000
 30
0.000000000
 10
167.376283249
 20
154.700000000
 30
0.000000000
 10
168.020000185
 20
154.700000000
 30
0.000000000
 10
168.485668913
 20
154.700000000
 30
0.000000000
 10
168.767433378
 20
154.700000000
 30
0.000000000
 10
168.861750230
 20
154.700000000
 30
0.000000000
  0
SPLINE
  5
A21
330
A02
100
AcDbEntity
  8
ProjItem
100
AcDbSpline
210
0
220
0
230
1
 70
8
 71
1
 72
17
 73
15
 74
0
 40
4.712388980
 40
4.712388980
 40
4.824588718
 40
4.936788456
 40
5.048988193
 40
5.161187931
 40
5.273387669
 40
5.385587406
 40
5.497787144
 40
5.609986881
 40
5.722186619
 40
5.834386357
 40
5.946586094
 40
6.058785832
 40
6.170985570
 40
6.283185307
 40
6.283185307
 10
138.861750230
 20
154.700000000
 30
0.000000000
 10
138.956067082
 20
154.700000000
 30
0.000000000
 10
139.237831547
 20
154.700000000
 30
0.000000000
 10
139.703500275
 20
154.700000000
 30
0.000000000
 10
140.347217212
 20
154.700000000
 30
0.000000000
 10
141.160887242
 20
154.700000000
 30
0.000000000
 10
142.134277993
 20
154.700000000
 30
0.000000000
 10
143.255148512
 20
154.700000000
 30
0.000000000
 10
144.509403202
 20
154.700000000
 30
0.000000000
 10
145.881269082
 20
154.700000000
 30
0.000000000
 10
147.353494143
 20
154.700000000
 30
0.000000000
 10
148.907564301
 20
154.700000000
 30
0.000000000
 10
150.523936221
 20
154.700000000
 30
0.000000000
 10
152.182283089
 20
154.700000000
 30
0.000000000
 10
153.861750230
 20
154.700000000
 30
0.000000000
  0
SPLINE
  5
A22
330
A02
100
AcDbEntity
  8
ProjItem
100
AcDbSpline
210
0
220
0
230
1
 70
8
 71
3
 72
11
 73
7
 74
0
 40
0.000000000
 40
0.000000000
 40
0.000000000
 40
0.000000000
 40
0.155168598
 40
0.155168598
 40
0.155168598
 40
0.253029966
 40
0.253029966
 40
0.253029966
 40
0.253029966
 10
168.651949688
 20
146.700000000
 30
0.000000000
 10
168.650002259
 20
147.391378307
 30
0.000000000
 10
168.707620334
 20
148.102305643
 30
0.000000000
 10
168.776862251
 20
148.626283107
 30
0.000000000
 10
168.819780603
 20
148.958328969
 30
0.000000000
 10
168.862947129
 20
149.205432021
 30
0.000000000
 10
168.861750230
 20
149.200000017
 30
0.000000000
  0
SPLINE
  5
A23
330
A02
100
AcDbEntity
  8
ProjItem
100
AcDbSpline
210
0
220
0
230
1
 70
8
 71
2
 72
6
 73
3
 74
0
 40
0.372838839
 40
0.372838839
 40
0.372838839
 40
0.402472251
 40
0.402472251
 40
0.402472251
 10
168.747339856
 20
148.382491642
 30
0.000000000
 10
168.727946563
 20
148.211738057
 30
0.000000000
 10
168.711214335
 20
148.025362176
 30
0.000000000
  0
SPLINE
  5
A24
330
A02
100
AcDbEntity
  8
ProjItem
100
AcDbSpline
210
0
220
0
230
1
 70
8
 71
3
 72
8
 73
4
 74
0
 40
0.417602997
 40
0.417602997
 40
0.417602997
 40
0.417602997
 40
0.510085820
 40
0.510085820
 40
0.510085820
 40
0.510085820
 10
168.695279210
 20
147.832952929
 30
0.000000000
 10
168.664785469
 20
147.436804053
 30
0.000000000
 10
168.648654213
 20
147.004820995
 30
0.000000000
 10
168.652462154
 20
146.576876750
 30
0.000000000
  0
SPLINE
  5
A25
330
A02
100
AcDbEntity
  8
ProjItem
100
AcDbSpline
210
0
220
0
230
1
 70
8
 71
1
 72
4
 73
2
 74
0
 40
0.510497494
 40
0.510497494
 40
0.512042302
 40
0.512042302
 10
168.652510835
 20
146.571161376
 30
0.000000000
 10
168.652713159
 20
146.549718670
 30
0.000000000
  0
SPLINE
  5
A26
330
A02
100
AcDbEntity
  8
ProjItem
100
AcDbSpline
210
0
220
0
230
1
 70
8
 71
2
 72
6
 73
3
 74
0
 40
0.513498772
 40
0.513498772
 40
0.513498772
 40
0.556513652
 40
0.556513652
 40
0.556513652
 10
168.652932303
 20
146.529509002
 30
0.000000000
 10
168.656481535
 20
146.230133454
 30
0.000000000
 10
168.671462770
 20
145.940009397
 30
0.000000000
  0
SPLINE
  5
A27
330
A02
100
AcDbEntity
  8
ProjItem
100
AcDbSpline
210
0
220
0
230
1
 70
8
 71
1
 72
4
 73
2
 74
0
 40
0.556521129
 40
0.556521129
 40
0.564999291
 40
0.564999291
 10
168.671467928
 20
145.939908887
 30
0.000000000
 10
168.677716827
 20
145.826577717
 30
0.000000000
  0
SPLINE
  5
A28
330
A02
100
AcDbEntity
  8
ProjItem
100
AcDbSpline
210
0
220
0
230
1
 70
8
 71
1
 72
4
 73
2
 74
0
 40
0.565374673
 40
0.565374673
 40
0.566129062
 40
0.566129062
 10
168.678011656
 20
145.821590687
 30
0.000000000
 10
168.678608720
 20
145.811576806
 30
0.000000000
  0
SPLINE
  5
A29
330
A02
100
AcDbEntity
  8
ProjItem
100
AcDbSpline
210
0
220
0
230
1
 70
8
 71
3
 72
11
 73
7
 74
0
 40
0.582549190
 40
0.582549190
 40
0.582549190
 40
0.582549190
 40
0.707278656
 40
0.707278656
 40
0.707278656
 40
0.749575789
 40
0.749575789
 40
0.749575789
 40
0.749575789
 10
168.693049029
 20
145.596630528
 30
0.000000000
 10
168.731581071
 20
145.063180460
 30
0.000000000
 10
168.803478241
 20
144.559753892
 30
0.000000000
 10
168.841842957
 20
144.322358709
 30
0.000000000
 10
168.854832398
 20
144.241732037
 30
0.000000000
 10
168.861468155
 20
144.200945801
 30
0.000000000
 10
168.861750230
 20
144.200000002
 30
0.000000000
  0
SPLINE
  5
A2A
330
A02
100
AcDbEntity
  8
ProjItem
100
AcDbSpline
210
0
220
0
230
1
 70
8
 71
3
 72
14
 73
10
 74
0
 40
0.749575789
 40
0.749575789
 40
0.749575789
 40
0.749575789
 40
0.827872572
 40
0.827872572
 40
0.827872572
 40
0.913936286
 40
0.913936286
 40
0.913936286
 40
1.000000000
 40
1.000000000
 40
1.000000000
 40
1.000000000
 10
168.861750230
 20
144.200000002
 30
0.000000000
 10
168.862440526
 20
144.197008157
 30
0.000000000
 10
168.835027816
 20
144.354834299
 30
0.000000000
 10
168.801815835
 20
144.589180186
 30
0.000000000
 10
168.765580959
 20
144.844334435
 30
0.000000000
 10
168.724593465
 20
145.185470132
 30
0.000000000
 10
168.696530442
 20
145.550781172
 30
0.000000000
 10
168.667987049
 20
145.917318177
 30
0.000000000
 10
168.651789112
 20
146.309657807
 30
0.000000000
 10
168.651949688
 20
146.700000000
 30
0.000000000
  0
SPLINE
  5
A2B
330
A02
100
AcDbEntity
  8
ProjItem
100
AcDbSpline
210
0
220
0
230
1
 70
8
 71
3
 72
14
 73
10
 74
0
 40
0.749575767
 40
0.749575767
 40
0.749575767
 40
0.749575767
 40
0.827872571
 40
0.827872571
 40
0.827872571
 40
0.913936286
 40
0.913936286
 40
0.913936286
 40
1.000000000
 40
1.000000000
 40
1.000000000
 40
1.000000000
 10
138.861750230
 20
144.200000002
 30
0.000000000
 10
138.861059921
 20
144.197008077
 30
0.000000000
 10
138.888472635
 20
144.354834234
 30
0.000000000
 10
138.921684625
 20
144.589180186
 30
0.000000000
 10
138.957919501
 20
144.844334435
 30
0.000000000
 10
138.998906995
 20
145.185470132
 30
0.000000000
 10
139.026970018
 20
145.550781172
 30
0.000000000
 10
139.055513411
 20
145.917318177
 30
0.000000000
 10
139.071711348
 20
146.309657807
 30
0.000000000
 10
139.071550772
 20
146.700000000
 30
0.000000000
  0
SPLINE
  5
A2C
330
A02
100
AcDbEntity
  8
ProjItem
100
AcDbSpline
210
0
220
0
230
1
 70
8
 71
2
 72
6
 73
3
 74
0
 40
0.372838817
 40
0.372838817
 40
0.372838817
 40
0.402472302
 40
0.402472302
 40
0.402472302
 10
138.976160579
 20
148.382491865
 30
0.000000000
 10
138.995553921
 20
148.211737872
 30
0.000000000
 10
139.012286185
 20
148.025361511
 30
0.000000000
  0
SPLINE
  5
A2D
330
A02
100
AcDbEntity
  8
ProjItem
100
AcDbSpline
210
0
220
0
230
1
 70
8
 71
3
 72
8
 73
4
 74
0
 40
0.417602981
 40
0.417602981
 40
0.417602981
 40
0.417602981
 40
0.510085817
 40
0.510085817
 40
0.510085817
 40
0.510085817
 10
139.028221238
 20
147.832953094
 30
0.000000000
 10
139.058714987
 20
147.436804177
 30
0.000000000
 10
139.074846247
 20
147.004821066
 30
0.000000000
 10
139.071038307
 20
146.576876767
 30
0.000000000
  0
SPLINE
  5
A2E
330
A02
100
AcDbEntity
  8
ProjItem
100
AcDbSpline
210
0
220
0
230
1
 70
8
 71
1
 72
4
 73
2
 74
0
 40
0.510497491
 40
0.510497491
 40
0.512042298
 40
0.512042298
 10
139.070989626
 20
146.571161395
 30
0.000000000
 10
139.070787301
 20
146.549718692
 30
0.000000000
  0
SPLINE
  5
A2F
330
A02
100
AcDbEntity
  8
ProjItem
100
AcDbSpline
210
0
220
0
230
1
 70
8
 71
2
 72
6
 73
3
 74
0
 40
0.513498498
 40
0.513498498
 40
0.513498498
 40
0.556513673
 40
0.556513673
 40
0.556513673
 10
139.070568201
 20
146.529512780
 30
0.000000000
 10
139.067019020
 20
146.230135141
 30
0.000000000
 10
139.052037674
 20
145.940009084
 30
0.000000000
  0
SPLINE
  5
A30
330
A02
100
AcDbEntity
  8
ProjItem
100
AcDbSpline
210
0
220
0
230
1
 70
8
 71
1
 72
4
 73
2
 74
0
 40
0.556521119
 40
0.556521119
 40
0.564999280
 40
0.564999280
 10
139.052032537
 20
145.939908993
 30
0.000000000
 10
139.045783640
 20
145.826577838
 30
0.000000000
  0
SPLINE
  5
A31
330
A02
100
AcDbEntity
  8
ProjItem
100
AcDbSpline
210
0
220
0
230
1
 70
8
 71
1
 72
4
 73
2
 74
0
 40
0.565374661
 40
0.565374661
 40
0.566129051
 40
0.566129051
 10
139.045488811
 20
145.821590809
 30
0.000000000
 10
139.044891748
 20
145.811576929
 30
0.000000000
  0
SPLINE
  5
A32
330
A02
100
AcDbEntity
  8
ProjItem
100
AcDbSpline
210
0
220
0
230
1
 70
8
 71
3
 72
11
 73
7
 74
0
 40
0.582549177
 40
0.582549177
 40
0.582549177
 40
0.582549177
 40
0.707278655
 40
0.707278655
 40
0.707278655
 40
0.749575767
 40
0.749575767
 40
0.749575767
 40
0.749575767
 10
139.030451442
 20
145.596630679
 30
0.000000000
 10
138.991919402
 20
145.063180552
 30
0.000000000
 10
138.920022223
 20
144.559753915
 30
0.000000000
 10
138.881657503
 20
144.322358709
 30
0.000000000
 10
138.868668069
 20
144.241732078
 30
0.000000000
 10
138.862032311
 20
144.200945842
 30
0.000000000
 10
138.861750230
 20
144.200000002
 30
0.000000000
  0
SPLINE
  5
A33
330
A02
100
AcDbEntity
  8
ProjItem
100
AcDbSpline
210
0
220
0
230
1
 70
8
 71
3
 72
11
 73
7
 74
0
 40
0.000000000
 40
0.000000000
 40
0.000000000
 40
0.000000000
 40
0.155168595
 40
0.155168595
 40
0.155168595
 40
0.253029940
 40
0.253029940
 40
0.253029940
 40
0.253029940
 10
139.071550772
 20
146.700000000
 30
0.000000000
 10
139.073498202
 20
147.391378307
 30
0.000000000
 10
139.015880126
 20
148.102305643
 30
0.000000000
 10
138.946638209
 20
148.626283107
 30
0.000000000
 10
138.903719868
 20
148.958328886
 30
0.000000000
 10
138.860553350
 20
149.205431911
 30
0.000000000
 10
138.861750230
 20
149.200000017
 30
0.000000000
  0
SPLINE
  5
A34
330
A02
100
AcDbEntity
  8
ProjItem
100
AcDbSpline
210
0
220
0
230
1
 70
8
 71
3
 72
11
 73
7
 74
0
 40
0.000000000
 40
0.000000000
 40
0.000000000
 40
0.000000000
 40
0.152022964
 40
0.152022964
 40
0.152022964
 40
0.251351122
 40
0.251351122
 40
0.251351122
 40
0.251351122
 10
168.786561787
 20
128.700000000
 30
0.000000000
 10
168.785842829
 20
129.117146442
 30
0.000000000
 10
168.806719672
 20
129.545783012
 30
0.000000000
 10
168.831246012
 20
129.855769864
 30
0.000000000
 10
168.846999801
 20
130.059215679
 30
0.000000000
 10
168.862164794
 20
130.202853124
 30
0.000000000
 10
168.861750259
 20
130.200000007
 30
0.000000000
  0
SPLINE
  5
A35
330
A02
100
AcDbEntity
  8
ProjItem
100
AcDbSpline
210
0
220
0
230
1
 70
8
 71
3
 72
8
 73
4
 74
0
 40
0.251351122
 40
0.251351122
 40
0.251351122
 40
0.251351122
 40
0.350802470
 40
0.350802470
 40
0.350802470
 40
0.350802470
 10
168.861750259
 20
130.200000007
 30
0.000000000
 10
168.862074043
 20
130.201852869
 30
0.000000000
 10
168.846948447
 20
130.058811235
 30
0.000000000
 10
168.831134501
 20
129.854324736
 30
0.000000000
  0
SPLINE
  5
A36
330
A02
100
AcDbEntity
  8
ProjItem
100
AcDbSpline
210
0
220
0
230
1
 70
8
 71
3
 72
8
 73
4
 74
0
 40
0.368421828
 40
0.368421828
 40
0.368421828
 40
0.368421828
 40
0.507305040
 40
0.507305040
 40
0.507305040
 40
0.507305040
 10
168.822750560
 20
129.739966757
 30
0.000000000
 10
168.800320752
 20
129.422624060
 30
0.000000000
 10
168.784598340
 20
129.027735743
 30
0.000000000
 10
168.786698249
 20
128.636176376
 30
0.000000000
  0
SPLINE
  5
A37
330
A02
100
AcDbEntity
  8
ProjItem
100
AcDbSpline
210
0
220
0
230
1
 70
8
 71
1
 72
4
 73
2
 74
0
 40
0.518818599
 40
0.518818599
 40
0.521108429
 40
0.521108429
 10
168.787431442
 20
128.538879991
 30
0.000000000
 10
168.787652341
 20
128.519573174
 30
0.000000000
  0
SPLINE
  5
A38
330
A02
100
AcDbEntity
  8
ProjItem
100
AcDbSpline
210
0
220
0
230
1
 70
8
 71
2
 72
6
 73
3
 74
0
 40
0.573262970
 40
0.573262970
 40
0.573262970
 40
0.595683341
 40
0.595683341
 40
0.595683341
 10
168.799013884
 20
128.090208564
 30
0.000000000
 10
168.802658985
 20
128.001215641
 30
0.000000000
 10
168.807121401
 20
127.916342221
 30
0.000000000
  0
SPLINE
  5
A39
330
A02
100
AcDbEntity
  8
ProjItem
100
AcDbSpline
210
0
220
0
230
1
 70
8
 71
1
 72
4
 73
2
 74
0
 40
0.595689603
 40
0.595689603
 40
0.600624179
 40
0.600624179
 10
168.807123890
 20
127.916294758
 30
0.000000000
 10
168.809120716
 20
127.879095303
 30
0.000000000
  0
SPLINE
  5
A3A
330
A02
100
AcDbEntity
  8
ProjItem
100
AcDbSpline
210
0
220
0
230
1
 70
8
 71
1
 72
4
 73
2
 74
0
 40
0.640342500
 40
0.640342500
 40
0.649156516
 40
0.649156516
 10
168.827073803
 20
127.599586603
 30
0.000000000
 10
168.831266797
 20
127.543960938
 30
0.000000000
  0
SPLINE
  5
A3B
330
A02
100
AcDbEntity
  8
ProjItem
100
AcDbSpline
210
0
220
0
230
1
 70
8
 71
3
 72
11
 73
7
 74
0
 40
0.748607864
 40
0.748607864
 40
0.748607864
 40
0.748607864
 40
0.838379681
 40
0.838379681
 40
0.838379681
 40
1.000000000
 40
1.000000000
 40
1.000000000
 40
1.000000000
 10
168.861750250
 20
127.200000020
 30
0.000000000
 10
168.862064445
 20
127.197904921
 30
0.000000000
 10
168.849847835
 20
127.314005451
 30
0.000000000
 10
168.835815948
 20
127.486474508
 30
0.000000000
 10
168.809870619
 20
127.797224775
 30
0.000000000
 10
168.785609197
 20
128.256606915
 30
0.000000000
 10
168.786561787
 20
128.700000000
 30
0.000000000
  0
SPLINE
  5
A3C
330
A02
100
AcDbEntity
  8
ProjItem
100
AcDbSpline
210
0
220
0
230
1
 70
8
 71
2
 72
6
 73
3
 74
0
 40
0.251351126
 40
0.251351126
 40
0.251351126
 40
0.268424520
 40
0.268424520
 40
0.268424520
 10
146.361750180
 20
130.200000007
 30
0.000000000
 10
146.281022699
 20
130.199992954
 30
0.000000000
 10
146.201511199
 20
130.188461808
 30
0.000000000
  0
SPLINE
  5
A3D
330
A02
100
AcDbEntity
  8
ProjItem
100
AcDbSpline
210
0
220
0
230
1
 70
8
 71
1
 72
4
 73
2
 74
0
 40
0.284926673
 40
0.284926673
 40
0.289483744
 40
0.289483744
 10
146.050477922
 20
130.155676381
 30
0.000000000
 10
146.009906822
 20
130.143020602
 30
0.000000000
  0
SPLINE
  5
A3E
330
A02
100
AcDbEntity
  8
ProjItem
100
AcDbSpline
210
0
220
0
230
1
 70
8
 71
2
 72
6
 73
3
 74
0
 40
0.420610930
 40
0.420610930
 40
0.420610930
 40
0.434813788
 40
0.434813788
 40
0.434813788
 10
145.222869701
 20
129.353374339
 30
0.000000000
 10
145.200733947
 20
129.297605799
 30
0.000000000
 10
145.182662629
 20
129.240448080
 30
0.000000000
  0
SPLINE
  5
A3F
330
A02
100
AcDbEntity
  8
ProjItem
100
AcDbSpline
210
0
220
0
230
1
 70
8
 71
2
 72
6
 73
3
 74
0
 40
0.463386908
 40
0.463386908
 40
0.463386908
 40
0.492818887
 40
0.492818887
 40
0.492818887
 10
145.126082747
 20
129.006158877
 30
0.000000000
 10
145.105221658
 20
128.883418214
 30
0.000000000
 10
145.101245779
 20
128.758765699
 30
0.000000000
  0
SPLINE
  5
A40
330
A02
100
AcDbEntity
  8
ProjItem
100
AcDbSpline
210
0
220
0
230
1
 70
8
 71
2
 72
6
 73
3
 74
0
 40
0.492845335
 40
0.492845335
 40
0.492845335
 40
0.509664861
 40
0.509664861
 40
0.509664861
 10
145.101238638
 20
128.758542022
 30
0.000000000
 10
145.098971463
 20
128.687381644
 30
0.000000000
 10
145.102216891
 20
128.616212822
 30
0.000000000
  0
SPLINE
  5
A41
330
A02
100
AcDbEntity
  8
ProjItem
100
AcDbSpline
210
0
220
0
230
1
 70
8
 71
1
 72
4
 73
2
 74
0
 40
0.509971462
 40
0.509971462
 40
0.510283671
 40
0.510283671
 10
145.102337091
 20
128.613619631
 30
0.000000000
 10
145.102463260
 20
128.610979168
 30
0.000000000
  0
SPLINE
  5
A42
330
A02
100
AcDbEntity
  8
ProjItem
100
AcDbSpline
210
0
220
0
230
1
 70
8
 71
2
 72
6
 73
3
 74
0
 40
0.537889353
 40
0.537889353
 40
0.537889353
 40
0.558357865
 40
0.558357865
 40
0.558357865
 10
145.128700744
 20
128.378853597
 30
0.000000000
 10
145.143967540
 20
128.293479845
 30
0.000000000
 10
145.167524067
 20
128.210096340
 30
0.000000000
  0
SPLINE
  5
A43
330
A02
100
AcDbEntity
  8
ProjItem
100
AcDbSpline
210
0
220
0
230
1
 70
8
 71
1
 72
4
 73
2
 74
0
 40
0.558389902
 40
0.558389902
 40
0.567274783
 40
0.567274783
 10
145.167597849
 20
128.209835569
 30
0.000000000
 10
145.189636674
 20
128.138010264
 30
0.000000000
  0
SPLINE
  5
A44
330
A02
100
AcDbEntity
  8
ProjItem
100
AcDbSpline
210
0
220
0
230
1
 70
8
 71
1
 72
4
 73
2
 74
0
 40
0.626272361
 40
0.626272361
 40
0.633151696
 40
0.633151696
 10
145.418996150
 20
127.693789527
 30
0.000000000
 10
145.455683949
 20
127.646957638
 30
0.000000000
  0
SPLINE
  5
A45
330
A02
100
AcDbEntity
  8
ProjItem
100
AcDbSpline
210
0
220
0
230
1
 70
8
 71
2
 72
6
 73
3
 74
0
 40
0.633161196
 40
0.633161196
 40
0.633161196
 40
0.646184472
 40
0.646184472
 40
0.646184472
 10
145.455736079
 20
127.646893953
 30
0.000000000
 10
145.491470045
 20
127.603203973
 30
0.000000000
 10
145.530998123
 20
127.562400903
 30
0.000000000
  0
SPLINE
  5
A46
330
A02
100
AcDbEntity
  8
ProjItem
100
AcDbSpline
210
0
220
0
230
1
 70
8
 71
1
 72
4
 73
2
 74
0
 40
0.655890206
 40
0.655890206
 40
0.664009259
 40
0.664009259
 10
145.592009971
 20
127.503449746
 30
0.000000000
 10
145.646251256
 20
127.457105337
 30
0.000000000
  0
SPLINE
  5
A47
330
A02
100
AcDbEntity
  8
ProjItem
100
AcDbSpline
210
0
220
0
230
1
 70
8
 71
1
 72
4
 73
2
 74
0
 40
0.693095796
 40
0.693095796
 40
0.696695104
 40
0.696695104
 10
145.863958830
 20
127.317218830
 30
0.000000000
 10
145.893363101
 20
127.303135659
 30
0.000000000
  0
SPLINE
  5
A48
330
A02
100
AcDbEntity
  8
ProjItem
100
AcDbSpline
210
0
220
0
230
1
 70
8
 71
1
 72
4
 73
2
 74
0
 40
0.715457856
 40
0.715457856
 40
0.719131098
 40
0.719131098
 10
146.054916051
 20
127.243041343
 30
0.000000000
 10
146.087966270
 20
127.234114128
 30
0.000000000
  0
SPLINE
  5
A49
330
A02
100
AcDbEntity
  8
ProjItem
100
AcDbSpline
210
0
220
0
230
1
 70
8
 71
3
 72
11
 73
7
 74
0
 40
0.000000000
 40
0.000000000
 40
0.000000000
 40
0.000000000
 40
0.152022964
 40
0.152022964
 40
0.152022964
 40
0.251351126
 40
0.251351126
 40
0.251351126
 40
0.251351126
 10
145.100306346
 20
128.700000000
 30
0.000000000
 10
145.101218713
 20
129.117146442
 30
0.000000000
 10
145.239955413
 20
129.545783012
 30
0.000000000
 10
145.548964287
 20
129.855769864
 30
0.000000000
 10
145.749704072
 20
130.059215689
 30
0.000000000
 10
146.047907649
 20
130.202853137
 30
0.000000000
 10
146.361750252
 20
130.200000007
 30
0.000000000
  0
SPLINE
  5
A4A
330
A02
100
AcDbEntity
  8
ProjItem
100
AcDbSpline
210
0
220
0
230
1
 70
8
 71
3
 72
20
 73
16
 74
0
 40
0.251351126
 40
0.251351126
 40
0.251351126
 40
0.251351126
 40
0.285982565
 40
0.285982565
 40
0.285982565
 40
0.422480302
 40
0.422480302
 40
0.422480302
 40
0.587693165
 40
0.587693165
 40
0.587693165
 40
0.713901165
 40
0.713901165
 40
0.713901165
 40
0.748607861
 40
0.748607861
 40
0.748607861
 40
0.748607861
 10
146.361750252
 20
130.200000007
 30
0.000000000
 10
146.471523122
 20
130.199877740
 30
0.000000000
 10
146.579982198
 20
130.184169318
 30
0.000000000
 10
146.687127478
 20
130.152874742
 30
0.000000000
 10
147.108890443
 20
130.028802921
 30
0.000000000
 10
147.416622414
 20
129.695644649
 30
0.000000000
 10
147.567919848
 20
129.338668937
 30
0.000000000
 10
147.753820009
 20
128.905438628
 30
0.000000000
 10
147.741221127
 20
128.402123041
 30
0.000000000
 10
147.528958249
 20
127.977369489
 30
0.000000000
 10
147.368982048
 20
127.654562488
 30
0.000000000
 10
147.074959694
 20
127.360793104
 30
0.000000000
 10
146.687127478
 20
127.247125258
 30
0.000000000
 10
146.580196989
 20
127.215862563
 30
0.000000000
 10
146.471737912
 20
127.200154150
 30
0.000000000
 10
146.361750248
 20
127.200000020
 30
0.000000000
  0
SPLINE
  5
A4B
330
A02
100
AcDbEntity
  8
ProjItem
100
AcDbSpline
210
0
220
0
230
1
 70
8
 71
3
 72
11
 73
7
 74
0
 40
0.748607861
 40
0.748607861
 40
0.748607861
 40
0.748607861
 40
0.838379681
 40
0.838379681
 40
0.838379681
 40
1.000000000
 40
1.000000000
 40
1.000000000
 40
1.000000000
 10
146.361750248
 20
127.200000020
 30
0.000000000
 10
146.078561951
 20
127.197904913
 30
0.000000000
 10
145.806339318
 20
127.314005444
 30
0.000000000
 10
145.611161931
 20
127.486474508
 30
0.000000000
 10
145.258438098
 20
127.797224775
 30
0.000000000
 10
145.101322893
 20
128.256606915
 30
0.000000000
 10
145.100306346
 20
128.700000000
 30
0.000000000
  0
LINE
  5
A4C
330
A02
100
AcDbEntity
  8
ProjItem
100
AcDbLine
 10
138.861750230
 20
154.700000000
 30
0.000000000
 11
138.861750230
 21
149.200000017
 31
0.000000000
  0
LINE
  5
A4D
330
A02
100
AcDbEntity
  8
ProjItem
100
AcDbLine
 10
138.861750230
 20
144.200000002
 30
0.000000000
 11
138.861750230
 21
124.700000000
 31
0.000000000
  0
LINE
  5
A4E
330
A02
100
AcDbEntity
  8
ProjItem
100
AcDbLine
 10
168.861750230
 20
154.700000000
 30
0.000000000
 11
168.861750230
 21
149.200000017
 31
0.000000000
  0
LINE
  5
A4F
330
A02
100
AcDbEntity
  8
ProjItem
100
AcDbLine
 10
168.861750230
 20
144.200000002
 30
0.000000000
 11
168.861750230
 21
130.200000007
 31
0.000000000
  0
LINE
  5
A50
330
A02
100
AcDbEntity
  8
ProjItem
100
AcDbLine
 10
168.861750230
 20
127.200000020
 30
0.000000000
 11
168.861750230
 21
124.700000000
 31
0.000000000
  0
LINE
  5
A51
330
A02
100
AcDbEntity
  8
ProjItem
100
AcDbLine
 10
146.361750216
 20
130.200000000
 30
0.000000000
 11
146.361876270
 21
130.200000000
 31
0.000000000
  0
CIRCLE
  5
A52
330
A02
100
AcDbEntity
  8
ProjItem001
100
AcDbCircle
 10
215.900000000
 20
184.700000114
 30
0.000000000
 40
15.000000000
  0
SPLINE
  5
A53
330
A02
100
AcDbEntity
  8
ProjItem001
100
AcDbSpline
210
0
220
0
230
1
 70
8
 71
2
 72
6
 73
3
 74
0
 40
0.253029966
 40
0.253029966
 40
0.253029966
 40
0.273523704
 40
0.273523704
 40
0.273523704
 10
215.900000000
 20
169.700000114
 30
0.000000000
 10
215.708540328
 20
169.700015489
 30
0.000000000
 10
215.519398428
 20
169.704829476
 30
0.000000000
  0
SPLINE
  5
A54
330
A02
100
AcDbEntity
  8
ProjItem001
100
AcDbSpline
210
0
220
0
230
1
 70
8
 71
1
 72
4
 73
2
 74
0
 40
0.279520385
 40
0.279520385
 40
0.280100347
 40
0.280100347
 10
215.409537923
 20
169.708020693
 30
0.000000000
 10
215.398974211
 20
169.708370010
 30
0.000000000
  0
SPLINE
  5
A55
330
A02
100
AcDbEntity
  8
ProjItem001
100
AcDbSpline
210
0
220
0
230
1
 70
8
 71
2
 72
6
 73
3
 74
0
 40
0.326706099
 40
0.326706099
 40
0.326706099
 40
0.343028398
 40
0.343028398
 40
0.343028398
 10
214.628049829
 20
169.754025957
 30
0.000000000
 10
214.509120634
 20
169.764192366
 30
0.000000000
 10
214.402052966
 20
169.774982378
 30
0.000000000
  0
SPLINE
  5
A56
330
A02
100
AcDbEntity
  8
ProjItem001
100
AcDbSpline
210
0
220
0
230
1
 70
8
 71
2
 72
8
 73
5
 74
0
 40
0.343184987
 40
0.343184987
 40
0.343184987
 40
0.422903120
 40
0.422903120
 40
0.501222567
 40
0.501222567
 40
0.501222567
 10
214.400000000
 20
169.775188567
 30
0.000000000
 10
213.878986051
 20
169.831429583
 30
0.000000000
 10
213.637932369
 20
169.871546047
 30
0.000000000
 10
213.399580985
 20
169.909098334
 30
0.000000000
 10
213.399999946
 20
169.909800663
 30
0.000000000
  0
SPLINE
  5
A57
330
A02
100
AcDbEntity
  8
ProjItem001
100
AcDbSpline
210
0
220
0
230
1
 70
8
 71
3
 72
11
 73
7
 74
0
 40
0.501222567
 40
0.501222567
 40
0.501222567
 40
0.501222567
 40
0.579542014
 40
0.579542014
 40
0.579542014
 40
0.689920328
 40
0.689920328
 40
0.689920328
 40
0.689920328
 10
213.399999946
 20
169.909800663
 30
0.000000000
 10
213.399720639
 20
169.909332444
 30
0.000000000
 10
213.479031446
 20
169.896580905
 30
0.000000000
 10
213.637932369
 20
169.871546047
 30
0.000000000
 10
213.861450722
 20
169.838171536
 30
0.000000000
 10
214.257933335
 20
169.779486568
 30
0.000000000
 10
214.840338415
 20
169.737476366
 30
0.000000000
  0
SPLINE
  5
A58
330
A02
100
AcDbEntity
  8
ProjItem001
100
AcDbSpline
210
0
220
0
230
1
 70
8
 71
1
 72
4
 73
2
 74
0
 40
0.691961140
 40
0.691961140
 40
0.692326365
 40
0.692326365
 10
214.872748341
 20
169.735216334
 30
0.000000000
 10
214.878586724
 20
169.734816705
 30
0.000000000
  0
SPLINE
  5
A59
330
A02
100
AcDbEntity
  8
ProjItem001
100
AcDbSpline
210
0
220
0
230
1
 70
8
 71
1
 72
4
 73
2
 74
0
 40
0.723311705
 40
0.723311705
 40
0.726454433
 40
0.726454433
 10
215.412290242
 20
169.707930904
 30
0.000000000
 10
215.469647985
 20
169.706174814
 30
0.000000000
  0
SPLINE
  5
A5A
330
A02
100
AcDbEntity
  8
ProjItem001
100
AcDbSpline
210
0
220
0
230
1
 70
8
 71
2
 72
6
 73
3
 74
0
 40
0.726935057
 40
0.726935057
 40
0.726935057
 40
0.744507356
 40
0.744507356
 40
0.744507356
 10
215.478454742
 20
169.705924631
 30
0.000000000
 10
215.639906948
 20
169.701367038
 30
0.000000000
 10
215.804943898
 20
169.700301306
 30
0.000000000
  0
SPLINE
  5
A5B
330
A02
100
AcDbEntity
  8
ProjItem001
100
AcDbSpline
210
0
220
0
230
1
 70
8
 71
1
 72
4
 73
2
 74
0
 40
0.763630624
 40
0.763630624
 40
0.773654627
 40
0.773654627
 10
216.162887894
 20
169.702303959
 30
0.000000000
 10
216.347781568
 20
169.706685215
 30
0.000000000
  0
SPLINE
  5
A5C
330
A02
100
AcDbEntity
  8
ProjItem001
100
AcDbSpline
210
0
220
0
230
1
 70
8
 71
1
 72
4
 73
2
 74
0
 40
0.791837999
 40
0.791837999
 40
0.799339795
 40
0.799339795
 10
216.671766614
 20
169.719867395
 30
0.000000000
 10
216.799373113
 20
169.726986791
 30
0.000000000
  0
SPLINE
  5
A5D
330
A02
100
AcDbEntity
  8
ProjItem001
100
AcDbSpline
210
0
220
0
230
1
 70
8
 71
2
 72
6
 73
3
 74
0
 40
0.799344991
 40
0.799344991
 40
0.799344991
 40
0.815815613
 40
0.815815613
 40
0.815815613
 10
216.799460019
 20
169.726992011
 30
0.000000000
 10
216.937451096
 20
169.735335419
 30
0.000000000
 10
217.063271827
 20
169.745174850
 30
0.000000000
  0
SPLINE
  5
A5E
330
A02
100
AcDbEntity
  8
ProjItem001
100
AcDbSpline
210
0
220
0
230
1
 70
8
 71
2
 72
6
 73
3
 74
0
 40
0.825037199
 40
0.825037199
 40
0.825037199
 40
0.837108033
 40
0.837108033
 40
0.837108033
 10
217.199513764
 20
169.756397336
 30
0.000000000
 10
217.285484757
 20
169.763891841
 30
0.000000000
 10
217.364807002
 20
169.771693435
 30
0.000000000
  0
SPLINE
  5
A5F
330
A02
100
AcDbEntity
  8
ProjItem001
100
AcDbSpline
210
0
220
0
230
1
 70
8
 71
1
 72
4
 73
2
 74
0
 40
0.838524462
 40
0.838524462
 40
0.839717034
 40
0.839717034
 10
217.383349706
 20
169.773524526
 30
0.000000000
 10
217.398824777
 20
169.775070496
 30
0.000000000
  0
SPLINE
  5
A60
330
A02
100
AcDbEntity
  8
ProjItem001
100
AcDbSpline
210
0
220
0
230
1
 70
8
 71
3
 72
8
 73
4
 74
0
 40
0.839807997
 40
0.839807997
 40
0.839807997
 40
0.839807997
 40
1.000000000
 40
1.000000000
 40
1.000000000
 40
1.000000000
 10
217.399999999
 20
169.775188564
 30
0.000000000
 10
218.089958399
 20
169.847559935
 30
0.000000000
 10
218.398701974
 20
169.912375854
 30
0.000000000
 10
218.400000000
 20
169.909800656
 30
0.000000000
  0
SPLINE
  5
A61
330
A02
100
AcDbEntity
  8
ProjItem001
100
AcDbSpline
210
0
220
0
230
1
 70
8
 71
3
 72
11
 73
7
 74
0
 40
0.749575767
 40
0.749575767
 40
0.749575767
 40
0.749575767
 40
0.827872571
 40
0.827872571
 40
0.827872571
 40
1.000000000
 40
1.000000000
 40
1.000000000
 40
1.000000000
 10
215.899999608
 20
199.700000114
 30
0.000000000
 10
216.390576970
 20
199.700690424
 30
0.000000000
 10
216.876239220
 20
199.673277710
 30
0.000000000
 10
217.239566987
 20
199.640065719
 30
0.000000000
 10
218.042041846
 20
199.563994498
 30
0.000000000
 10
218.398702366
 20
199.486638836
 30
0.000000000
 10
218.400000000
 20
199.490199572
 30
0.000000000
  0
SPLINE
  5
A62
330
A02
100
AcDbEntity
  8
ProjItem001
100
AcDbSpline
210
0
220
0
230
1
 70
8
 71
2
 72
6
 73
3
 74
0
 40
0.253029940
 40
0.253029940
 40
0.253029940
 40
0.273523704
 40
0.273523704
 40
0.273523704
 10
215.900000433
 20
199.700000114
 30
0.000000000
 10
215.708540516
 20
199.699984745
 30
0.000000000
 10
215.519398375
 20
199.695170751
 30
0.000000000
  0
SPLINE
  5
A63
330
A02
100
AcDbEntity
  8
ProjItem001
100
AcDbSpline
210
0
220
0
230
1
 70
8
 71
3
 72
14
 73
10
 74
0
 40
0.279520377
 40
0.279520377
 40
0.279520377
 40
0.279520377
 40
0.286778098
 40
0.286778098
 40
0.286778098
 40
0.422903117
 40
0.422903117
 40
0.422903117
 40
0.501222565
 40
0.501222565
 40
0.501222565
 40
0.501222565
 10
215.409538007
 20
199.691979538
 30
0.000000000
 10
215.365783765
 20
199.690356310
 30
0.000000000
 10
215.322029524
 20
199.688733083
 30
0.000000000
 10
215.278275282
 20
199.687109855
 30
0.000000000
 10
214.460048331
 20
199.651640937
 30
0.000000000
 10
213.911468356
 20
199.568726478
 30
0.000000000
 10
213.637932369
 20
199.528454182
 30
0.000000000
 10
213.479031446
 20
199.503419323
 30
0.000000000
 10
213.399720639
 20
199.490667785
 30
0.000000000
 10
213.399999946
 20
199.490199565
 30
0.000000000
  0
SPLINE
  5
A64
330
A02
100
AcDbEntity
  8
ProjItem001
100
AcDbSpline
210
0
220
0
230
1
 70
8
 71
3
 72
14
 73
10
 74
0
 40
0.501222565
 40
0.501222565
 40
0.501222565
 40
0.501222565
 40
0.579542013
 40
0.579542013
 40
0.579542013
 40
0.707278655
 40
0.707278655
 40
0.707278655
 40
0.744507335
 40
0.744507335
 40
0.744507335
 40
0.744507335
 10
213.399999946
 20
199.490199565
 30
0.000000000
 10
213.399720639
 20
199.490667785
 30
0.000000000
 10
213.479031446
 20
199.503419323
 30
0.000000000
 10
213.637932369
 20
199.528454182
 30
0.000000000
 10
213.895668520
 20
199.566539983
 30
0.000000000
 10
214.388828815
 20
199.640696050
 30
0.000000000
 10
215.127457514
 20
199.680092841
 30
0.000000000
 10
215.344186103
 20
199.691462542
 30
0.000000000
 10
215.570014770
 20
199.697997902
 30
0.000000000
 10
215.804943514
 20
199.699698920
 30
0.000000000
  0
SPLINE
  5
A65
330
A02
100
AcDbEntity
  8
ProjItem001
100
AcDbSpline
210
0
220
0
230
1
 70
8
 71
3
 72
11
 73
7
 74
0
 40
0.000000000
 40
0.000000000
 40
0.000000000
 40
0.000000000
 40
0.152022964
 40
0.152022964
 40
0.152022964
 40
0.212375921
 40
0.212375921
 40
0.212375921
 40
0.212375921
 10
217.400000000
 20
169.775188558
 30
0.000000000
 10
217.399361580
 20
169.775907515
 30
0.000000000
 10
217.227108986
 20
169.755030672
 30
0.000000000
 10
216.856135985
 20
169.730504332
 30
0.000000000
 10
216.705835693
 20
169.720396702
 30
0.000000000
 10
216.525790880
 20
169.712151865
 30
0.000000000
 10
216.316001544
 20
169.705769821
 30
0.000000000
  0
SPLINE
  5
A66
330
A02
100
AcDbEntity
  8
ProjItem001
100
AcDbSpline
210
0
220
0
230
1
 70
8
 71
1
 72
4
 73
2
 74
0
 40
0.241114084
 40
0.241114084
 40
0.269103364
 40
0.269103364
 10
216.011364366
 20
169.700413495
 30
0.000000000
 10
215.706970371
 20
169.701242221
 30
0.000000000
  0
SPLINE
  5
A67
330
A02
100
AcDbEntity
  8
ProjItem001
100
AcDbSpline
210
0
220
0
230
1
 70
8
 71
2
 72
6
 73
3
 74
0
 40
0.282996283
 40
0.282996283
 40
0.282996283
 40
0.298454515
 40
0.298454515
 40
0.298454515
 10
215.558391371
 20
169.703890508
 30
0.000000000
 10
215.476491796
 20
169.705769044
 30
0.000000000
 10
215.399402193
 20
169.708355718
 30
0.000000000
  0
SPLINE
  5
A68
330
A02
100
AcDbEntity
  8
ProjItem001
100
AcDbSpline
210
0
220
0
230
1
 70
8
 71
2
 72
6
 73
3
 74
0
 40
0.324284142
 40
0.324284142
 40
0.324284142
 40
0.355355048
 40
0.355355048
 40
0.355355048
 10
215.157220739
 20
169.718402100
 30
0.000000000
 10
215.020852318
 20
169.725266002
 30
0.000000000
 10
214.908776837
 20
169.732786728
 30
0.000000000
  0
SPLINE
  5
A69
330
A02
100
AcDbEntity
  8
ProjItem001
100
AcDbSpline
210
0
220
0
230
1
 70
8
 71
2
 72
6
 73
3
 74
0
 40
0.386014743
 40
0.386014743
 40
0.386014743
 40
0.399203826
 40
0.399203826
 40
0.399203826
 10
214.712333630
 20
169.747092414
 30
0.000000000
 10
214.675383331
 20
169.750032656
 30
0.000000000
 10
214.642996857
 20
169.752761472
 30
0.000000000
  0
SPLINE
  5
A6A
330
A02
100
AcDbEntity
  8
ProjItem001
100
AcDbSpline
210
0
220
0
230
1
 70
8
 71
3
 72
17
 73
13
 74
0
 40
0.499764070
 40
0.499764070
 40
0.499764070
 40
0.499764070
 40
0.587693165
 40
0.587693165
 40
0.587693165
 40
0.713901165
 40
0.713901165
 40
0.713901165
 40
0.838379681
 40
0.838379681
 40
0.838379681
 40
0.989791103
 40
0.989791103
 40
0.989791103
 40
0.989791103
 10
214.399999963
 20
169.775188561
 30
0.000000000
 10
214.399848647
 20
169.774898511
 30
0.000000000
 10
214.461695319
 20
169.769070528
 30
0.000000000
 10
214.585539980
 20
169.757704613
 30
0.000000000
 10
214.761468652
 20
169.742469609
 30
0.000000000
 10
215.085603815
 20
169.715843472
 30
0.000000000
 10
215.526965169
 20
169.704639331
 30
0.000000000
 10
215.961714180
 20
169.692423771
 30
0.000000000
 10
216.459385856
 20
169.705659014
 30
0.000000000
 10
216.781677878
 20
169.725934396
 30
0.000000000
 10
217.177357924
 20
169.750077643
 30
0.000000000
 10
217.373641159
 20
169.773338500
 30
0.000000000
 10
217.397613715
 20
169.774948929
 30
0.000000000
  0
SPLINE
  5
A6B
330
A02
100
AcDbEntity
  8
ProjItem001
100
AcDbSpline
210
0
220
0
230
1
 70
8
 71
3
 72
11
 73
7
 74
0
 40
0.000000000
 40
0.000000000
 40
0.000000000
 40
0.000000000
 40
0.152022964
 40
0.152022964
 40
0.152022964
 40
0.212375921
 40
0.212375921
 40
0.212375921
 40
0.212375921
 10
202.224734045
 20
190.863367787
 30
0.000000000
 10
202.225675891
 20
190.863561196
 30
0.000000000
 10
202.293722311
 20
191.023174739
 30
0.000000000
 10
202.457968378
 20
191.356709953
 30
0.000000000
 10
202.524365060
 20
191.491927639
 30
0.000000000
 10
202.607247228
 20
191.651973440
 30
0.000000000
 10
202.706614884
 20
191.836847355
 30
0.000000000
  0
SPLINE
  5
A6C
330
A02
100
AcDbEntity
  8
ProjItem001
100
AcDbSpline
210
0
220
0
230
1
 70
8
 71
1
 72
4
 73
2
 74
0
 40
0.241113646
 40
0.241113646
 40
0.269103313
 40
0.269103313
 10
202.854292416
 20
192.103344925
 30
0.000000000
 10
203.007209175
 20
192.366547154
 30
0.000000000
  0
SPLINE
  5
A6D
330
A02
100
AcDbEntity
  8
ProjItem001
100
AcDbSpline
210
0
220
0
230
1
 70
8
 71
2
 72
6
 73
3
 74
0
 40
0.282996500
 40
0.282996500
 40
0.282996500
 40
0.298454454
 40
0.298454454
 40
0.298454454
 10
203.083793632
 20
192.493898632
 30
0.000000000
 10
203.126369493
 20
192.563885161
 30
0.000000000
 10
203.167153686
 20
192.629352207
 30
0.000000000
  0
SPLINE
  5
A6E
330
A02
100
AcDbEntity
  8
ProjItem001
100
AcDbSpline
210
0
220
0
230
1
 70
8
 71
2
 72
6
 73
3
 74
0
 40
0.324284326
 40
0.324284326
 40
0.324284326
 40
0.355355006
 40
0.355355006
 40
0.355355006
 10
203.296946032
 20
192.834066181
 30
0.000000000
 10
203.371073953
 20
192.948731790
 30
0.000000000
 10
203.433624395
 20
193.042030993
 30
0.000000000
  0
SPLINE
  5
A6F
330
A02
100
AcDbEntity
  8
ProjItem001
100
AcDbSpline
210
0
220
0
230
1
 70
8
 71
2
 72
6
 73
3
 74
0
 40
0.386014143
 40
0.386014143
 40
0.386014143
 40
0.399203833
 40
0.399203833
 40
0.399203833
 10
203.544233345
 20
193.205000436
 30
0.000000000
 10
203.565255898
 20
193.235531793
 30
0.000000000
 10
203.583813212
 20
193.262216121
 30
0.000000000
  0
SPLINE
  5
A70
330
A02
100
AcDbEntity
  8
ProjItem001
100
AcDbSpline
210
0
220
0
230
1
 70
8
 71
3
 72
17
 73
13
 74
0
 40
0.499764070
 40
0.499764070
 40
0.499764070
 40
0.499764070
 40
0.587693165
 40
0.587693165
 40
0.587693165
 40
0.713901165
 40
0.713901165
 40
0.713901165
 40
0.838379681
 40
0.838379681
 40
0.838379681
 40
1.000000000
 40
1.000000000
 40
1.000000000
 40
1.000000000
 10
203.724734066
 20
193.461444028
 30
0.000000000
 10
203.724558534
 20
193.461720097
 30
0.000000000
 10
203.688588017
 20
193.411073299
 30
0.000000000
 10
203.616822515
 20
193.309503635
 30
0.000000000
 10
203.515664279
 20
193.164762437
 30
0.000000000
 10
203.330537786
 20
192.897366220
 30
0.000000000
 10
203.100154038
 20
192.520738146
 30
0.000000000
 10
202.872200547
 20
192.150342238
 30
0.000000000
 10
202.634826766
 20
191.712728303
 30
0.000000000
 10
202.491239751
 20
191.423477532
 30
0.000000000
 10
202.302574094
 20
191.044808371
 30
0.000000000
 10
202.225870927
 20
190.863431745
 30
0.000000000
 10
202.224734045
 20
190.863367787
 30
0.000000000
  0
SPLINE
  5
A71
330
A02
100
AcDbEntity
  8
ProjItem001
100
AcDbSpline
210
0
220
0
230
1
 70
8
 71
3
 72
11
 73
7
 74
0
 40
0.000000000
 40
0.000000000
 40
0.000000000
 40
0.000000000
 40
0.152022964
 40
0.152022964
 40
0.152022964
 40
0.212375921
 40
0.212375921
 40
0.212375921
 40
0.212375921
 10
228.075265955
 20
193.461443998
 30
0.000000000
 10
228.074962529
 20
193.460531631
 30
0.000000000
 10
228.179168702
 20
193.321794931
 30
0.000000000
 10
228.385895637
 20
193.012786058
 30
0.000000000
 10
228.469799247
 20
192.887676002
 30
0.000000000
 10
228.566961892
 20
192.735875038
 30
0.000000000
 10
228.677383572
 20
192.557383166
 30
0.000000000
  0
SPLINE
  5
A72
330
A02
100
AcDbEntity
  8
ProjItem001
100
AcDbSpline
210
0
220
0
230
1
 70
8
 71
1
 72
4
 73
2
 74
0
 40
0.241114022
 40
0.241114022
 40
0.269103152
 40
0.269103152
 10
228.834340534
 20
192.296238374
 30
0.000000000
 10
228.985819056
 20
192.032212496
 30
0.000000000
  0
SPLINE
  5
A73
330
A02
100
AcDbEntity
  8
ProjItem001
100
AcDbSpline
210
0
220
0
230
1
 70
8
 71
2
 72
6
 73
3
 74
0
 40
0.282996417
 40
0.282996417
 40
0.282996417
 40
0.298454270
 40
0.298454270
 40
0.298454270
 10
229.057816874
 20
191.902211919
 30
0.000000000
 10
229.097138811
 20
191.830347335
 30
0.000000000
 10
229.133442641
 20
191.762294057
 30
0.000000000
  0
SPLINE
  5
A74
330
A02
100
AcDbEntity
  8
ProjItem001
100
AcDbSpline
210
0
220
0
230
1
 70
8
 71
2
 72
6
 73
3
 74
0
 40
0.324284184
 40
0.324284184
 40
0.324284184
 40
0.355354745
 40
0.355354745
 40
0.355354745
 10
229.245834268
 20
191.547533085
 30
0.000000000
 10
229.308073456
 20
191.426003999
 30
0.000000000
 10
229.357597630
 20
191.325184334
 30
0.000000000
  0
SPLINE
  5
A75
330
A02
100
AcDbEntity
  8
ProjItem001
100
AcDbSpline
210
0
220
0
230
1
 70
8
 71
2
 72
6
 73
3
 74
0
 40
0.386014591
 40
0.386014591
 40
0.386014591
 40
0.399203830
 40
0.399203830
 40
0.399203830
 10
229.443430747
 20
191.147905487
 30
0.000000000
 10
229.459359784
 20
191.114435026
 30
0.000000000
 10
229.473189961
 20
191.085022762
 30
0.000000000
  0
SPLINE
  5
A76
330
A02
100
AcDbEntity
  8
ProjItem001
100
AcDbSpline
210
0
220
0
230
1
 70
8
 71
3
 72
17
 73
13
 74
0
 40
0.499764070
 40
0.499764070
 40
0.499764070
 40
0.499764070
 40
0.587693165
 40
0.587693165
 40
0.587693165
 40
0.713901165
 40
0.713901165
 40
0.713901165
 40
0.838379681
 40
0.838379681
 40
0.838379681
 40
1.000000000
 40
1.000000000
 40
1.000000000
 40
1.000000000
 10
229.575265970
 20
190.863367754
 30
0.000000000
 10
229.575592819
 20
190.863381734
 30
0.000000000
 10
229.549716664
 20
190.919856515
 30
0.000000000
 10
229.497637505
 20
191.032792095
 30
0.000000000
 10
229.422867069
 20
191.192768296
 30
0.000000000
 10
229.283858399
 20
191.486790651
 30
0.000000000
 10
229.072880792
 20
191.874622866
 30
0.000000000
 10
228.866085273
 20
192.257234333
 30
0.000000000
 10
228.605787378
 20
192.681613026
 30
0.000000000
 10
228.427082370
 20
192.950588414
 30
0.000000000
 10
228.193478086
 20
193.303312246
 30
0.000000000
 10
228.074752903
 20
193.460427451
 30
0.000000000
 10
228.075265955
 20
193.461443998
 30
0.000000000
  0
CIRCLE
  5
A77
330
A02
100
AcDbEntity
  8
ProjItem001
100
AcDbCircle
 10
215.900000000
 20
184.700000114
 30
0.000000000
 40
2.000000000
  0
SPLINE
  5
A78
330
A02
100
AcDbEntity
  8
ProjItem001
100
AcDbSpline
210
0
220
0
230
1
 70
8
 71
3
 72
8
 73
4
 74
0
 40
0.000000000
 40
0.000000000
 40
0.000000000
 40
0.000000000
 40
0.099818274
 40
0.099818274
 40
0.099818274
 40
0.099818274
 10
217.400000000
 20
183.377124459
 30
0.000000000
 10
217.399809851
 20
183.378395405
 30
0.000000000
 10
217.305604364
 20
183.262500566
 30
0.000000000
 10
217.143306824
 20
183.133415258
 30
0.000000000
  0
SPLINE
  5
A79
330
A02
100
AcDbEntity
  8
ProjItem001
100
AcDbSpline
210
0
220
0
230
1
 70
8
 71
2
 72
6
 73
3
 74
0
 40
0.103416972
 40
0.103416972
 40
0.103416972
 40
0.160476957
 40
0.160476957
 40
0.160476957
 10
217.125366983
 20
183.119343372
 30
0.000000000
 10
216.981575559
 20
183.003959384
 30
0.000000000
 10
216.761818265
 20
182.895209477
 30
0.000000000
  0
SPLINE
  5
A7A
330
A02
100
AcDbEntity
  8
ProjItem001
100
AcDbSpline
210
0
220
0
230
1
 70
8
 71
2
 72
6
 73
3
 74
0
 40
0.162811124
 40
0.162811124
 40
0.162811124
 40
0.210865777
 40
0.210865777
 40
0.210865777
 10
216.743641585
 20
182.886641662
 30
0.000000000
 10
216.554466068
 20
182.796201747
 30
0.000000000
 10
216.309830609
 20
182.742440695
 30
0.000000000
  0
SPLINE
  5
A7B
330
A02
100
AcDbEntity
  8
ProjItem001
100
AcDbSpline
210
0
220
0
230
1
 70
8
 71
2
 72
6
 73
3
 74
0
 40
0.228076893
 40
0.228076893
 40
0.228076893
 40
0.241380856
 40
0.241380856
 40
0.241380856
 10
216.129782457
 20
182.713243973
 30
0.000000000
 10
216.058328331
 20
182.704959984
 30
0.000000000
 10
215.985304551
 20
182.701820140
 30
0.000000000
  0
SPLINE
  5
A7C
330
A02
100
AcDbEntity
  8
ProjItem001
100
AcDbSpline
210
0
220
0
230
1
 70
8
 71
2
 72
6
 73
3
 74
0
 40
0.256887943
 40
0.256887943
 40
0.256887943
 40
0.304109239
 40
0.304109239
 40
0.304109239
 10
215.814957104
 20
182.701809021
 30
0.000000000
 10
215.553130294
 20
182.714800335
 30
0.000000000
 10
215.327910859
 20
182.783567471
 30
0.000000000
  0
SPLINE
  5
A7D
330
A02
100
AcDbEntity
  8
ProjItem001
100
AcDbSpline
210
0
220
0
230
1
 70
8
 71
3
 72
8
 73
4
 74
0
 40
0.320253802
 40
0.320253802
 40
0.320253802
 40
0.320253802
 40
0.395301935
 40
0.395301935
 40
0.395301935
 40
0.395301935
 10
215.182939174
 20
182.832964028
 30
0.000000000
 10
214.968164426
 20
182.915605632
 30
0.000000000
 10
214.800887052
 20
183.021587181
 30
0.000000000
 10
214.674632967
 20
183.119343410
 30
0.000000000
  0
SPLINE
  5
A7E
330
A02
100
AcDbEntity
  8
ProjItem001
100
AcDbSpline
210
0
220
0
230
1
 70
8
 71
3
 72
14
 73
10
 74
0
 40
0.000000000
 40
0.000000000
 40
0.000000000
 40
0.000000000
 40
0.107352048
 40
0.107352048
 40
0.107352048
 40
0.163275708
 40
0.163275708
 40
0.163275708
 40
0.242225413
 40
0.242225413
 40
0.242225413
 40
0.242225413
 10
214.004356076
 20
184.062399836
 30
0.000000000
 10
214.005653599
 20
184.062151873
 30
0.000000000
 10
213.944277355
 20
184.221873798
 30
0.000000000
 10
213.915391440
 20
184.452353460
 30
0.000000000
 10
213.898265663
 20
184.573862883
 30
0.000000000
 10
213.895718640
 20
184.715045679
 30
0.000000000
 10
213.907750372
 20
184.875901849
 30
0.000000000
 10
213.926722862
 20
185.100462942
 30
0.000000000
 10
213.992386771
 20
185.369230835
 30
0.000000000
 10
214.127548349
 20
185.626507112
 30
0.000000000
  0
SPLINE
  5
A7F
330
A02
100
AcDbEntity
  8
ProjItem001
100
AcDbSpline
210
0
220
0
230
1
 70
8
 71
3
 72
11
 73
7
 74
0
 40
0.242227613
 40
0.242227613
 40
0.242227613
 40
0.242227613
 40
0.311030934
 40
0.311030934
 40
0.311030934
 40
0.360316301
 40
0.360316301
 40
0.360316301
 40
0.360316301
 10
214.127559502
 20
185.626528449
 30
0.000000000
 10
214.243594819
 20
185.850421820
 30
0.000000000
 10
214.405567298
 20
186.048359006
 30
0.000000000
 10
214.569243335
 20
186.193012739
 30
0.000000000
 10
214.687607089
 20
186.296297613
 30
0.000000000
 10
214.802676334
 20
186.378731453
 30
0.000000000
 10
214.914451071
 20
186.440314257
 30
0.000000000
  0
SPLINE
  5
A80
330
A02
100
AcDbEntity
  8
ProjItem001
100
AcDbSpline
210
0
220
0
230
1
 70
8
 71
2
 72
6
 73
3
 74
0
 40
0.377627830
 40
0.377627830
 40
0.377627830
 40
0.397280920
 40
0.397280920
 40
0.397280920
 10
215.028032988
 20
186.499909425
 30
0.000000000
 10
215.090834148
 20
186.530194851
 30
0.000000000
 10
215.148614063
 20
186.553488489
 30
0.000000000
  0
SPLINE
  5
A81
330
A02
100
AcDbEntity
  8
ProjItem001
100
AcDbSpline
210
0
220
0
230
1
 70
8
 71
1
 72
4
 73
2
 74
0
 40
0.082534563
 40
0.082534563
 40
0.101517512
 40
0.101517512
 10
217.892509814
 20
184.527070515
 30
0.000000000
 10
217.888979251
 20
184.490330004
 30
0.000000000
  0
SPLINE
  5
A82
330
A02
100
AcDbEntity
  8
ProjItem001
100
AcDbSpline
210
0
220
0
230
1
 70
8
 71
1
 72
4
 73
2
 74
0
 40
0.120026240
 40
0.120026240
 40
0.125152604
 40
0.125152604
 10
217.885016655
 20
184.455646112
 30
0.000000000
 10
217.883836327
 20
184.446241516
 30
0.000000000
  0
SPLINE
  5
A83
330
A02
100
AcDbEntity
  8
ProjItem001
100
AcDbSpline
210
0
220
0
230
1
 70
8
 71
2
 72
6
 73
3
 74
0
 40
0.169195853
 40
0.169195853
 40
0.169195853
 40
0.219546816
 40
0.219546816
 40
0.219546816
 10
217.872441277
 20
184.369129451
 30
0.000000000
 10
217.865319274
 20
184.326954250
 30
0.000000000
 10
217.857426131
 20
184.289533364
 30
0.000000000
  0
SPLINE
  5
A84
330
A02
100
AcDbEntity
  8
ProjItem001
100
AcDbSpline
210
0
220
0
230
1
 70
8
 71
1
 72
4
 73
2
 74
0
 40
0.281138960
 40
0.281138960
 40
0.321891221
 40
0.321891221
 10
217.837990498
 20
184.205841406
 30
0.000000000
 10
217.825614335
 20
184.159621133
 30
0.000000000
  0
SPLINE
  5
A85
330
A02
100
AcDbEntity
  8
ProjItem001
100
AcDbSpline
210
0
220
0
230
1
 70
8
 71
1
 72
4
 73
2
 74
0
 40
0.331795808
 40
0.331795808
 40
0.340411999
 40
0.340411999
 10
217.822767376
 20
184.149576988
 30
0.000000000
 10
217.820358972
 20
184.141232344
 30
0.000000000
  0
SPLINE
  5
A86
330
A02
100
AcDbEntity
  8
ProjItem001
100
AcDbSpline
210
0
220
0
230
1
 70
8
 71
2
 72
6
 73
3
 74
0
 40
0.375336072
 40
0.375336072
 40
0.375336072
 40
0.500542746
 40
0.500542746
 40
0.500542746
 10
217.811401174
 20
184.111318916
 30
0.000000000
 10
217.796074631
 20
184.062884638
 30
0.000000000
 10
217.795643924
 20
184.062399836
 30
0.000000000
  0
SPLINE
  5
A87
330
A02
100
AcDbEntity
  8
ProjItem001
100
AcDbSpline
210
0
220
0
230
1
 70
8
 71
3
 72
8
 73
4
 74
0
 40
0.745644482
 40
0.745644482
 40
0.745644482
 40
0.745644482
 40
1.000000000
 40
1.000000000
 40
1.000000000
 40
1.000000000
 10
217.846229537
 20
184.239358637
 30
0.000000000
 10
217.873291209
 20
184.353724629
 30
0.000000000
 10
217.900022363
 20
184.511480759
 30
0.000000000
 10
217.900000000
 20
184.700000114
 30
0.000000000
  0
SPLINE
  5
A88
330
A02
100
AcDbEntity
  8
ProjItem001
100
AcDbSpline
210
0
220
0
230
1
 70
8
 71
3
 72
20
 73
16
 74
0
 40
0.000000000
 40
0.000000000
 40
0.000000000
 40
0.000000000
 40
0.147432297
 40
0.147432297
 40
0.147432297
 40
0.298730930
 40
0.298730930
 40
0.298730930
 40
0.469031811
 40
0.469031811
 40
0.469031811
 40
0.700262492
 40
0.700262492
 40
0.700262492
 40
1.000000000
 40
1.000000000
 40
1.000000000
 40
1.000000000
 10
217.900000000
 20
184.700000114
 30
0.000000000
 10
217.901865243
 20
184.838793390
 30
0.000000000
 10
217.883921077
 20
184.992427900
 30
0.000000000
 10
217.846167500
 20
185.160903644
 30
0.000000000
 10
217.805836090
 20
185.332783438
 30
0.000000000
 10
217.736177093
 20
185.518180963
 30
0.000000000
 10
217.637396788
 20
185.690682909
 30
0.000000000
 10
217.527018703
 20
185.885363794
 30
0.000000000
 10
217.383257352
 20
186.056516922
 30
0.000000000
 10
217.238034025
 20
186.186494294
 30
0.000000000
 10
217.040795529
 20
186.363718538
 30
0.000000000
 10
216.842312881
 20
186.473081853
 30
0.000000000
 10
216.676822219
 20
186.542972507
 30
0.000000000
 10
216.463284293
 20
186.632842709
 30
0.000000000
 10
216.294773716
 20
186.659482289
 30
0.000000000
 10
216.295643924
 20
186.660476048
 30
0.000000000
  0
CIRCLE
  5
A89
330
A02
100
AcDbEntity
  8
ProjItem002
100
AcDbCircle
 10
215.900000000
 20
94.699999886
 30
0.000000000
 40
15.000000000
  0
SPLINE
  5
A8A
330
A02
100
AcDbEntity
  8
ProjItem002
100
AcDbSpline
210
0
220
0
230
1
 70
8
 71
3
 72
14
 73
10
 74
0
 40
0.253029966
 40
0.253029966
 40
0.253029966
 40
0.253029966
 40
0.286778101
 40
0.286778101
 40
0.286778101
 40
0.422903120
 40
0.422903120
 40
0.422903120
 40
0.501222567
 40
0.501222567
 40
0.501222567
 40
0.501222567
 10
215.900000000
 20
109.699999886
 30
0.000000000
 10
215.688823014
 20
109.699914793
 30
0.000000000
 10
215.481581442
 20
109.695618040
 30
0.000000000
 10
215.278275282
 20
109.687109626
 30
0.000000000
 10
214.460048331
 20
109.651640709
 30
0.000000000
 10
213.911468356
 20
109.568726250
 30
0.000000000
 10
213.637932369
 20
109.528453953
 30
0.000000000
 10
213.479031446
 20
109.503419095
 30
0.000000000
 10
213.399720639
 20
109.490667556
 30
0.000000000
 10
213.399999946
 20
109.490199337
 30
0.000000000
  0
SPLINE
  5
A8B
330
A02
100
AcDbEntity
  8
ProjItem002
100
AcDbSpline
210
0
220
0
230
1
 70
8
 71
3
 72
11
 73
7
 74
0
 40
0.501222567
 40
0.501222567
 40
0.501222567
 40
0.501222567
 40
0.579542014
 40
0.579542014
 40
0.579542014
 40
0.711489221
 40
0.711489221
 40
0.711489221
 40
0.711489221
 10
213.399999946
 20
109.490199337
 30
0.000000000
 10
213.399720639
 20
109.490667556
 30
0.000000000
 10
213.479031446
 20
109.503419095
 30
0.000000000
 10
213.637932369
 20
109.528453953
 30
0.000000000
 10
213.903762462
 20
109.567636676
 30
0.000000000
 10
214.422355311
 20
109.645915142
 30
0.000000000
 10
215.200802470
 20
109.683695118
 30
0.000000000
  0
SPLINE
  5
A8C
330
A02
100
AcDbEntity
  8
ProjItem002
100
AcDbSpline
210
0
220
0
230
1
 70
8
 71
1
 72
4
 73
2
 74
0
 40
0.722536938
 40
0.722536938
 40
0.724660439
 40
0.724660439
 10
215.398214502
 20
109.691604580
 30
0.000000000
 10
215.436855897
 20
109.692848099
 30
0.000000000
  0
SPLINE
  5
A8D
330
A02
100
AcDbEntity
  8
ProjItem002
100
AcDbSpline
210
0
220
0
230
1
 70
8
 71
2
 72
6
 73
3
 74
0
 40
0.822495005
 40
0.822495005
 40
0.822495005
 40
0.838780683
 40
0.838780683
 40
0.838780683
 10
217.162851550
 20
109.646745551
 30
0.000000000
 10
217.280983927
 20
109.636718020
 30
0.000000000
 10
217.386685049
 20
109.626143641
 30
0.000000000
  0
SPLINE
  5
A8E
330
A02
100
AcDbEntity
  8
ProjItem002
100
AcDbSpline
210
0
220
0
230
1
 70
8
 71
2
 72
6
 73
3
 74
0
 40
0.849955815
 40
0.849955815
 40
0.849955815
 40
0.891625501
 40
0.891625501
 40
0.891625501
 10
217.526537959
 20
109.611551588
 30
0.000000000
 10
217.776793089
 20
109.583698906
 30
0.000000000
 10
217.952428597
 20
109.558921002
 30
0.000000000
  0
SPLINE
  5
A8F
330
A02
100
AcDbEntity
  8
ProjItem002
100
AcDbSpline
210
0
220
0
230
1
 70
8
 71
2
 72
6
 73
3
 74
0
 40
0.923017211
 40
0.923017211
 40
0.923017211
 40
1.000000000
 40
1.000000000
 40
1.000000000
 10
218.176856987
 20
109.526190306
 30
0.000000000
 10
218.401234412
 20
109.490675696
 30
0.000000000
 10
218.400000000
 20
109.490199344
 30
0.000000000
  0
SPLINE
  5
A90
330
A02
100
AcDbEntity
  8
ProjItem002
100
AcDbSpline
210
0
220
0
230
1
 70
8
 71
2
 72
6
 73
3
 74
0
 40
0.822495019
 40
0.822495019
 40
0.822495019
 40
0.838780694
 40
0.838780694
 40
0.838780694
 10
217.162851759
 20
79.753254238
 30
0.000000000
 10
217.280984101
 20
79.763281768
 30
0.000000000
 10
217.386685195
 20
79.773856146
 30
0.000000000
  0
SPLINE
  5
A91
330
A02
100
AcDbEntity
  8
ProjItem002
100
AcDbSpline
210
0
220
0
230
1
 70
8
 71
2
 72
6
 73
3
 74
0
 40
0.849955824
 40
0.849955824
 40
0.849955824
 40
0.891625505
 40
0.891625505
 40
0.891625505
 10
217.526538075
 20
79.788448196
 30
0.000000000
 10
217.776793153
 20
79.816300874
 30
0.000000000
 10
217.952428631
 20
79.841078774
 30
0.000000000
  0
SPLINE
  5
A92
330
A02
100
AcDbEntity
  8
ProjItem002
100
AcDbSpline
210
0
220
0
230
1
 70
8
 71
2
 72
6
 73
3
 74
0
 40
0.923017075
 40
0.923017075
 40
0.923017075
 40
1.000000000
 40
1.000000000
 40
1.000000000
 10
218.176856190
 20
79.873809344
 30
0.000000000
 10
218.401234421
 20
79.909324073
 30
0.000000000
 10
218.400000000
 20
79.909800428
 30
0.000000000
  0
SPLINE
  5
A93
330
A02
100
AcDbEntity
  8
ProjItem002
100
AcDbSpline
210
0
220
0
230
1
 70
8
 71
3
 72
14
 73
10
 74
0
 40
0.253029940
 40
0.253029940
 40
0.253029940
 40
0.253029940
 40
0.286778098
 40
0.286778098
 40
0.286778098
 40
0.422903117
 40
0.422903117
 40
0.422903117
 40
0.501222565
 40
0.501222565
 40
0.501222565
 40
0.501222565
 10
215.900000433
 20
79.699999886
 30
0.000000000
 10
215.688823300
 20
79.700084972
 30
0.000000000
 10
215.481581584
 20
79.704381725
 30
0.000000000
 10
215.278275282
 20
79.712890145
 30
0.000000000
 10
214.460048331
 20
79.748359063
 30
0.000000000
 10
213.911468356
 20
79.831273522
 30
0.000000000
 10
213.637932369
 20
79.871545818
 30
0.000000000
 10
213.479031446
 20
79.896580677
 30
0.000000000
 10
213.399720639
 20
79.909332215
 30
0.000000000
 10
213.399999946
 20
79.909800435
 30
0.000000000
  0
SPLINE
  5
A94
330
A02
100
AcDbEntity
  8
ProjItem002
100
AcDbSpline
210
0
220
0
230
1
 70
8
 71
3
 72
11
 73
7
 74
0
 40
0.501222565
 40
0.501222565
 40
0.501222565
 40
0.501222565
 40
0.579542013
 40
0.579542013
 40
0.579542013
 40
0.711489329
 40
0.711489329
 40
0.711489329
 40
0.711489329
 10
213.399999946
 20
79.909800435
 30
0.000000000
 10
213.399720639
 20
79.909332215
 30
0.000000000
 10
213.479031446
 20
79.896580677
 30
0.000000000
 10
213.637932369
 20
79.871545818
 30
0.000000000
 10
213.903762668
 20
79.832363067
 30
0.000000000
 10
214.422356191
 20
79.754084493
 30
0.000000000
 10
215.200804379
 20
79.716304564
 30
0.000000000
  0
SPLINE
  5
A95
330
A02
100
AcDbEntity
  8
ProjItem002
100
AcDbSpline
210
0
220
0
230
1
 70
8
 71
1
 72
4
 73
2
 74
0
 40
0.722536942
 40
0.722536942
 40
0.724660440
 40
0.724660440
 10
215.398214601
 20
79.708395188
 30
0.000000000
 10
215.436855946
 20
79.707151671
 30
0.000000000
  0
SPLINE
  5
A96
330
A02
100
AcDbEntity
  8
ProjItem002
100
AcDbSpline
210
0
220
0
230
1
 70
8
 71
2
 72
6
 73
3
 74
0
 40
0.000000000
 40
0.000000000
 40
0.000000000
 40
0.092251867
 40
0.092251867
 40
0.092251867
 10
217.400000000
 20
109.624811442
 30
0.000000000
 10
217.400955612
 20
109.625234271
 30
0.000000000
 10
217.203173490
 20
109.643283958
 30
0.000000000
  0
SPLINE
  5
A97
330
A02
100
AcDbEntity
  8
ProjItem002
100
AcDbSpline
210
0
220
0
230
1
 70
8
 71
2
 72
6
 73
3
 74
0
 40
0.190539826
 40
0.190539826
 40
0.190539826
 40
0.218718807
 40
0.218718807
 40
0.218718807
 10
216.531426339
 20
109.686704051
 30
0.000000000
 10
216.398045168
 20
109.692388863
 30
0.000000000
 10
216.250358650
 20
109.695907591
 30
0.000000000
  0
SPLINE
  5
A98
330
A02
100
AcDbEntity
  8
ProjItem002
100
AcDbSpline
210
0
220
0
230
1
 70
8
 71
1
 72
4
 73
2
 74
0
 40
0.244027988
 40
0.244027988
 40
0.264509262
 40
0.264509262
 10
215.979731332
 20
109.699788012
 30
0.000000000
 10
215.756728371
 20
109.699315620
 30
0.000000000
  0
SPLINE
  5
A99
330
A02
100
AcDbEntity
  8
ProjItem002
100
AcDbSpline
210
0
220
0
230
1
 70
8
 71
1
 72
4
 73
2
 74
0
 40
0.285270492
 40
0.285270492
 40
0.291507682
 40
0.291507682
 10
215.534438944
 20
109.695544727
 30
0.000000000
 10
215.469648390
 20
109.693825196
 30
0.000000000
  0
SPLINE
  5
A9A
330
A02
100
AcDbEntity
  8
ProjItem002
100
AcDbSpline
210
0
220
0
230
1
 70
8
 71
1
 72
4
 73
2
 74
0
 40
0.298497479
 40
0.298497479
 40
0.298498294
 40
0.298498294
 10
215.398974211
 20
109.691629985
 30
0.000000000
 10
215.398966096
 20
109.691629714
 30
0.000000000
  0
SPLINE
  5
A9B
330
A02
100
AcDbEntity
  8
ProjItem002
100
AcDbSpline
210
0
220
0
230
1
 70
8
 71
2
 72
6
 73
3
 74
0
 40
0.307441069
 40
0.307441069
 40
0.307441069
 40
0.365500902
 40
0.365500902
 40
0.365500902
 10
215.311661400
 20
109.688457365
 30
0.000000000
 10
215.033019484
 20
109.676830938
 30
0.000000000
 10
214.838329726
 20
109.662381254
 30
0.000000000
  0
SPLINE
  5
A9C
330
A02
100
AcDbEntity
  8
ProjItem002
100
AcDbSpline
210
0
220
0
230
1
 70
8
 71
2
 72
6
 73
3
 74
0
 40
0.365667539
 40
0.365667539
 40
0.365667539
 40
0.380777127
 40
0.380777127
 40
0.380777127
 10
214.837217419
 20
109.662302287
 30
0.000000000
 10
214.786817763
 20
109.658712741
 30
0.000000000
 10
214.742402918
 20
109.655265483
 30
0.000000000
  0
SPLINE
  5
A9D
330
A02
100
AcDbEntity
  8
ProjItem002
100
AcDbSpline
210
0
220
0
230
1
 70
8
 71
3
 72
8
 73
4
 74
0
 40
0.582294803
 40
0.582294803
 40
0.582294803
 40
0.582294803
 40
0.701005968
 40
0.701005968
 40
0.701005968
 40
0.701005968
 10
214.563414125
 20
109.640332486
 30
0.000000000
 10
214.718366472
 20
109.653964327
 30
0.000000000
 10
215.001969158
 20
109.678050601
 30
0.000000000
 10
215.395716564
 20
109.691520761
 30
0.000000000
  0
SPLINE
  5
A9E
330
A02
100
AcDbEntity
  8
ProjItem002
100
AcDbSpline
210
0
220
0
230
1
 70
8
 71
1
 72
4
 73
2
 74
0
 40
0.815238415
 40
0.815238415
 40
0.815240896
 40
0.815240896
 10
216.584959934
 20
109.684352714
 30
0.000000000
 10
216.584982568
 20
109.684351680
 30
0.000000000
  0
SPLINE
  5
A9F
330
A02
100
AcDbEntity
  8
ProjItem002
100
AcDbSpline
210
0
220
0
230
1
 70
8
 71
2
 72
6
 73
3
 74
0
 40
0.876462044
 40
0.876462044
 40
0.876462044
 40
0.907054532
 40
0.907054532
 40
0.907054532
 10
217.042846225
 20
109.656399945
 30
0.000000000
 10
217.132829408
 20
109.649461071
 30
0.000000000
 10
217.199535008
 20
109.643600811
 30
0.000000000
  0
SPLINE
  5
AA0
330
A02
100
AcDbEntity
  8
ProjItem002
100
AcDbSpline
210
0
220
0
230
1
 70
8
 71
3
 72
17
 73
13
 74
0
 40
0.000000000
 40
0.000000000
 40
0.000000000
 40
0.000000000
 40
0.152022964
 40
0.152022964
 40
0.152022964
 40
0.285982565
 40
0.285982565
 40
0.285982565
 40
0.422480302
 40
0.422480302
 40
0.422480302
 40
0.499764070
 40
0.499764070
 40
0.499764070
 40
0.499764070
 10
202.224734045
 20
88.536632213
 30
0.000000000
 10
202.225675891
 20
88.536438804
 30
0.000000000
 10
202.293722311
 20
88.376825261
 30
0.000000000
 10
202.457968378
 20
88.043290047
 30
0.000000000
 10
202.600208892
 20
87.752564109
 30
0.000000000
 10
202.853179939
 20
87.280195514
 30
0.000000000
 10
203.100154038
 20
86.879261854
 30
0.000000000
 10
203.350766041
 20
86.469808647
 30
0.000000000
 10
203.545678520
 20
86.191943022
 30
0.000000000
 10
203.641525426
 20
86.055359864
 30
0.000000000
 10
203.696893320
 20
85.977327978
 30
0.000000000
 10
203.724629533
 20
85.938393347
 30
0.000000000
 10
203.724734066
 20
85.938555972
 30
0.000000000
  0
SPLINE
  5
AA1
330
A02
100
AcDbEntity
  8
ProjItem002
100
AcDbSpline
210
0
220
0
230
1
 70
8
 71
3
 72
11
 73
7
 74
0
 40
0.499764070
 40
0.499764070
 40
0.499764070
 40
0.499764070
 40
0.587693165
 40
0.587693165
 40
0.587693165
 40
0.701005968
 40
0.701005968
 40
0.701005968
 40
0.701005968
 10
203.724734066
 20
85.938555972
 30
0.000000000
 10
203.724558534
 20
85.938279903
 30
0.000000000
 10
203.688588017
 20
85.988926701
 30
0.000000000
 10
203.616822515
 20
86.090496365
 30
0.000000000
 10
203.525669624
 20
86.220860866
 30
0.000000000
 10
203.368010399
 20
86.448623198
 30
0.000000000
 10
203.169103798
 20
86.767517182
 30
0.000000000
  0
SPLINE
  5
AA2
330
A02
100
AcDbEntity
  8
ProjItem002
100
AcDbSpline
210
0
220
0
230
1
 70
8
 71
1
 72
4
 73
2
 74
0
 40
0.729764255
 40
0.729764255
 40
0.729770037
 40
0.729770037
 10
203.013106761
 20
87.023543549
 30
0.000000000
 10
203.013074898
 20
87.023597039
 30
0.000000000
  0
SPLINE
  5
AA3
330
A02
100
AcDbEntity
  8
ProjItem002
100
AcDbSpline
210
0
220
0
230
1
 70
8
 71
1
 72
4
 73
2
 74
0
 40
0.786884629
 40
0.786884629
 40
0.786890222
 40
0.786890222
 10
202.710054589
 20
87.556797527
 30
0.000000000
 10
202.710027218
 20
87.556848069
 30
0.000000000
  0
SPLINE
  5
AA4
330
A02
100
AcDbEntity
  8
ProjItem002
100
AcDbSpline
210
0
220
0
230
1
 70
8
 71
1
 72
4
 73
2
 74
0
 40
0.815238415
 40
0.815238415
 40
0.815240896
 40
0.815240896
 10
202.580689824
 20
87.801016175
 30
0.000000000
 10
202.580679403
 20
87.801036294
 30
0.000000000
  0
SPLINE
  5
AA5
330
A02
100
AcDbEntity
  8
ProjItem002
100
AcDbSpline
210
0
220
0
230
1
 70
8
 71
2
 72
6
 73
3
 74
0
 40
0.876461819
 40
0.876461819
 40
0.876461819
 40
1.000000000
 40
1.000000000
 40
1.000000000
 10
202.375955062
 20
88.211532521
 30
0.000000000
 10
202.222083062
 20
88.538359526
 30
0.000000000
 10
202.224734045
 20
88.536632213
 30
0.000000000
  0
SPLINE
  5
AA6
330
A02
100
AcDbEntity
  8
ProjItem002
100
AcDbSpline
210
0
220
0
230
1
 70
8
 71
3
 72
17
 73
13
 74
0
 40
0.000000000
 40
0.000000000
 40
0.000000000
 40
0.000000000
 40
0.152022964
 40
0.152022964
 40
0.152022964
 40
0.285982565
 40
0.285982565
 40
0.285982565
 40
0.422480302
 40
0.422480302
 40
0.422480302
 40
0.499764070
 40
0.499764070
 40
0.499764070
 40
0.499764070
 10
228.075265955
 20
85.938556002
 30
0.000000000
 10
228.074962529
 20
85.939468369
 30
0.000000000
 10
228.179168702
 20
86.078205069
 30
0.000000000
 10
228.385895637
 20
86.387213942
 30
0.000000000
 10
228.566551427
 20
86.655760810
 30
0.000000000
 10
228.849149108
 20
87.111024460
 30
0.000000000
 10
229.072880792
 20
87.525377134
 30
0.000000000
 10
229.302171670
 20
87.947140099
 30
0.000000000
 10
229.445354120
 20
88.254872069
 30
0.000000000
 10
229.515715153
 20
88.406169504
 30
0.000000000
 10
229.555608801
 20
88.493135450
 30
0.000000000
 10
229.575459074
 20
88.536623031
 30
0.000000000
 10
229.575265970
 20
88.536632246
 30
0.000000000
  0
SPLINE
  5
AA7
330
A02
100
AcDbEntity
  8
ProjItem002
100
AcDbSpline
210
0
220
0
230
1
 70
8
 71
3
 72
11
 73
7
 74
0
 40
0.499764070
 40
0.499764070
 40
0.499764070
 40
0.499764070
 40
0.587693165
 40
0.587693165
 40
0.587693165
 40
0.701005968
 40
0.701005968
 40
0.701005968
 40
0.701005968
 10
229.575265970
 20
88.536632246
 30
0.000000000
 10
229.575592819
 20
88.536618266
 30
0.000000000
 10
229.549716664
 20
88.480143485
 30
0.000000000
 10
229.497637505
 20
88.367207905
 30
0.000000000
 10
229.430314982
 20
88.223084936
 30
0.000000000
 10
229.311896629
 20
87.972666876
 30
0.000000000
 10
229.135179637
 20
87.640961714
 30
0.000000000
  0
SPLINE
  5
AA8
330
A02
100
AcDbEntity
  8
ProjItem002
100
AcDbSpline
210
0
220
0
230
1
 70
8
 71
1
 72
4
 73
2
 74
0
 40
0.729764255
 40
0.729764255
 40
0.729770037
 40
0.729770037
 10
228.991452818
 20
87.377851133
 30
0.000000000
 10
228.991422426
 20
87.377796795
 30
0.000000000
  0
SPLINE
  5
AA9
330
A02
100
AcDbEntity
  8
ProjItem002
100
AcDbSpline
210
0
220
0
230
1
 70
8
 71
1
 72
4
 73
2
 74
0
 40
0.786884629
 40
0.786884629
 40
0.786890222
 40
0.786890222
 10
228.681167412
 20
86.848773265
 30
0.000000000
 10
228.681137328
 20
86.848724290
 30
0.000000000
  0
SPLINE
  5
AAA
330
A02
100
AcDbEntity
  8
ProjItem002
100
AcDbSpline
210
0
220
0
230
1
 70
8
 71
1
 72
4
 73
2
 74
0
 40
0.815238415
 40
0.815238415
 40
0.815240896
 40
0.815240896
 10
228.534350242
 20
86.614630768
 30
0.000000000
 10
228.534338029
 20
86.614611683
 30
0.000000000
  0
SPLINE
  5
AAB
330
A02
100
AcDbEntity
  8
ProjItem002
100
AcDbSpline
210
0
220
0
230
1
 70
8
 71
2
 72
6
 73
3
 74
0
 40
0.876462145
 40
0.876462145
 40
0.876462145
 40
1.000000000
 40
1.000000000
 40
1.000000000
 10
228.281198949
 20
86.232065498
 30
0.000000000
 10
228.075095549
 20
85.935396557
 30
0.000000000
 10
228.075265955
 20
85.938556002
 30
0.000000000
  0
SPLINE
  5
AAC
330
A02
100
AcDbEntity
  8
ProjItem003
100
AcDbSpline
210
0
220
0
230
1
 70
8
 71
1
 72
17
 73
15
 74
0
 40
1.570796327
 40
1.570796327
 40
1.795195802
 40
2.019595277
 40
2.243994753
 40
2.468394228
 40
2.692793703
 40
2.917193178
 40
3.141592654
 40
3.365992129
 40
3.590391604
 40
3.814791079
 40
4.039190555
 40
4.263590030
 40
4.487989505
 40
4.712388980
 40
4.712388980
 10
267.007085481
 20
124.700000000
 30
0.000000000
 10
267.383166799
 20
124.700000000
 30
0.000000000
 10
268.492552463
 20
124.700000000
 30
0.000000000
 10
270.279613244
 20
124.700000000
 30
0.000000000
 10
272.654738453
 20
124.700000000
 30
0.000000000
 10
275.498829395
 20
124.700000000
 30
0.000000000
 10
278.669271472
 20
124.700000000
 30
0.000000000
 10
282.007085481
 20
124.700000000
 30
0.000000000
 10
285.344899491
 20
124.700000000
 30
0.000000000
 10
288.515341568
 20
124.700000000
 30
0.000000000
 10
291.359432509
 20
124.700000000
 30
0.000000000
 10
293.734557718
 20
124.700000000
 30
0.000000000
 10
295.521618500
 20
124.700000000
 30
0.000000000
 10
296.631004164
 20
124.700000000
 30
0.000000000
 10
297.007085481
 20
124.700000000
 30
0.000000000
  0
SPLINE
  5
AAD
330
A02
100
AcDbEntity
  8
ProjItem003
100
AcDbSpline
210
0
220
0
230
1
 70
8
 71
1
 72
17
 73
15
 74
0
 40
1.570796327
 40
1.570796327
 40
1.795195802
 40
2.019595277
 40
2.243994753
 40
2.468394228
 40
2.692793703
 40
2.917193178
 40
3.141592654
 40
3.365992129
 40
3.590391604
 40
3.814791079
 40
4.039190555
 40
4.263590030
 40
4.487989505
 40
4.712388980
 40
4.712388980
 10
267.007085481
 20
154.700000000
 30
0.000000000
 10
267.383166799
 20
154.700000000
 30
0.000000000
 10
268.492552463
 20
154.700000000
 30
0.000000000
 10
270.279613244
 20
154.700000000
 30
0.000000000
 10
272.654738453
 20
154.700000000
 30
0.000000000
 10
275.498829395
 20
154.700000000
 30
0.000000000
 10
278.669271472
 20
154.700000000
 30
0.000000000
 10
282.007085481
 20
154.700000000
 30
0.000000000
 10
285.344899491
 20
154.700000000
 30
0.000000000
 10
288.515341568
 20
154.700000000
 30
0.000000000
 10
291.359432509
 20
154.700000000
 30
0.000000000
 10
293.734557718
 20
154.700000000
 30
0.000000000
 10
295.521618500
 20
154.700000000
 30
0.000000000
 10
296.631004164
 20
154.700000000
 30
0.000000000
 10
297.007085481
 20
154.700000000
 30
0.000000000
  0
SPLINE
  5
AAE
330
A02
100
AcDbEntity
  8
ProjItem003
100
AcDbSpline
210
0
220
0
230
1
 70
8
 71
1
 72
4
 73
2
 74
0
 40
0.000000000
 40
0.000000000
 40
0.017536943
 40
0.017536943
 10
267.216886024
 20
146.700000000
 30
0.000000000
 10
267.215008968
 20
146.935644047
 30
0.000000000
  0
SPLINE
  5
AAF
330
A02
100
AcDbEntity
  8
ProjItem003
100
AcDbSpline
210
0
220
0
230
1
 70
8
 71
3
 72
20
 73
16
 74
0
 40
0.253029966
 40
0.253029966
 40
0.253029966
 40
0.253029966
 40
0.286778101
 40
0.286778101
 40
0.286778101
 40
0.422903120
 40
0.422903120
 40
0.422903120
 40
0.579542014
 40
0.579542014
 40
0.579542014
 40
0.707278656
 40
0.707278656
 40
0.707278656
 40
0.749575789
 40
0.749575789
 40
0.749575789
 40
0.749575789
 10
267.007085481
 20
149.200000017
 30
0.000000000
 10
267.007170574
 20
149.199801591
 30
0.000000000
 10
267.011467327
 20
149.173620886
 30
0.000000000
 10
267.019975741
 20
149.121457903
 30
0.000000000
 10
267.055444658
 20
148.907420096
 30
0.000000000
 10
267.138359117
 20
148.348494118
 30
0.000000000
 10
267.178631414
 20
147.764448229
 30
0.000000000
 10
267.229297152
 20
147.086798047
 30
0.000000000
 10
267.229297152
 20
146.313201953
 30
0.000000000
 10
267.178631414
 20
145.635551771
 30
0.000000000
 10
267.140545612
 20
145.087123270
 30
0.000000000
 10
267.066389546
 20
144.565745123
 30
0.000000000
 10
267.026992754
 20
144.322358709
 30
0.000000000
 10
267.014003314
 20
144.241732037
 30
0.000000000
 10
267.007367556
 20
144.200945801
 30
0.000000000
 10
267.007085481
 20
144.200000002
 30
0.000000000
  0
SPLINE
  5
AB0
330
A02
100
AcDbEntity
  8
ProjItem003
100
AcDbSpline
210
0
220
0
230
1
 70
8
 71
3
 72
11
 73
7
 74
0
 40
0.749575789
 40
0.749575789
 40
0.749575789
 40
0.749575789
 40
0.827872572
 40
0.827872572
 40
0.827872572
 40
0.871521971
 40
0.871521971
 40
0.871521971
 40
0.871521971
 10
267.007085481
 20
144.200000002
 30
0.000000000
 10
267.006395186
 20
144.197008157
 30
0.000000000
 10
267.033807895
 20
144.354834299
 30
0.000000000
 10
267.067019876
 20
144.589180186
 30
0.000000000
 10
267.085739042
 20
144.719818301
 30
0.000000000
 10
267.104582869
 20
144.868688951
 30
0.000000000
 10
267.123551358
 20
145.035792136
 30
0.000000000
  0
SPLINE
  5
AB1
330
A02
100
AcDbEntity
  8
ProjItem003
100
AcDbSpline
210
0
220
0
230
1
 70
8
 71
2
 72
6
 73
3
 74
0
 40
0.903913907
 40
0.903913907
 40
0.903913907
 40
0.944438128
 40
0.944438128
 40
0.944438128
 10
267.161955196
 20
145.424110779
 30
0.000000000
 10
267.183971246
 20
145.678616498
 30
0.000000000
 10
267.197831659
 20
145.949001484
 30
0.000000000
  0
SPLINE
  5
AB2
330
A02
100
AcDbEntity
  8
ProjItem003
100
AcDbSpline
210
0
220
0
230
1
 70
8
 71
1
 72
4
 73
2
 74
0
 40
0.985292916
 40
0.985292916
 40
1.000000000
 40
1.000000000
 10
267.215531017
 20
146.499791983
 30
0.000000000
 10
267.216886024
 20
146.700000000
 30
0.000000000
  0
SPLINE
  5
AB3
330
A02
100
AcDbEntity
  8
ProjItem003
100
AcDbSpline
210
0
220
0
230
1
 70
8
 71
3
 72
11
 73
7
 74
0
 40
0.749575767
 40
0.749575767
 40
0.749575767
 40
0.749575767
 40
0.827872571
 40
0.827872571
 40
0.827872571
 40
0.871521972
 40
0.871521972
 40
0.871521972
 40
0.871521972
 10
297.007085481
 20
144.200000002
 30
0.000000000
 10
297.007775791
 20
144.197008077
 30
0.000000000
 10
296.980363077
 20
144.354834234
 30
0.000000000
 10
296.947151086
 20
144.589180186
 30
0.000000000
 10
296.928431920
 20
144.719818304
 30
0.000000000
 10
296.909588092
 20
144.868688958
 30
0.000000000
 10
296.890619603
 20
145.035792149
 30
0.000000000
  0
SPLINE
  5
AB4
330
A02
100
AcDbEntity
  8
ProjItem003
100
AcDbSpline
210
0
220
0
230
1
 70
8
 71
2
 72
6
 73
3
 74
0
 40
0.903913887
 40
0.903913887
 40
0.903913887
 40
0.944438162
 40
0.944438162
 40
0.944438162
 10
296.852215788
 20
145.424110530
 30
0.000000000
 10
296.830199705
 20
145.678616585
 30
0.000000000
 10
296.816339280
 20
145.949001948
 30
0.000000000
  0
SPLINE
  5
AB5
330
A02
100
AcDbEntity
  8
ProjItem003
100
AcDbSpline
210
0
220
0
230
1
 70
8
 71
1
 72
4
 73
2
 74
0
 40
0.985293034
 40
0.985293034
 40
1.000000000
 40
1.000000000
 10
296.798639924
 20
146.499793583
 30
0.000000000
 10
296.797284939
 20
146.700000000
 30
0.000000000
  0
SPLINE
  5
AB6
330
A02
100
AcDbEntity
  8
ProjItem003
100
AcDbSpline
210
0
220
0
230
1
 70
8
 71
3
 72
20
 73
16
 74
0
 40
0.253029940
 40
0.253029940
 40
0.253029940
 40
0.253029940
 40
0.286778098
 40
0.286778098
 40
0.286778098
 40
0.422903117
 40
0.422903117
 40
0.422903117
 40
0.579542013
 40
0.579542013
 40
0.579542013
 40
0.707278655
 40
0.707278655
 40
0.707278655
 40
0.749575767
 40
0.749575767
 40
0.749575767
 40
0.749575767
 10
297.007085481
 20
149.200000017
 30
0.000000000
 10
297.007000395
 20
149.199801627
 30
0.000000000
 10
297.002703642
 20
149.173620923
 30
0.000000000
 10
296.994195222
 20
149.121457903
 30
0.000000000
 10
296.958726304
 20
148.907420096
 30
0.000000000
 10
296.875811845
 20
148.348494118
 30
0.000000000
 10
296.835539549
 20
147.764448229
 30
0.000000000
 10
296.784873811
 20
147.086798047
 30
0.000000000
 10
296.784873811
 20
146.313201953
 30
0.000000000
 10
296.835539549
 20
145.635551771
 30
0.000000000
 10
296.873625351
 20
145.087123270
 30
0.000000000
 10
296.947781417
 20
144.565745123
 30
0.000000000
 10
296.987178208
 20
144.322358709
 30
0.000000000
 10
297.000167642
 20
144.241732078
 30
0.000000000
 10
297.006803400
 20
144.200945842
 30
0.000000000
 10
297.007085481
 20
144.200000002
 30
0.000000000
  0
SPLINE
  5
AB7
330
A02
100
AcDbEntity
  8
ProjItem003
100
AcDbSpline
210
0
220
0
230
1
 70
8
 71
1
 72
4
 73
2
 74
0
 40
0.000000000
 40
0.000000000
 40
0.018407933
 40
0.018407933
 10
296.797284939
 20
146.700000000
 30
0.000000000
 10
296.799352632
 20
146.947321635
 30
0.000000000
  0
SPLINE
  5
AB8
330
A02
100
AcDbEntity
  8
ProjItem003
100
AcDbSpline
210
0
220
0
230
1
 70
8
 71
3
 72
11
 73
7
 74
0
 40
0.000000000
 40
0.000000000
 40
0.000000000
 40
0.000000000
 40
0.152022964
 40
0.152022964
 40
0.152022964
 40
0.251351122
 40
0.251351122
 40
0.251351122
 40
0.251351122
 10
267.082273925
 20
128.700000000
 30
0.000000000
 10
267.082992882
 20
129.117146442
 30
0.000000000
 10
267.062116039
 20
129.545783012
 30
0.000000000
 10
267.037589699
 20
129.855769864
 30
0.000000000
 10
267.021835910
 20
130.059215679
 30
0.000000000
 10
267.006670917
 20
130.202853124
 30
0.000000000
 10
267.007085453
 20
130.200000007
 30
0.000000000
  0
SPLINE
  5
AB9
330
A02
100
AcDbEntity
  8
ProjItem003
100
AcDbSpline
210
0
220
0
230
1
 70
8
 71
3
 72
14
 73
10
 74
0
 40
0.251351122
 40
0.251351122
 40
0.251351122
 40
0.251351122
 40
0.422480302
 40
0.422480302
 40
0.422480302
 40
0.587693165
 40
0.587693165
 40
0.587693165
 40
0.748607864
 40
0.748607864
 40
0.748607864
 40
0.748607864
 10
267.007085453
 20
130.200000007
 30
0.000000000
 10
267.007030763
 20
130.200491495
 30
0.000000000
 10
267.050558554
 20
129.784358360
 30
0.000000000
 10
267.068615077
 20
129.338668937
 30
0.000000000
 10
267.088124280
 20
128.905438628
 30
0.000000000
 10
267.086293764
 20
128.402123041
 30
0.000000000
 10
267.064789980
 20
127.977369489
 30
0.000000000
 10
267.045611321
 20
127.566956432
 30
0.000000000
 10
267.006858456
 20
127.198731318
 30
0.000000000
 10
267.007085462
 20
127.200000020
 30
0.000000000
  0
SPLINE
  5
ABA
330
A02
100
AcDbEntity
  8
ProjItem003
100
AcDbSpline
210
0
220
0
230
1
 70
8
 71
3
 72
8
 73
4
 74
0
 40
0.748607864
 40
0.748607864
 40
0.748607864
 40
0.748607864
 40
0.852600341
 40
0.852600341
 40
0.852600341
 40
0.852600341
 10
267.007085462
 20
127.200000020
 30
0.000000000
 10
267.006635360
 20
127.196810602
 30
0.000000000
 10
267.023346718
 20
127.355302287
 30
0.000000000
 10
267.039652898
 20
127.571266823
 30
0.000000000
  0
SPLINE
  5
ABB
330
A02
100
AcDbEntity
  8
ProjItem003
100
AcDbSpline
210
0
220
0
230
1
 70
8
 71
2
 72
6
 73
3
 74
0
 40
0.881257388
 40
0.881257388
 40
0.881257388
 40
0.900788004
 40
0.900788004
 40
0.900788004
 10
267.052823807
 20
127.761947797
 30
0.000000000
 10
267.057153675
 20
127.830821195
 30
0.000000000
 10
267.061049123
 20
127.903757056
 30
0.000000000
  0
SPLINE
  5
ABC
330
A02
100
AcDbEntity
  8
ProjItem003
100
AcDbSpline
210
0
220
0
230
1
 70
8
 71
2
 72
6
 73
3
 74
0
 40
0.931519561
 40
0.931519561
 40
0.931519561
 40
0.978198291
 40
0.978198291
 40
0.978198291
 10
267.071795259
 20
128.140630620
 30
0.000000000
 10
267.078794880
 20
128.326232216
 30
0.000000000
 10
267.081183407
 20
128.519575415
 30
0.000000000
  0
SPLINE
  5
ABD
330
A02
100
AcDbEntity
  8
ProjItem003
100
AcDbSpline
210
0
220
0
230
1
 70
8
 71
1
 72
4
 73
2
 74
0
 40
0.999367859
 40
0.999367859
 40
1.000000000
 40
1.000000000
 10
267.082273005
 20
128.694761494
 30
0.000000000
 10
267.082273925
 20
128.700000000
 30
0.000000000
  0
SPLINE
  5
ABE
330
A02
100
AcDbEntity
  8
ProjItem003
100
AcDbSpline
210
0
220
0
230
1
 70
8
 71
3
 72
11
 73
7
 74
0
 40
0.000000000
 40
0.000000000
 40
0.000000000
 40
0.000000000
 40
0.152022964
 40
0.152022964
 40
0.152022964
 40
0.251351126
 40
0.251351126
 40
0.251351126
 40
0.251351126
 10
288.170453154
 20
128.700000000
 30
0.000000000
 10
288.170646563
 20
129.117146442
 30
0.000000000
 10
288.330260107
 20
129.545783012
 30
0.000000000
 10
288.663795320
 20
129.855769864
 30
0.000000000
 10
288.880288895
 20
130.059215689
 30
0.000000000
 10
289.193657466
 20
130.202853137
 30
0.000000000
 10
289.507085532
 20
130.200000007
 30
0.000000000
  0
SPLINE
  5
ABF
330
A02
100
AcDbEntity
  8
ProjItem003
100
AcDbSpline
210
0
220
0
230
1
 70
8
 71
3
 72
20
 73
16
 74
0
 40
0.251351126
 40
0.251351126
 40
0.251351126
 40
0.251351126
 40
0.285982565
 40
0.285982565
 40
0.285982565
 40
0.422480302
 40
0.422480302
 40
0.422480302
 40
0.587693165
 40
0.587693165
 40
0.587693165
 40
0.713901165
 40
0.713901165
 40
0.713901165
 40
0.748607861
 40
0.748607861
 40
0.748607861
 40
0.748607861
 10
289.507085532
 20
130.200000007
 30
0.000000000
 10
289.616827048
 20
130.199877740
 30
0.000000000
 10
289.723739708
 20
130.184169318
 30
0.000000000
 10
289.827823513
 20
130.152874742
 30
0.000000000
 10
290.237276720
 20
130.028802921
 30
0.000000000
 10
290.515142345
 20
129.695644649
 30
0.000000000
 10
290.651725504
 20
129.338668937
 30
0.000000000
 10
290.818116462
 20
128.905438628
 30
0.000000000
 10
290.807348096
 20
128.402123041
 30
0.000000000
 10
290.616589002
 20
127.977369489
 30
0.000000000
 10
290.471847804
 20
127.654562488
 30
0.000000000
 10
290.204451587
 20
127.360793104
 30
0.000000000
 10
289.827823513
 20
127.247125258
 30
0.000000000
 10
289.723951367
 20
127.215862563
 30
0.000000000
 10
289.617038703
 20
127.200154150
 30
0.000000000
 10
289.507085519
 20
127.200000020
 30
0.000000000
  0
SPLINE
  5
AC0
330
A02
100
AcDbEntity
  8
ProjItem003
100
AcDbSpline
210
0
220
0
230
1
 70
8
 71
3
 72
11
 73
7
 74
0
 40
0.748607861
 40
0.748607861
 40
0.748607861
 40
0.748607861
 40
0.838379681
 40
0.838379681
 40
0.838379681
 40
1.000000000
 40
1.000000000
 40
1.000000000
 40
1.000000000
 10
289.507085519
 20
127.200000020
 30
0.000000000
 10
289.224211418
 20
127.197904913
 30
0.000000000
 10
288.939772175
 20
127.314005444
 30
0.000000000
 10
288.730562899
 20
127.486474508
 30
0.000000000
 10
288.351893738
 20
127.797224775
 30
0.000000000
 10
288.170517112
 20
128.256606915
 30
0.000000000
 10
288.170453154
 20
128.700000000
 30
0.000000000
  0
SPLINE
  5
AC1
330
A02
100
AcDbEntity
  8
ProjItem003
100
AcDbSpline
210
0
220
0
230
1
 70
8
 71
2
 72
6
 73
3
 74
0
 40
0.000000000
 40
0.000000000
 40
0.000000000
 40
0.045828481
 40
0.045828481
 40
0.045828481
 10
290.768529365
 20
128.700000000
 30
0.000000000
 10
290.768597784
 20
128.890247038
 30
0.000000000
 10
290.729238305
 20
129.076873008
 30
0.000000000
  0
SPLINE
  5
AC2
330
A02
100
AcDbEntity
  8
ProjItem003
100
AcDbSpline
210
0
220
0
230
1
 70
8
 71
3
 72
8
 73
4
 74
0
 40
0.067779536
 40
0.067779536
 40
0.067779536
 40
0.067779536
 40
0.151941378
 40
0.151941378
 40
0.151941378
 40
0.151941378
 10
290.682149191
 20
129.252996447
 30
0.000000000
 10
290.609959666
 20
129.474727064
 30
0.000000000
 10
290.491649517
 20
129.684839232
 30
0.000000000
 10
290.320369719
 20
129.855275376
 30
0.000000000
  0
SPLINE
  5
AC3
330
A02
100
AcDbEntity
  8
ProjItem003
100
AcDbSpline
210
0
220
0
230
1
 70
8
 71
1
 72
4
 73
2
 74
0
 40
0.243286406
 40
0.243286406
 40
0.251351126
 40
0.251351126
 10
289.582984156
 20
130.197428853
 30
0.000000000
 10
289.507085459
 20
130.200000007
 30
0.000000000
  0
SPLINE
  5
AC4
330
A02
100
AcDbEntity
  8
ProjItem003
100
AcDbSpline
210
0
220
0
230
1
 70
8
 71
1
 72
4
 73
2
 74
0
 40
0.748607861
 40
0.748607861
 40
0.749441184
 40
0.749441184
 10
289.507085464
 20
127.200000020
 30
0.000000000
 10
289.514946268
 20
127.200027494
 30
0.000000000
  0
SPLINE
  5
AC5
330
A02
100
AcDbEntity
  8
ProjItem003
100
AcDbSpline
210
0
220
0
230
1
 70
8
 71
2
 72
6
 73
3
 74
0
 40
0.749483443
 40
0.749483443
 40
0.749483443
 40
0.800324705
 40
0.800324705
 40
0.800324705
 10
289.515344802
 20
127.200030351
 30
0.000000000
 10
289.758646140
 20
127.203170958
 30
0.000000000
 10
289.973061961
 20
127.302026444
 30
0.000000000
  0
SPLINE
  5
AC6
330
A02
100
AcDbEntity
  8
ProjItem003
100
AcDbSpline
210
0
220
0
230
1
 70
8
 71
2
 72
6
 73
3
 74
0
 40
0.823389810
 40
0.823389810
 40
0.823389810
 40
0.879743247
 40
0.879743247
 40
0.879743247
 10
290.153624613
 20
127.405386665
 30
0.000000000
 10
290.358325403
 20
127.551410440
 30
0.000000000
 10
290.490777939
 20
127.751310358
 30
0.000000000
  0
SPLINE
  5
AC7
330
A02
100
AcDbEntity
  8
ProjItem003
100
AcDbSpline
210
0
220
0
230
1
 70
8
 71
1
 72
4
 73
2
 74
0
 40
0.927049210
 40
0.927049210
 40
0.930024018
 40
0.930024018
 10
290.668010718
 20
128.105347639
 30
0.000000000
 10
290.676119801
 20
128.128800283
 30
0.000000000
  0
SPLINE
  5
AC8
330
A02
100
AcDbEntity
  8
ProjItem003
100
AcDbSpline
210
0
220
0
230
1
 70
8
 71
1
 72
4
 73
2
 74
0
 40
0.989324408
 40
0.989324408
 40
0.989548809
 40
0.989548809
 10
290.766400485
 20
128.611559948
 30
0.000000000
 10
290.766489067
 20
128.613417801
 30
0.000000000
  0
LINE
  5
AC9
330
A02
100
AcDbEntity
  8
ProjItem003
100
AcDbLine
 10
267.007085481
 20
154.700000000
 30
0.000000000
 11
267.007085481
 21
149.200000017
 31
0.000000000
  0
LINE
  5
ACA
330
A02
100
AcDbEntity
  8
ProjItem003
100
AcDbLine
 10
267.007085481
 20
144.200000002
 30
0.000000000
 11
267.007085481
 21
130.200000007
 31
0.000000000
  0
LINE
  5
ACB
330
A02
100
AcDbEntity
  8
ProjItem003
100
AcDbLine
 10
267.007085481
 20
127.200000020
 30
0.000000000
 11
267.007085481
 21
124.700000000
 31
0.000000000
  0
LINE
  5
ACC
330
A02
100
AcDbEntity
  8
ProjItem003
100
AcDbLine
 10
297.007085481
 20
154.700000000
 30
0.000000000
 11
297.007085481
 21
149.200000017
 31
0.000000000
  0
LINE
  5
ACD
330
A02
100
AcDbEntity
  8
ProjItem003
100
AcDbLine
 10
297.007085481
 20
144.200000002
 30
0.000000000
 11
297.007085481
 21
124.700000000
 31
0.000000000
  0
LINE
  5
ACE
330
A02
100
AcDbEntity
  8
ProjItem003
100
AcDbLine
 10
289.507085496
 20
130.200000000
 30
0.000000000
 11
289.506959571
 21
130.200000000
 31
0.000000000
  0
DIMENSION
  5
ACF
330
A02
100
AcDbEntity
  8
Dimension
100
AcDbDimension
  2
*Dimension
 10
214.527636587
 20
183.245139755
 30
0.000000000
 11
195.417274000
 21
176.562808100
 31
0.000000000
 70
3
  1
⌀4
  3
STANDARD
100
AcDbDiametricDimension
 15
217.272363413
 25
186.154860473
 35
0.000000000
 40
0
  0
DIMENSION
  5
AD7
330
A02
100
AcDbEntity
  8
Dimension001
100
AcDbDimension
  2
*Dimension001
 10
230.667709458
 20
182.070407490
 30
0.000000000
 11
251.460214000
 21
187.566842100
 31
0.000000000
 70
3
  1
⌀30
  3
STANDARD
100
AcDbDiametricDimension
 15
201.132290542
 25
187.329592738
 35
0.000000000
 40
0
  0
DIMENSION
  5
ADF
330
A02
100
AcDbEntity
  8
Dimension002
100
AcDbDimension
  2
*Dimension002
 10
92.638801244
 20
139.700000000
 30
0.000000000
 11
97.638801244
 21
139.700000000
 31
0.000000000
 70
32
  1
30
  3
STANDARD
100
AcDbAlignedDimension
 13
138.861750230
 23
124.700000000
 33
0.000000000
 14
138.861750230
 24
154.700000000
 34
0.000000000
 50
90
100
AcDbRotatedDimension
  0
DIMENSION
  5
AE9
330
A02
100
AcDbEntity
  8
Dimension003
100
AcDbDimension
  2
*Dimension003
 10
115.035624244
 20
141.002430000
 30
0.000000000
 11
120.035624244
 21
141.002430000
 31
0.000000000
 70
1
  1
2,5
  3
STANDARD
100
AcDbAlignedDimension
 13
146.361750248
 23
124.700000000
 33
0.000000000
 14
146.361750248
 24
127.200000020
 34
0.000000000
  0
DIMENSION
  5
AF3
330
A02
100
AcDbEntity
  8
Dimension004
100
AcDbDimension
  2
*Dimension004
 10
215.899999991
 20
146.700000011
 30
0.000000000
 11
245.568130000
 21
143.230188000
 31
0.000000000
 70
4
  1
R2,5
  3
STANDARD
100
AcDbRadialDimension
 15
218.125542535
 25
145.561158306
 35
0.000000000
 40
0
  0
DIMENSION
  5
AFA
330
A02
100
AcDbEntity
  8
Dimension005
100
AcDbDimension
  2
*Dimension005
 10
217.210674754
 20
127.970513186
 30
0.000000000
 11
239.922202000
 21
126.180688000
 31
0.000000000
 70
3
  1
⌀3
  3
STANDARD
100
AcDbDiametricDimension
 15
214.589223184
 25
129.429486814
 35
0.000000000
 40
0
  0
DIMENSION
  5
B02
330
A02
100
AcDbEntity
  8
Dimension006
100
AcDbDimension
  2
*Dimension006
 10
180.623752000
 20
147.012753000
 30
0.000000000
 11
185.623752000
 21
147.012753000
 31
0.000000000
 70
1
  1
5,5
  3
STANDARD
100
AcDbAlignedDimension
 13
215.900000433
 23
149.200000017
 33
0.000000000
 14
215.900000433
 24
154.700000000
 34
0.000000000
  0
ENDSEC
  0
SECTION
  2
OBJECTS
  0
DICTIONARY
  5
F000
330
0
100
AcDbDictionary
  3
ACAD_GROUP
350
F001
  0
DICTIONARY
  5
F001
330
F000
100
AcDbDictionary
  0
ENDSEC
  0
EOF