ISO-10303-21;
HEADER;
FILE_DESCRIPTION(('FreeCAD Model'),'2;1');
FILE_NAME('Open CASCADE Shape Model','2025-12-02T10:58:53',('Author'),(
    ''),'Open CASCADE STEP processor 7.8','FreeCAD','Unknown');
FILE_SCHEMA(('AUTOMOTIVE_DESIGN { 1 0 10303 214 1 1 1 1 }'));
ENDSEC;
DATA;
#1 = APPLICATION_PROTOCOL_DEFINITION('international standard',
  'automotive_design',2000,#2);
#2 = APPLICATION_CONTEXT(
  'core data for automotive mechanical design processes');
#3 = SHAPE_DEFINITION_REPRESENTATION(#4,#10);
#4 = PRODUCT_DEFINITION_SHAPE('','',#5);
#5 = PRODUCT_DEFINITION('design','',#6,#9);
#6 = PRODUCT_DEFINITION_FORMATION('','',#7);
#7 = PRODUCT('CouplerALM','CouplerALM','',(#8));
#8 = PRODUCT_CONTEXT('',#2,'mechanical');
#9 = PRODUCT_DEFINITION_CONTEXT('part definition',#2,'design');
#10 = ADVANCED_BREP_SHAPE_REPRESENTATION('',(#11,#15),#469);
#11 = AXIS2_PLACEMENT_3D('',#12,#13,#14);
#12 = CARTESIAN_POINT('',(0.,0.,0.));
#13 = DIRECTION('',(0.,0.,1.));
#14 = DIRECTION('',(1.,0.,-0.));
#15 = MANIFOLD_SOLID_BREP('',#16);
#16 = CLOSED_SHELL('',(#17,#233,#269,#278,#298,#426,#459));
#17 = ADVANCED_FACE('',(#18,#114,#171),#228,.T.);
#18 = FACE_BOUND('',#19,.F.);
#19 = EDGE_LOOP('',(#20,#30,#37,#38,#69,#77,#84,#85));
#20 = ORIENTED_EDGE('',*,*,#21,.F.);
#21 = EDGE_CURVE('',#22,#24,#26,.T.);
#22 = VERTEX_POINT('',#23);
#23 = CARTESIAN_POINT('',(15.,0.,0.));
#24 = VERTEX_POINT('',#25);
#25 = CARTESIAN_POINT('',(15.,-14.,1.676329423595E-30));
#26 = LINE('',#27,#28);
#27 = CARTESIAN_POINT('',(15.,0.,0.));
#28 = VECTOR('',#29,1.);
#29 = DIRECTION('',(0.,-1.,1.996734617543E-16));
#30 = ORIENTED_EDGE('',*,*,#31,.F.);
#31 = EDGE_CURVE('',#22,#22,#32,.T.);
#32 = CIRCLE('',#33,15.);
#33 = AXIS2_PLACEMENT_3D('',#34,#35,#36);
#34 = CARTESIAN_POINT('',(0.,0.,0.));
#35 = DIRECTION('',(0.,-1.,2.22044604925E-16));
#36 = DIRECTION('',(1.,0.,0.));
#37 = ORIENTED_EDGE('',*,*,#21,.T.);
#38 = ORIENTED_EDGE('',*,*,#39,.T.);
#39 = EDGE_CURVE('',#24,#40,#42,.T.);
#40 = VERTEX_POINT('',#41);
#41 = CARTESIAN_POINT('',(15.,-18.,4.677253603056E-14));
#42 = B_SPLINE_CURVE_WITH_KNOTS('',7,(#43,#44,#45,#46,#47,#48,#49,#50,
    #51,#52,#53,#54,#55,#56,#57,#58,#59,#60,#61,#62,#63,#64,#65,#66,#67,
    #68),.UNSPECIFIED.,.F.,.F.,(8,6,6,6,8),(0.,0.24575932417,
    0.500010833025,0.754274606053,1.),.UNSPECIFIED.);
#43 = CARTESIAN_POINT('',(15.,-14.,1.309382874646E-15));
#44 = CARTESIAN_POINT('',(15.,-14.,0.265334578384));
#45 = CARTESIAN_POINT('',(14.994524143714,-14.04106767913,0.523632178134
    ));
#46 = CARTESIAN_POINT('',(14.98409607389,-14.11928495521,0.767502602348)
  );
#47 = CARTESIAN_POINT('',(14.970117104684,-14.22932628835,0.990792163792
    ));
#48 = CARTESIAN_POINT('',(14.954512153464,-14.36451297308,1.18880216995)
  );
#49 = CARTESIAN_POINT('',(14.939010917436,-14.51689547948,1.358739291198
    ));
#50 = CARTESIAN_POINT('',(14.910076111975,-14.84340245413,1.646593910581
    ));
#51 = CARTESIAN_POINT('',(14.896343322328,-15.02248861267,1.766383121531
    ));
#52 = CARTESIAN_POINT('',(14.884581520722,-15.2103966233,1.860670346278)
  );
#53 = CARTESIAN_POINT('',(14.87541381762,-15.40415053689,1.93053845954)
  );
#54 = CARTESIAN_POINT('',(14.869186223947,-15.60151834421,1.976827531567
    ));
#55 = CARTESIAN_POINT('',(14.866068747319,-15.80068890157,2.));
#56 = CARTESIAN_POINT('',(14.866068747319,-16.19932071246,2.));
#57 = CARTESIAN_POINT('',(14.869186516534,-16.39848931897,1.976825336626
    ));
#58 = CARTESIAN_POINT('',(14.87541408789,-16.59585158051,1.93053650427)
  );
#59 = CARTESIAN_POINT('',(14.884581438912,-16.78960176848,1.860670558812
    ));
#60 = CARTESIAN_POINT('',(14.896343185218,-16.97750979334,1.766384502463
    ));
#61 = CARTESIAN_POINT('',(14.910076114193,-17.15659757089,1.646593888514
    ));
#62 = CARTESIAN_POINT('',(14.939008265931,-17.48307460032,1.358765669393
    ));
#63 = CARTESIAN_POINT('',(14.954509897885,-17.63546998269,1.188830504204
    ));
#64 = CARTESIAN_POINT('',(14.970117643121,-17.77068256056,0.990796553959
    ));
#65 = CARTESIAN_POINT('',(14.98409935271,-17.88073970191,0.767468027587)
  );
#66 = CARTESIAN_POINT('',(14.99452671723,-17.95895159589,0.523565454074)
  );
#67 = CARTESIAN_POINT('',(15.,-18.,0.265272321402));
#68 = CARTESIAN_POINT('',(15.,-18.,4.14215232347E-15));
#69 = ORIENTED_EDGE('',*,*,#70,.T.);
#70 = EDGE_CURVE('',#40,#71,#73,.T.);
#71 = VERTEX_POINT('',#72);
#72 = CARTESIAN_POINT('',(15.,-30.,5.990203852628E-15));
#73 = LINE('',#74,#75);
#74 = CARTESIAN_POINT('',(15.,0.,0.));
#75 = VECTOR('',#76,1.);
#76 = DIRECTION('',(0.,-1.,1.996734617543E-16));
#77 = ORIENTED_EDGE('',*,*,#78,.T.);
#78 = EDGE_CURVE('',#71,#71,#79,.T.);
#79 = CIRCLE('',#80,15.);
#80 = AXIS2_PLACEMENT_3D('',#81,#82,#83);
#81 = CARTESIAN_POINT('',(0.,-30.,7.105427357601E-15));
#82 = DIRECTION('',(0.,-1.,2.22044604925E-16));
#83 = DIRECTION('',(1.,0.,0.));
#84 = ORIENTED_EDGE('',*,*,#70,.F.);
#85 = ORIENTED_EDGE('',*,*,#86,.T.);
#86 = EDGE_CURVE('',#40,#24,#87,.T.);
#87 = B_SPLINE_CURVE_WITH_KNOTS('',7,(#88,#89,#90,#91,#92,#93,#94,#95,
    #96,#97,#98,#99,#100,#101,#102,#103,#104,#105,#106,#107,#108,#109,
    #110,#111,#112,#113),.UNSPECIFIED.,.F.,.F.,(8,6,6,6,8),(0.,
    0.245783443974,0.500052381877,0.754320772657,1.),.UNSPECIFIED.);
#88 = CARTESIAN_POINT('',(15.,-18.,2.22044604925E-15));
#89 = CARTESIAN_POINT('',(15.,-18.,-0.265334578384));
#90 = CARTESIAN_POINT('',(14.994524143714,-17.95893232086,
    -0.523632178134));
#91 = CARTESIAN_POINT('',(14.98409607389,-17.88071504478,-0.767502602349
    ));
#92 = CARTESIAN_POINT('',(14.970117104684,-17.77067371164,
    -0.990792163792));
#93 = CARTESIAN_POINT('',(14.954512153464,-17.63548702691,-1.18880216995
    ));
#94 = CARTESIAN_POINT('',(14.939010917436,-17.48310452051,
    -1.358739291198));
#95 = CARTESIAN_POINT('',(14.910076547346,-17.15660245869,
    -1.646589579341));
#96 = CARTESIAN_POINT('',(14.8963432584,-16.97751206354,-1.766384752796)
  );
#97 = CARTESIAN_POINT('',(14.884581068895,-16.78959807174,
    -1.860673270068));
#98 = CARTESIAN_POINT('',(14.875413866368,-16.59584533661,
    -1.930538149837));
#99 = CARTESIAN_POINT('',(14.869186533235,-16.39848562299,
    -1.976825217007));
#100 = CARTESIAN_POINT('',(14.866068747319,-16.19932114135,-2.));
#101 = CARTESIAN_POINT('',(14.866068747319,-15.80067928753,-2.));
#102 = CARTESIAN_POINT('',(14.869186516534,-15.60151068102,
    -1.976825336626));
#103 = CARTESIAN_POINT('',(14.87541408789,-15.40414841948,-1.93053650427
    ));
#104 = CARTESIAN_POINT('',(14.884581438912,-15.21039823151,
    -1.860670558812));
#105 = CARTESIAN_POINT('',(14.896343185218,-15.02249020665,
    -1.766384502463));
#106 = CARTESIAN_POINT('',(14.910076114193,-14.8434024291,
    -1.646593888514));
#107 = CARTESIAN_POINT('',(14.939005336292,-14.51695845839,
    -1.35879481457));
#108 = CARTESIAN_POINT('',(14.954508203349,-14.36453979194,
    -1.188853789321));
#109 = CARTESIAN_POINT('',(14.970119463155,-14.22929873688,
    -0.990786402251));
#110 = CARTESIAN_POINT('',(14.984103220594,-14.11923148159,
    -0.76741766269));
#111 = CARTESIAN_POINT('',(14.994529148589,-14.04103012101,
    -0.523492510006));
#112 = CARTESIAN_POINT('',(15.,-14.,-0.265213236775));
#113 = CARTESIAN_POINT('',(15.,-14.,-4.440892098501E-16));
#114 = FACE_BOUND('',#115,.F.);
#115 = EDGE_LOOP('',(#116));
#116 = ORIENTED_EDGE('',*,*,#117,.F.);
#117 = EDGE_CURVE('',#118,#118,#120,.T.);
#118 = VERTEX_POINT('',#119);
#119 = CARTESIAN_POINT('',(-15.,-14.,1.676329423595E-30));
#120 = B_SPLINE_CURVE_WITH_KNOTS('',7,(#121,#122,#123,#124,#125,#126,
    #127,#128,#129,#130,#131,#132,#133,#134,#135,#136,#137,#138,#139,
    #140,#141,#142,#143,#144,#145,#146,#147,#148,#149,#150,#151,#152,
    #153,#154,#155,#156,#157,#158,#159,#160,#161,#162,#163,#164,#165,
    #166,#167,#168,#169,#170),.UNSPECIFIED.,.T.,.F.,(8,6,6,6,6,6,6,6,8),
  (0.,0.122879753119,0.250005606002,0.37713759476,0.500000390545,
    0.622892021101,0.750026391302,0.877160484771,1.),.UNSPECIFIED.);
#121 = CARTESIAN_POINT('',(-15.,-14.,2.22044604925E-15));
#122 = CARTESIAN_POINT('',(-15.,-14.,0.265334578384));
#123 = CARTESIAN_POINT('',(-14.99452414371,-14.04106767913,
    0.523632178134));
#124 = CARTESIAN_POINT('',(-14.98409607389,-14.11928495521,
    0.767502602348));
#125 = CARTESIAN_POINT('',(-14.97011710468,-14.22932628835,
    0.990792163792));
#126 = CARTESIAN_POINT('',(-14.95451215346,-14.36451297308,1.18880216995
    ));
#127 = CARTESIAN_POINT('',(-14.93901091743,-14.51689547948,
    1.358739291198));
#128 = CARTESIAN_POINT('',(-14.91007611148,-14.84340245971,
    1.646593915504));
#129 = CARTESIAN_POINT('',(-14.89634332362,-15.0224886005,1.766383108852
    ));
#130 = CARTESIAN_POINT('',(-14.88458151933,-15.21039662828,
    1.860670360006));
#131 = CARTESIAN_POINT('',(-14.8754138183,-15.40415054808,1.930538452492
    ));
#132 = CARTESIAN_POINT('',(-14.86918622381,-15.60151832971,
    1.976827533044));
#133 = CARTESIAN_POINT('',(-14.86606874731,-15.80068890751,2.));
#134 = CARTESIAN_POINT('',(-14.86606874731,-16.19932071246,2.));
#135 = CARTESIAN_POINT('',(-14.86918651653,-16.39848931897,
    1.976825336626));
#136 = CARTESIAN_POINT('',(-14.87541408789,-16.59585158051,
    1.930536504269));
#137 = CARTESIAN_POINT('',(-14.88458143891,-16.78960176848,
    1.860670558812));
#138 = CARTESIAN_POINT('',(-14.89634318521,-16.97750979334,
    1.766384502463));
#139 = CARTESIAN_POINT('',(-14.91007611419,-17.15659757089,
    1.646593888514));
#140 = CARTESIAN_POINT('',(-14.93900826593,-17.48307460032,
    1.358765669393));
#141 = CARTESIAN_POINT('',(-14.95450989788,-17.63546998269,
    1.188830504204));
#142 = CARTESIAN_POINT('',(-14.97011764312,-17.77068256056,
    0.990796553959));
#143 = CARTESIAN_POINT('',(-14.98409935271,-17.88073970191,
    0.767468027587));
#144 = CARTESIAN_POINT('',(-14.99452671723,-17.95895159589,
    0.523565454074));
#145 = CARTESIAN_POINT('',(-15.,-18.,0.265272321402));
#146 = CARTESIAN_POINT('',(-15.,-18.,-0.265334578384));
#147 = CARTESIAN_POINT('',(-14.99452414371,-17.95893232086,
    -0.523632178134));
#148 = CARTESIAN_POINT('',(-14.98409607389,-17.88071504478,
    -0.767502602348));
#149 = CARTESIAN_POINT('',(-14.97011710468,-17.77067371164,
    -0.990792163792));
#150 = CARTESIAN_POINT('',(-14.95451215346,-17.63548702691,
    -1.18880216995));
#151 = CARTESIAN_POINT('',(-14.93901091743,-17.48310452051,
    -1.358739291198));
#152 = CARTESIAN_POINT('',(-14.91007654782,-17.15660246413,
    -1.646589574548));
#153 = CARTESIAN_POINT('',(-14.89634325714,-16.97751205167,
    -1.766384765141));
#154 = CARTESIAN_POINT('',(-14.88458107022,-16.78959807666,
    -1.860673256727));
#155 = CARTESIAN_POINT('',(-14.87541386573,-16.59584534739,
    -1.930538156584));
#156 = CARTESIAN_POINT('',(-14.86918653333,-16.39848560923,
    -1.976825215717));
#157 = CARTESIAN_POINT('',(-14.86606874731,-16.19932114632,-2.));
#158 = CARTESIAN_POINT('',(-14.86606874731,-15.80067928753,-2.));
#159 = CARTESIAN_POINT('',(-14.86918651653,-15.60151068102,
    -1.976825336626));
#160 = CARTESIAN_POINT('',(-14.87541408789,-15.40414841948,
    -1.93053650427));
#161 = CARTESIAN_POINT('',(-14.88458143891,-15.21039823151,
    -1.860670558812));
#162 = CARTESIAN_POINT('',(-14.89634318521,-15.02249020665,
    -1.766384502463));
#163 = CARTESIAN_POINT('',(-14.91007611419,-14.8434024291,
    -1.646593888514));
#164 = CARTESIAN_POINT('',(-14.93900533629,-14.51695845834,
    -1.358794814531));
#165 = CARTESIAN_POINT('',(-14.95450820334,-14.36453979195,
    -1.188853789311));
#166 = CARTESIAN_POINT('',(-14.97011946315,-14.22929873691,
    -0.99078640229));
#167 = CARTESIAN_POINT('',(-14.98410322059,-14.1192314816,
    -0.767417662735));
#168 = CARTESIAN_POINT('',(-14.99452914859,-14.04103012099,
    -0.523492509999));
#169 = CARTESIAN_POINT('',(-15.,-14.,-0.26521323672));
#170 = CARTESIAN_POINT('',(-15.,-14.,2.22044604925E-15));
#171 = FACE_BOUND('',#172,.F.);
#172 = EDGE_LOOP('',(#173));
#173 = ORIENTED_EDGE('',*,*,#174,.F.);
#174 = EDGE_CURVE('',#175,#175,#177,.T.);
#175 = VERTEX_POINT('',#176);
#176 = CARTESIAN_POINT('',(-15.,-4.,1.972152263053E-31));
#177 = B_SPLINE_CURVE_WITH_KNOTS('',7,(#178,#179,#180,#181,#182,#183,
    #184,#185,#186,#187,#188,#189,#190,#191,#192,#193,#194,#195,#196,
    #197,#198,#199,#200,#201,#202,#203,#204,#205,#206,#207,#208,#209,
    #210,#211,#212,#213,#214,#215,#216,#217,#218,#219,#220,#221,#222,
    #223,#224,#225,#226,#227),.UNSPECIFIED.,.T.,.F.,(8,6,6,6,6,6,6,6,8),
  (0.,0.122879746453,0.25000559244,0.377137578176,0.500000374966,
    0.622892006528,0.75002637777,0.877160476154,1.),.UNSPECIFIED.);
#178 = CARTESIAN_POINT('',(-15.,-4.,1.110223024625E-15));
#179 = CARTESIAN_POINT('',(-15.,-4.,0.265334578384));
#180 = CARTESIAN_POINT('',(-14.99452414371,-4.041067679134,
    0.523632178134));
#181 = CARTESIAN_POINT('',(-14.98409607389,-4.119284955212,
    0.767502602348));
#182 = CARTESIAN_POINT('',(-14.97011710468,-4.229326288353,
    0.990792163793));
#183 = CARTESIAN_POINT('',(-14.95451215346,-4.364512973081,1.18880216995
    ));
#184 = CARTESIAN_POINT('',(-14.93901091743,-4.516895479487,
    1.358739291198));
#185 = CARTESIAN_POINT('',(-14.91007611148,-4.843402459715,
    1.646593915504));
#186 = CARTESIAN_POINT('',(-14.89634332362,-5.022488600504,
    1.766383108852));
#187 = CARTESIAN_POINT('',(-14.88458151933,-5.210396628289,
    1.860670360006));
#188 = CARTESIAN_POINT('',(-14.8754138183,-5.40415054808,1.930538452492)
  );
#189 = CARTESIAN_POINT('',(-14.86918622381,-5.601518329712,
    1.976827533044));
#190 = CARTESIAN_POINT('',(-14.86606874731,-5.800688907511,2.));
#191 = CARTESIAN_POINT('',(-14.86606874731,-6.199320718542,2.));
#192 = CARTESIAN_POINT('',(-14.86918651666,-6.398489304116,
    1.976825335092));
#193 = CARTESIAN_POINT('',(-14.87541408719,-6.595851591284,
    1.930536511546));
#194 = CARTESIAN_POINT('',(-14.88458144029,-6.789601773798,
    1.860670545128));
#195 = CARTESIAN_POINT('',(-14.89634318396,-6.977509781485,
    1.766384514752));
#196 = CARTESIAN_POINT('',(-14.91007611466,-7.156597576205,
    1.646593883836));
#197 = CARTESIAN_POINT('',(-14.93900826593,-7.483074600324,
    1.358765669393));
#198 = CARTESIAN_POINT('',(-14.95450989788,-7.635469982691,
    1.188830504204));
#199 = CARTESIAN_POINT('',(-14.97011764312,-7.770682560565,0.99079655396
    ));
#200 = CARTESIAN_POINT('',(-14.98409935271,-7.880739701912,
    0.767468027587));
#201 = CARTESIAN_POINT('',(-14.99452671723,-7.958951595893,
    0.523565454075));
#202 = CARTESIAN_POINT('',(-15.,-8.,0.265272321402));
#203 = CARTESIAN_POINT('',(-15.,-8.,-0.265334578384));
#204 = CARTESIAN_POINT('',(-14.99452414371,-7.958932320867,
    -0.523632178133));
#205 = CARTESIAN_POINT('',(-14.98409607389,-7.880715044787,
    -0.767502602349));
#206 = CARTESIAN_POINT('',(-14.97011710468,-7.770673711647,
    -0.990792163791));
#207 = CARTESIAN_POINT('',(-14.95451215346,-7.635487026918,
    -1.188802169951));
#208 = CARTESIAN_POINT('',(-14.93901091743,-7.483104520513,
    -1.358739291198));
#209 = CARTESIAN_POINT('',(-14.91007654782,-7.156602464133,
    -1.646589574548));
#210 = CARTESIAN_POINT('',(-14.89634325714,-6.977512051674,
    -1.766384765141));
#211 = CARTESIAN_POINT('',(-14.88458107022,-6.789598076662,
    -1.860673256728));
#212 = CARTESIAN_POINT('',(-14.87541386573,-6.595845347397,
    -1.930538156584));
#213 = CARTESIAN_POINT('',(-14.86918653333,-6.39848560923,
    -1.976825215717));
#214 = CARTESIAN_POINT('',(-14.86606874731,-6.199321146328,-2.));
#215 = CARTESIAN_POINT('',(-14.86606874731,-5.800679281457,-2.));
#216 = CARTESIAN_POINT('',(-14.86918651666,-5.601510695885,
    -1.976825335092));
#217 = CARTESIAN_POINT('',(-14.87541408719,-5.404148408715,
    -1.930536511546));
#218 = CARTESIAN_POINT('',(-14.88458144029,-5.210398226203,
    -1.860670545129));
#219 = CARTESIAN_POINT('',(-14.89634318396,-5.022490218514,
    -1.766384514751));
#220 = CARTESIAN_POINT('',(-14.91007611466,-4.843402423795,
    -1.646593883836));
#221 = CARTESIAN_POINT('',(-14.93900533629,-4.51695845842,
    -1.358794814597));
#222 = CARTESIAN_POINT('',(-14.95450820334,-4.36453979194,
    -1.188853789328));
#223 = CARTESIAN_POINT('',(-14.97011946315,-4.229298736859,
    -0.990786402224));
#224 = CARTESIAN_POINT('',(-14.98410322059,-4.119231481593,
    -0.767417662659));
#225 = CARTESIAN_POINT('',(-14.99452914858,-4.041030121026,
    -0.52349251001));
#226 = CARTESIAN_POINT('',(-15.,-4.,-0.265213236812));
#227 = CARTESIAN_POINT('',(-15.,-4.,1.110223024625E-15));
#228 = CYLINDRICAL_SURFACE('',#229,15.);
#229 = AXIS2_PLACEMENT_3D('',#230,#231,#232);
#230 = CARTESIAN_POINT('',(0.,0.,0.));
#231 = DIRECTION('',(0.,1.,-2.22044604925E-16));
#232 = DIRECTION('',(1.,0.,0.));
#233 = ADVANCED_FACE('',(#234),#264,.F.);
#234 = FACE_BOUND('',#235,.F.);
#235 = EDGE_LOOP('',(#236,#237,#245,#253,#259,#260,#261,#262,#263));
#236 = ORIENTED_EDGE('',*,*,#39,.F.);
#237 = ORIENTED_EDGE('',*,*,#238,.T.);
#238 = EDGE_CURVE('',#24,#239,#241,.T.);
#239 = VERTEX_POINT('',#240);
#240 = CARTESIAN_POINT('',(3.,-14.,2.79542846456E-15));
#241 = LINE('',#242,#243);
#242 = CARTESIAN_POINT('',(15.,-14.,1.380506584137E-30));
#243 = VECTOR('',#244,1.);
#244 = DIRECTION('',(-1.,0.,0.));
#245 = ORIENTED_EDGE('',*,*,#246,.T.);
#246 = EDGE_CURVE('',#239,#247,#249,.T.);
#247 = VERTEX_POINT('',#248);
#248 = CARTESIAN_POINT('',(-3.,-14.,4.221557395343E-14));
#249 = LINE('',#250,#251);
#250 = CARTESIAN_POINT('',(15.,-14.,1.380506584137E-30));
#251 = VECTOR('',#252,1.);
#252 = DIRECTION('',(-1.,0.,0.));
#253 = ORIENTED_EDGE('',*,*,#254,.T.);
#254 = EDGE_CURVE('',#247,#118,#255,.T.);
#255 = LINE('',#256,#257);
#256 = CARTESIAN_POINT('',(15.,-14.,1.380506584137E-30));
#257 = VECTOR('',#258,1.);
#258 = DIRECTION('',(-1.,0.,0.));
#259 = ORIENTED_EDGE('',*,*,#117,.T.);
#260 = ORIENTED_EDGE('',*,*,#254,.F.);
#261 = ORIENTED_EDGE('',*,*,#246,.F.);
#262 = ORIENTED_EDGE('',*,*,#238,.F.);
#263 = ORIENTED_EDGE('',*,*,#86,.F.);
#264 = CYLINDRICAL_SURFACE('',#265,2.);
#265 = AXIS2_PLACEMENT_3D('',#266,#267,#268);
#266 = CARTESIAN_POINT('',(15.,-16.,1.577721810442E-30));
#267 = DIRECTION('',(1.,0.,0.));
#268 = DIRECTION('',(0.,1.,-9.860761315263E-32));
#269 = ADVANCED_FACE('',(#270),#273,.F.);
#270 = FACE_BOUND('',#271,.T.);
#271 = EDGE_LOOP('',(#272));
#272 = ORIENTED_EDGE('',*,*,#78,.T.);
#273 = PLANE('',#274);
#274 = AXIS2_PLACEMENT_3D('',#275,#276,#277);
#275 = CARTESIAN_POINT('',(-1.093952106032E-15,-30.,7.105427357601E-15)
  );
#276 = DIRECTION('',(0.,1.,-1.972152263053E-31));
#277 = DIRECTION('',(0.,1.972152263053E-31,1.));
#278 = ADVANCED_FACE('',(#279,#282),#293,.T.);
#279 = FACE_BOUND('',#280,.T.);
#280 = EDGE_LOOP('',(#281));
#281 = ORIENTED_EDGE('',*,*,#31,.F.);
#282 = FACE_BOUND('',#283,.T.);
#283 = EDGE_LOOP('',(#284));
#284 = ORIENTED_EDGE('',*,*,#285,.T.);
#285 = EDGE_CURVE('',#286,#286,#288,.T.);
#286 = VERTEX_POINT('',#287);
#287 = CARTESIAN_POINT('',(3.,0.,0.));
#288 = CIRCLE('',#289,3.);
#289 = AXIS2_PLACEMENT_3D('',#290,#291,#292);
#290 = CARTESIAN_POINT('',(0.,0.,0.));
#291 = DIRECTION('',(0.,-1.,2.22044604925E-16));
#292 = DIRECTION('',(1.,0.,0.));
#293 = PLANE('',#294);
#294 = AXIS2_PLACEMENT_3D('',#295,#296,#297);
#295 = CARTESIAN_POINT('',(-1.093952106032E-15,7.405632137896E-32,
    3.335200213667E-16));
#296 = DIRECTION('',(0.,1.,-1.972152263053E-31));
#297 = DIRECTION('',(0.,1.972152263053E-31,1.));
#298 = ADVANCED_FACE('',(#299),#421,.F.);
#299 = FACE_BOUND('',#300,.F.);
#300 = EDGE_LOOP('',(#301,#413,#419,#420));
#301 = ORIENTED_EDGE('',*,*,#302,.F.);
#302 = EDGE_CURVE('',#303,#303,#305,.T.);
#303 = VERTEX_POINT('',#304);
#304 = CARTESIAN_POINT('',(-3.,-4.,1.972152263053E-31));
#305 = B_SPLINE_CURVE_WITH_KNOTS('',6,(#306,#307,#308,#309,#310,#311,
    #312,#313,#314,#315,#316,#317,#318,#319,#320,#321,#322,#323,#324,
    #325,#326,#327,#328,#329,#330,#331,#332,#333,#334,#335,#336,#337,
    #338,#339,#340,#341,#342,#343,#344,#345,#346,#347,#348,#349,#350,
    #351,#352,#353,#354,#355,#356,#357,#358,#359,#360,#361,#362,#363,
    #364,#365,#366,#367,#368,#369,#370,#371,#372,#373,#374,#375,#376,
    #377,#378,#379,#380,#381,#382,#383,#384,#385,#386,#387,#388,#389,
    #390,#391,#392,#393,#394,#395,#396,#397,#398,#399,#400,#401,#402,
    #403,#404,#405,#406,#407,#408,#409,#410,#411,#412),.UNSPECIFIED.,.T.
  ,.F.,(7,5,5,5,5,5,5,5,5,5,5,5,5,5,5,5,5,5,5,5,5,7),(0.,
    5.802865403986E-02,8.385404280181E-02,0.14465902449,0.199983826965,
    0.250331390765,0.283995038699,0.300891045756,0.355849557414,
    0.418733235354,0.475145691272,0.536351137956,0.584117731304,
    0.64483151112,0.700073331499,0.750345378603,0.783958534173,
    0.80082919878,0.855705277745,0.918494635975,0.942836135403,1.),
  .UNSPECIFIED.);
#306 = CARTESIAN_POINT('',(-3.,-4.,-2.22044604925E-16));
#307 = CARTESIAN_POINT('',(-3.,-4.,0.14595432293));
#308 = CARTESIAN_POINT('',(-2.991478676116,-4.012781664184,
    0.290800206093));
#309 = CARTESIAN_POINT('',(-2.974680435318,-4.03798056122,0.432379918883
    ));
#310 = CARTESIAN_POINT('',(-2.950497457953,-4.074591500593,
    0.568596589827));
#311 = CARTESIAN_POINT('',(-2.920446780175,-4.12097274531,0.697530612547
    ));
#312 = CARTESIAN_POINT('',(-2.871327438333,-4.198649198746,0.87095368065
    ));
#313 = CARTESIAN_POINT('',(-2.855357214356,-4.224129843407,
    0.922815409575));
#314 = CARTESIAN_POINT('',(-2.838656132412,-4.25105289581,0.973120264818
    ));
#315 = CARTESIAN_POINT('',(-2.821331715034,-4.279310663543,
    1.021865457129));
#316 = CARTESIAN_POINT('',(-2.803487428278,-4.308803185435,
    1.069053131368));
#317 = CARTESIAN_POINT('',(-2.74221896977,-4.411567384607,1.22214165302)
  );
#318 = CARTESIAN_POINT('',(-2.696866858623,-4.490058566377,
    1.321040343512));
#319 = CARTESIAN_POINT('',(-2.65036587736,-4.573870640902,1.411692612807
    ));
#320 = CARTESIAN_POINT('',(-2.603737651681,-4.662301305419,
    1.494449270209));
#321 = CARTESIAN_POINT('',(-2.557901813736,-4.754913766022,1.56960912908
    ));
#322 = CARTESIAN_POINT('',(-2.473640239797,-4.939337902617,
    1.698974301504));
#323 = CARTESIAN_POINT('',(-2.434886582036,-5.030540191179,
    1.754507287997));
#324 = CARTESIAN_POINT('',(-2.398299837447,-5.124750622712,1.80393476477
    ));
#325 = CARTESIAN_POINT('',(-2.364661063056,-5.221701106901,
    1.847219309012));
#326 = CARTESIAN_POINT('',(-2.334748544532,-5.321189442365,
    1.884287489218));
#327 = CARTESIAN_POINT('',(-2.286130385003,-5.515796862244,
    1.942916553963));
#328 = CARTESIAN_POINT('',(-2.266639498925,-5.61058065321,1.965595608167
    ));
#329 = CARTESIAN_POINT('',(-2.251502984939,-5.706854720846,
    1.982743202365));
#330 = CARTESIAN_POINT('',(-2.241223553676,-5.804132664885,
    1.994235872308));
#331 = CARTESIAN_POINT('',(-2.2360679775,-5.901984868195,2.));
#332 = CARTESIAN_POINT('',(-2.2360679775,-6.065535383248,2.));
#333 = CARTESIAN_POINT('',(-2.238372655237,-6.131044094789,
    1.997423028515));
#334 = CARTESIAN_POINT('',(-2.242979462785,-6.196382793887,
    1.992273203192));
#335 = CARTESIAN_POINT('',(-2.249831523269,-6.261399394078,
    1.984566791957));
#336 = CARTESIAN_POINT('',(-2.258820914502,-6.325933144301,
    1.974337759561));
#337 = CARTESIAN_POINT('',(-2.275298389043,-6.42187728943,1.955271888186
    ));
#338 = CARTESIAN_POINT('',(-2.281305690211,-6.453784267992,
    1.948277613626));
#339 = CARTESIAN_POINT('',(-2.287795433262,-6.485520025545,
    1.940666146155));
#340 = CARTESIAN_POINT('',(-2.29474793823,-6.517070483093,1.932443097238
    ));
#341 = CARTESIAN_POINT('',(-2.302142268043,-6.548423102801,
    1.923614034095));
#342 = CARTESIAN_POINT('',(-2.335373099869,-6.680869880811,
    1.883512482875));
#343 = CARTESIAN_POINT('',(-2.365189030798,-6.779795374614,
    1.846537141855));
#344 = CARTESIAN_POINT('',(-2.398682493446,-6.876205984603,
    1.803411740556));
#345 = CARTESIAN_POINT('',(-2.43508752414,-6.969902912593,1.754208276451
    ));
#346 = CARTESIAN_POINT('',(-2.473635675806,-7.060622850682,
    1.698963149249));
#347 = CARTESIAN_POINT('',(-2.559244915469,-7.248059197088,
    1.567567761105));
#348 = CARTESIAN_POINT('',(-2.606771581075,-7.343840248017,1.48949114334
    ));
#349 = CARTESIAN_POINT('',(-2.655116348684,-7.435130431639,1.40326124454
    ));
#350 = CARTESIAN_POINT('',(-2.703259090423,-7.521437114141,
    1.308539902868));
#351 = CARTESIAN_POINT('',(-2.75005586033,-7.601958357806,1.204933941384
    ));
#352 = CARTESIAN_POINT('',(-2.833711430608,-7.741467106629,
    0.990902625486));
#353 = CARTESIAN_POINT('',(-2.871295502946,-7.802147984454,
    0.881769631689));
#354 = CARTESIAN_POINT('',(-2.905615755204,-7.856118468411,
    0.765028772629));
#355 = CARTESIAN_POINT('',(-2.935380492242,-7.902042844117,
    0.641156812076));
#356 = CARTESIAN_POINT('',(-2.959372708074,-7.938624990586,0.510794729)
  );
#357 = CARTESIAN_POINT('',(-2.995082736675,-7.992728769487,
    0.227172787569));
#358 = CARTESIAN_POINT('',(-3.005475127026,-8.008200934311,
    7.377764591082E-02));
#359 = CARTESIAN_POINT('',(-3.006180457046,-8.009192277921,
    -8.199473332106E-02));
#360 = CARTESIAN_POINT('',(-2.996858284983,-7.99539051101,
    -0.236511198771));
#361 = CARTESIAN_POINT('',(-2.978512144535,-7.967840017358,
    -0.386190681209));
#362 = CARTESIAN_POINT('',(-2.933473911344,-7.898892527517,
    -0.638220256868));
#363 = CARTESIAN_POINT('',(-2.909459154059,-7.861803513209,
    -0.743968087598));
#364 = CARTESIAN_POINT('',(-2.88189370765,-7.818665352339,
    -0.844678310871));
#365 = CARTESIAN_POINT('',(-2.851515131516,-7.770252625263,
    -0.940123206127));
#366 = CARTESIAN_POINT('',(-2.819055871281,-7.717309411758,
    -1.030153018946));
#367 = CARTESIAN_POINT('',(-2.742218969781,-7.588432615412,
    -1.222141652992));
#368 = CARTESIAN_POINT('',(-2.696866858607,-7.509941433598,
    -1.321040343557));
#369 = CARTESIAN_POINT('',(-2.650365877359,-7.426129359087,
    -1.411692612794));
#370 = CARTESIAN_POINT('',(-2.603737651698,-7.33769869462,
    -1.494449270187));
#371 = CARTESIAN_POINT('',(-2.557901813726,-7.245086233956,
    -1.569609129095));
#372 = CARTESIAN_POINT('',(-2.473640239797,-7.060662097383,
    -1.698974301504));
#373 = CARTESIAN_POINT('',(-2.434886582036,-6.969459808821,
    -1.754507287997));
#374 = CARTESIAN_POINT('',(-2.398299837447,-6.875249377288,
    -1.803934764769));
#375 = CARTESIAN_POINT('',(-2.364661063056,-6.778298893099,
    -1.847219309012));
#376 = CARTESIAN_POINT('',(-2.334748544532,-6.678810557635,
    -1.884287489218));
#377 = CARTESIAN_POINT('',(-2.286130385003,-6.484203137756,
    -1.942916553963));
#378 = CARTESIAN_POINT('',(-2.266639498925,-6.38941934679,
    -1.965595608166));
#379 = CARTESIAN_POINT('',(-2.251502984939,-6.293145279154,
    -1.982743202365));
#380 = CARTESIAN_POINT('',(-2.241223553676,-6.195867335115,
    -1.994235872308));
#381 = CARTESIAN_POINT('',(-2.2360679775,-6.098015131805,-2.));
#382 = CARTESIAN_POINT('',(-2.2360679775,-5.934464616752,-2.));
#383 = CARTESIAN_POINT('',(-2.238372655237,-5.868955905211,
    -1.997423028515));
#384 = CARTESIAN_POINT('',(-2.242979462785,-5.803617206113,
    -1.992273203192));
#385 = CARTESIAN_POINT('',(-2.249831523269,-5.738600605922,
    -1.984566791957));
#386 = CARTESIAN_POINT('',(-2.258820914502,-5.674066855699,
    -1.974337759561));
#387 = CARTESIAN_POINT('',(-2.275298389043,-5.57812271057,
    -1.955271888186));
#388 = CARTESIAN_POINT('',(-2.281305690211,-5.546215732008,
    -1.948277613626));
#389 = CARTESIAN_POINT('',(-2.287795433262,-5.514479974455,
    -1.940666146155));
#390 = CARTESIAN_POINT('',(-2.29474793823,-5.482929516907,
    -1.932443097238));
#391 = CARTESIAN_POINT('',(-2.302142268043,-5.451576897199,
    -1.923614034095));
#392 = CARTESIAN_POINT('',(-2.335373099869,-5.319130119189,
    -1.883512482875));
#393 = CARTESIAN_POINT('',(-2.365189030798,-5.220204625386,
    -1.846537141855));
#394 = CARTESIAN_POINT('',(-2.398682493446,-5.123794015396,
    -1.803411740555));
#395 = CARTESIAN_POINT('',(-2.43508752414,-5.030097087407,
    -1.754208276451));
#396 = CARTESIAN_POINT('',(-2.473635675806,-4.939377149318,
    -1.698963149249));
#397 = CARTESIAN_POINT('',(-2.559244915469,-4.751940802912,
    -1.567567761105));
#398 = CARTESIAN_POINT('',(-2.606771581075,-4.656159751984,
    -1.48949114334));
#399 = CARTESIAN_POINT('',(-2.655116348684,-4.564869568361,
    -1.40326124454));
#400 = CARTESIAN_POINT('',(-2.703259090423,-4.478562885859,
    -1.308539902868));
#401 = CARTESIAN_POINT('',(-2.75005586033,-4.398041642194,
    -1.204933941384));
#402 = CARTESIAN_POINT('',(-2.811247539995,-4.295994944765,
    -1.048376097392));
#403 = CARTESIAN_POINT('',(-2.827938963496,-4.268532312571,
    -1.003248593667));
#404 = CARTESIAN_POINT('',(-2.844141156477,-4.242196504005,
    -0.956727138498));
#405 = CARTESIAN_POINT('',(-2.859765396746,-4.217074292648,
    -0.908812303577));
#406 = CARTESIAN_POINT('',(-2.874719948756,-4.193258264922,
    -0.859508798781));
#407 = CARTESIAN_POINT('',(-2.922234296811,-4.118215518491,
    -0.689800149652));
#408 = CARTESIAN_POINT('',(-2.951646990746,-4.072851052843,
    -0.562080621421));
#409 = CARTESIAN_POINT('',(-2.975284630518,-4.037074136515,
    -0.427283384937));
#410 = CARTESIAN_POINT('',(-2.991686689253,-4.012469683197,
    -0.287292900528));
#411 = CARTESIAN_POINT('',(-3.,-4.,-0.144162044934));
#412 = CARTESIAN_POINT('',(-3.,-4.,-2.22044604925E-16));
#413 = ORIENTED_EDGE('',*,*,#414,.T.);
#414 = EDGE_CURVE('',#303,#175,#415,.T.);
#415 = LINE('',#416,#417);
#416 = CARTESIAN_POINT('',(0.,-4.,1.972152263053E-31));
#417 = VECTOR('',#418,1.);
#418 = DIRECTION('',(-1.,-0.,0.));
#419 = ORIENTED_EDGE('',*,*,#174,.T.);
#420 = ORIENTED_EDGE('',*,*,#414,.F.);
#421 = CYLINDRICAL_SURFACE('',#422,2.);
#422 = AXIS2_PLACEMENT_3D('',#423,#424,#425);
#423 = CARTESIAN_POINT('',(0.,-6.,2.958228394579E-31));
#424 = DIRECTION('',(1.,0.,0.));
#425 = DIRECTION('',(0.,1.,-4.930380657631E-32));
#426 = ADVANCED_FACE('',(#427,#451),#454,.F.);
#427 = FACE_BOUND('',#428,.T.);
#428 = EDGE_LOOP('',(#429,#435,#436,#437,#444));
#429 = ORIENTED_EDGE('',*,*,#430,.F.);
#430 = EDGE_CURVE('',#286,#239,#431,.T.);
#431 = LINE('',#432,#433);
#432 = CARTESIAN_POINT('',(3.,0.,0.));
#433 = VECTOR('',#434,1.);
#434 = DIRECTION('',(0.,-1.,1.996734617543E-16));
#435 = ORIENTED_EDGE('',*,*,#285,.F.);
#436 = ORIENTED_EDGE('',*,*,#430,.T.);
#437 = ORIENTED_EDGE('',*,*,#438,.T.);
#438 = EDGE_CURVE('',#239,#247,#439,.T.);
#439 = CIRCLE('',#440,3.);
#440 = AXIS2_PLACEMENT_3D('',#441,#442,#443);
#441 = CARTESIAN_POINT('',(0.,-14.,5.329070518201E-15));
#442 = DIRECTION('',(0.,-1.,2.22044604925E-16));
#443 = DIRECTION('',(1.,0.,0.));
#444 = ORIENTED_EDGE('',*,*,#445,.T.);
#445 = EDGE_CURVE('',#247,#239,#446,.T.);
#446 = CIRCLE('',#447,3.);
#447 = AXIS2_PLACEMENT_3D('',#448,#449,#450);
#448 = CARTESIAN_POINT('',(0.,-14.,5.329070518201E-15));
#449 = DIRECTION('',(0.,-1.,2.22044604925E-16));
#450 = DIRECTION('',(1.,0.,0.));
#451 = FACE_BOUND('',#452,.T.);
#452 = EDGE_LOOP('',(#453));
#453 = ORIENTED_EDGE('',*,*,#302,.F.);
#454 = CYLINDRICAL_SURFACE('',#455,3.);
#455 = AXIS2_PLACEMENT_3D('',#456,#457,#458);
#456 = CARTESIAN_POINT('',(0.,0.,0.));
#457 = DIRECTION('',(0.,1.,-2.22044604925E-16));
#458 = DIRECTION('',(1.,0.,0.));
#459 = ADVANCED_FACE('',(#460),#464,.T.);
#460 = FACE_BOUND('',#461,.T.);
#461 = EDGE_LOOP('',(#462,#463));
#462 = ORIENTED_EDGE('',*,*,#445,.F.);
#463 = ORIENTED_EDGE('',*,*,#438,.F.);
#464 = PLANE('',#465);
#465 = AXIS2_PLACEMENT_3D('',#466,#467,#468);
#466 = CARTESIAN_POINT('',(-1.603655480014E-16,-14.,2.659135649951E-15)
  );
#467 = DIRECTION('',(0.,1.,-4.616754613447E-16));
#468 = DIRECTION('',(0.,-4.616754613447E-16,-1.));
#469 = ( GEOMETRIC_REPRESENTATION_CONTEXT(3) 
GLOBAL_UNCERTAINTY_ASSIGNED_CONTEXT((#473)) GLOBAL_UNIT_ASSIGNED_CONTEXT
((#470,#471,#472)) REPRESENTATION_CONTEXT('Context #1',
  '3D Context with UNIT and UNCERTAINTY') );
#470 = ( LENGTH_UNIT() NAMED_UNIT(*) SI_UNIT(.MILLI.,.METRE.) );
#471 = ( NAMED_UNIT(*) PLANE_ANGLE_UNIT() SI_UNIT($,.RADIAN.) );
#472 = ( NAMED_UNIT(*) SI_UNIT($,.STERADIAN.) SOLID_ANGLE_UNIT() );
#473 = UNCERTAINTY_MEASURE_WITH_UNIT(LENGTH_MEASURE(1.E-07),#470,
  'distance_accuracy_value','confusion accuracy');
#474 = PRODUCT_RELATED_PRODUCT_CATEGORY('part',$,(#7));
#475 = MECHANICAL_DESIGN_GEOMETRIC_PRESENTATION_REPRESENTATION('',(#476)
  ,#469);
#476 = STYLED_ITEM('color',(#477),#15);
#477 = PRESENTATION_STYLE_ASSIGNMENT((#478,#484));
#478 = SURFACE_STYLE_USAGE(.BOTH.,#479);
#479 = SURFACE_SIDE_STYLE('',(#480));
#480 = SURFACE_STYLE_FILL_AREA(#481);
#481 = FILL_AREA_STYLE('',(#482));
#482 = FILL_AREA_STYLE_COLOUR('',#483);
#483 = COLOUR_RGB('',0.800000010877,0.800000010877,0.90196104065);
#484 = CURVE_STYLE('',#485,POSITIVE_LENGTH_MEASURE(0.1),#486);
#485 = DRAUGHTING_PRE_DEFINED_CURVE_FONT('continuous');
#486 = COLOUR_RGB('',9.803921802644E-02,9.803921802644E-02,
  9.803921802644E-02);
ENDSEC;
END-ISO-10303-21;
