%TF.GenerationSoftware,KiCad,Pcbnew,9.0.2-9.0.2-0~ubuntu22.04.1*%
%TF.CreationDate,2025-09-22T02:31:27+02:00*%
%TF.ProjectId,TRANSMITTER,5452414e-534d-4495-9454-45522e6b6963,rev?*%
%TF.SameCoordinates,Original*%
%TF.FileFunction,Copper,L2,Bot*%
%TF.FilePolarity,Positive*%
%FSLAX46Y46*%
G04 Gerber Fmt 4.6, Leading zero omitted, Abs format (unit mm)*
G04 Created by KiCad (PCBNEW 9.0.2-9.0.2-0~ubuntu22.04.1) date 2025-09-22 02:31:27*
%MOMM*%
%LPD*%
G01*
G04 APERTURE LIST*
G04 Aperture macros list*
%AMRoundRect*
0 Rectangle with rounded corners*
0 $1 Rounding radius*
0 $2 $3 $4 $5 $6 $7 $8 $9 X,Y pos of 4 corners*
0 Add a 4 corners polygon primitive as box body*
4,1,4,$2,$3,$4,$5,$6,$7,$8,$9,$2,$3,0*
0 Add four circle primitives for the rounded corners*
1,1,$1+$1,$2,$3*
1,1,$1+$1,$4,$5*
1,1,$1+$1,$6,$7*
1,1,$1+$1,$8,$9*
0 Add four rect primitives between the rounded corners*
20,1,$1+$1,$2,$3,$4,$5,0*
20,1,$1+$1,$4,$5,$6,$7,0*
20,1,$1+$1,$6,$7,$8,$9,0*
20,1,$1+$1,$8,$9,$2,$3,0*%
G04 Aperture macros list end*
%TA.AperFunction,Conductor*%
%ADD10C,0.200000*%
%TD*%
%ADD11C,0.400000*%
%TA.AperFunction,ComponentPad*%
%ADD12O,2.000000X3.500000*%
%TD*%
%TA.AperFunction,ComponentPad*%
%ADD13RoundRect,0.250000X1.050000X1.050000X-1.050000X1.050000X-1.050000X-1.050000X1.050000X-1.050000X0*%
%TD*%
%TA.AperFunction,ComponentPad*%
%ADD14C,2.600000*%
%TD*%
%TA.AperFunction,ComponentPad*%
%ADD15RoundRect,0.250000X-0.950000X-0.550000X0.950000X-0.550000X0.950000X0.550000X-0.950000X0.550000X0*%
%TD*%
%TA.AperFunction,ComponentPad*%
%ADD16O,2.400000X1.600000*%
%TD*%
%TA.AperFunction,ComponentPad*%
%ADD17RoundRect,0.190500X-1.079500X-0.444500X1.079500X-0.444500X1.079500X0.444500X-1.079500X0.444500X0*%
%TD*%
%TA.AperFunction,ComponentPad*%
%ADD18O,3.000000X1.500000*%
%TD*%
%TA.AperFunction,Conductor*%
%ADD19C,0.800000*%
%TD*%
%TA.AperFunction,Conductor*%
%ADD20C,0.400000*%
%TD*%
%TA.AperFunction,Conductor*%
%ADD21C,1.500000*%
%TD*%
%TA.AperFunction,Conductor*%
%ADD22C,1.200000*%
%TD*%
G04 APERTURE END LIST*
%TO.N,VCC*%
D10*
X102800000Y-35200000D02*
X157200000Y-35200000D01*
X157200000Y-75200000D01*
X102800000Y-75200000D01*
X102800000Y-35200000D01*
D11*
G36*
X106065561Y-41168325D02*
G01*
X106005952Y-41287543D01*
X105956614Y-41336880D01*
X105837396Y-41396490D01*
X105646108Y-41396490D01*
X105526891Y-41336881D01*
X105477550Y-41287541D01*
X105417942Y-41168324D01*
X105417942Y-40653633D01*
X106065561Y-40653633D01*
X106065561Y-41168325D01*
G37*
G36*
X109097485Y-38919939D02*
G01*
X109225840Y-39048295D01*
X109285449Y-39167512D01*
X109285449Y-39454039D01*
X109225840Y-39573255D01*
X109097485Y-39701611D01*
X108794160Y-39777442D01*
X108176739Y-39777442D01*
X107873413Y-39701610D01*
X107745059Y-39573257D01*
X107685449Y-39454038D01*
X107685449Y-39167512D01*
X107745059Y-39048293D01*
X107873413Y-38919940D01*
X108176739Y-38844109D01*
X108794160Y-38844109D01*
X109097485Y-38919939D01*
G37*
G36*
X108333068Y-37373557D02*
G01*
X108263022Y-37583693D01*
X108224121Y-37622594D01*
X108104903Y-37682204D01*
X107913615Y-37682204D01*
X107794397Y-37622595D01*
X107745059Y-37573257D01*
X107685449Y-37454038D01*
X107685449Y-36939347D01*
X108333068Y-36939347D01*
X108333068Y-37373557D01*
G37*
G36*
X109285449Y-37358801D02*
G01*
X109225840Y-37478019D01*
X109176502Y-37527356D01*
X109057284Y-37586966D01*
X108961234Y-37586966D01*
X108842016Y-37527357D01*
X108792678Y-37478019D01*
X108733068Y-37358800D01*
X108733068Y-36939347D01*
X109285449Y-36939347D01*
X109285449Y-37358801D01*
G37*
G36*
X109907671Y-45538679D02*
G01*
X103843339Y-45538679D01*
X103843339Y-44167919D01*
X104065561Y-44167919D01*
X104065561Y-45120300D01*
X104069404Y-45159318D01*
X104099267Y-45231414D01*
X104154447Y-45286594D01*
X104226543Y-45316457D01*
X104304579Y-45316457D01*
X104376675Y-45286594D01*
X104431855Y-45231414D01*
X104461718Y-45159318D01*
X104465561Y-45120300D01*
X104465561Y-44367919D01*
X105113180Y-44367919D01*
X105113180Y-44834586D01*
X105117023Y-44873604D01*
X105146886Y-44945700D01*
X105202066Y-45000880D01*
X105274162Y-45030743D01*
X105352198Y-45030743D01*
X105424294Y-45000880D01*
X105479474Y-44945700D01*
X105509337Y-44873604D01*
X105513180Y-44834586D01*
X105513180Y-44367919D01*
X106065561Y-44367919D01*
X106065561Y-45120300D01*
X106069404Y-45159318D01*
X106099267Y-45231414D01*
X106154447Y-45286594D01*
X106226543Y-45316457D01*
X106304579Y-45316457D01*
X106376675Y-45286594D01*
X106431855Y-45231414D01*
X106461718Y-45159318D01*
X106465561Y-45120300D01*
X106465561Y-44167919D01*
X106461718Y-44128901D01*
X106431855Y-44056805D01*
X106376675Y-44001625D01*
X106304579Y-43971762D01*
X106265561Y-43967919D01*
X104265561Y-43967919D01*
X104226543Y-43971762D01*
X104154447Y-44001625D01*
X104099267Y-44056805D01*
X104069404Y-44128901D01*
X104065561Y-44167919D01*
X103843339Y-44167919D01*
X103843339Y-42809570D01*
X104067132Y-42809570D01*
X104068909Y-42834585D01*
X104067132Y-42859600D01*
X104071650Y-42873154D01*
X104072663Y-42887410D01*
X104083880Y-42909844D01*
X104091809Y-42933631D01*
X104101170Y-42944425D01*
X104107562Y-42957208D01*
X104126507Y-42973638D01*
X104142938Y-42992584D01*
X104155720Y-42998975D01*
X104166515Y-43008337D01*
X104202315Y-43024322D01*
X106202315Y-43690989D01*
X106240546Y-43699681D01*
X106318386Y-43694150D01*
X106388184Y-43659251D01*
X106439313Y-43600298D01*
X106463990Y-43526267D01*
X106458458Y-43448427D01*
X106423560Y-43378629D01*
X106364607Y-43327500D01*
X106328806Y-43311515D01*
X104898017Y-42834585D01*
X106328807Y-42357656D01*
X106364607Y-42341671D01*
X106423560Y-42290542D01*
X106458459Y-42220744D01*
X106463991Y-42142904D01*
X106439313Y-42068873D01*
X106388184Y-42009920D01*
X106318386Y-41975021D01*
X106240547Y-41969490D01*
X106202316Y-41978182D01*
X104202316Y-42644848D01*
X104166515Y-42660833D01*
X104155720Y-42670194D01*
X104142938Y-42676586D01*
X104126507Y-42695531D01*
X104107562Y-42711962D01*
X104101170Y-42724744D01*
X104091809Y-42735539D01*
X104083880Y-42759326D01*
X104072663Y-42781760D01*
X104071650Y-42796015D01*
X104067132Y-42809570D01*
X103843339Y-42809570D01*
X103843339Y-41600825D01*
X104065608Y-41600825D01*
X104082488Y-41677014D01*
X104127238Y-41740943D01*
X104193047Y-41782881D01*
X104269896Y-41796443D01*
X104346085Y-41779563D01*
X104380254Y-41760336D01*
X105037304Y-41300400D01*
X105039057Y-41304981D01*
X105134295Y-41495457D01*
X105144866Y-41512250D01*
X105146887Y-41517129D01*
X105151393Y-41522620D01*
X105155181Y-41528637D01*
X105159171Y-41532098D01*
X105171759Y-41547436D01*
X105266999Y-41642674D01*
X105282334Y-41655260D01*
X105285796Y-41659251D01*
X105291811Y-41663037D01*
X105297306Y-41667547D01*
X105302187Y-41669568D01*
X105318976Y-41680137D01*
X105509453Y-41775376D01*
X105546070Y-41789388D01*
X105553239Y-41789897D01*
X105559877Y-41792647D01*
X105598895Y-41796490D01*
X105884609Y-41796490D01*
X105923627Y-41792647D01*
X105930264Y-41789897D01*
X105937434Y-41789388D01*
X105974052Y-41775375D01*
X106164528Y-41680137D01*
X106181319Y-41669567D01*
X106186199Y-41667546D01*
X106191691Y-41663038D01*
X106197708Y-41659251D01*
X106201170Y-41655259D01*
X106216506Y-41642673D01*
X106311744Y-41547435D01*
X106324330Y-41532098D01*
X106328322Y-41528637D01*
X106332109Y-41522620D01*
X106336617Y-41517128D01*
X106338638Y-41512248D01*
X106349208Y-41495457D01*
X106444447Y-41304980D01*
X106458459Y-41268363D01*
X106458968Y-41261193D01*
X106461718Y-41254556D01*
X106465561Y-41215538D01*
X106465561Y-41081281D01*
X107289292Y-41081281D01*
X107289292Y-41159317D01*
X107319155Y-41231413D01*
X107374335Y-41286593D01*
X107446431Y-41316456D01*
X107485449Y-41320299D01*
X109285449Y-41320299D01*
X109285449Y-41691728D01*
X109289292Y-41730746D01*
X109319155Y-41802842D01*
X109374335Y-41858022D01*
X109446431Y-41887885D01*
X109524467Y-41887885D01*
X109596563Y-41858022D01*
X109651743Y-41802842D01*
X109681606Y-41730746D01*
X109685449Y-41691728D01*
X109685449Y-40548871D01*
X109681606Y-40509853D01*
X109651743Y-40437757D01*
X109596563Y-40382577D01*
X109524467Y-40352714D01*
X109446431Y-40352714D01*
X109374335Y-40382577D01*
X109319155Y-40437757D01*
X109289292Y-40509853D01*
X109285449Y-40548871D01*
X109285449Y-40920299D01*
X107485449Y-40920299D01*
X107446431Y-40924142D01*
X107374335Y-40954005D01*
X107319155Y-41009185D01*
X107289292Y-41081281D01*
X106465561Y-41081281D01*
X106465561Y-40453633D01*
X106461718Y-40414615D01*
X106431855Y-40342519D01*
X106376675Y-40287339D01*
X106304579Y-40257476D01*
X106265561Y-40253633D01*
X104265561Y-40253633D01*
X104226543Y-40257476D01*
X104154447Y-40287339D01*
X104099267Y-40342519D01*
X104069404Y-40414615D01*
X104069404Y-40492651D01*
X104099267Y-40564747D01*
X104154447Y-40619927D01*
X104226543Y-40649790D01*
X104265561Y-40653633D01*
X105017942Y-40653633D01*
X105017942Y-40825691D01*
X104150868Y-41432644D01*
X104121108Y-41458167D01*
X104079170Y-41523976D01*
X104065608Y-41600825D01*
X103843339Y-41600825D01*
X103843339Y-38644109D01*
X104065561Y-38644109D01*
X104065561Y-39596490D01*
X104069404Y-39635508D01*
X104099267Y-39707604D01*
X104154447Y-39762784D01*
X104226543Y-39792647D01*
X104304579Y-39792647D01*
X104376675Y-39762784D01*
X104431855Y-39707604D01*
X104461718Y-39635508D01*
X104465561Y-39596490D01*
X104465561Y-38844109D01*
X105113180Y-38844109D01*
X105113180Y-39310776D01*
X105117023Y-39349794D01*
X105146886Y-39421890D01*
X105202066Y-39477070D01*
X105274162Y-39506933D01*
X105352198Y-39506933D01*
X105424294Y-39477070D01*
X105479474Y-39421890D01*
X105509337Y-39349794D01*
X105513180Y-39310776D01*
X105513180Y-38844109D01*
X106065561Y-38844109D01*
X106065561Y-39596490D01*
X106069404Y-39635508D01*
X106099267Y-39707604D01*
X106154447Y-39762784D01*
X106226543Y-39792647D01*
X106304579Y-39792647D01*
X106376675Y-39762784D01*
X106431855Y-39707604D01*
X106461718Y-39635508D01*
X106465561Y-39596490D01*
X106465561Y-39120299D01*
X107285449Y-39120299D01*
X107285449Y-39501252D01*
X107289292Y-39540270D01*
X107292042Y-39546910D01*
X107292552Y-39554078D01*
X107306564Y-39590695D01*
X107401803Y-39781171D01*
X107412371Y-39797960D01*
X107414394Y-39802842D01*
X107418905Y-39808339D01*
X107422690Y-39814351D01*
X107426678Y-39817810D01*
X107439267Y-39833149D01*
X107629743Y-40023626D01*
X107660050Y-40048498D01*
X107673788Y-40054188D01*
X107685736Y-40063041D01*
X107722657Y-40076233D01*
X108103609Y-40171470D01*
X108110372Y-40172470D01*
X108113098Y-40173599D01*
X108127800Y-40175047D01*
X108142394Y-40177205D01*
X108145307Y-40176771D01*
X108152116Y-40177442D01*
X108818783Y-40177442D01*
X108825591Y-40176771D01*
X108828505Y-40177205D01*
X108843106Y-40175046D01*
X108857801Y-40173599D01*
X108860523Y-40172471D01*
X108867290Y-40171471D01*
X109248242Y-40076233D01*
X109285163Y-40063041D01*
X109297110Y-40054188D01*
X109310849Y-40048498D01*
X109341156Y-40023625D01*
X109531633Y-39833149D01*
X109544220Y-39817811D01*
X109548210Y-39814351D01*
X109551996Y-39808335D01*
X109556505Y-39802842D01*
X109558526Y-39797962D01*
X109569096Y-39781171D01*
X109664335Y-39590694D01*
X109678347Y-39554077D01*
X109678856Y-39546907D01*
X109681606Y-39540270D01*
X109685449Y-39501252D01*
X109685449Y-39120299D01*
X109681606Y-39081281D01*
X109678856Y-39074643D01*
X109678347Y-39067474D01*
X109664335Y-39030857D01*
X109569096Y-38840380D01*
X109558526Y-38823588D01*
X109556505Y-38818709D01*
X109551996Y-38813215D01*
X109548210Y-38807200D01*
X109544220Y-38803739D01*
X109531633Y-38788402D01*
X109341156Y-38597926D01*
X109310849Y-38573053D01*
X109297110Y-38567362D01*
X109285163Y-38558510D01*
X109248242Y-38545318D01*
X108867290Y-38450080D01*
X108860523Y-38449079D01*
X108857801Y-38447952D01*
X108843106Y-38446504D01*
X108828505Y-38444346D01*
X108825591Y-38444779D01*
X108818783Y-38444109D01*
X108152116Y-38444109D01*
X108145307Y-38444779D01*
X108142394Y-38444346D01*
X108127800Y-38446503D01*
X108113098Y-38447952D01*
X108110372Y-38449080D01*
X108103609Y-38450081D01*
X107722657Y-38545318D01*
X107685736Y-38558510D01*
X107673788Y-38567362D01*
X107660050Y-38573053D01*
X107629743Y-38597925D01*
X107439267Y-38788402D01*
X107426678Y-38803740D01*
X107422690Y-38807200D01*
X107418905Y-38813211D01*
X107414394Y-38818709D01*
X107412371Y-38823590D01*
X107401803Y-38840380D01*
X107306564Y-39030856D01*
X107292552Y-39067473D01*
X107292042Y-39074640D01*
X107289292Y-39081281D01*
X107285449Y-39120299D01*
X106465561Y-39120299D01*
X106465561Y-38644109D01*
X106461718Y-38605091D01*
X106431855Y-38532995D01*
X106376675Y-38477815D01*
X106304579Y-38447952D01*
X106265561Y-38444109D01*
X104265561Y-38444109D01*
X104226543Y-38447952D01*
X104154447Y-38477815D01*
X104099267Y-38532995D01*
X104069404Y-38605091D01*
X104065561Y-38644109D01*
X103843339Y-38644109D01*
X103843339Y-36929823D01*
X104065561Y-36929823D01*
X104065561Y-37406014D01*
X104069404Y-37445032D01*
X104072154Y-37451672D01*
X104072664Y-37458840D01*
X104086676Y-37495457D01*
X104181915Y-37685933D01*
X104192483Y-37702722D01*
X104194506Y-37707604D01*
X104199017Y-37713101D01*
X104202802Y-37719113D01*
X104206790Y-37722572D01*
X104219379Y-37737911D01*
X104314617Y-37833149D01*
X104329953Y-37845735D01*
X104333415Y-37849727D01*
X104339431Y-37853514D01*
X104344924Y-37858022D01*
X104349803Y-37860043D01*
X104366595Y-37870613D01*
X104557072Y-37965852D01*
X104593689Y-37979864D01*
X104600858Y-37980373D01*
X104607496Y-37983123D01*
X104646514Y-37986966D01*
X104836990Y-37986966D01*
X104876008Y-37983123D01*
X104882645Y-37980373D01*
X104889815Y-37979864D01*
X104926433Y-37965851D01*
X105116909Y-37870613D01*
X105133700Y-37860043D01*
X105138580Y-37858022D01*
X105144072Y-37853514D01*
X105150089Y-37849727D01*
X105153551Y-37845735D01*
X105168887Y-37833149D01*
X105264125Y-37737911D01*
X105276711Y-37722574D01*
X105280703Y-37719113D01*
X105284490Y-37713096D01*
X105288998Y-37707604D01*
X105291019Y-37702724D01*
X105301589Y-37685933D01*
X105396828Y-37495456D01*
X105397920Y-37492600D01*
X105398779Y-37491442D01*
X105404625Y-37475078D01*
X105410840Y-37458839D01*
X105410942Y-37457400D01*
X105411971Y-37454521D01*
X105501882Y-37094868D01*
X105572790Y-36953055D01*
X105622128Y-36903718D01*
X105741346Y-36844109D01*
X105837396Y-36844109D01*
X105956614Y-36903718D01*
X106005952Y-36953056D01*
X106065561Y-37072274D01*
X106065561Y-37468795D01*
X105980586Y-37723720D01*
X105971894Y-37761951D01*
X105977425Y-37839791D01*
X106012324Y-37909589D01*
X106071277Y-37960718D01*
X106145308Y-37985395D01*
X106223148Y-37979864D01*
X106292946Y-37944965D01*
X106344075Y-37886012D01*
X106360060Y-37850212D01*
X106455298Y-37564498D01*
X106459697Y-37545148D01*
X106461718Y-37540270D01*
X106462414Y-37533195D01*
X106463990Y-37526267D01*
X106463615Y-37521001D01*
X106465561Y-37501252D01*
X106465561Y-37025061D01*
X106461718Y-36986043D01*
X106458968Y-36979405D01*
X106458459Y-36972236D01*
X106444447Y-36935619D01*
X106349208Y-36745142D01*
X106345560Y-36739347D01*
X107285449Y-36739347D01*
X107285449Y-37501252D01*
X107289292Y-37540270D01*
X107292042Y-37546910D01*
X107292552Y-37554078D01*
X107306564Y-37590695D01*
X107401803Y-37781171D01*
X107412371Y-37797960D01*
X107414394Y-37802842D01*
X107418905Y-37808339D01*
X107422690Y-37814351D01*
X107426678Y-37817810D01*
X107439267Y-37833149D01*
X107534505Y-37928387D01*
X107549841Y-37940973D01*
X107553303Y-37944965D01*
X107559319Y-37948752D01*
X107564812Y-37953260D01*
X107569691Y-37955281D01*
X107586483Y-37965851D01*
X107776960Y-38061090D01*
X107813577Y-38075102D01*
X107820746Y-38075611D01*
X107827384Y-38078361D01*
X107866402Y-38082204D01*
X108152116Y-38082204D01*
X108191134Y-38078361D01*
X108197771Y-38075611D01*
X108204941Y-38075102D01*
X108241559Y-38061089D01*
X108432035Y-37965851D01*
X108448826Y-37955281D01*
X108453706Y-37953260D01*
X108459198Y-37948752D01*
X108465215Y-37944965D01*
X108468677Y-37940973D01*
X108484013Y-37928387D01*
X108579251Y-37833149D01*
X108580546Y-37831571D01*
X108582124Y-37833149D01*
X108597460Y-37845735D01*
X108600922Y-37849727D01*
X108606938Y-37853514D01*
X108612431Y-37858022D01*
X108617310Y-37860043D01*
X108634102Y-37870613D01*
X108824579Y-37965852D01*
X108861196Y-37979864D01*
X108868365Y-37980373D01*
X108875003Y-37983123D01*
X108914021Y-37986966D01*
X109104497Y-37986966D01*
X109143515Y-37983123D01*
X109150152Y-37980373D01*
X109157322Y-37979864D01*
X109193940Y-37965851D01*
X109384416Y-37870613D01*
X109401207Y-37860043D01*
X109406087Y-37858022D01*
X109411579Y-37853514D01*
X109417596Y-37849727D01*
X109421058Y-37845735D01*
X109436394Y-37833149D01*
X109531632Y-37737911D01*
X109544218Y-37722574D01*
X109548210Y-37719113D01*
X109551997Y-37713096D01*
X109556505Y-37707604D01*
X109558526Y-37702724D01*
X109569096Y-37685933D01*
X109664335Y-37495456D01*
X109678347Y-37458839D01*
X109678856Y-37451669D01*
X109681606Y-37445032D01*
X109685449Y-37406014D01*
X109685449Y-36739347D01*
X109681606Y-36700329D01*
X109651743Y-36628233D01*
X109596563Y-36573053D01*
X109524467Y-36543190D01*
X109485449Y-36539347D01*
X107485449Y-36539347D01*
X107446431Y-36543190D01*
X107374335Y-36573053D01*
X107319155Y-36628233D01*
X107289292Y-36700329D01*
X107285449Y-36739347D01*
X106345560Y-36739347D01*
X106338638Y-36728350D01*
X106336617Y-36723471D01*
X106332109Y-36717978D01*
X106328322Y-36711962D01*
X106324330Y-36708500D01*
X106311744Y-36693164D01*
X106216506Y-36597926D01*
X106201170Y-36585339D01*
X106197708Y-36581348D01*
X106191691Y-36577560D01*
X106186199Y-36573053D01*
X106181319Y-36571031D01*
X106164528Y-36560462D01*
X105974052Y-36465224D01*
X105937434Y-36451211D01*
X105930264Y-36450701D01*
X105923627Y-36447952D01*
X105884609Y-36444109D01*
X105694133Y-36444109D01*
X105655115Y-36447952D01*
X105648477Y-36450701D01*
X105641308Y-36451211D01*
X105604691Y-36465223D01*
X105414214Y-36560462D01*
X105397422Y-36571031D01*
X105392543Y-36573053D01*
X105387050Y-36577560D01*
X105381034Y-36581348D01*
X105377572Y-36585339D01*
X105362236Y-36597926D01*
X105266998Y-36693164D01*
X105254409Y-36708502D01*
X105250421Y-36711962D01*
X105246636Y-36717973D01*
X105242125Y-36723471D01*
X105240102Y-36728352D01*
X105229534Y-36745142D01*
X105134295Y-36935618D01*
X105133202Y-36938472D01*
X105132343Y-36939633D01*
X105126487Y-36956020D01*
X105120283Y-36972235D01*
X105120180Y-36973671D01*
X105119151Y-36976554D01*
X105029236Y-37336211D01*
X104958333Y-37478019D01*
X104908995Y-37527356D01*
X104789777Y-37586966D01*
X104693727Y-37586966D01*
X104574509Y-37527357D01*
X104525171Y-37478019D01*
X104465561Y-37358800D01*
X104465561Y-36962277D01*
X104550536Y-36707355D01*
X104559229Y-36669124D01*
X104553698Y-36591285D01*
X104518799Y-36521487D01*
X104459846Y-36470357D01*
X104385815Y-36445680D01*
X104307975Y-36451211D01*
X104238177Y-36486110D01*
X104187048Y-36545063D01*
X104171063Y-36580863D01*
X104075825Y-36866577D01*
X104071425Y-36885923D01*
X104069404Y-36890805D01*
X104068707Y-36897881D01*
X104067132Y-36904808D01*
X104067506Y-36910073D01*
X104065561Y-36929823D01*
X103843339Y-36929823D01*
X103843339Y-36221887D01*
X109907671Y-36221887D01*
X109907671Y-45538679D01*
G37*
%TD*%
D12*
%TO.P,Q1,1,G*%
%TO.N,Net-(Q1-G)*%
X124400000Y-55800000D03*
%TO.P,Q1,2,D*%
%TO.N,Net-(D1-A)*%
X126925000Y-55800000D03*
%TO.P,Q1,3,S*%
%TO.N,GND*%
X129475000Y-55800000D03*
%TD*%
D13*
%TO.P,J1,1,Pin_1*%
%TO.N,Net-(J1-Pin_1)*%
X129000000Y-45200000D03*
D14*
%TO.P,J1,2,Pin_2*%
%TO.N,GND*%
X123920000Y-45200000D03*
%TD*%
D13*
%TO.P,J4,1,Pin_1*%
%TO.N,Net-(D1-A)*%
X117440000Y-45200000D03*
D14*
%TO.P,J4,2,Pin_2*%
%TO.N,VCC*%
X112360000Y-45200000D03*
%TD*%
D13*
%TO.P,J2,1,Pin_1*%
%TO.N,VCC*%
X152000000Y-45227500D03*
D14*
%TO.P,J2,2,Pin_2*%
%TO.N,GND*%
X146920000Y-45227500D03*
%TD*%
D15*
%TO.P,U4,1,GND*%
%TO.N,GND*%
X110245000Y-60210000D03*
D16*
%TO.P,U4,2,TR*%
%TO.N,Net-(U4-THR)*%
X110245000Y-62750000D03*
%TO.P,U4,3,Q*%
%TO.N,Net-(U4-Q)*%
X110245000Y-65290000D03*
%TO.P,U4,4,R*%
%TO.N,Net-(U4-R)*%
X110245000Y-67830000D03*
%TO.P,U4,5,CV*%
%TO.N,unconnected-(U4-CV-Pad5)*%
X117865000Y-67830000D03*
%TO.P,U4,6,THR*%
%TO.N,Net-(U4-THR)*%
X117865000Y-65290000D03*
%TO.P,U4,7,DIS*%
%TO.N,Net-(U4-DIS)*%
X117865000Y-62750000D03*
%TO.P,U4,8,VCC*%
%TO.N,VCC*%
X117865000Y-60210000D03*
%TD*%
D17*
%TO.P,D1,1,K*%
%TO.N,VCC*%
X110625000Y-52775000D03*
%TO.P,D1,2,A*%
%TO.N,Net-(D1-A)*%
X120200000Y-52800000D03*
%TD*%
D18*
%TO.P,R5,1*%
%TO.N,Net-(U4-DIS)*%
X126295000Y-64370000D03*
%TO.P,R5,2*%
%TO.N,Net-(U4-THR)*%
X123745000Y-66970000D03*
%TO.P,R5,3*%
%TO.N,N/C*%
X126320000Y-69670000D03*
%TD*%
%TO.P,R3,1*%
%TO.N,Net-(U1A--)*%
X138820000Y-62460000D03*
%TO.P,R3,2*%
%TO.N,GND*%
X136270000Y-65060000D03*
%TO.P,R3,3*%
%TO.N,N/C*%
X138845000Y-67760000D03*
%TD*%
D17*
%TO.P,R2,1*%
%TO.N,VCC*%
X135940000Y-57200000D03*
%TO.P,R2,2*%
%TO.N,Net-(U1A--)*%
X145515000Y-57225000D03*
%TD*%
D13*
%TO.P,J3,1,Pin_1*%
%TO.N,Net-(J1-Pin_1)*%
X140400000Y-45200000D03*
D14*
%TO.P,J3,2,Pin_2*%
%TO.N,VCC*%
X135320000Y-45200000D03*
%TD*%
D15*
%TO.P,U1,1*%
%TO.N,Net-(U4-R)*%
X145700000Y-60660000D03*
D16*
%TO.P,U1,2,-*%
%TO.N,Net-(U1A--)*%
X145700000Y-63200000D03*
%TO.P,U1,3,+*%
%TO.N,Net-(J1-Pin_1)*%
X145700000Y-65740000D03*
%TO.P,U1,4,V-*%
%TO.N,GND*%
X145700000Y-68280000D03*
%TO.P,U1,5*%
%TO.N,N/C*%
X153320000Y-68280000D03*
%TO.P,U1,6*%
X153320000Y-65740000D03*
%TO.P,U1,7*%
X153320000Y-63200000D03*
%TO.P,U1,8,V+*%
%TO.N,VCC*%
X153320000Y-60660000D03*
%TD*%
D17*
%TO.P,R4,1*%
%TO.N,VCC*%
X121540000Y-60000000D03*
%TO.P,R4,2*%
%TO.N,Net-(U4-DIS)*%
X131115000Y-60025000D03*
%TD*%
%TO.P,R1,1*%
%TO.N,Net-(U4-Q)*%
X110745000Y-56600000D03*
%TO.P,R1,2*%
%TO.N,Net-(Q1-G)*%
X120320000Y-56625000D03*
%TD*%
D18*
%TO.P,C1,1*%
%TO.N,Net-(U4-THR)*%
X132695000Y-67275000D03*
%TO.P,C1,2*%
%TO.N,GND*%
X132745000Y-64775000D03*
%TD*%
D19*
%TO.N,Net-(U4-THR)*%
X123780000Y-66860000D02*
X132280000Y-66860000D01*
X110245000Y-62750000D02*
X113185000Y-62750000D01*
X115725000Y-65290000D02*
X117865000Y-65290000D01*
X113185000Y-62750000D02*
X115725000Y-65290000D01*
X132280000Y-66860000D02*
X132720000Y-67300000D01*
X122210000Y-65290000D02*
X123780000Y-66860000D01*
X117865000Y-65290000D02*
X122210000Y-65290000D01*
%TO.N,GND*%
X135520000Y-65400000D02*
X135970000Y-64950000D01*
X136270000Y-65060000D02*
X133030000Y-65060000D01*
X141120000Y-69400000D02*
X136320000Y-69400000D01*
X142240000Y-68280000D02*
X141120000Y-69400000D01*
X135970000Y-64950000D02*
X136305000Y-64950000D01*
X145700000Y-68280000D02*
X142240000Y-68280000D01*
X133030000Y-65060000D02*
X132745000Y-64775000D01*
X136320000Y-69400000D02*
X135520000Y-68600000D01*
X135520000Y-68600000D02*
X135520000Y-65400000D01*
%TO.N,Net-(J1-Pin_1)*%
X137000000Y-60800000D02*
X136400000Y-61400000D01*
D20*
X136400000Y-63000000D02*
X137000000Y-63600000D01*
D19*
X143860000Y-65740000D02*
X145700000Y-65740000D01*
X143120000Y-65000000D02*
X143860000Y-65740000D01*
D21*
X140400000Y-45200000D02*
X140400000Y-48400000D01*
X138600000Y-50200000D02*
X130800000Y-50200000D01*
D19*
X140000000Y-60800000D02*
X137000000Y-60800000D01*
D21*
X140400000Y-48400000D02*
X138600000Y-50200000D01*
D19*
X140520000Y-52120000D02*
X140520000Y-60280000D01*
D20*
X137000000Y-63600000D02*
X137600000Y-63600000D01*
D19*
X138600000Y-50200000D02*
X140520000Y-52120000D01*
X140520000Y-60280000D02*
X140000000Y-60800000D01*
D21*
X129000000Y-48400000D02*
X129000000Y-45200000D01*
D20*
X137600000Y-63600000D02*
X139000000Y-65000000D01*
D19*
X136400000Y-61400000D02*
X136400000Y-63000000D01*
D21*
X130800000Y-50200000D02*
X129000000Y-48400000D01*
D19*
X139000000Y-65000000D02*
X143120000Y-65000000D01*
D21*
%TO.N,VCC*%
X112360000Y-45200000D02*
X112360000Y-41840000D01*
D19*
X153320000Y-60660000D02*
X153320000Y-60480000D01*
X121040000Y-60000000D02*
X127800000Y-60000000D01*
X153400000Y-48600000D02*
X152000000Y-47200000D01*
X127800000Y-60000000D02*
X129400000Y-58400000D01*
X120830000Y-60210000D02*
X121040000Y-60000000D01*
X117865000Y-60210000D02*
X120830000Y-60210000D01*
X112360000Y-47560000D02*
X112360000Y-45200000D01*
X132720000Y-58400000D02*
X133920000Y-57200000D01*
X112360000Y-51040000D02*
X110625000Y-52775000D01*
D21*
X114600000Y-39600000D02*
X132400000Y-39600000D01*
X152000000Y-41000000D02*
X152000000Y-45227500D01*
X135320000Y-41720000D02*
X135320000Y-45200000D01*
X132400000Y-39600000D02*
X150600000Y-39600000D01*
X112360000Y-41840000D02*
X114600000Y-39600000D01*
X132400000Y-39600000D02*
X133200000Y-39600000D01*
D19*
X116800000Y-59145000D02*
X116800000Y-52000000D01*
X133920000Y-57200000D02*
X135440000Y-57200000D01*
X152000000Y-45227500D02*
X152120000Y-45227500D01*
X153400000Y-60400000D02*
X153400000Y-48600000D01*
X116800000Y-52000000D02*
X112360000Y-47560000D01*
D21*
X133200000Y-39600000D02*
X135320000Y-41720000D01*
D19*
X153320000Y-60480000D02*
X153400000Y-60400000D01*
X117865000Y-60210000D02*
X116800000Y-59145000D01*
X121040000Y-60000000D02*
X121320000Y-60000000D01*
X112360000Y-47560000D02*
X112360000Y-51040000D01*
X152000000Y-47200000D02*
X152000000Y-45227500D01*
X129400000Y-58400000D02*
X132720000Y-58400000D01*
D21*
X150600000Y-39600000D02*
X152000000Y-41000000D01*
D22*
%TO.N,Net-(D1-A)*%
X126940000Y-55800000D02*
X126940000Y-53740000D01*
X117440000Y-48760000D02*
X117440000Y-45200000D01*
D19*
X117440000Y-45200000D02*
X117440000Y-45840000D01*
D22*
X117400000Y-48800000D02*
X117440000Y-48760000D01*
X121200000Y-52600000D02*
X117400000Y-48800000D01*
X126940000Y-53740000D02*
X125800000Y-52600000D01*
X125800000Y-52600000D02*
X121200000Y-52600000D01*
D19*
%TO.N,Net-(Q1-G)*%
X124400000Y-55800000D02*
X121205000Y-55800000D01*
X121205000Y-55800000D02*
X120405000Y-56600000D01*
%TO.N,Net-(U4-Q)*%
X110245000Y-56600000D02*
X108720000Y-56600000D01*
X109210000Y-65290000D02*
X110245000Y-65290000D01*
X108720000Y-56600000D02*
X107920000Y-57400000D01*
X107920000Y-57400000D02*
X107120000Y-58200000D01*
X107120000Y-58200000D02*
X107120000Y-63200000D01*
X107120000Y-63200000D02*
X109210000Y-65290000D01*
%TO.N,Net-(U1A--)*%
X145700000Y-63200000D02*
X142720000Y-63200000D01*
X143520000Y-57200000D02*
X145600000Y-57200000D01*
X142720000Y-63200000D02*
X142720000Y-58000000D01*
X139635000Y-63200000D02*
X138845000Y-62410000D01*
X142720000Y-58000000D02*
X143520000Y-57200000D01*
X142720000Y-63200000D02*
X139635000Y-63200000D01*
%TO.N,Net-(U4-DIS)*%
X126880000Y-64320000D02*
X131200000Y-60000000D01*
X126320000Y-64320000D02*
X126880000Y-64320000D01*
X117865000Y-62750000D02*
X124750000Y-62750000D01*
X124750000Y-62750000D02*
X126320000Y-64320000D01*
%TO.N,Net-(U4-R)*%
X131120000Y-70800000D02*
X148120000Y-70800000D01*
X130120000Y-71800000D02*
X131120000Y-70800000D01*
X110245000Y-67830000D02*
X112750000Y-67830000D01*
X147380000Y-60660000D02*
X145700000Y-60660000D01*
X123520000Y-71000000D02*
X124320000Y-71800000D01*
X124320000Y-71800000D02*
X130120000Y-71800000D01*
X149320000Y-69600000D02*
X149320000Y-62600000D01*
X149320000Y-62600000D02*
X147380000Y-60660000D01*
X148120000Y-70800000D02*
X149320000Y-69600000D01*
X112750000Y-67830000D02*
X115920000Y-71000000D01*
X115920000Y-71000000D02*
X123520000Y-71000000D01*
%TD*%
%TA.AperFunction,Conductor*%
%TO.N,GND*%
G36*
X156023798Y-36120028D02*
G01*
X156135026Y-36176702D01*
X156223298Y-36264974D01*
X156279972Y-36376202D01*
X156299500Y-36499500D01*
X156299500Y-73900500D01*
X156279972Y-74023798D01*
X156223298Y-74135026D01*
X156135026Y-74223298D01*
X156023798Y-74279972D01*
X155900500Y-74299500D01*
X104099500Y-74299500D01*
X103976202Y-74279972D01*
X103864974Y-74223298D01*
X103776702Y-74135026D01*
X103720028Y-74023798D01*
X103700500Y-73900500D01*
X103700500Y-45724300D01*
X103720028Y-45601002D01*
X103776702Y-45489774D01*
X103864974Y-45401502D01*
X103976202Y-45344828D01*
X104099500Y-45325300D01*
X109720034Y-45325300D01*
X109721253Y-45324414D01*
X109839977Y-45285837D01*
X109964812Y-45285836D01*
X110083537Y-45324410D01*
X110184531Y-45397785D01*
X110257909Y-45498778D01*
X110293731Y-45602075D01*
X110295438Y-45610660D01*
X110325888Y-45724300D01*
X110366705Y-45876632D01*
X110471986Y-46130800D01*
X110472077Y-46131020D01*
X110472078Y-46131023D01*
X110487829Y-46158305D01*
X110609590Y-46369201D01*
X110609752Y-46369480D01*
X110609756Y-46369487D01*
X110777361Y-46587915D01*
X110777368Y-46587923D01*
X110777372Y-46587928D01*
X110972072Y-46782628D01*
X111003396Y-46806664D01*
X111089323Y-46897209D01*
X111143067Y-47009882D01*
X111159500Y-47123210D01*
X111159500Y-50377464D01*
X111154588Y-50408477D01*
X111154588Y-50439882D01*
X111144884Y-50469746D01*
X111139972Y-50500762D01*
X111125714Y-50528744D01*
X111116011Y-50558607D01*
X111097554Y-50584009D01*
X111083298Y-50611990D01*
X111042635Y-50659600D01*
X110479598Y-51222636D01*
X110378605Y-51296012D01*
X110259880Y-51334588D01*
X110197464Y-51339500D01*
X109488017Y-51339500D01*
X109369764Y-51350013D01*
X109175999Y-51405456D01*
X109175995Y-51405457D01*
X108997345Y-51498775D01*
X108841147Y-51626138D01*
X108841138Y-51626147D01*
X108713775Y-51782345D01*
X108620457Y-51960995D01*
X108620456Y-51960999D01*
X108565014Y-52154760D01*
X108565011Y-52154777D01*
X108554500Y-52273003D01*
X108554500Y-53276982D01*
X108565013Y-53395235D01*
X108620456Y-53589000D01*
X108620457Y-53589004D01*
X108713775Y-53767654D01*
X108841138Y-53923852D01*
X108841147Y-53923861D01*
X108997345Y-54051224D01*
X109175995Y-54144542D01*
X109175999Y-54144543D01*
X109198964Y-54151114D01*
X109369766Y-54199987D01*
X109488013Y-54210500D01*
X111761986Y-54210499D01*
X111880234Y-54199987D01*
X112074007Y-54144541D01*
X112252653Y-54051225D01*
X112408857Y-53923857D01*
X112536225Y-53767653D01*
X112629541Y-53589007D01*
X112684987Y-53395234D01*
X112695500Y-53276987D01*
X112695499Y-52567534D01*
X112715027Y-52444238D01*
X112771701Y-52333009D01*
X112812364Y-52285399D01*
X113275686Y-51822077D01*
X113275690Y-51822073D01*
X113386760Y-51669199D01*
X113472547Y-51500832D01*
X113530940Y-51321118D01*
X113530941Y-51321111D01*
X113534598Y-51305881D01*
X113536270Y-51306282D01*
X113569016Y-51205470D01*
X113642383Y-51104470D01*
X113743370Y-51031085D01*
X113862091Y-50992498D01*
X113986926Y-50992487D01*
X114105654Y-51031052D01*
X114206654Y-51104419D01*
X114206680Y-51104444D01*
X115482636Y-52380400D01*
X115556012Y-52481394D01*
X115594588Y-52600119D01*
X115599500Y-52662536D01*
X115599500Y-59050519D01*
X115599500Y-59239481D01*
X115617418Y-59352611D01*
X115629061Y-59426123D01*
X115687452Y-59605830D01*
X115773239Y-59774198D01*
X115791311Y-59799071D01*
X115847985Y-59910299D01*
X115867515Y-60033596D01*
X115864781Y-60068336D01*
X115865730Y-60068411D01*
X115864500Y-60084037D01*
X115864500Y-60084038D01*
X115864500Y-60335962D01*
X115895873Y-60534040D01*
X115903911Y-60584790D01*
X115981759Y-60824379D01*
X116096130Y-61048846D01*
X116238989Y-61245474D01*
X116295663Y-61356702D01*
X116315191Y-61480000D01*
X116295663Y-61603298D01*
X116238989Y-61714526D01*
X116096130Y-61911153D01*
X115981759Y-62135620D01*
X115903911Y-62375209D01*
X115864500Y-62624040D01*
X115864500Y-62768464D01*
X115844972Y-62891762D01*
X115788298Y-63002990D01*
X115700026Y-63091262D01*
X115588798Y-63147936D01*
X115465500Y-63167464D01*
X115342202Y-63147936D01*
X115230974Y-63091262D01*
X115183365Y-63050600D01*
X113967077Y-61834313D01*
X113967069Y-61834306D01*
X113814201Y-61723241D01*
X113645830Y-61637452D01*
X113466123Y-61579061D01*
X113466119Y-61579060D01*
X113466118Y-61579060D01*
X113279481Y-61549500D01*
X113279478Y-61549500D01*
X112590745Y-61549500D01*
X112467447Y-61529972D01*
X112356219Y-61473298D01*
X112267947Y-61385026D01*
X112211273Y-61273798D01*
X112191745Y-61150500D01*
X112208925Y-61034679D01*
X112229806Y-60965840D01*
X112229807Y-60965837D01*
X112244999Y-60811589D01*
X112245000Y-60811581D01*
X112245000Y-60610001D01*
X112244999Y-60610000D01*
X110644000Y-60610000D01*
X110520702Y-60590472D01*
X110449150Y-60554014D01*
X110490606Y-60530080D01*
X110565080Y-60455606D01*
X110617741Y-60364394D01*
X110645000Y-60262661D01*
X110645000Y-60157339D01*
X110617741Y-60055606D01*
X110565080Y-59964394D01*
X110490606Y-59889920D01*
X110449150Y-59865985D01*
X110520702Y-59829528D01*
X110644000Y-59810000D01*
X112244999Y-59810000D01*
X112245000Y-59809999D01*
X112245000Y-59608418D01*
X112244999Y-59608410D01*
X112229807Y-59454162D01*
X112229805Y-59454156D01*
X112169767Y-59256237D01*
X112072266Y-59073826D01*
X111941059Y-58913950D01*
X111941049Y-58913940D01*
X111781175Y-58782734D01*
X111777107Y-58780560D01*
X111770982Y-58775924D01*
X111764878Y-58771845D01*
X111765118Y-58771484D01*
X111677575Y-58705214D01*
X111606197Y-58602799D01*
X111569960Y-58483339D01*
X111572412Y-58358529D01*
X111613313Y-58240584D01*
X111688659Y-58141052D01*
X111791074Y-58069674D01*
X111910534Y-58033437D01*
X111929852Y-58031243D01*
X112000234Y-58024987D01*
X112194007Y-57969541D01*
X112372653Y-57876225D01*
X112528857Y-57748857D01*
X112656225Y-57592653D01*
X112749541Y-57414007D01*
X112804987Y-57220234D01*
X112815500Y-57101987D01*
X112815499Y-56098014D01*
X112804987Y-55979766D01*
X112768617Y-55852661D01*
X112749543Y-55785999D01*
X112749542Y-55785995D01*
X112743804Y-55775011D01*
X112656225Y-55607347D01*
X112656224Y-55607345D01*
X112528861Y-55451147D01*
X112528852Y-55451138D01*
X112372654Y-55323775D01*
X112194004Y-55230457D01*
X112194000Y-55230456D01*
X112000239Y-55175014D01*
X112000235Y-55175013D01*
X112000234Y-55175013D01*
X112000232Y-55175012D01*
X112000222Y-55175011D01*
X111881994Y-55164500D01*
X109608017Y-55164500D01*
X109489764Y-55175013D01*
X109295999Y-55230456D01*
X109295995Y-55230457D01*
X109117343Y-55323777D01*
X109102355Y-55333655D01*
X108988658Y-55385199D01*
X108882790Y-55399500D01*
X108814482Y-55399500D01*
X108625519Y-55399500D01*
X108438882Y-55429060D01*
X108438876Y-55429061D01*
X108259169Y-55487452D01*
X108090801Y-55573239D01*
X107937928Y-55684308D01*
X107937921Y-55684313D01*
X107004309Y-56617925D01*
X107004310Y-56617926D01*
X107004307Y-56617929D01*
X107004306Y-56617928D01*
X106204312Y-57417923D01*
X106204310Y-57417925D01*
X106162939Y-57474867D01*
X106116223Y-57539168D01*
X106106573Y-57552450D01*
X106093242Y-57570797D01*
X106093237Y-57570806D01*
X106007452Y-57739167D01*
X105949061Y-57918876D01*
X105949060Y-57918881D01*
X105949060Y-57918882D01*
X105926631Y-58060499D01*
X105919500Y-58105521D01*
X105919500Y-63294478D01*
X105949061Y-63481123D01*
X106007452Y-63660830D01*
X106093241Y-63829201D01*
X106195558Y-63970028D01*
X106204310Y-63982074D01*
X108427926Y-66205690D01*
X108447661Y-66220028D01*
X108510189Y-66265458D01*
X108598460Y-66353730D01*
X108655134Y-66464958D01*
X108674662Y-66588256D01*
X108655133Y-66711554D01*
X108598460Y-66822781D01*
X108476130Y-66991153D01*
X108361759Y-67215620D01*
X108283911Y-67455209D01*
X108283910Y-67455214D01*
X108283910Y-67455215D01*
X108244500Y-67704038D01*
X108244500Y-67955962D01*
X108275873Y-68154040D01*
X108283911Y-68204790D01*
X108349582Y-68406903D01*
X108361759Y-68444379D01*
X108476130Y-68668845D01*
X108624207Y-68872656D01*
X108802344Y-69050793D01*
X109006155Y-69198870D01*
X109230621Y-69313241D01*
X109470215Y-69391090D01*
X109719038Y-69430500D01*
X109719041Y-69430500D01*
X110770959Y-69430500D01*
X110770962Y-69430500D01*
X111019785Y-69391090D01*
X111259379Y-69313241D01*
X111483845Y-69198870D01*
X111610704Y-69106702D01*
X111645872Y-69088783D01*
X111721932Y-69050028D01*
X111845230Y-69030500D01*
X112087464Y-69030500D01*
X112210762Y-69050028D01*
X112321990Y-69106702D01*
X112369600Y-69147364D01*
X115137926Y-71915690D01*
X115254657Y-72000500D01*
X115254658Y-72000500D01*
X115254658Y-72000501D01*
X115290798Y-72026758D01*
X115290801Y-72026760D01*
X115459168Y-72112547D01*
X115638882Y-72170940D01*
X115825519Y-72200500D01*
X122857465Y-72200500D01*
X122888479Y-72205412D01*
X122919882Y-72205412D01*
X122949746Y-72215115D01*
X122980763Y-72220028D01*
X123008742Y-72234284D01*
X123038607Y-72243988D01*
X123064011Y-72262445D01*
X123091991Y-72276702D01*
X123139600Y-72317364D01*
X123404310Y-72582073D01*
X123537927Y-72715690D01*
X123690801Y-72826760D01*
X123859168Y-72912547D01*
X124038882Y-72970940D01*
X124225519Y-73000500D01*
X124225522Y-73000500D01*
X130214478Y-73000500D01*
X130214481Y-73000500D01*
X130401118Y-72970940D01*
X130580832Y-72912547D01*
X130749199Y-72826760D01*
X130902074Y-72715690D01*
X131500398Y-72117364D01*
X131601391Y-72043989D01*
X131720116Y-72005412D01*
X131782534Y-72000500D01*
X148214478Y-72000500D01*
X148214481Y-72000500D01*
X148401118Y-71970940D01*
X148580832Y-71912547D01*
X148749199Y-71826760D01*
X148902074Y-71715690D01*
X150235690Y-70382074D01*
X150346760Y-70229199D01*
X150432547Y-70060832D01*
X150490940Y-69881118D01*
X150520500Y-69694482D01*
X150520500Y-69505519D01*
X150520500Y-62505519D01*
X150498326Y-62365519D01*
X150490940Y-62318882D01*
X150432547Y-62139168D01*
X150346760Y-61970801D01*
X150336304Y-61956410D01*
X150235693Y-61817930D01*
X150235692Y-61817929D01*
X150235690Y-61817926D01*
X148162074Y-59744310D01*
X148162070Y-59744307D01*
X148162069Y-59744306D01*
X148009201Y-59633241D01*
X147840830Y-59547452D01*
X147661122Y-59489060D01*
X147623717Y-59483136D01*
X147504993Y-59444558D01*
X147448775Y-59409765D01*
X147411918Y-59382487D01*
X147396410Y-59363590D01*
X147236450Y-59232315D01*
X147137680Y-59179521D01*
X147114181Y-59162129D01*
X147090672Y-59138202D01*
X147063923Y-59117953D01*
X147047192Y-59093947D01*
X147026692Y-59073082D01*
X147011728Y-59043062D01*
X146992545Y-59015538D01*
X146984052Y-58987540D01*
X146971001Y-58961358D01*
X146966046Y-58928181D01*
X146956308Y-58896078D01*
X146956882Y-58866823D01*
X146952562Y-58837893D01*
X146958100Y-58804811D01*
X146958760Y-58771267D01*
X146968346Y-58743624D01*
X146973177Y-58714772D01*
X146988669Y-58685017D01*
X146999661Y-58653323D01*
X147017318Y-58629996D01*
X147030830Y-58604048D01*
X147054756Y-58580539D01*
X147075006Y-58553790D01*
X147112395Y-58523909D01*
X147119877Y-58516559D01*
X147124438Y-58514285D01*
X147131983Y-58508256D01*
X147142642Y-58501230D01*
X147142653Y-58501225D01*
X147298857Y-58373857D01*
X147426225Y-58217653D01*
X147519541Y-58039007D01*
X147574987Y-57845234D01*
X147585500Y-57726987D01*
X147585499Y-56723014D01*
X147574987Y-56604766D01*
X147519541Y-56410993D01*
X147426225Y-56232347D01*
X147426224Y-56232345D01*
X147298861Y-56076147D01*
X147298852Y-56076138D01*
X147142654Y-55948775D01*
X146964004Y-55855457D01*
X146964000Y-55855456D01*
X146770239Y-55800014D01*
X146770235Y-55800013D01*
X146770234Y-55800013D01*
X146770232Y-55800012D01*
X146770222Y-55800011D01*
X146651994Y-55789500D01*
X144378017Y-55789500D01*
X144259764Y-55800013D01*
X144065999Y-55855456D01*
X144065995Y-55855457D01*
X143877040Y-55954159D01*
X143758712Y-55993935D01*
X143692306Y-55999500D01*
X143614482Y-55999500D01*
X143425519Y-55999500D01*
X143238882Y-56029060D01*
X143238876Y-56029061D01*
X143059169Y-56087452D01*
X142890801Y-56173239D01*
X142737928Y-56284308D01*
X142401636Y-56620601D01*
X142300642Y-56693977D01*
X142181917Y-56732553D01*
X142057083Y-56732553D01*
X141938358Y-56693977D01*
X141837364Y-56620601D01*
X141763988Y-56519607D01*
X141725412Y-56400882D01*
X141720500Y-56338465D01*
X141720500Y-52025521D01*
X141720500Y-52025519D01*
X141690940Y-51838882D01*
X141632547Y-51659168D01*
X141546760Y-51490801D01*
X141502919Y-51430459D01*
X141435690Y-51337926D01*
X140827383Y-50729619D01*
X140754010Y-50628629D01*
X140715434Y-50509904D01*
X140715434Y-50385070D01*
X140754010Y-50266345D01*
X140827383Y-50165354D01*
X141582655Y-49410083D01*
X141635313Y-49337606D01*
X141726098Y-49212650D01*
X141726105Y-49212640D01*
X141732486Y-49200118D01*
X141836904Y-48995186D01*
X141912321Y-48763076D01*
X141950500Y-48522027D01*
X141950500Y-48277973D01*
X141950500Y-47386935D01*
X141970028Y-47263637D01*
X142026702Y-47152409D01*
X142033644Y-47143140D01*
X142061337Y-47107260D01*
X142196410Y-46996410D01*
X142327685Y-46836450D01*
X142425232Y-46653954D01*
X142485300Y-46455934D01*
X142500500Y-46301608D01*
X142500500Y-45089864D01*
X144820000Y-45089864D01*
X144820000Y-45365135D01*
X144855930Y-45638064D01*
X144855931Y-45638071D01*
X144927180Y-45903971D01*
X145032527Y-46158300D01*
X145032529Y-46158305D01*
X145170167Y-46396701D01*
X145170168Y-46396703D01*
X145176655Y-46405157D01*
X146273366Y-45308445D01*
X146294979Y-45417098D01*
X146343978Y-45535390D01*
X146415112Y-45641851D01*
X146505649Y-45732388D01*
X146612110Y-45803522D01*
X146730402Y-45852521D01*
X146839051Y-45874132D01*
X145742341Y-46970843D01*
X145750793Y-46977328D01*
X145750802Y-46977334D01*
X145989199Y-47114972D01*
X146243528Y-47220319D01*
X146509428Y-47291568D01*
X146509435Y-47291569D01*
X146782364Y-47327500D01*
X147057636Y-47327500D01*
X147330564Y-47291569D01*
X147330571Y-47291568D01*
X147596471Y-47220319D01*
X147850800Y-47114972D01*
X148089202Y-46977331D01*
X148089203Y-46977331D01*
X148097657Y-46970843D01*
X147000946Y-45874132D01*
X147109598Y-45852521D01*
X147227890Y-45803522D01*
X147334351Y-45732388D01*
X147424888Y-45641851D01*
X147496022Y-45535390D01*
X147545021Y-45417098D01*
X147566632Y-45308446D01*
X148663343Y-46405157D01*
X148669831Y-46396703D01*
X148669831Y-46396702D01*
X148807472Y-46158300D01*
X148912819Y-45903971D01*
X148984068Y-45638071D01*
X148984069Y-45638064D01*
X149020000Y-45365135D01*
X149020000Y-45089864D01*
X148984069Y-44816935D01*
X148984068Y-44816928D01*
X148912819Y-44551028D01*
X148807472Y-44296699D01*
X148669834Y-44058302D01*
X148669828Y-44058293D01*
X148663343Y-44049841D01*
X147566632Y-45146551D01*
X147545021Y-45037902D01*
X147496022Y-44919610D01*
X147424888Y-44813149D01*
X147334351Y-44722612D01*
X147227890Y-44651478D01*
X147109598Y-44602479D01*
X147000945Y-44580866D01*
X148097657Y-43484155D01*
X148089203Y-43477668D01*
X148089201Y-43477667D01*
X147850805Y-43340029D01*
X147850800Y-43340027D01*
X147596471Y-43234680D01*
X147330571Y-43163431D01*
X147330564Y-43163430D01*
X147057636Y-43127500D01*
X146782364Y-43127500D01*
X146509435Y-43163430D01*
X146509428Y-43163431D01*
X146243528Y-43234680D01*
X145989199Y-43340027D01*
X145989194Y-43340029D01*
X145750801Y-43477665D01*
X145750794Y-43477670D01*
X145742341Y-43484155D01*
X146839053Y-44580867D01*
X146730402Y-44602479D01*
X146612110Y-44651478D01*
X146505649Y-44722612D01*
X146415112Y-44813149D01*
X146343978Y-44919610D01*
X146294979Y-45037902D01*
X146273367Y-45146553D01*
X145176655Y-44049841D01*
X145170170Y-44058294D01*
X145170165Y-44058301D01*
X145032529Y-44296694D01*
X145032527Y-44296699D01*
X144927180Y-44551028D01*
X144855931Y-44816928D01*
X144855930Y-44816935D01*
X144820000Y-45089864D01*
X142500500Y-45089864D01*
X142500500Y-44098392D01*
X142485300Y-43944066D01*
X142425232Y-43746046D01*
X142327685Y-43563550D01*
X142196410Y-43403590D01*
X142036450Y-43272315D01*
X142036446Y-43272313D01*
X142036445Y-43272312D01*
X141914592Y-43207180D01*
X141853954Y-43174768D01*
X141655934Y-43114700D01*
X141501608Y-43099500D01*
X139298392Y-43099500D01*
X139144065Y-43114700D01*
X139074079Y-43135930D01*
X138946046Y-43174768D01*
X138946044Y-43174768D01*
X138946044Y-43174769D01*
X138763554Y-43272312D01*
X138763546Y-43272318D01*
X138603593Y-43403587D01*
X138603587Y-43403593D01*
X138472318Y-43563546D01*
X138472312Y-43563554D01*
X138376949Y-43741966D01*
X138374768Y-43746046D01*
X138344358Y-43846297D01*
X138314700Y-43944065D01*
X138311991Y-43971566D01*
X138299500Y-44098392D01*
X138299500Y-46301608D01*
X138314700Y-46455934D01*
X138374768Y-46653954D01*
X138472315Y-46836450D01*
X138603590Y-46996410D01*
X138703624Y-47078505D01*
X138737374Y-47116485D01*
X138773298Y-47152409D01*
X138778674Y-47162961D01*
X138786544Y-47171817D01*
X138806906Y-47218368D01*
X138829972Y-47263637D01*
X138831824Y-47275336D01*
X138836572Y-47286189D01*
X138849500Y-47386935D01*
X138849500Y-47592490D01*
X138829972Y-47715788D01*
X138773298Y-47827016D01*
X138732636Y-47874626D01*
X138074626Y-48532636D01*
X137973632Y-48606012D01*
X137854907Y-48644588D01*
X137792490Y-48649500D01*
X131607510Y-48649500D01*
X131484212Y-48629972D01*
X131372984Y-48573298D01*
X131325374Y-48532636D01*
X130667364Y-47874626D01*
X130648904Y-47849218D01*
X130626702Y-47827016D01*
X130612446Y-47799037D01*
X130593988Y-47773632D01*
X130584284Y-47743767D01*
X130570028Y-47715788D01*
X130565115Y-47684771D01*
X130555412Y-47654907D01*
X130550500Y-47592490D01*
X130550500Y-47386935D01*
X130570028Y-47263637D01*
X130626702Y-47152409D01*
X130696375Y-47078505D01*
X130796410Y-46996410D01*
X130927685Y-46836450D01*
X131025232Y-46653954D01*
X131085300Y-46455934D01*
X131100500Y-46301608D01*
X131100500Y-44098392D01*
X131085300Y-43944066D01*
X131025232Y-43746046D01*
X130927685Y-43563550D01*
X130796410Y-43403590D01*
X130636450Y-43272315D01*
X130636446Y-43272313D01*
X130636445Y-43272312D01*
X130514592Y-43207180D01*
X130453954Y-43174768D01*
X130255934Y-43114700D01*
X130101608Y-43099500D01*
X127898392Y-43099500D01*
X127744065Y-43114700D01*
X127674079Y-43135930D01*
X127546046Y-43174768D01*
X127546044Y-43174768D01*
X127546044Y-43174769D01*
X127363554Y-43272312D01*
X127363546Y-43272318D01*
X127203593Y-43403587D01*
X127203587Y-43403593D01*
X127072318Y-43563546D01*
X127072312Y-43563554D01*
X126976949Y-43741966D01*
X126974768Y-43746046D01*
X126944358Y-43846297D01*
X126914700Y-43944065D01*
X126911991Y-43971566D01*
X126899500Y-44098392D01*
X126899500Y-46301608D01*
X126914700Y-46455934D01*
X126974768Y-46653954D01*
X127072315Y-46836450D01*
X127203590Y-46996410D01*
X127303624Y-47078505D01*
X127386544Y-47171817D01*
X127436572Y-47286189D01*
X127449500Y-47386935D01*
X127449500Y-48522033D01*
X127487678Y-48763075D01*
X127563096Y-48995185D01*
X127673896Y-49212643D01*
X127817335Y-49410071D01*
X127817339Y-49410076D01*
X127817342Y-49410079D01*
X127817345Y-49410083D01*
X129789917Y-51382655D01*
X129789920Y-51382657D01*
X129789923Y-51382660D01*
X129789928Y-51382664D01*
X129987349Y-51526098D01*
X129987359Y-51526105D01*
X130204807Y-51636901D01*
X130204810Y-51636901D01*
X130204814Y-51636904D01*
X130436924Y-51712321D01*
X130608242Y-51739455D01*
X130677966Y-51750499D01*
X130677972Y-51750500D01*
X130677973Y-51750500D01*
X130922027Y-51750500D01*
X138287464Y-51750500D01*
X138410762Y-51770028D01*
X138521990Y-51826702D01*
X138569600Y-51867364D01*
X139202636Y-52500400D01*
X139276012Y-52601394D01*
X139314588Y-52720119D01*
X139319500Y-52782536D01*
X139319500Y-59200500D01*
X139299972Y-59323798D01*
X139243298Y-59435026D01*
X139155026Y-59523298D01*
X139043798Y-59579972D01*
X138920500Y-59599500D01*
X137094481Y-59599500D01*
X136905518Y-59599500D01*
X136718882Y-59629060D01*
X136718876Y-59629061D01*
X136539169Y-59687452D01*
X136370798Y-59773241D01*
X136217930Y-59884306D01*
X135484306Y-60617930D01*
X135420669Y-60705519D01*
X135393608Y-60742765D01*
X135373238Y-60770803D01*
X135287452Y-60939169D01*
X135229061Y-61118876D01*
X135229060Y-61118881D01*
X135229060Y-61118882D01*
X135199500Y-61305519D01*
X135199500Y-63094481D01*
X135229060Y-63281118D01*
X135229061Y-63281123D01*
X135258193Y-63370782D01*
X135258195Y-63370788D01*
X135287453Y-63460832D01*
X135373240Y-63629199D01*
X135373418Y-63629444D01*
X135378021Y-63639777D01*
X135386497Y-63671388D01*
X135410573Y-63745497D01*
X135410567Y-63870332D01*
X135371985Y-63989055D01*
X135298604Y-64090044D01*
X135197607Y-64163416D01*
X135078880Y-64201986D01*
X134954045Y-64201980D01*
X134835322Y-64163398D01*
X134734346Y-64090031D01*
X134364999Y-63720684D01*
X133309976Y-64775706D01*
X133309918Y-64775747D01*
X133309877Y-64775805D01*
X133259804Y-64812158D01*
X133208983Y-64849082D01*
X133208914Y-64849104D01*
X133208857Y-64849146D01*
X133149620Y-64868369D01*
X133132611Y-64873895D01*
X133145000Y-64827661D01*
X133145000Y-64722339D01*
X133117741Y-64620606D01*
X133065080Y-64529394D01*
X132990606Y-64454920D01*
X132899394Y-64402259D01*
X132797661Y-64375000D01*
X132692339Y-64375000D01*
X132590606Y-64402259D01*
X132499394Y-64454920D01*
X132424920Y-64529394D01*
X132372259Y-64620606D01*
X132345000Y-64722339D01*
X132345000Y-64827661D01*
X132357386Y-64873889D01*
X132281142Y-64849146D01*
X132180122Y-64775805D01*
X132180022Y-64775706D01*
X130992075Y-63587759D01*
X130985249Y-63592720D01*
X130985247Y-63592723D01*
X130812726Y-63765243D01*
X130669319Y-63962626D01*
X130558559Y-64180005D01*
X130483167Y-64412034D01*
X130445000Y-64653014D01*
X130445000Y-64896985D01*
X130483168Y-65137970D01*
X130486827Y-65153210D01*
X130485506Y-65153527D01*
X130502448Y-65260507D01*
X130482917Y-65383804D01*
X130426242Y-65495032D01*
X130337969Y-65583302D01*
X130226739Y-65639974D01*
X130103448Y-65659500D01*
X128779242Y-65659500D01*
X128655944Y-65639972D01*
X128544716Y-65583298D01*
X128456444Y-65495026D01*
X128399770Y-65383798D01*
X128380242Y-65260500D01*
X128399770Y-65137202D01*
X128423730Y-65079358D01*
X128481904Y-64965185D01*
X128557321Y-64733076D01*
X128595500Y-64492027D01*
X128595500Y-64467534D01*
X128615028Y-64344236D01*
X128671702Y-64233008D01*
X128712358Y-64185404D01*
X129657405Y-63240357D01*
X131776042Y-63240357D01*
X132744999Y-64209314D01*
X133713955Y-63240358D01*
X133616986Y-63225000D01*
X131873012Y-63225000D01*
X131776042Y-63240357D01*
X129657405Y-63240357D01*
X131320399Y-61577362D01*
X131421393Y-61503987D01*
X131540118Y-61465411D01*
X131602535Y-61460499D01*
X132251983Y-61460499D01*
X132251986Y-61460499D01*
X132370234Y-61449987D01*
X132564007Y-61394541D01*
X132742653Y-61301225D01*
X132898857Y-61173857D01*
X133026225Y-61017653D01*
X133119541Y-60839007D01*
X133174987Y-60645234D01*
X133185500Y-60526987D01*
X133185499Y-59748994D01*
X133205027Y-59625698D01*
X133261701Y-59514469D01*
X133349970Y-59426199D01*
X133502074Y-59315690D01*
X134136152Y-58681610D01*
X134237141Y-58608238D01*
X134355866Y-58569661D01*
X134480700Y-58569661D01*
X134528048Y-58580144D01*
X134562769Y-58590078D01*
X134684766Y-58624987D01*
X134803013Y-58635500D01*
X137076986Y-58635499D01*
X137195234Y-58624987D01*
X137389007Y-58569541D01*
X137567653Y-58476225D01*
X137723857Y-58348857D01*
X137851225Y-58192653D01*
X137944541Y-58014007D01*
X137999987Y-57820234D01*
X138010500Y-57701987D01*
X138010499Y-56698014D01*
X137999987Y-56579766D01*
X137951695Y-56410995D01*
X137944543Y-56385999D01*
X137944542Y-56385995D01*
X137851224Y-56207345D01*
X137723861Y-56051147D01*
X137723852Y-56051138D01*
X137567654Y-55923775D01*
X137389004Y-55830457D01*
X137389000Y-55830456D01*
X137195239Y-55775014D01*
X137195235Y-55775013D01*
X137195234Y-55775013D01*
X137195232Y-55775012D01*
X137195222Y-55775011D01*
X137076994Y-55764500D01*
X134803017Y-55764500D01*
X134684764Y-55775013D01*
X134490999Y-55830456D01*
X134490995Y-55830457D01*
X134312343Y-55923777D01*
X134297355Y-55933655D01*
X134183658Y-55985199D01*
X134077790Y-55999500D01*
X134014481Y-55999500D01*
X133825518Y-55999500D01*
X133638882Y-56029060D01*
X133638876Y-56029061D01*
X133459169Y-56087452D01*
X133290798Y-56173241D01*
X133137930Y-56284306D01*
X133137921Y-56284314D01*
X132339599Y-57082636D01*
X132314194Y-57101093D01*
X132291990Y-57123298D01*
X132264010Y-57137554D01*
X132238606Y-57156012D01*
X132208741Y-57165715D01*
X132180762Y-57179972D01*
X132149745Y-57184884D01*
X132119881Y-57194588D01*
X132057464Y-57199500D01*
X131659996Y-57199500D01*
X131536698Y-57179972D01*
X131425470Y-57123298D01*
X131337198Y-57035026D01*
X131280524Y-56923798D01*
X131260996Y-56800500D01*
X131264409Y-56748421D01*
X131275000Y-56667972D01*
X131275000Y-54932022D01*
X131244200Y-54698081D01*
X131222730Y-54617952D01*
X130039977Y-55800705D01*
X129938983Y-55874081D01*
X129862611Y-55898895D01*
X129875000Y-55852661D01*
X129875000Y-55747339D01*
X129847741Y-55645606D01*
X129795080Y-55554394D01*
X129720606Y-55479920D01*
X129629394Y-55427259D01*
X129527661Y-55400000D01*
X129422339Y-55400000D01*
X129376101Y-55412389D01*
X129400917Y-55336015D01*
X129474293Y-55235021D01*
X130838799Y-53870514D01*
X130831221Y-53860639D01*
X130831215Y-53860632D01*
X130664363Y-53693780D01*
X130477172Y-53550144D01*
X130272830Y-53432166D01*
X130272824Y-53432163D01*
X130054827Y-53341867D01*
X129826918Y-53280799D01*
X129592978Y-53250000D01*
X129357022Y-53250000D01*
X129123081Y-53280799D01*
X128895166Y-53341868D01*
X128751872Y-53401222D01*
X128716824Y-53409635D01*
X128683200Y-53422648D01*
X128656490Y-53424120D01*
X128630487Y-53430363D01*
X128594551Y-53427534D01*
X128558554Y-53429519D01*
X128532700Y-53422666D01*
X128506037Y-53420568D01*
X128472729Y-53406771D01*
X128437886Y-53397536D01*
X128415417Y-53383031D01*
X128390705Y-53372795D01*
X128363292Y-53349382D01*
X128333007Y-53329831D01*
X128318828Y-53311404D01*
X128295781Y-53291720D01*
X128254183Y-53233029D01*
X128239811Y-53208291D01*
X128237895Y-53202394D01*
X128137815Y-53005978D01*
X128072217Y-52915690D01*
X128008242Y-52827635D01*
X127852365Y-52671758D01*
X127852361Y-52671755D01*
X126868244Y-51687638D01*
X126868242Y-51687635D01*
X126712365Y-51531758D01*
X126666968Y-51498775D01*
X126534025Y-51402186D01*
X126534020Y-51402184D01*
X126495702Y-51382660D01*
X126337606Y-51302105D01*
X126337602Y-51302103D01*
X126337596Y-51302101D01*
X126127954Y-51233985D01*
X126127947Y-51233984D01*
X125910224Y-51199499D01*
X125910222Y-51199499D01*
X125689778Y-51199499D01*
X125673307Y-51199499D01*
X125673283Y-51199500D01*
X121945378Y-51199500D01*
X121822080Y-51179972D01*
X121710852Y-51123298D01*
X121663242Y-51082636D01*
X118957364Y-48376758D01*
X118938904Y-48351350D01*
X118916702Y-48329148D01*
X118902446Y-48301169D01*
X118883988Y-48275764D01*
X118874284Y-48245899D01*
X118860028Y-48217920D01*
X118855115Y-48186903D01*
X118845412Y-48157039D01*
X118840500Y-48094622D01*
X118840500Y-47492954D01*
X118860028Y-47369656D01*
X118916702Y-47258428D01*
X119004974Y-47170156D01*
X119051414Y-47141067D01*
X119076450Y-47127685D01*
X119236410Y-46996410D01*
X119367685Y-46836450D01*
X119465232Y-46653954D01*
X119525300Y-46455934D01*
X119540500Y-46301608D01*
X119540500Y-45062364D01*
X121820000Y-45062364D01*
X121820000Y-45337635D01*
X121855930Y-45610564D01*
X121855931Y-45610571D01*
X121927180Y-45876471D01*
X122032527Y-46130800D01*
X122032529Y-46130805D01*
X122170167Y-46369201D01*
X122170168Y-46369203D01*
X122176655Y-46377657D01*
X123273366Y-45280945D01*
X123294979Y-45389598D01*
X123343978Y-45507890D01*
X123415112Y-45614351D01*
X123505649Y-45704888D01*
X123612110Y-45776022D01*
X123730402Y-45825021D01*
X123839051Y-45846632D01*
X122742341Y-46943343D01*
X122750793Y-46949828D01*
X122750802Y-46949834D01*
X122989199Y-47087472D01*
X123243528Y-47192819D01*
X123509428Y-47264068D01*
X123509435Y-47264069D01*
X123782364Y-47300000D01*
X124057636Y-47300000D01*
X124330564Y-47264069D01*
X124330571Y-47264068D01*
X124596471Y-47192819D01*
X124850800Y-47087472D01*
X125089202Y-46949831D01*
X125089203Y-46949831D01*
X125097657Y-46943343D01*
X124000946Y-45846632D01*
X124109598Y-45825021D01*
X124227890Y-45776022D01*
X124334351Y-45704888D01*
X124424888Y-45614351D01*
X124496022Y-45507890D01*
X124545021Y-45389598D01*
X124566632Y-45280946D01*
X125663343Y-46377657D01*
X125669831Y-46369203D01*
X125669831Y-46369202D01*
X125807472Y-46130800D01*
X125912819Y-45876471D01*
X125984068Y-45610571D01*
X125984069Y-45610564D01*
X126020000Y-45337635D01*
X126020000Y-45062364D01*
X125984069Y-44789435D01*
X125984068Y-44789428D01*
X125912819Y-44523528D01*
X125807472Y-44269199D01*
X125669834Y-44030802D01*
X125669828Y-44030793D01*
X125663343Y-44022341D01*
X124566632Y-45119051D01*
X124545021Y-45010402D01*
X124496022Y-44892110D01*
X124424888Y-44785649D01*
X124334351Y-44695112D01*
X124227890Y-44623978D01*
X124109598Y-44574979D01*
X124000945Y-44553366D01*
X125097657Y-43456655D01*
X125089203Y-43450168D01*
X125089201Y-43450167D01*
X124850805Y-43312529D01*
X124850800Y-43312527D01*
X124596471Y-43207180D01*
X124330571Y-43135931D01*
X124330564Y-43135930D01*
X124057636Y-43100000D01*
X123782364Y-43100000D01*
X123509435Y-43135930D01*
X123509428Y-43135931D01*
X123243528Y-43207180D01*
X122989199Y-43312527D01*
X122989194Y-43312529D01*
X122750801Y-43450165D01*
X122750794Y-43450170D01*
X122742341Y-43456655D01*
X123839053Y-44553367D01*
X123730402Y-44574979D01*
X123612110Y-44623978D01*
X123505649Y-44695112D01*
X123415112Y-44785649D01*
X123343978Y-44892110D01*
X123294979Y-45010402D01*
X123273367Y-45119053D01*
X122176655Y-44022341D01*
X122170170Y-44030794D01*
X122170165Y-44030801D01*
X122032529Y-44269194D01*
X122032527Y-44269199D01*
X121927180Y-44523528D01*
X121855931Y-44789428D01*
X121855930Y-44789435D01*
X121820000Y-45062364D01*
X119540500Y-45062364D01*
X119540500Y-44098392D01*
X119525300Y-43944066D01*
X119465232Y-43746046D01*
X119457403Y-43731400D01*
X119367687Y-43563554D01*
X119367685Y-43563550D01*
X119236410Y-43403590D01*
X119076450Y-43272315D01*
X119076446Y-43272313D01*
X119076445Y-43272312D01*
X118954592Y-43207180D01*
X118893954Y-43174768D01*
X118695934Y-43114700D01*
X118541608Y-43099500D01*
X116338392Y-43099500D01*
X116184065Y-43114700D01*
X116114079Y-43135930D01*
X115986046Y-43174768D01*
X115986044Y-43174768D01*
X115986044Y-43174769D01*
X115803554Y-43272312D01*
X115803546Y-43272318D01*
X115643593Y-43403587D01*
X115643587Y-43403593D01*
X115512318Y-43563546D01*
X115512312Y-43563554D01*
X115416949Y-43741966D01*
X115414768Y-43746046D01*
X115384358Y-43846297D01*
X115354700Y-43944065D01*
X115351991Y-43971566D01*
X115339500Y-44098392D01*
X115339500Y-46301608D01*
X115354700Y-46455934D01*
X115414768Y-46653954D01*
X115512315Y-46836450D01*
X115643590Y-46996410D01*
X115803550Y-47127685D01*
X115803554Y-47127687D01*
X115828586Y-47141067D01*
X115928120Y-47216411D01*
X115999499Y-47318826D01*
X116035737Y-47438285D01*
X116039500Y-47492954D01*
X116039500Y-48405827D01*
X116034587Y-48468249D01*
X116010981Y-48617281D01*
X115972404Y-48736005D01*
X115899027Y-48836998D01*
X115798032Y-48910373D01*
X115679307Y-48948947D01*
X115554472Y-48948946D01*
X115435748Y-48910369D01*
X115334761Y-48836997D01*
X113796295Y-47298531D01*
X113722919Y-47197537D01*
X113684343Y-47078812D01*
X113684343Y-46953978D01*
X113722919Y-46835253D01*
X113796289Y-46734266D01*
X113942628Y-46587928D01*
X114043910Y-46455934D01*
X114110243Y-46369487D01*
X114110243Y-46369486D01*
X114110249Y-46369479D01*
X114247923Y-46131021D01*
X114353295Y-45876632D01*
X114424560Y-45610666D01*
X114460500Y-45337674D01*
X114460500Y-45062326D01*
X114424560Y-44789334D01*
X114353295Y-44523368D01*
X114247923Y-44268979D01*
X114110249Y-44030521D01*
X113992951Y-43877654D01*
X113933386Y-43767946D01*
X113910637Y-43645202D01*
X113910500Y-43634759D01*
X113910500Y-42647510D01*
X113930028Y-42524212D01*
X113986702Y-42412984D01*
X114027364Y-42365374D01*
X115125374Y-41267364D01*
X115226368Y-41193988D01*
X115345093Y-41155412D01*
X115407510Y-41150500D01*
X132277973Y-41150500D01*
X132392490Y-41150500D01*
X132515788Y-41170028D01*
X132627016Y-41226702D01*
X132674626Y-41267364D01*
X133652636Y-42245374D01*
X133726012Y-42346368D01*
X133764588Y-42465093D01*
X133769500Y-42527510D01*
X133769500Y-43634759D01*
X133749972Y-43758057D01*
X133693298Y-43869285D01*
X133687049Y-43877654D01*
X133569751Y-44030520D01*
X133432078Y-44268976D01*
X133432077Y-44268979D01*
X133326705Y-44523368D01*
X133255439Y-44789337D01*
X133251807Y-44816928D01*
X133219500Y-45062326D01*
X133219500Y-45337674D01*
X133239524Y-45489774D01*
X133255426Y-45610564D01*
X133255440Y-45610666D01*
X133326705Y-45876632D01*
X133431986Y-46130800D01*
X133432077Y-46131020D01*
X133432078Y-46131023D01*
X133447829Y-46158305D01*
X133569590Y-46369201D01*
X133569752Y-46369480D01*
X133569756Y-46369487D01*
X133737361Y-46587915D01*
X133737368Y-46587923D01*
X133737372Y-46587928D01*
X133932072Y-46782628D01*
X133932075Y-46782630D01*
X133932084Y-46782638D01*
X134150512Y-46950243D01*
X134150516Y-46950245D01*
X134150521Y-46950249D01*
X134388979Y-47087923D01*
X134643368Y-47193295D01*
X134909334Y-47264560D01*
X135182326Y-47300500D01*
X135182332Y-47300500D01*
X135457668Y-47300500D01*
X135457674Y-47300500D01*
X135730666Y-47264560D01*
X135996632Y-47193295D01*
X136251021Y-47087923D01*
X136489479Y-46950249D01*
X136558603Y-46897209D01*
X136707915Y-46782638D01*
X136707915Y-46782637D01*
X136707928Y-46782628D01*
X136902628Y-46587928D01*
X137003910Y-46455934D01*
X137070243Y-46369487D01*
X137070243Y-46369486D01*
X137070249Y-46369479D01*
X137207923Y-46131021D01*
X137313295Y-45876632D01*
X137384560Y-45610666D01*
X137420500Y-45337674D01*
X137420500Y-45062326D01*
X137384560Y-44789334D01*
X137313295Y-44523368D01*
X137207923Y-44268979D01*
X137070249Y-44030521D01*
X136952951Y-43877654D01*
X136893386Y-43767946D01*
X136870637Y-43645202D01*
X136870500Y-43634759D01*
X136870500Y-41597972D01*
X136869270Y-41582344D01*
X136872713Y-41582072D01*
X136872699Y-41487144D01*
X136911256Y-41368413D01*
X136984616Y-41267408D01*
X137085598Y-41194017D01*
X137204317Y-41155422D01*
X137266796Y-41150500D01*
X149792490Y-41150500D01*
X149823504Y-41155412D01*
X149854907Y-41155412D01*
X149884771Y-41165115D01*
X149915788Y-41170028D01*
X149943767Y-41184284D01*
X149973632Y-41193988D01*
X149999037Y-41212446D01*
X150027016Y-41226702D01*
X150074626Y-41267364D01*
X150332636Y-41525374D01*
X150406012Y-41626368D01*
X150444588Y-41745093D01*
X150449500Y-41807510D01*
X150449500Y-43040564D01*
X150429972Y-43163862D01*
X150373298Y-43275090D01*
X150303623Y-43348995D01*
X150203595Y-43431085D01*
X150203587Y-43431093D01*
X150072318Y-43591046D01*
X150072312Y-43591054D01*
X149991648Y-43741966D01*
X149974768Y-43773546D01*
X149914700Y-43971566D01*
X149899500Y-44125892D01*
X149899500Y-46329108D01*
X149914700Y-46483434D01*
X149974768Y-46681454D01*
X149974769Y-46681455D01*
X150041691Y-46806658D01*
X150072315Y-46863950D01*
X150203590Y-47023910D01*
X150363550Y-47155185D01*
X150546046Y-47252732D01*
X150564823Y-47258428D01*
X150578386Y-47262542D01*
X150690707Y-47317019D01*
X150780695Y-47403540D01*
X150839543Y-47513633D01*
X150842038Y-47521062D01*
X150887452Y-47660831D01*
X150973241Y-47829201D01*
X151076120Y-47970802D01*
X151084310Y-47982074D01*
X152082638Y-48980402D01*
X152156012Y-49081393D01*
X152194588Y-49200118D01*
X152199500Y-49262535D01*
X152199500Y-59001847D01*
X152179972Y-59125145D01*
X152123298Y-59236373D01*
X152035027Y-59324643D01*
X151981422Y-59363590D01*
X151877346Y-59439205D01*
X151699205Y-59617346D01*
X151551130Y-59821154D01*
X151436759Y-60045620D01*
X151358911Y-60285209D01*
X151358910Y-60285214D01*
X151358910Y-60285215D01*
X151319500Y-60534038D01*
X151319500Y-60785962D01*
X151327902Y-60839007D01*
X151358911Y-61034790D01*
X151436759Y-61274379D01*
X151551130Y-61498846D01*
X151693989Y-61695474D01*
X151719319Y-61745187D01*
X151746298Y-61794002D01*
X151747583Y-61800657D01*
X151750663Y-61806702D01*
X151759391Y-61861813D01*
X151769965Y-61916573D01*
X151769130Y-61923302D01*
X151770191Y-61930000D01*
X151761464Y-61985101D01*
X151754597Y-62040458D01*
X151751723Y-62046599D01*
X151750663Y-62053298D01*
X151725333Y-62103009D01*
X151701698Y-62153531D01*
X151697067Y-62158484D01*
X151693989Y-62164526D01*
X151551130Y-62361153D01*
X151436759Y-62585620D01*
X151358911Y-62825209D01*
X151358910Y-62825214D01*
X151358910Y-62825215D01*
X151319500Y-63074038D01*
X151319500Y-63325962D01*
X151358910Y-63574785D01*
X151358911Y-63574790D01*
X151436759Y-63814379D01*
X151551130Y-64038846D01*
X151693989Y-64235474D01*
X151750663Y-64346702D01*
X151770191Y-64470000D01*
X151750663Y-64593298D01*
X151693989Y-64704526D01*
X151551130Y-64901153D01*
X151436759Y-65125620D01*
X151358911Y-65365209D01*
X151358910Y-65365214D01*
X151358910Y-65365215D01*
X151319500Y-65614038D01*
X151319500Y-65865962D01*
X151355356Y-66092345D01*
X151358911Y-66114790D01*
X151436759Y-66354379D01*
X151551130Y-66578846D01*
X151693989Y-66775474D01*
X151750663Y-66886702D01*
X151770191Y-67010000D01*
X151750663Y-67133298D01*
X151693989Y-67244526D01*
X151551130Y-67441153D01*
X151436759Y-67665620D01*
X151358911Y-67905209D01*
X151358910Y-67905214D01*
X151358910Y-67905215D01*
X151319500Y-68154038D01*
X151319500Y-68405962D01*
X151355211Y-68631430D01*
X151358911Y-68654790D01*
X151404859Y-68796202D01*
X151436759Y-68894379D01*
X151551130Y-69118845D01*
X151699207Y-69322656D01*
X151877344Y-69500793D01*
X152081155Y-69648870D01*
X152305621Y-69763241D01*
X152545215Y-69841090D01*
X152794038Y-69880500D01*
X152794041Y-69880500D01*
X153845959Y-69880500D01*
X153845962Y-69880500D01*
X154094785Y-69841090D01*
X154334379Y-69763241D01*
X154558845Y-69648870D01*
X154762656Y-69500793D01*
X154940793Y-69322656D01*
X155088870Y-69118845D01*
X155203241Y-68894379D01*
X155281090Y-68654785D01*
X155320500Y-68405962D01*
X155320500Y-68154038D01*
X155281090Y-67905215D01*
X155203241Y-67665621D01*
X155096031Y-67455209D01*
X155088869Y-67441152D01*
X154987107Y-67301090D01*
X154946009Y-67244523D01*
X154889337Y-67133299D01*
X154869808Y-67010001D01*
X154889336Y-66886703D01*
X154946010Y-66775475D01*
X155068150Y-66607364D01*
X155088869Y-66578847D01*
X155133884Y-66490500D01*
X155203241Y-66354379D01*
X155281090Y-66114785D01*
X155320500Y-65865962D01*
X155320500Y-65614038D01*
X155281090Y-65365215D01*
X155203241Y-65125621D01*
X155121495Y-64965185D01*
X155088869Y-64901152D01*
X154997725Y-64775705D01*
X154946009Y-64704523D01*
X154889337Y-64593299D01*
X154869808Y-64470001D01*
X154889336Y-64346703D01*
X154946010Y-64235475D01*
X155088870Y-64038846D01*
X155102322Y-64012444D01*
X155203241Y-63814379D01*
X155281090Y-63574785D01*
X155320500Y-63325962D01*
X155320500Y-63074038D01*
X155281090Y-62825215D01*
X155203241Y-62585621D01*
X155091094Y-62365519D01*
X155088869Y-62361152D01*
X155001187Y-62240470D01*
X154946009Y-62164523D01*
X154889337Y-62053299D01*
X154869808Y-61930001D01*
X154889336Y-61806703D01*
X154946010Y-61695475D01*
X155066811Y-61529207D01*
X155088869Y-61498847D01*
X155142015Y-61394541D01*
X155203241Y-61274379D01*
X155281090Y-61034785D01*
X155320500Y-60785962D01*
X155320500Y-60534038D01*
X155281090Y-60285215D01*
X155203241Y-60045621D01*
X155088870Y-59821155D01*
X154940793Y-59617344D01*
X154762656Y-59439207D01*
X154762651Y-59439203D01*
X154750736Y-59429027D01*
X154751828Y-59427747D01*
X154676696Y-59352611D01*
X154620025Y-59241382D01*
X154600500Y-59118093D01*
X154600500Y-48505521D01*
X154600500Y-48505519D01*
X154570940Y-48318882D01*
X154512547Y-48139168D01*
X154426760Y-47970801D01*
X154366337Y-47887636D01*
X154315690Y-47817926D01*
X153924548Y-47426784D01*
X153920923Y-47422962D01*
X153888543Y-47375822D01*
X153854907Y-47329526D01*
X153853259Y-47324455D01*
X153850243Y-47320064D01*
X153834015Y-47265228D01*
X153816331Y-47210801D01*
X153816331Y-47205469D01*
X153814819Y-47200360D01*
X153816331Y-47143183D01*
X153816331Y-47085967D01*
X153817978Y-47080897D01*
X153818119Y-47075569D01*
X153837227Y-47021653D01*
X153854907Y-46967242D01*
X153858410Y-46961885D01*
X153859821Y-46957906D01*
X153867876Y-46947414D01*
X153901986Y-46895263D01*
X153927685Y-46863950D01*
X154025232Y-46681454D01*
X154085300Y-46483434D01*
X154100500Y-46329108D01*
X154100500Y-44125892D01*
X154085300Y-43971566D01*
X154025232Y-43773546D01*
X153927685Y-43591050D01*
X153796410Y-43431090D01*
X153762901Y-43403590D01*
X153696377Y-43348995D01*
X153613455Y-43255680D01*
X153563428Y-43141308D01*
X153550500Y-43040564D01*
X153550500Y-40877972D01*
X153550499Y-40877966D01*
X153512321Y-40636924D01*
X153436904Y-40404815D01*
X153326106Y-40187361D01*
X153326104Y-40187358D01*
X153326103Y-40187356D01*
X153182664Y-39989928D01*
X153182654Y-39989916D01*
X153010083Y-39817344D01*
X153010083Y-39817345D01*
X151610083Y-38417345D01*
X151610079Y-38417342D01*
X151610076Y-38417339D01*
X151610071Y-38417335D01*
X151412643Y-38273896D01*
X151195185Y-38163096D01*
X150963075Y-38087678D01*
X150722033Y-38049500D01*
X150722027Y-38049500D01*
X133322027Y-38049500D01*
X132522027Y-38049500D01*
X114722027Y-38049500D01*
X114477973Y-38049500D01*
X114477966Y-38049500D01*
X114236924Y-38087678D01*
X114004814Y-38163096D01*
X113787356Y-38273896D01*
X113589928Y-38417335D01*
X113589923Y-38417339D01*
X111349917Y-40657345D01*
X111349916Y-40657344D01*
X111177345Y-40829916D01*
X111177335Y-40829928D01*
X111033896Y-41027356D01*
X110923096Y-41244814D01*
X110847678Y-41476924D01*
X110809500Y-41717966D01*
X110809500Y-43634759D01*
X110801878Y-43682881D01*
X110797619Y-43731400D01*
X110792520Y-43741966D01*
X110789972Y-43758057D01*
X110748809Y-43846297D01*
X110738678Y-43862498D01*
X110609751Y-44030521D01*
X110472077Y-44268979D01*
X110447669Y-44327903D01*
X110430062Y-44356063D01*
X110410626Y-44378407D01*
X110395154Y-44403656D01*
X110369918Y-44425209D01*
X110348135Y-44450253D01*
X110322744Y-44465498D01*
X110300229Y-44484729D01*
X110269568Y-44497428D01*
X110241112Y-44514516D01*
X110212254Y-44521168D01*
X110184897Y-44532501D01*
X110151807Y-44535105D01*
X110119468Y-44542561D01*
X110089971Y-44539971D01*
X110060447Y-44542295D01*
X110028170Y-44534546D01*
X109995112Y-44531644D01*
X109967860Y-44520067D01*
X109939061Y-44513153D01*
X109910760Y-44495810D01*
X109880215Y-44482834D01*
X109857870Y-44463398D01*
X109832622Y-44447926D01*
X109811068Y-44422690D01*
X109786025Y-44400907D01*
X109770779Y-44375516D01*
X109751549Y-44353001D01*
X109738849Y-44322340D01*
X109721762Y-44293884D01*
X109715109Y-44265026D01*
X109703777Y-44237669D01*
X109698476Y-44192884D01*
X109693717Y-44172240D01*
X109694703Y-44161004D01*
X109692753Y-44144525D01*
X109692753Y-36499500D01*
X109712281Y-36376202D01*
X109768955Y-36264974D01*
X109857227Y-36176702D01*
X109968455Y-36120028D01*
X110091753Y-36100500D01*
X155900500Y-36100500D01*
X156023798Y-36120028D01*
G37*
%TD.AperFunction*%
%TA.AperFunction,Conductor*%
G36*
X136414060Y-66629528D02*
G01*
X136525288Y-66686202D01*
X136613560Y-66774474D01*
X136670234Y-66885702D01*
X136689762Y-67009000D01*
X136670234Y-67132298D01*
X136659393Y-67161682D01*
X136658098Y-67164807D01*
X136582678Y-67396924D01*
X136544500Y-67637966D01*
X136544500Y-67882033D01*
X136582678Y-68123075D01*
X136658096Y-68355185D01*
X136768896Y-68572643D01*
X136912335Y-68770071D01*
X136912339Y-68770076D01*
X136912342Y-68770079D01*
X136912345Y-68770083D01*
X137060629Y-68918367D01*
X137134003Y-69019358D01*
X137172579Y-69138083D01*
X137172579Y-69262917D01*
X137134003Y-69381642D01*
X137060627Y-69482636D01*
X136959633Y-69556012D01*
X136840908Y-69594588D01*
X136778491Y-69599500D01*
X133749957Y-69599500D01*
X133626659Y-69579972D01*
X133515431Y-69523298D01*
X133427159Y-69435026D01*
X133370485Y-69323798D01*
X133350957Y-69200500D01*
X133370485Y-69077202D01*
X133427159Y-68965974D01*
X133515431Y-68877702D01*
X133626659Y-68821028D01*
X133687539Y-68806413D01*
X133779939Y-68791777D01*
X133808076Y-68787321D01*
X134040185Y-68711904D01*
X134257639Y-68601106D01*
X134368584Y-68520500D01*
X134455071Y-68457664D01*
X134455076Y-68457660D01*
X134455075Y-68457660D01*
X134455083Y-68457655D01*
X134627655Y-68285083D01*
X134630622Y-68281000D01*
X134771103Y-68087643D01*
X134771102Y-68087643D01*
X134771106Y-68087639D01*
X134881904Y-67870185D01*
X134957321Y-67638076D01*
X134995500Y-67397027D01*
X134995500Y-67152973D01*
X134982510Y-67070964D01*
X134982510Y-66946134D01*
X135021085Y-66827409D01*
X135094460Y-66726415D01*
X135195452Y-66653038D01*
X135314177Y-66614461D01*
X135382335Y-66611785D01*
X135382335Y-66610000D01*
X136290762Y-66610000D01*
X136414060Y-66629528D01*
G37*
%TD.AperFunction*%
%TA.AperFunction,Conductor*%
G36*
X142488478Y-66205412D02*
G01*
X142519881Y-66205412D01*
X142549745Y-66215115D01*
X142580762Y-66220028D01*
X142608741Y-66234284D01*
X142638606Y-66243988D01*
X142664010Y-66262445D01*
X142691990Y-66276702D01*
X142739599Y-66317364D01*
X142912736Y-66490500D01*
X143077926Y-66655690D01*
X143077929Y-66655692D01*
X143077930Y-66655693D01*
X143207618Y-66749917D01*
X143230801Y-66766760D01*
X143399168Y-66852547D01*
X143492653Y-66882922D01*
X143578878Y-66910939D01*
X143578879Y-66910939D01*
X143578882Y-66910940D01*
X143612912Y-66916329D01*
X143731635Y-66954904D01*
X143832629Y-67028279D01*
X143906006Y-67129272D01*
X143944583Y-67247996D01*
X143944584Y-67372831D01*
X143906009Y-67491556D01*
X143906008Y-67491559D01*
X143817222Y-67665810D01*
X143747628Y-67880000D01*
X145301000Y-67880000D01*
X145424298Y-67899528D01*
X145495849Y-67935985D01*
X145454394Y-67959920D01*
X145379920Y-68034394D01*
X145327259Y-68125606D01*
X145300000Y-68227339D01*
X145300000Y-68332661D01*
X145327259Y-68434394D01*
X145379920Y-68525606D01*
X145454394Y-68600080D01*
X145495849Y-68624014D01*
X145424298Y-68660472D01*
X145301000Y-68680000D01*
X143747628Y-68680000D01*
X143817223Y-68894194D01*
X143880998Y-69019358D01*
X143919575Y-69138082D01*
X143919575Y-69262917D01*
X143880999Y-69381642D01*
X143807623Y-69482635D01*
X143706629Y-69556011D01*
X143587905Y-69594588D01*
X143525487Y-69599500D01*
X140911509Y-69599500D01*
X140788211Y-69579972D01*
X140676983Y-69523298D01*
X140588711Y-69435026D01*
X140532037Y-69323798D01*
X140512509Y-69200500D01*
X140532037Y-69077202D01*
X140588711Y-68965974D01*
X140629367Y-68918370D01*
X140777655Y-68770083D01*
X140807674Y-68728766D01*
X140921103Y-68572643D01*
X140921102Y-68572643D01*
X140921106Y-68572639D01*
X141031904Y-68355185D01*
X141107321Y-68123076D01*
X141145500Y-67882027D01*
X141145500Y-67637973D01*
X141122309Y-67491556D01*
X141107321Y-67396924D01*
X141086575Y-67333075D01*
X141031904Y-67164815D01*
X140921106Y-66947361D01*
X140916121Y-66940500D01*
X140838764Y-66834026D01*
X140782090Y-66722797D01*
X140762562Y-66599499D01*
X140782091Y-66476201D01*
X140838765Y-66364973D01*
X140927036Y-66276702D01*
X141038265Y-66220028D01*
X141161562Y-66200500D01*
X142457464Y-66200500D01*
X142488478Y-66205412D01*
G37*
%TD.AperFunction*%
%TD*%
M02*
