M48
; DRILL file {KiCad 9.0.2-9.0.2-0~ubuntu22.04.1} date 2025-09-22T02:31:23+0200
; FORMAT={-:-/ absolute / metric / decimal}
; #@! TF.CreationDate,2025-09-22T02:31:23+02:00
; #@! TF.GenerationSoftware,Kicad,Pcbnew,9.0.2-9.0.2-0~ubuntu22.04.1
; #@! TF.FileFunction,Plated,1,2,PTH
FMAT,2
METRIC
; #@! TA.AperFunction,Plated,PTH,ComponentDrill
T1C0.700
; #@! TA.AperFunction,Plated,PTH,ComponentDrill
T2C0.800
; #@! TA.AperFunction,Plated,PTH,ComponentDrill
T3C1.300
%
G90
G05
T1
X110.625Y-52.775
X110.745Y-56.6
X120.2Y-52.8
X120.32Y-56.625
X121.54Y-60.0
X131.115Y-60.025
X135.94Y-57.2
X145.515Y-57.225
T2
X110.245Y-60.21
X110.245Y-62.75
X110.245Y-65.29
X110.245Y-67.83
X117.865Y-60.21
X117.865Y-62.75
X117.865Y-65.29
X117.865Y-67.83
X123.745Y-66.97
X124.4Y-55.8
X126.295Y-64.37
X126.32Y-69.67
X126.925Y-55.8
X129.475Y-55.8
X132.695Y-67.275
X132.745Y-64.775
X136.27Y-65.06
X138.82Y-62.46
X138.845Y-67.76
X145.7Y-60.66
X145.7Y-63.2
X145.7Y-65.74
X145.7Y-68.28
X153.32Y-60.66
X153.32Y-63.2
X153.32Y-65.74
X153.32Y-68.28
T3
X112.36Y-45.2
X117.44Y-45.2
X123.92Y-45.2
X129.0Y-45.2
X135.32Y-45.2
X140.4Y-45.2
X146.92Y-45.227
X152.0Y-45.227
M30
